<svg width="40" height="40" viewBox="0 0 40 40" fill="none" xmlns="http://www.w3.org/2000/svg">
<rect width="40" height="40" rx="20" fill="#F4603F"/>
<path d="M12.4048 23.5264L16.9348 28.0564C18.7948 29.9164 21.8148 29.9164 23.6848 28.0564L28.0748 23.6664C29.9348 21.8064 29.9348 18.7864 28.0748 16.9164L23.5348 12.3964C22.5848 11.4464 21.2748 10.9364 19.9348 11.0064L14.9348 11.2464C12.9348 11.3364 11.3448 12.9264 11.2448 14.9164L11.0048 19.9164C10.9448 21.2664 11.4548 22.5764 12.4048 23.5264Z" stroke="white" stroke-width="1.5" stroke-linecap="round" stroke-linejoin="round"/>
<path d="M17.7349 20.2264C19.1156 20.2264 20.2349 19.1071 20.2349 17.7264C20.2349 16.3457 19.1156 15.2264 17.7349 15.2264C16.3542 15.2264 15.2349 16.3457 15.2349 17.7264C15.2349 19.1071 16.3542 20.2264 17.7349 20.2264Z" stroke="white" stroke-width="1.5" stroke-linecap="round"/>
<path d="M21.2349 25.2264L25.2349 21.2264" stroke="white" stroke-width="1.5" stroke-miterlimit="10" stroke-linecap="round" stroke-linejoin="round"/>
</svg>
