<svg width="40" height="40" viewBox="0 0 40 40" fill="none" xmlns="http://www.w3.org/2000/svg">
<rect width="40" height="40" rx="20" fill="#F4603F"/>
<path d="M11.0098 19.22V23.71C11.0098 28.2 12.8098 30 17.2998 30H22.6898C27.1798 30 28.9798 28.2 28.9798 23.71V19.22" stroke="white" stroke-width="1.5" stroke-linecap="round" stroke-linejoin="round"/>
<path d="M20 20C21.83 20 23.18 18.51 23 16.68L22.34 10H17.67L17 16.68C16.82 18.51 18.17 20 20 20Z" stroke="white" stroke-width="1.5" stroke-linecap="round" stroke-linejoin="round"/>
<path d="M26.3098 20C28.3298 20 29.8098 18.36 29.6098 16.35L29.3298 13.6C28.9698 11 27.9698 10 25.3498 10H22.2998L22.9998 17.01C23.1698 18.66 24.6598 20 26.3098 20Z" stroke="white" stroke-width="1.5" stroke-linecap="round" stroke-linejoin="round"/>
<path d="M13.6399 20C15.2899 20 16.7799 18.66 16.9399 17.01L17.1599 14.8L17.6399 10H14.5899C11.9699 10 10.9699 11 10.6099 13.6L10.3399 16.35C10.1399 18.36 11.6199 20 13.6399 20Z" stroke="white" stroke-width="1.5" stroke-linecap="round" stroke-linejoin="round"/>
<path d="M20 25C18.33 25 17.5 25.83 17.5 27.5V30H22.5V27.5C22.5 25.83 21.67 25 20 25Z" stroke="white" stroke-width="1.5" stroke-linecap="round" stroke-linejoin="round"/>
</svg>
