<svg width="20" height="20" viewBox="0 0 20 20" fill="none" xmlns="http://www.w3.org/2000/svg">
<path d="M15.1166 18.0167C14.3833 18.2333 13.5166 18.3333 12.5 18.3333H7.49997C6.4833 18.3333 5.61663 18.2333 4.8833 18.0167C5.06663 15.85 7.29163 14.1416 9.99997 14.1416C12.7083 14.1416 14.9333 15.85 15.1166 18.0167Z" stroke="#F4603F" stroke-width="1.5" stroke-linecap="round" stroke-linejoin="round"/>
<path d="M12.4998 1.66666H7.49984C3.33317 1.66666 1.6665 3.33332 1.6665 7.49999V12.5C1.6665 15.65 2.6165 17.375 4.88317 18.0167C5.0665 15.85 7.2915 14.1416 9.99984 14.1416C12.7082 14.1416 14.9332 15.85 15.1165 18.0167C17.3832 17.375 18.3332 15.65 18.3332 12.5V7.49999C18.3332 3.33332 16.6665 1.66666 12.4998 1.66666ZM9.99984 11.8083C8.34984 11.8083 7.0165 10.4667 7.0165 8.81667C7.0165 7.16667 8.34984 5.83332 9.99984 5.83332C11.6498 5.83332 12.9832 7.16667 12.9832 8.81667C12.9832 10.4667 11.6498 11.8083 9.99984 11.8083Z" stroke="#F4603F" stroke-width="1.5" stroke-linecap="round" stroke-linejoin="round"/>
<path d="M12.9833 8.81669C12.9833 10.4667 11.6499 11.8083 9.99994 11.8083C8.34994 11.8083 7.0166 10.4667 7.0166 8.81669C7.0166 7.16669 8.34994 5.83334 9.99994 5.83334C11.6499 5.83334 12.9833 7.16669 12.9833 8.81669Z" stroke="#F4603F" stroke-width="1.5" stroke-linecap="round" stroke-linejoin="round"/>
</svg>
