<svg width="40" height="40" viewBox="0 0 40 40" fill="none" xmlns="http://www.w3.org/2000/svg">
<rect width="40" height="40" rx="20" fill="#F4603F"/>
<path d="M28 15.04V24.96C28 26.48 27.86 27.56 27.5 28.33C27.5 28.34 27.49 28.36 27.48 28.37C27.26 28.65 26.97 28.79 26.63 28.79C26.1 28.79 25.46 28.44 24.77 27.7C23.95 26.82 22.69 26.89 21.97 27.85L20.96 29.19C20.56 29.73 20.03 30 19.5 30C18.97 30 18.44 29.73 18.04 29.19L17.02 27.84C16.31 26.89 15.06 26.82 14.24 27.69L14.23 27.7C13.1 28.91 12.1 29.09 11.52 28.37C11.51 28.36 11.5 28.34 11.5 28.33C11.14 27.56 11 26.48 11 24.96V15.04C11 13.52 11.14 12.44 11.5 11.67C11.5 11.66 11.5 11.65 11.52 11.64C12.09 10.91 13.1 11.09 14.23 12.3L14.24 12.31C15.06 13.18 16.31 13.11 17.02 12.16L18.04 10.81C18.44 10.27 18.97 10 19.5 10C20.03 10 20.56 10.27 20.96 10.81L21.97 12.15C22.69 13.11 23.95 13.18 24.77 12.3C25.46 11.56 26.1 11.21 26.63 11.21C26.97 11.21 27.26 11.36 27.48 11.64C27.5 11.65 27.5 11.66 27.5 11.67C27.86 12.44 28 13.52 28 15.04Z" stroke="white" stroke-width="1.5" stroke-linecap="round" stroke-linejoin="round"/>
<path d="M16 18.25H24" stroke="white" stroke-width="1.5" stroke-linecap="round" stroke-linejoin="round"/>
<path d="M16 21.75H22" stroke="white" stroke-width="1.5" stroke-linecap="round" stroke-linejoin="round"/>
</svg>
