<svg width="40" height="40" viewBox="0 0 40 40" fill="none" xmlns="http://www.w3.org/2000/svg">
<rect width="40" height="40" rx="20" fill="#F4603F"/>
<path d="M27.108 30.1666C27.8573 30.1666 28.467 29.5569 28.467 28.8074V13.4057L30.6083 12.0745C31.2448 11.679 31.4407 10.8395 31.0453 10.203C30.8536 9.89466 30.5533 9.67933 30.1998 9.59675C29.8462 9.51399 29.4816 9.57423 29.1735 9.76612L26.7037 11.3013C26.1059 11.6728 25.749 12.315 25.749 13.019V28.8074C25.749 29.5569 26.3588 30.1666 27.108 30.1666ZM26.499 13.019C26.499 12.5761 26.7235 12.1719 27.0996 11.9381L29.5693 10.403C29.6671 10.3422 29.7775 10.311 29.8898 10.311C29.9363 10.311 29.983 10.3164 30.0293 10.3272C30.1879 10.3641 30.3223 10.4606 30.4083 10.5989C30.5854 10.8842 30.4977 11.2603 30.2124 11.4377L27.8941 12.8789C27.7841 12.9472 27.717 13.0677 27.717 13.1973V28.8074C27.717 29.1434 27.4438 29.4166 27.108 29.4166C26.7722 29.4166 26.499 29.1434 26.499 28.8074V13.019Z" fill="white" stroke="white" stroke-width="0.35"/>
<path d="M9.7666 16.4941H9.91345V20.3895C9.91343 20.3911 9.91254 20.3924 9.91254 20.394C9.91254 20.3956 9.91343 20.397 9.91345 20.3986V24.5287C9.91345 24.6269 9.92343 24.7225 9.92819 24.8195C9.92771 24.8272 9.92371 24.8338 9.92371 24.8417C9.92371 24.8548 9.92986 24.8659 9.93119 24.8787C10.114 27.9744 12.6843 30.4388 15.8268 30.4388H17.5378C20.6843 30.4388 23.2568 27.9655 23.431 24.8618C23.4314 24.8547 23.4351 24.8488 23.4351 24.8417C23.4351 24.8374 23.4328 24.8339 23.4326 24.8296C23.4377 24.7293 23.4479 24.6303 23.4479 24.5287V16.4941H23.6628C24.2233 16.4941 24.6794 16.0365 24.6794 15.4742V14.3074C24.6794 13.7469 24.2233 13.2908 23.6628 13.2908H22.8659L22.2249 11.8815C21.9528 11.282 21.3528 10.8945 20.6962 10.8945H12.7331C12.0767 10.8945 11.4766 11.282 11.2047 11.8811L10.5635 13.2908H9.7666C9.20612 13.2908 8.75 13.7469 8.75 14.3074V15.4742C8.75 16.0365 9.20612 16.4941 9.7666 16.4941ZM11.8875 12.1913C12.0382 11.8591 12.3702 11.6445 12.7331 11.6445H20.6962C21.0593 11.6445 21.3912 11.8591 21.5421 12.1917L22.0418 13.2903H11.3876L11.8875 12.1913ZM13.6664 20.769C13.853 22.2866 15.1476 23.4664 16.7147 23.4664C18.2819 23.4664 19.5765 22.2866 19.763 20.769H22.6979V24.4667H10.6635V20.769H13.6664ZM14.3909 20.3926C14.3909 19.1112 15.4333 18.0688 16.7147 18.0688C17.9961 18.0688 19.0385 19.1112 19.0385 20.3926C19.0385 21.674 17.9961 22.7164 16.7147 22.7164C15.4333 22.7164 14.3909 21.674 14.3909 20.3926ZM17.5378 29.6888H15.8268C13.2137 29.6888 11.0532 27.7371 10.7148 25.2167H22.6465C22.3084 27.7371 20.1493 29.6888 17.5378 29.6888ZM22.6979 20.019H19.7635C19.5783 18.5001 18.2829 17.3188 16.7147 17.3188C15.1466 17.3188 13.8512 18.5001 13.666 20.019H10.6635V16.4941H22.6979V20.019ZM9.5 14.3074C9.5 14.1604 9.61957 14.0408 9.7666 14.0408H23.6628C23.8099 14.0408 23.9294 14.1604 23.9294 14.3074V15.4742C23.9294 15.623 23.8099 15.7441 23.6628 15.7441H23.0729H10.2885H9.7666C9.61957 15.7441 9.5 15.623 9.5 15.4742V14.3074Z" fill="white" stroke="white" stroke-width="0.35"/>
</svg>
