<svg width="32" height="32" viewBox="0 0 32 32" fill="none" xmlns="http://www.w3.org/2000/svg">
<rect width="32" height="32" rx="16" fill="#FEF4F2"/>
<path d="M25.2985 10.4653L16.4686 7.03189C16.3593 6.98937 16.2381 6.98937 16.1289 7.03189L7.29883 10.4653C7.11872 10.5353 7 10.7087 7 10.902V21.0981C7 21.2913 7.11866 21.4647 7.29883 21.5348L16.1289 24.9681C16.1835 24.9894 16.2411 25 16.2987 25C16.3563 25 16.4139 24.9894 16.4685 24.9681L25.2985 21.5348C25.4786 21.4647 25.5973 21.2913 25.5973 21.0981V10.902C25.5973 10.7087 25.4787 10.5353 25.2985 10.4653ZM16.2986 13.8326L14.6686 13.1988C17.1809 12.222 19.6932 11.2451 22.2056 10.2681L23.8358 10.902L16.2986 13.8326ZM11.6846 12.0385L19.2215 9.10782L20.9127 9.76539C18.4003 10.7424 15.8881 11.7193 13.3757 12.6961L11.6846 12.0385ZM10.8603 12.7235L12.907 13.5194V14.89L12.1227 14.222C12.0002 14.1178 11.8331 14.0836 11.6797 14.1313L10.8602 14.3861V12.7235H10.8603ZM16.2987 7.97137L17.9285 8.6051L10.3917 11.5359L8.76152 10.902L16.2987 7.97137ZM7.93713 11.5869L9.92309 12.3591V14.8632C9.92309 15.0487 10.0122 15.2251 10.1614 15.3351C10.3106 15.4449 10.5055 15.4777 10.6829 15.4226L11.7115 15.1028L12.8783 16.0965C12.9862 16.1884 13.1221 16.2362 13.2591 16.2362C13.3423 16.2362 13.4259 16.2187 13.504 16.1826C13.7106 16.0872 13.8442 15.8784 13.8442 15.6506V13.8837L15.8301 14.6559V23.8466L7.93713 20.7776V11.5869ZM16.7673 23.8466V14.6559L24.6602 11.5869V20.7776L16.7673 23.8466Z" fill="#F4603F"/>
</svg>
