<svg width="40" height="40" viewBox="0 0 40 40" fill="none" xmlns="http://www.w3.org/2000/svg">
<rect width="40" height="40" rx="20" fill="#F4603F"/>
<path d="M17 30H23C28 30 30 28 30 23V17C30 12 28 10 23 10H17C12 10 10 12 10 17V23C10 28 12 30 17 30Z" stroke="white" stroke-width="1.5" stroke-linecap="round" stroke-linejoin="round"/>
<path d="M14.7 17.2598L19.9999 20.3298L25.2599 17.2798" stroke="white" stroke-width="1.5" stroke-linecap="round" stroke-linejoin="round"/>
<path d="M20 25.7703V20.3203" stroke="white" stroke-width="1.5" stroke-linecap="round" stroke-linejoin="round"/>
<path d="M18.76 14.2899L15.56 16.0699C14.84 16.4699 14.24 17.4799 14.24 18.3099V21.6999C14.24 22.5299 14.83 23.5399 15.56 23.9399L18.76 25.7199C19.44 26.0999 20.56 26.0999 21.25 25.7199L24.45 23.9399C25.17 23.5399 25.77 22.5299 25.77 21.6999V18.2999C25.77 17.4699 25.18 16.4599 24.45 16.0599L21.25 14.2799C20.56 13.8999 19.44 13.8999 18.76 14.2899Z" stroke="white" stroke-width="1.5" stroke-linecap="round" stroke-linejoin="round"/>
</svg>
