<svg width="32" height="32" viewBox="0 0 32 32" fill="none" xmlns="http://www.w3.org/2000/svg">
<rect width="32" height="32" rx="16" fill="#FEF4F2"/>
<path d="M9.67063 18.9386L13.4456 22.7136C14.9956 24.2636 17.5123 24.2636 19.0706 22.7136L22.729 19.0553C24.279 17.5053 24.279 14.9886 22.729 13.4303L18.9456 9.66364C18.154 8.87197 17.0623 8.44697 15.9456 8.50531L11.779 8.70531C10.1123 8.78031 8.7873 10.1053 8.70396 11.7636L8.50396 15.9303C8.45396 17.0553 8.87896 18.147 9.67063 18.9386Z" stroke="#F4603F" stroke-width="1.2" stroke-linecap="round" stroke-linejoin="round"/>
<path d="M14.1126 16.1882C15.2632 16.1882 16.196 15.2554 16.196 14.1048C16.196 12.9542 15.2632 12.0215 14.1126 12.0215C12.962 12.0215 12.0293 12.9542 12.0293 14.1048C12.0293 15.2554 12.962 16.1882 14.1126 16.1882Z" stroke="#F4603F" stroke-width="1.2" stroke-linecap="round"/>
<path d="M17.0293 20.3548L20.3626 17.0215" stroke="#F4603F" stroke-width="1.2" stroke-miterlimit="10" stroke-linecap="round" stroke-linejoin="round"/>
</svg>
