<svg width="32" height="32" viewBox="0 0 32 32" fill="none" xmlns="http://www.w3.org/2000/svg">
<rect width="32" height="32" rx="16" fill="#FEF4F2"/>
<path d="M7.66602 7.66602H9.11602C10.016 7.66602 10.7244 8.44102 10.6494 9.33268L9.95768 17.6327C9.84102 18.991 10.916 20.1577 12.2827 20.1577H21.1577C22.3577 20.1577 23.4077 19.1744 23.4993 17.9827L23.9493 11.7327C24.0493 10.3494 22.9993 9.22434 21.6077 9.22434H10.8494" stroke="#F4603F" stroke-width="1.2" stroke-miterlimit="10" stroke-linecap="round" stroke-linejoin="round"/>
<path d="M19.5417 24.3333C20.117 24.3333 20.5833 23.867 20.5833 23.2917C20.5833 22.7164 20.117 22.25 19.5417 22.25C18.9664 22.25 18.5 22.7164 18.5 23.2917C18.5 23.867 18.9664 24.3333 19.5417 24.3333Z" stroke="#F4603F" stroke-width="1.2" stroke-miterlimit="10" stroke-linecap="round" stroke-linejoin="round"/>
<path d="M12.8757 24.3333C13.4509 24.3333 13.9173 23.867 13.9173 23.2917C13.9173 22.7164 13.4509 22.25 12.8757 22.25C12.3004 22.25 11.834 22.7164 11.834 23.2917C11.834 23.867 12.3004 24.3333 12.8757 24.3333Z" stroke="#F4603F" stroke-width="1.2" stroke-miterlimit="10" stroke-linecap="round" stroke-linejoin="round"/>
<path d="M13.5 12.666H23.5" stroke="#F4603F" stroke-width="1.2" stroke-miterlimit="10" stroke-linecap="round" stroke-linejoin="round"/>
</svg>
