<svg width="350" height="132" viewBox="0 0 350 132" fill="none" xmlns="http://www.w3.org/2000/svg">
<rect width="350" height="132" rx="6" fill="#F4603F"/>
<g clip-path="url(#clip0_2675_20636)">
<path d="M352.357 85.2138L358.272 78.8794C359.8 77.2439 359.8 74.5921 358.272 72.9565L332.293 45.1383C330.766 43.5027 328.289 43.5027 326.762 45.1383L320.846 51.4726C319.319 53.1082 319.319 55.76 320.846 57.3956L346.825 85.2138C348.353 86.8493 350.829 86.8493 352.357 85.2138Z" fill="white" fill-opacity="0.1"/>
<path d="M351.228 124.692L359.723 115.596C360.538 114.723 360.538 113.308 359.723 112.435L334.604 85.5375C333.789 84.6646 332.467 84.6646 331.652 85.5375L323.157 94.6337C322.342 95.5066 322.342 96.9219 323.157 97.7948L348.276 124.692C349.091 125.565 350.413 125.565 351.228 124.692Z" fill="white" fill-opacity="0.1"/>
<path d="M294.47 66.7053L302.311 58.3098C303.307 57.2434 303.307 55.5144 302.311 54.448L294.47 46.0525C293.474 44.9861 291.86 44.9861 290.864 46.0525L283.023 54.4481C282.028 55.5144 282.028 57.2434 283.023 58.3098L290.864 66.7053C291.86 67.7717 293.474 67.7717 294.47 66.7053Z" fill="white" fill-opacity="0.1"/>
<path d="M344.886 16.8468L354.624 16.8468C355.805 16.8469 356.975 17.0963 358.066 17.5807C359.157 18.065 360.148 18.7749 360.983 19.6697L366.024 25.0445C366.245 25.2818 366.508 25.47 366.797 25.5984C367.085 25.7269 367.395 25.793 367.708 25.793C368.021 25.793 368.331 25.7269 368.62 25.5984C368.909 25.47 369.171 25.2818 369.392 25.0445L377.607 16.2707C377.829 16.0342 378.005 15.7532 378.125 15.4438C378.244 15.1343 378.306 14.8026 378.306 14.4676C378.306 14.1326 378.244 13.8008 378.125 13.4914C378.005 13.182 377.829 12.901 377.607 12.6644L369.397 3.87338C369.177 3.63614 368.914 3.44791 368.625 3.31948C368.336 3.19104 368.026 3.12493 367.713 3.12493C367.401 3.12493 367.091 3.19104 366.802 3.31948C366.513 3.44791 366.25 3.63614 366.03 3.87338L360.989 9.27129C360.154 10.1661 359.162 10.8759 358.071 11.3603C356.98 11.8446 355.811 12.094 354.629 12.0941L344.892 12.0941C343.71 12.0949 342.541 11.846 341.449 11.3616C340.358 10.8772 339.367 10.1668 338.533 9.27129L333.492 3.87337C333.271 3.63614 333.008 3.44791 332.719 3.31948C332.43 3.19104 332.12 3.12493 331.808 3.12493C331.495 3.12493 331.185 3.19104 330.896 3.31948C330.607 3.44791 330.345 3.63614 330.124 3.87337L321.914 12.6644C321.692 12.901 321.516 13.182 321.397 13.4914C321.277 13.8008 321.215 14.1326 321.215 14.4676C321.215 14.8026 321.277 15.1343 321.397 15.4438C321.516 15.7532 321.692 16.0342 321.914 16.2707L330.118 25.0445C330.339 25.2818 330.602 25.47 330.891 25.5984C331.18 25.7269 331.489 25.793 331.802 25.793C332.115 25.793 332.425 25.7269 332.714 25.5984C333.003 25.47 333.265 25.2818 333.486 25.0445L338.527 19.6466C339.363 18.7552 340.355 18.0491 341.446 17.5687C342.538 17.0883 343.706 16.843 344.886 16.8468Z" fill="white" fill-opacity="0.1"/>
<path d="M315.076 101.52L315.076 91.0928C315.078 88.5398 316.024 86.0912 317.707 84.2835L322.748 78.8856C322.97 78.649 323.146 78.368 323.266 78.0586C323.386 77.7492 323.447 77.4175 323.447 77.0824C323.447 76.7474 323.386 76.4157 323.266 76.1063C323.146 75.7969 322.97 75.5158 322.748 75.2793L314.539 66.4882C314.318 66.251 314.055 66.0628 313.766 65.9343C313.477 65.8059 313.167 65.7398 312.855 65.7398C312.542 65.7398 312.232 65.8059 311.943 65.9343C311.654 66.0628 311.392 66.251 311.171 66.4882L302.961 75.2793C302.739 75.5158 302.563 75.7969 302.444 76.1063C302.324 76.4157 302.262 76.7474 302.262 77.0824C302.262 77.4175 302.324 77.7492 302.444 78.0586C302.563 78.368 302.739 78.649 302.961 78.8856L308.002 84.2835C309.685 86.0912 310.632 88.5398 310.633 91.0928L310.633 101.52C310.633 104.073 309.686 106.522 308.002 108.329L302.961 113.727C302.739 113.964 302.563 114.245 302.444 114.554C302.324 114.864 302.262 115.195 302.262 115.53C302.262 115.865 302.324 116.197 302.444 116.507C302.563 116.816 302.739 117.097 302.961 117.334L311.171 126.125C311.392 126.362 311.654 126.55 311.943 126.679C312.232 126.807 312.542 126.873 312.855 126.873C313.167 126.873 313.477 126.807 313.766 126.679C314.055 126.55 314.318 126.362 314.539 126.125L322.732 117.334C322.954 117.097 323.13 116.816 323.249 116.507C323.369 116.197 323.431 115.865 323.431 115.53C323.431 115.195 323.369 114.864 323.249 114.554C323.13 114.245 322.954 113.964 322.732 113.727L317.691 108.329C316.012 106.519 315.072 104.071 315.076 101.52Z" fill="white" fill-opacity="0.1"/>
<path d="M351.973 61.5923L351.973 51.1651C351.973 49.9003 352.206 48.6479 352.658 47.4796C353.11 46.3112 353.773 45.2497 354.609 44.3558L359.65 38.9579C359.872 38.7213 360.047 38.4403 360.167 38.1309C360.287 37.8214 360.349 37.4897 360.349 37.1547C360.349 36.8197 360.287 36.488 360.167 36.1786C360.047 35.8691 359.872 35.5881 359.65 35.3516L351.44 26.5605C351.219 26.3233 350.957 26.135 350.668 26.0066C350.379 25.8782 350.069 25.8121 349.756 25.8121C349.443 25.8121 349.134 25.8782 348.845 26.0066C348.556 26.135 348.293 26.3233 348.072 26.5605L339.857 35.3516C339.412 35.8308 339.163 36.479 339.163 37.1547C339.163 37.8304 339.412 38.4786 339.857 38.9579L344.898 44.3558C345.734 45.2497 346.397 46.3112 346.849 47.4796C347.301 48.6479 347.534 49.9003 347.534 51.1651L347.534 61.5923C347.535 62.8571 347.302 64.1096 346.849 65.278C346.397 66.4464 345.734 67.5079 344.898 68.4016L339.857 73.7995C339.412 74.2787 339.163 74.927 339.163 75.6027C339.163 76.2783 339.412 76.9266 339.857 77.4058L348.072 86.1969C348.293 86.4341 348.556 86.6223 348.845 86.7508C349.134 86.8792 349.443 86.9453 349.756 86.9453C350.069 86.9453 350.379 86.8792 350.668 86.7508C350.957 86.6223 351.219 86.4341 351.44 86.1969L359.65 77.4058C359.872 77.1693 360.047 76.8882 360.167 76.5788C360.287 76.2694 360.349 75.9377 360.349 75.6027C360.349 75.2676 360.287 74.9359 360.167 74.6265C360.047 74.3171 359.872 74.0361 359.65 73.7995L354.609 68.4016C353.773 67.5079 353.11 66.4464 352.658 65.278C352.205 64.1096 351.973 62.8571 351.973 61.5923Z" fill="white" fill-opacity="0.1"/>
<path d="M362.84 77.9819L372.578 77.9819C374.962 77.9831 377.249 78.9961 378.937 80.7989L383.978 86.1969C384.199 86.4341 384.462 86.6223 384.751 86.7508C385.04 86.8792 385.349 86.9453 385.662 86.9453C385.975 86.9453 386.285 86.8792 386.574 86.7508C386.863 86.6223 387.125 86.4341 387.346 86.1969L395.556 77.4058C395.778 77.1693 395.953 76.8882 396.073 76.5788C396.193 76.2694 396.255 75.9377 396.255 75.6027C396.255 75.2676 396.193 74.9359 396.073 74.6265C395.953 74.3171 395.778 74.0361 395.556 73.7995L387.346 65.0084C387.125 64.7712 386.863 64.583 386.574 64.4545C386.285 64.3261 385.975 64.26 385.662 64.26C385.349 64.26 385.04 64.3261 384.751 64.4545C384.462 64.583 384.199 64.7712 383.978 65.0084L378.937 70.4064C377.249 72.2092 374.962 73.2222 372.578 73.2234L362.84 73.2234C361.66 73.2241 360.49 72.9756 359.399 72.4923C358.308 72.0089 357.316 71.3001 356.481 70.4064L351.44 65.0084C351.219 64.7712 350.957 64.583 350.668 64.4545C350.379 64.3261 350.069 64.26 349.756 64.26C349.443 64.26 349.134 64.3261 348.845 64.4545C348.556 64.583 348.293 64.7712 348.072 65.0084L339.857 73.7995C339.412 74.2787 339.163 74.927 339.163 75.6027C339.163 76.2783 339.412 76.9266 339.857 77.4058L348.072 86.1969C348.293 86.4341 348.556 86.6223 348.845 86.7508C349.134 86.8792 349.443 86.9453 349.756 86.9453C350.069 86.9453 350.379 86.8792 350.668 86.7508C350.957 86.6223 351.219 86.4341 351.44 86.1969L356.481 80.7989C357.316 79.9052 358.308 79.1964 359.399 78.7131C360.49 78.2297 361.66 77.9813 362.84 77.9819Z" fill="white" fill-opacity="0.1"/>
<path d="M261.8 73.2234L252.062 73.2234C249.678 73.2222 247.391 72.2092 245.703 70.4064L240.662 65.0084C240.441 64.7712 240.179 64.583 239.89 64.4545C239.601 64.3261 239.291 64.26 238.978 64.26C238.665 64.26 238.355 64.3261 238.066 64.4545C237.777 64.583 237.515 64.7712 237.294 65.0084L229.084 73.7995C228.863 74.0361 228.687 74.3171 228.567 74.6265C228.447 74.9359 228.385 75.2676 228.385 75.6027C228.385 75.9377 228.447 76.2694 228.567 76.5788C228.687 76.8882 228.863 77.1693 229.084 77.4058L237.294 86.1969C237.515 86.4341 237.777 86.6223 238.066 86.7508C238.355 86.8792 238.665 86.9453 238.978 86.9453C239.291 86.9453 239.601 86.8792 239.89 86.7508C240.179 86.6223 240.441 86.4341 240.662 86.1969L245.703 80.7989C247.391 78.9961 249.678 77.9831 252.062 77.9819L261.8 77.9819C264.184 77.9819 266.471 78.995 268.159 80.7989L273.2 86.1969C273.421 86.4341 273.683 86.6223 273.972 86.7508C274.261 86.8792 274.571 86.9453 274.884 86.9453C275.197 86.9453 275.507 86.8792 275.796 86.7508C276.084 86.6223 276.347 86.4341 276.568 86.1969L284.778 77.4058C284.999 77.1693 285.175 76.8882 285.295 76.5788C285.415 76.2694 285.477 75.9377 285.477 75.6027C285.477 75.2676 285.415 74.9359 285.295 74.6265C285.175 74.3171 284.999 74.0361 284.778 73.7995L276.568 65.0084C276.347 64.7712 276.084 64.583 275.796 64.4545C275.507 64.3261 275.197 64.26 274.884 64.26C274.571 64.26 274.261 64.3261 273.972 64.4545C273.683 64.583 273.421 64.7712 273.2 65.0084L268.159 70.4064C266.471 72.2103 264.184 73.2235 261.8 73.2234Z" fill="white" fill-opacity="0.1"/>
<path d="M297.534 32.7883L287.797 32.7883C286.615 32.7882 285.446 32.5388 284.355 32.0544C283.264 31.5701 282.272 30.8602 281.438 29.9655L276.396 24.5675C276.176 24.3303 275.913 24.1421 275.624 24.0136C275.335 23.8852 275.025 23.8191 274.713 23.8191C274.4 23.8191 274.09 23.8852 273.801 24.0136C273.512 24.1421 273.25 24.3303 273.029 24.5675L264.819 33.3586C264.372 33.8381 264.122 34.4875 264.122 35.1646C264.122 35.8417 264.372 36.4912 264.819 36.9707L273.029 45.7848C273.25 46.022 273.512 46.2102 273.801 46.3387C274.09 46.4671 274.4 46.5332 274.713 46.5332C275.025 46.5332 275.335 46.4671 275.624 46.3387C275.913 46.2102 276.176 46.022 276.396 45.7848L281.438 40.3868C282.272 39.4921 283.264 38.7822 284.355 38.2978C285.446 37.8135 286.615 37.5641 287.797 37.564L297.534 37.564C298.716 37.5638 299.885 37.813 300.976 38.2974C302.068 38.7818 303.059 39.4918 303.894 40.3868L308.935 45.7848C309.155 46.022 309.418 46.2102 309.707 46.3387C309.996 46.4671 310.306 46.5332 310.618 46.5332C310.931 46.5332 311.241 46.4671 311.53 46.3387C311.819 46.2102 312.081 46.022 312.302 45.7848L320.512 36.9937C320.959 36.5142 321.209 35.8648 321.209 35.1877C321.209 34.5106 320.959 33.8611 320.512 33.3816L312.302 24.5906C312.081 24.3533 311.819 24.1651 311.53 24.0367C311.241 23.9082 310.931 23.8421 310.618 23.8421C310.306 23.8421 309.996 23.9082 309.707 24.0367C309.418 24.1651 309.155 24.3533 308.935 24.5906L303.904 29.9655C303.068 30.8619 302.075 31.5727 300.982 32.0571C299.889 32.5415 298.717 32.79 297.534 32.7883Z" fill="white" fill-opacity="0.1"/>
</g>
<path fill-rule="evenodd" clip-rule="evenodd" d="M285.092 58.276L303.074 68.6579C303.267 68.7697 303.47 68.8505 303.677 68.9017V89.037L286.374 78.7971C285.579 78.3267 285.092 77.4716 285.092 76.5479V58.276ZM326.909 58V76.5479C326.909 77.4716 326.421 78.3267 325.626 78.7971L308.324 89.037V68.7253C308.366 68.7043 308.407 68.6818 308.449 68.6579L326.909 58Z" fill="white"/>
<path fill-rule="evenodd" clip-rule="evenodd" d="M285.584 54.7785C285.805 54.5 286.083 54.2646 286.407 54.0918L304.776 44.308C305.548 43.8973 306.473 43.8973 307.244 44.308L325.613 54.0918C325.863 54.225 326.086 54.3954 326.276 54.5941L306.136 66.2218C306.003 66.2982 305.881 66.3857 305.77 66.4824C305.659 66.3857 305.537 66.2982 305.404 66.2218L285.584 54.7785Z" fill="#FFB3A2"/>
<defs>
<clipPath id="clip0_2675_20636">
<rect width="169" height="132" fill="white" transform="translate(181)"/>
</clipPath>
</defs>
</svg>
