<svg width="32" height="32" viewBox="0 0 32 32" fill="none" xmlns="http://www.w3.org/2000/svg">
<g clip-path="url(#clip0_2419_22755)">
<path d="M28.7849 30.1245V7.12966H23.9361V0L8.06346 4.45033V10.8237H3.21453V30.1245H1.24512V32H30.7543V30.1245H28.7849ZM5.08999 30.1245V12.6992H12.9664V30.1245H5.08999ZM14.8418 30.1245V10.8237H9.93885V5.8723L22.0605 2.47366L22.0334 30.1246H14.8418V30.1245ZM23.936 30.1245V9.00512H26.9094V30.1245H23.936Z" fill="#F4603F"/>
<path d="M8.09082 15.6611H9.96627V19.4334H8.09082V15.6611Z" fill="#F4603F"/>
<path d="M8.09082 22.5508H9.96627V26.323H8.09082V22.5508Z" fill="#F4603F"/>
<path d="M17.1572 15.6611H19.0327V19.4334H17.1572V15.6611Z" fill="#F4603F"/>
<path d="M17.1572 8.77148H19.0327V12.5437H17.1572V8.77148Z" fill="#F4603F"/>
<path d="M17.1572 22.5508H19.0327V26.323H17.1572V22.5508Z" fill="#F4603F"/>
</g>
<defs>
<clipPath id="clip0_2419_22755">
<rect width="32" height="32" fill="white"/>
</clipPath>
</defs>
</svg>
