<svg width="24" height="24" viewBox="0 0 24 24" fill="none" xmlns="http://www.w3.org/2000/svg">
<path d="M12.1207 12.7805C12.0507 12.7705 11.9607 12.7705 11.8807 12.7805C10.1207 12.7205 8.7207 11.2805 8.7207 9.51047C8.7207 7.70047 10.1807 6.23047 12.0007 6.23047C13.8107 6.23047 15.2807 7.70047 15.2807 9.51047C15.2707 11.2805 13.8807 12.7205 12.1207 12.7805Z" stroke="#F4603F" stroke-width="1.5" stroke-linecap="round" stroke-linejoin="round"/>
<path d="M18.7398 19.3796C16.9598 21.0096 14.5998 21.9996 11.9998 21.9996C9.39977 21.9996 7.03977 21.0096 5.25977 19.3796C5.35977 18.4396 5.95977 17.5196 7.02977 16.7996C9.76977 14.9796 14.2498 14.9796 16.9698 16.7996C18.0398 17.5196 18.6398 18.4396 18.7398 19.3796Z" stroke="#F4603F" stroke-width="1.5" stroke-linecap="round" stroke-linejoin="round"/>
<path d="M12 22C17.5228 22 22 17.5228 22 12C22 6.47715 17.5228 2 12 2C6.47715 2 2 6.47715 2 12C2 17.5228 6.47715 22 12 22Z" stroke="#F4603F" stroke-width="1.5" stroke-linecap="round" stroke-linejoin="round"/>
</svg>
