<svg width="169" height="100" viewBox="0 0 169 100" fill="none" xmlns="http://www.w3.org/2000/svg">
<rect width="169" height="100" rx="8" fill="white"/>
<g clip-path="url(#clip0_1223_481)">
<path d="M175.504 67.2173L180.133 62.6432C180.721 62.0622 180.721 61.1203 180.133 60.5393L175.504 55.9652C174.916 55.3843 173.963 55.3843 173.375 55.9652L168.746 60.5393C168.158 61.1203 168.158 62.0622 168.746 62.6432L173.375 67.2172C173.963 67.7982 174.916 67.7982 175.504 67.2173Z" fill="#FEF4F2"/>
<path d="M165.375 77.3034L168.867 73.8523C169.769 72.9612 169.769 71.5165 168.867 70.6254L153.53 55.4696C152.628 54.5785 151.166 54.5785 150.264 55.4696L146.772 58.9206C145.87 59.8117 145.87 61.2565 146.772 62.1475L162.109 77.3034C163.011 78.1944 164.473 78.1944 165.375 77.3034Z" fill="#FEF4F2"/>
<path d="M164.71 98.8131L169.725 93.8573C170.206 93.3817 170.206 92.6107 169.725 92.1351L154.895 77.4809C154.414 77.0053 153.633 77.0053 153.152 77.4808L148.137 82.4366C147.656 82.9122 147.656 83.6832 148.137 84.1588L162.967 98.813C163.448 99.2886 164.228 99.2886 164.71 98.8131Z" fill="#FEF4F2"/>
<path d="M131.201 67.2187L135.829 62.6446C136.417 62.0636 136.417 61.1217 135.829 60.5407L131.201 55.9666C130.613 55.3857 129.659 55.3857 129.072 55.9666L124.443 60.5407C123.855 61.1217 123.855 62.0636 124.443 62.6446L129.072 67.2187C129.659 67.7996 130.613 67.7996 131.201 67.2187Z" fill="#FFD2C8"/>
<path d="M160.966 40.056L166.715 40.056C167.412 40.056 168.102 40.1919 168.747 40.4558C169.391 40.7197 169.976 41.1064 170.469 41.5939L173.445 44.5222C173.575 44.6515 173.73 44.754 173.901 44.824C174.072 44.894 174.254 44.93 174.439 44.93C174.624 44.93 174.807 44.894 174.977 44.824C175.148 44.754 175.303 44.6515 175.433 44.5222L180.283 39.7421C180.414 39.6132 180.518 39.4601 180.589 39.2916C180.66 39.123 180.696 38.9423 180.696 38.7597C180.696 38.5772 180.66 38.3965 180.589 38.2279C180.518 38.0593 180.414 37.9062 180.283 37.7773L175.436 32.9878C175.306 32.8586 175.151 32.756 174.981 32.6861C174.81 32.6161 174.627 32.5801 174.442 32.5801C174.258 32.5801 174.075 32.6161 173.904 32.6861C173.734 32.756 173.579 32.8586 173.448 32.9878L170.472 35.9287C169.979 36.4162 169.394 36.8029 168.75 37.0668C168.106 37.3307 167.415 37.4666 166.718 37.4666L160.969 37.4666C160.271 37.4671 159.581 37.3315 158.937 37.0675C158.292 36.8036 157.707 36.4166 157.215 35.9287L154.239 32.9878C154.108 32.8586 153.953 32.756 153.783 32.6861C153.612 32.6161 153.429 32.5801 153.244 32.5801C153.06 32.5801 152.877 32.6161 152.706 32.6861C152.536 32.756 152.381 32.8586 152.25 32.9878L147.403 37.7773C147.273 37.9062 147.169 38.0593 147.098 38.2279C147.027 38.3965 146.991 38.5772 146.991 38.7597C146.991 38.9423 147.027 39.123 147.098 39.2916C147.169 39.4601 147.273 39.6132 147.403 39.7421L152.247 44.5222C152.377 44.6515 152.532 44.754 152.703 44.824C152.874 44.894 153.057 44.93 153.241 44.93C153.426 44.93 153.609 44.894 153.779 44.824C153.95 44.754 154.105 44.6515 154.235 44.5222L157.211 41.5813C157.705 41.0957 158.291 40.711 158.935 40.4493C159.579 40.1875 160.269 40.0539 160.966 40.056Z" fill="#FFD2C8"/>
<path d="M188.379 83.127L182.631 83.127C181.223 83.127 179.873 82.5751 178.876 81.5922L175.9 78.6514C175.77 78.5221 175.615 78.4196 175.444 78.3496C175.274 78.2796 175.091 78.2436 174.906 78.2436C174.721 78.2436 174.538 78.2796 174.368 78.3496C174.197 78.4196 174.042 78.5221 173.912 78.6514L169.065 83.4409C168.934 83.5698 168.83 83.7229 168.76 83.8915C168.689 84.06 168.652 84.2408 168.652 84.4233C168.652 84.6058 168.689 84.7865 168.76 84.9551C168.83 85.1237 168.934 85.2768 169.065 85.4057L173.912 90.1952C174.042 90.3244 174.197 90.427 174.368 90.4969C174.538 90.5669 174.721 90.6029 174.906 90.6029C175.091 90.6029 175.274 90.5669 175.444 90.4969C175.615 90.427 175.77 90.3244 175.9 90.1952L178.876 87.2543C179.873 86.2715 181.223 85.7195 182.631 85.7195L188.379 85.7195C189.787 85.7202 191.137 86.2721 192.134 87.2543L195.11 90.1952C195.24 90.3244 195.395 90.427 195.566 90.4969C195.736 90.5669 195.919 90.6029 196.104 90.6029C196.289 90.6029 196.472 90.5669 196.642 90.4969C196.813 90.427 196.968 90.3244 197.098 90.1952L201.945 85.4057C202.076 85.2768 202.18 85.1237 202.25 84.9551C202.321 84.7865 202.358 84.6058 202.358 84.4233C202.358 84.2408 202.321 84.06 202.25 83.8915C202.18 83.7229 202.076 83.5698 201.945 83.4409L197.098 78.6514C196.968 78.5221 196.813 78.4196 196.642 78.3496C196.472 78.2796 196.289 78.2436 196.104 78.2436C195.919 78.2436 195.736 78.2796 195.566 78.3496C195.395 78.4196 195.24 78.5221 195.11 78.6514L192.134 81.5922C191.137 82.5745 189.787 83.1264 188.379 83.127Z" fill="#FEF4F2"/>
<path d="M143.367 86.1871L143.367 80.5063C143.367 79.1153 143.926 77.7813 144.92 76.7964L147.896 73.8555C148.027 73.7267 148.131 73.5736 148.201 73.405C148.272 73.2364 148.309 73.0557 148.309 72.8732C148.309 72.6906 148.272 72.5099 148.201 72.3413C148.131 72.1728 148.027 72.0197 147.896 71.8908L143.049 67.1013C142.919 66.972 142.764 66.8695 142.593 66.7995C142.423 66.7295 142.24 66.6935 142.055 66.6935C141.87 66.6935 141.687 66.7295 141.517 66.7995C141.346 66.8695 141.191 66.972 141.061 67.1013L136.214 71.8908C136.083 72.0197 135.979 72.1728 135.909 72.3413C135.838 72.5099 135.801 72.6906 135.801 72.8732C135.801 73.0557 135.838 73.2364 135.909 73.405C135.979 73.5736 136.083 73.7267 136.214 73.8555L139.19 76.7964C140.184 77.7813 140.743 79.1153 140.743 80.5063L140.743 86.1871C140.743 87.5782 140.185 88.9125 139.19 89.897L136.214 92.8378C136.083 92.9667 135.979 93.1198 135.909 93.2884C135.838 93.457 135.801 93.6377 135.801 93.8202C135.801 94.0028 135.838 94.1835 135.909 94.3521C135.979 94.5206 136.083 94.6737 136.214 94.8026L141.061 99.5921C141.191 99.7214 141.346 99.8239 141.517 99.8939C141.687 99.9639 141.87 99.9999 142.055 99.9999C142.24 99.9999 142.423 99.9639 142.593 99.8939C142.764 99.8239 142.919 99.7214 143.049 99.5921L147.886 94.8026C148.017 94.6737 148.121 94.5206 148.192 94.3521C148.263 94.1835 148.299 94.0028 148.299 93.8202C148.299 93.6377 148.263 93.457 148.192 93.2884C148.121 93.1198 148.017 92.9667 147.886 92.8378L144.91 89.897C143.919 88.9109 143.364 87.5769 143.367 86.1871Z" fill="#FFD2C8"/>
<path d="M165.149 64.4335L165.149 58.7526C165.149 58.0636 165.286 57.3812 165.553 56.7447C165.82 56.1081 166.212 55.5298 166.705 55.0428L169.681 52.1019C169.812 51.9731 169.916 51.8199 169.987 51.6514C170.057 51.4828 170.094 51.3021 170.094 51.1195C170.094 50.937 170.057 50.7563 169.987 50.5877C169.916 50.4191 169.812 50.266 169.681 50.1372L164.834 45.3477C164.704 45.2184 164.549 45.1159 164.378 45.0459C164.208 44.9759 164.025 44.9399 163.84 44.9399C163.655 44.9399 163.473 44.9759 163.302 45.0459C163.131 45.1159 162.976 45.2184 162.846 45.3477L157.996 50.1372C157.733 50.3983 157.586 50.7514 157.586 51.1195C157.586 51.4877 157.733 51.8408 157.996 52.1019L160.972 55.0428C161.465 55.5298 161.857 56.1081 162.124 56.7447C162.391 57.3812 162.528 58.0636 162.528 58.7526L162.528 64.4335C162.528 65.1226 162.391 65.805 162.124 66.4416C161.857 67.0781 161.466 67.6564 160.972 68.1434L157.996 71.0842C157.733 71.3453 157.586 71.6985 157.586 72.0666C157.586 72.4347 157.733 72.7879 157.996 73.049L162.846 77.8385C162.976 77.9678 163.131 78.0703 163.302 78.1403C163.473 78.2103 163.655 78.2463 163.84 78.2463C164.025 78.2463 164.208 78.2103 164.378 78.1403C164.549 78.0703 164.704 77.9678 164.834 77.8385L169.681 73.049C169.812 72.9201 169.916 72.767 169.987 72.5984C170.057 72.4299 170.094 72.2491 170.094 72.0666C170.094 71.8841 170.057 71.7034 169.987 71.5348C169.916 71.3662 169.812 71.2131 169.681 71.0842L166.705 68.1434C166.212 67.6564 165.82 67.0781 165.553 66.4416C165.286 65.805 165.149 65.1226 165.149 64.4335Z" fill="#FEF4F2"/>
<path d="M171.565 73.3629L177.314 73.3629C178.721 73.3635 180.071 73.9154 181.068 74.8976L184.044 77.8385C184.174 77.9678 184.329 78.0703 184.5 78.1403C184.67 78.2103 184.853 78.2463 185.038 78.2463C185.223 78.2463 185.406 78.2103 185.576 78.1403C185.747 78.0703 185.902 77.9678 186.032 77.8385L190.879 73.049C191.01 72.9201 191.114 72.767 191.184 72.5984C191.255 72.4299 191.292 72.2491 191.292 72.0666C191.292 71.8841 191.255 71.7034 191.184 71.5348C191.114 71.3662 191.01 71.2131 190.879 71.0842L186.032 66.2947C185.902 66.1655 185.747 66.0629 185.576 65.9929C185.406 65.923 185.223 65.887 185.038 65.887C184.853 65.887 184.67 65.923 184.5 65.9929C184.329 66.0629 184.174 66.1655 184.044 66.2947L181.068 69.2356C180.071 70.2178 178.721 70.7697 177.314 70.7704L171.565 70.7704C170.868 70.7707 170.177 70.6354 169.533 70.372C168.889 70.1087 168.304 69.7225 167.81 69.2356L164.834 66.2947C164.704 66.1655 164.549 66.0629 164.378 65.9929C164.208 65.923 164.025 65.887 163.84 65.887C163.655 65.887 163.473 65.923 163.302 65.9929C163.131 66.0629 162.976 66.1655 162.846 66.2947L157.996 71.0842C157.733 71.3453 157.586 71.6985 157.586 72.0666C157.586 72.4347 157.733 72.7879 157.996 73.049L162.846 77.8385C162.976 77.9678 163.131 78.0703 163.302 78.1403C163.473 78.2103 163.655 78.2463 163.84 78.2463C164.025 78.2463 164.208 78.2103 164.378 78.1403C164.549 78.0703 164.704 77.9678 164.834 77.8385L167.81 74.8976C168.304 74.4107 168.889 74.0246 169.533 73.7612C170.177 73.4979 170.868 73.3625 171.565 73.3629Z" fill="#FFD2C8"/>
<path d="M111.913 70.7704L106.164 70.7704C104.756 70.7697 103.406 70.2178 102.409 69.2356L99.4334 66.2947C99.3029 66.1655 99.148 66.0629 98.9774 65.9929C98.8068 65.923 98.6239 65.887 98.4392 65.887C98.2545 65.887 98.0716 65.923 97.901 65.9929C97.7304 66.0629 97.5755 66.1655 97.4451 66.2947L92.5982 71.0842C92.4674 71.2131 92.3636 71.3662 92.2928 71.5348C92.222 71.7034 92.1855 71.8841 92.1855 72.0666C92.1855 72.2491 92.222 72.4299 92.2928 72.5984C92.3636 72.767 92.4674 72.9201 92.5982 73.049L97.4451 77.8385C97.5755 77.9678 97.7304 78.0703 97.901 78.1403C98.0716 78.2103 98.2545 78.2463 98.4392 78.2463C98.6239 78.2463 98.8068 78.2103 98.9774 78.1403C99.148 78.0703 99.3029 77.9678 99.4334 77.8385L102.409 74.8976C103.406 73.9154 104.756 73.3635 106.164 73.3629L111.913 73.3629C113.32 73.3628 114.671 73.9148 115.667 74.8976L118.643 77.8385C118.773 77.9678 118.928 78.0703 119.099 78.1403C119.27 78.2103 119.452 78.2463 119.637 78.2463C119.822 78.2463 120.005 78.2103 120.175 78.1403C120.346 78.0703 120.501 77.9678 120.631 77.8385L125.478 73.049C125.609 72.9201 125.713 72.767 125.784 72.5984C125.854 72.4299 125.891 72.2491 125.891 72.0666C125.891 71.8841 125.854 71.7034 125.784 71.5348C125.713 71.3662 125.609 71.2131 125.478 71.0842L120.631 66.2947C120.501 66.1655 120.346 66.0629 120.175 65.9929C120.005 65.923 119.822 65.887 119.637 65.887C119.452 65.887 119.27 65.923 119.099 65.9929C118.928 66.0629 118.773 66.1655 118.643 66.2947L115.667 69.2356C114.671 70.2184 113.32 70.7704 111.913 70.7704Z" fill="#FEF4F2"/>
<path d="M133.009 48.7405L127.26 48.7405C126.563 48.7404 125.872 48.6046 125.228 48.3407C124.584 48.0768 123.998 47.6901 123.506 47.2026L120.529 44.2617C120.399 44.1325 120.244 44.0299 120.074 43.9599C119.903 43.89 119.72 43.8539 119.535 43.8539C119.351 43.8539 119.168 43.89 118.997 43.9599C118.827 44.0299 118.672 44.1325 118.541 44.2617L113.694 49.0512C113.431 49.3124 113.283 49.6663 113.283 50.0352C113.283 50.4041 113.431 50.7579 113.694 51.0191L118.541 55.8212C118.672 55.9504 118.827 56.053 118.997 56.123C119.168 56.1929 119.351 56.229 119.535 56.229C119.72 56.229 119.903 56.1929 120.074 56.123C120.244 56.053 120.399 55.9504 120.529 55.8212L123.506 52.8803C123.998 52.3928 124.584 52.0061 125.228 51.7422C125.872 51.4783 126.563 51.3425 127.26 51.3424L133.009 51.3424C133.706 51.3423 134.397 51.4781 135.041 51.742C135.685 52.0059 136.27 52.3927 136.763 52.8803L139.739 55.8212C139.87 55.9504 140.024 56.053 140.195 56.123C140.366 56.1929 140.549 56.229 140.733 56.229C140.918 56.229 141.101 56.1929 141.271 56.123C141.442 56.053 141.597 55.9504 141.727 55.8212L146.574 51.0317C146.838 50.7705 146.986 50.4166 146.986 50.0477C146.986 49.6788 146.838 49.325 146.574 49.0638L141.727 44.2743C141.597 44.145 141.442 44.0425 141.271 43.9725C141.101 43.9025 140.918 43.8665 140.733 43.8665C140.549 43.8665 140.366 43.9025 140.195 43.9725C140.024 44.0425 139.87 44.145 139.739 44.2743L136.769 47.2026C136.276 47.691 135.69 48.0782 135.044 48.3421C134.399 48.6061 133.707 48.7414 133.009 48.7405Z" fill="#FEF4F2"/>
</g>
<defs>
<clipPath id="clip0_1223_481">
<rect width="169" height="100" fill="white"/>
</clipPath>
</defs>
</svg>
