<svg width="1210" height="200" viewBox="0 0 1210 200" fill="none" xmlns="http://www.w3.org/2000/svg">
<g clip-path="url(#clip0_864_9491)">
<rect width="1210" height="200" fill="#22C55E"/>
<path d="M1207.29 136.473L1216.89 126.868C1219.37 124.388 1219.37 120.367 1216.89 117.887L1174.71 75.7061C1172.23 73.226 1168.21 73.226 1165.73 75.7061L1156.13 85.311C1153.65 87.791 1153.65 91.812 1156.13 94.292L1198.31 136.473C1200.79 138.953 1204.81 138.953 1207.29 136.473Z" fill="white" fill-opacity="0.15"/>
<path d="M1205.46 196.339L1219.25 182.546C1220.57 181.222 1220.57 179.076 1219.25 177.753L1178.47 136.967C1177.14 135.644 1175 135.644 1173.67 136.967L1159.88 150.76C1158.56 152.084 1158.56 154.23 1159.88 155.553L1200.66 196.339C1201.99 197.662 1204.13 197.662 1205.46 196.339Z" fill="white" fill-opacity="0.15"/>
<path d="M1113.3 108.405L1126.03 95.6749C1127.65 94.0579 1127.65 91.4362 1126.03 89.8193L1113.3 77.0889C1111.68 75.4719 1109.06 75.4719 1107.45 77.0889L1094.72 89.8193C1093.1 91.4363 1093.1 94.0579 1094.72 95.6749L1107.45 108.405C1109.06 110.022 1111.68 110.022 1113.3 108.405Z" fill="white" fill-opacity="0.3"/>
<path d="M1195.16 32.8068L1210.97 32.8068C1212.89 32.807 1214.79 33.1851 1216.56 33.9196C1218.33 34.654 1219.94 35.7304 1221.3 37.0872L1229.48 45.2372C1229.84 45.5969 1230.27 45.8823 1230.74 46.0771C1231.21 46.2718 1231.71 46.3721 1232.22 46.3721C1232.72 46.3721 1233.23 46.2718 1233.7 46.0771C1234.17 45.8823 1234.59 45.5969 1234.95 45.2372L1248.29 31.9333C1248.65 31.5746 1248.93 31.1485 1249.13 30.6793C1249.32 30.2102 1249.42 29.7072 1249.42 29.1992C1249.42 28.6912 1249.32 28.1882 1249.13 27.719C1248.93 27.2498 1248.65 26.8237 1248.29 26.465L1234.96 13.1349C1234.6 12.7752 1234.17 12.4898 1233.71 12.2951C1233.24 12.1003 1232.73 12.0001 1232.23 12.0001C1231.72 12.0001 1231.21 12.1003 1230.74 12.2951C1230.28 12.4898 1229.85 12.7752 1229.49 13.1349L1221.31 21.3199C1219.95 22.6767 1218.34 23.7531 1216.57 24.4875C1214.8 25.2219 1212.9 25.6 1210.98 25.6002L1195.17 25.6002C1193.25 25.6015 1191.35 25.224 1189.58 24.4895C1187.81 23.755 1186.2 22.6779 1184.84 21.3199L1176.66 13.1349C1176.3 12.7752 1175.87 12.4898 1175.41 12.2951C1174.94 12.1003 1174.43 12.0001 1173.93 12.0001C1173.42 12.0001 1172.91 12.1003 1172.45 12.2951C1171.98 12.4898 1171.55 12.7752 1171.19 13.1349L1157.86 26.465C1157.5 26.8237 1157.22 27.2498 1157.02 27.719C1156.83 28.1882 1156.73 28.6912 1156.73 29.1992C1156.73 29.7072 1156.83 30.2102 1157.02 30.6793C1157.22 31.1485 1157.5 31.5746 1157.86 31.9333L1171.18 45.2372C1171.54 45.5969 1171.97 45.8823 1172.44 46.0771C1172.91 46.2718 1173.41 46.3721 1173.92 46.3721C1174.42 46.3721 1174.93 46.2718 1175.4 46.0771C1175.87 45.8823 1176.29 45.5969 1176.65 45.2372L1184.84 37.0522C1186.19 35.7006 1187.8 34.6299 1189.58 33.9014C1191.35 33.173 1193.25 32.801 1195.16 32.8068Z" fill="white" fill-opacity="0.3"/>
<path d="M1146.76 161.198L1146.76 145.387C1146.76 141.516 1148.3 137.803 1151.03 135.062L1159.22 126.877C1159.58 126.519 1159.86 126.092 1160.06 125.623C1160.25 125.154 1160.35 124.651 1160.35 124.143C1160.35 123.635 1160.25 123.132 1160.06 122.663C1159.86 122.194 1159.58 121.768 1159.22 121.409L1145.89 108.079C1145.53 107.719 1145.1 107.434 1144.63 107.239C1144.16 107.044 1143.66 106.944 1143.15 106.944C1142.65 106.944 1142.14 107.044 1141.67 107.239C1141.2 107.434 1140.78 107.719 1140.42 108.079L1127.09 121.409C1126.73 121.768 1126.44 122.194 1126.25 122.663C1126.05 123.132 1125.95 123.635 1125.95 124.143C1125.95 124.651 1126.05 125.154 1126.25 125.623C1126.44 126.092 1126.73 126.519 1127.09 126.877L1135.27 135.062C1138.01 137.803 1139.54 141.516 1139.55 145.387L1139.55 161.198C1139.55 165.07 1138.01 168.783 1135.27 171.523L1127.09 179.708C1126.73 180.067 1126.44 180.493 1126.25 180.962C1126.05 181.432 1125.95 181.935 1125.95 182.443C1125.95 182.95 1126.05 183.453 1126.25 183.923C1126.44 184.392 1126.73 184.818 1127.09 185.177L1140.42 198.507C1140.78 198.866 1141.2 199.152 1141.67 199.347C1142.14 199.541 1142.65 199.642 1143.15 199.642C1143.66 199.642 1144.16 199.541 1144.63 199.347C1145.1 199.152 1145.53 198.866 1145.89 198.507L1159.19 185.177C1159.55 184.818 1159.84 184.392 1160.03 183.923C1160.23 183.453 1160.33 182.95 1160.33 182.443C1160.33 181.935 1160.23 181.432 1160.03 180.962C1159.84 180.493 1159.55 180.067 1159.19 179.708L1151.01 171.523C1148.28 168.779 1146.75 165.066 1146.76 161.198Z" fill="white" fill-opacity="0.3"/>
<path d="M1206.66 100.654L1206.66 84.8434C1206.66 82.9256 1207.04 81.0266 1207.78 79.2549C1208.51 77.4833 1209.59 75.8737 1210.95 74.5183L1219.13 66.3333C1219.49 65.9746 1219.78 65.5485 1219.97 65.0793C1220.16 64.6101 1220.26 64.1071 1220.26 63.5991C1220.26 63.0911 1220.16 62.5882 1219.97 62.119C1219.78 61.6498 1219.49 61.2237 1219.13 60.865L1205.8 47.5349C1205.44 47.1752 1205.02 46.8898 1204.55 46.695C1204.08 46.5003 1203.57 46.4 1203.07 46.4C1202.56 46.4 1202.05 46.5003 1201.59 46.695C1201.12 46.8898 1200.69 47.1752 1200.33 47.5349L1186.99 60.865C1186.27 61.5917 1185.87 62.5746 1185.87 63.5991C1185.87 64.6237 1186.27 65.6066 1186.99 66.3333L1195.18 74.5183C1196.53 75.8737 1197.61 77.4833 1198.35 79.2549C1199.08 81.0266 1199.46 82.9256 1199.46 84.8434L1199.46 100.654C1199.46 102.572 1199.08 104.471 1198.35 106.243C1197.61 108.015 1196.54 109.624 1195.18 110.979L1186.99 119.164C1186.27 119.891 1185.87 120.874 1185.87 121.899C1185.87 122.923 1186.27 123.906 1186.99 124.633L1200.33 137.963C1200.69 138.323 1201.12 138.608 1201.59 138.803C1202.05 138.997 1202.56 139.098 1203.07 139.098C1203.57 139.098 1204.08 138.997 1204.55 138.803C1205.02 138.608 1205.44 138.323 1205.8 137.963L1219.13 124.633C1219.49 124.274 1219.78 123.848 1219.97 123.379C1220.16 122.91 1220.26 122.407 1220.26 121.899C1220.26 121.391 1220.16 120.888 1219.97 120.418C1219.78 119.949 1219.49 119.523 1219.13 119.164L1210.95 110.979C1209.59 109.624 1208.51 108.015 1207.78 106.243C1207.04 104.471 1206.66 102.572 1206.66 100.654Z" fill="white" fill-opacity="0.15"/>
<path d="M1224.31 125.506L1240.12 125.506C1243.99 125.508 1247.71 127.044 1250.45 129.778L1258.63 137.963C1258.99 138.323 1259.42 138.608 1259.89 138.803C1260.35 138.997 1260.86 139.098 1261.37 139.098C1261.87 139.098 1262.38 138.997 1262.85 138.803C1263.31 138.608 1263.74 138.323 1264.1 137.963L1277.43 124.633C1277.79 124.274 1278.07 123.848 1278.27 123.379C1278.46 122.91 1278.56 122.407 1278.56 121.899C1278.56 121.391 1278.46 120.888 1278.27 120.418C1278.07 119.949 1277.79 119.523 1277.43 119.164L1264.1 105.834C1263.74 105.475 1263.31 105.189 1262.85 104.994C1262.38 104.8 1261.87 104.699 1261.37 104.699C1260.86 104.699 1260.35 104.8 1259.89 104.994C1259.42 105.189 1258.99 105.475 1258.63 105.834L1250.45 114.019C1247.71 116.753 1243.99 118.289 1240.12 118.291L1224.31 118.291C1222.39 118.292 1220.49 117.915 1218.72 117.182C1216.95 116.449 1215.34 115.375 1213.98 114.019L1205.8 105.834C1205.44 105.475 1205.02 105.189 1204.55 104.994C1204.08 104.8 1203.57 104.699 1203.07 104.699C1202.56 104.699 1202.05 104.8 1201.59 104.994C1201.12 105.189 1200.69 105.475 1200.33 105.834L1186.99 119.164C1186.27 119.891 1185.87 120.874 1185.87 121.899C1185.87 122.923 1186.27 123.906 1186.99 124.633L1200.33 137.963C1200.69 138.323 1201.12 138.608 1201.59 138.803C1202.05 138.997 1202.56 139.098 1203.07 139.098C1203.57 139.098 1204.08 138.997 1204.55 138.803C1205.02 138.608 1205.44 138.323 1205.8 137.963L1213.98 129.778C1215.34 128.423 1216.95 127.348 1218.72 126.615C1220.49 125.882 1222.39 125.505 1224.31 125.506Z" fill="white" fill-opacity="0.3"/>
<path d="M1060.25 118.291L1044.44 118.291C1040.57 118.289 1036.86 116.753 1034.12 114.019L1025.93 105.834C1025.57 105.475 1025.15 105.189 1024.68 104.994C1024.21 104.8 1023.71 104.699 1023.2 104.699C1022.69 104.699 1022.19 104.8 1021.72 104.994C1021.25 105.189 1020.82 105.475 1020.46 105.834L1007.13 119.164C1006.78 119.523 1006.49 119.949 1006.29 120.418C1006.1 120.888 1006 121.391 1006 121.899C1006 122.407 1006.1 122.91 1006.29 123.379C1006.49 123.848 1006.78 124.274 1007.13 124.633L1020.46 137.963C1020.82 138.323 1021.25 138.608 1021.72 138.803C1022.19 138.997 1022.69 139.098 1023.2 139.098C1023.71 139.098 1024.21 138.997 1024.68 138.803C1025.15 138.608 1025.57 138.323 1025.93 137.963L1034.12 129.778C1036.86 127.044 1040.57 125.508 1044.44 125.506L1060.25 125.506C1064.13 125.506 1067.84 127.042 1070.58 129.778L1078.76 137.963C1079.12 138.323 1079.55 138.608 1080.02 138.803C1080.49 138.997 1080.99 139.098 1081.5 139.098C1082.01 139.098 1082.51 138.997 1082.98 138.803C1083.45 138.608 1083.87 138.323 1084.23 137.963L1097.56 124.633C1097.92 124.274 1098.21 123.848 1098.4 123.379C1098.6 122.91 1098.7 122.407 1098.7 121.899C1098.7 121.391 1098.6 120.888 1098.4 120.418C1098.21 119.949 1097.92 119.523 1097.56 119.164L1084.23 105.834C1083.87 105.475 1083.45 105.189 1082.98 104.994C1082.51 104.8 1082.01 104.699 1081.5 104.699C1080.99 104.699 1080.49 104.8 1080.02 104.994C1079.55 105.189 1079.12 105.475 1078.76 105.834L1070.58 114.019C1067.84 116.755 1064.13 118.291 1060.25 118.291Z" fill="white" fill-opacity="0.15"/>
<path d="M1118.27 56.9776L1102.46 56.9776C1100.55 56.9774 1098.65 56.5993 1096.87 55.8649C1095.1 55.1304 1093.49 54.0541 1092.14 52.6973L1083.95 44.5123C1083.59 44.1526 1083.17 43.8672 1082.7 43.6725C1082.23 43.4777 1081.73 43.3775 1081.22 43.3775C1080.71 43.3775 1080.21 43.4777 1079.74 43.6725C1079.27 43.8672 1078.84 44.1526 1078.48 44.5123L1065.15 57.8424C1064.43 58.5694 1064.02 59.5542 1064.02 60.5809C1064.02 61.6076 1064.43 62.5924 1065.15 63.3194L1078.48 76.6845C1078.84 77.0442 1079.27 77.3296 1079.74 77.5243C1080.21 77.7191 1080.71 77.8193 1081.22 77.8193C1081.73 77.8193 1082.23 77.7191 1082.7 77.5243C1083.17 77.3296 1083.59 77.0442 1083.95 76.6845L1092.14 68.4995C1093.49 67.1427 1095.1 66.0663 1096.87 65.3319C1098.65 64.5975 1100.55 64.2194 1102.46 64.2192L1118.27 64.2192C1120.19 64.2189 1122.09 64.5968 1123.86 65.3312C1125.63 66.0657 1127.24 67.1423 1128.6 68.4995L1136.78 76.6845C1137.14 77.0442 1137.57 77.3296 1138.04 77.5243C1138.51 77.7191 1139.01 77.8193 1139.52 77.8193C1140.03 77.8193 1140.53 77.7191 1141 77.5243C1141.47 77.3296 1141.89 77.0442 1142.25 76.6845L1155.58 63.3544C1156.31 62.6273 1156.71 61.6426 1156.71 60.6159C1156.71 59.5892 1156.31 58.6044 1155.58 57.8773L1142.25 44.5473C1141.89 44.1875 1141.47 43.9021 1141 43.7074C1140.53 43.5126 1140.03 43.4124 1139.52 43.4124C1139.01 43.4124 1138.51 43.5126 1138.04 43.7074C1137.57 43.9021 1137.14 44.1875 1136.78 44.5473L1128.62 52.6973C1127.26 54.0566 1125.65 55.1344 1123.87 55.8689C1122.1 56.6034 1120.19 56.9802 1118.27 56.9776Z" fill="white" fill-opacity="0.15"/>
<path d="M-21.1485 34.4013L-33.8788 21.671C-35.4958 20.054 -35.4958 17.4323 -33.8788 15.8154L-21.1485 3.085C-19.5315 1.46802 -16.9098 1.468 -15.2929 3.08498L-2.56249 15.8154C-0.945509 17.4323 -0.945528 20.054 -2.56251 21.671L-15.2929 34.4013C-16.9098 36.0183 -19.5315 36.0183 -21.1485 34.4013Z" fill="white" fill-opacity="0.15"/>
<path d="M6.71066 62.4734L-2.89424 52.8685C-5.37429 50.3884 -5.37428 46.3674 -2.89423 43.8874L39.2871 1.70607C41.7671 -0.77398 45.7881 -0.773978 48.2681 1.70607L57.873 11.311C60.3531 13.791 60.3531 17.812 57.8731 20.292L15.6917 62.4734C13.2117 64.9534 9.19071 64.9534 6.71066 62.4734Z" fill="white" fill-opacity="0.15"/>
<path d="M8.54094 122.339L-5.25185 108.546C-6.57545 107.222 -6.57544 105.076 -5.25184 103.753L35.5335 62.9675C36.8571 61.6439 39.0031 61.6439 40.3267 62.9675L54.1195 76.7602C55.4431 78.0838 55.4431 80.2298 54.1195 81.5534L13.3341 122.339C12.0105 123.662 9.86454 123.662 8.54094 122.339Z" fill="white" fill-opacity="0.15"/>
<path d="M100.697 34.4052L87.9669 21.6749C86.3499 20.0579 86.3499 17.4362 87.9669 15.8193L100.697 3.0889C102.314 1.47192 104.936 1.47192 106.553 3.0889L119.283 15.8193C120.9 17.4363 120.9 20.0579 119.283 21.6749L106.553 34.4052C104.936 36.0222 102.314 36.0222 100.697 34.4052Z" fill="white" fill-opacity="0.3"/>
<path d="M67.2381 87.1983L67.2381 71.3873C67.2363 67.5161 65.7003 63.8033 62.9666 61.0622L54.7816 52.8772C54.4219 52.5186 54.1364 52.0924 53.9417 51.6232C53.747 51.1541 53.6467 50.6511 53.6467 50.1431C53.6467 49.6351 53.747 49.1321 53.9417 48.6629C54.1364 48.1937 54.4219 47.7676 54.7816 47.409L68.1117 34.0789C68.4703 33.7191 68.8965 33.4337 69.3656 33.239C69.8348 33.0443 70.3378 32.944 70.8458 32.944C71.3538 32.944 71.8568 33.0443 72.326 33.239C72.7952 33.4337 73.2213 33.7191 73.58 34.0789L86.91 47.409C87.2698 47.7676 87.5552 48.1937 87.7499 48.6629C87.9447 49.1321 88.0449 49.6351 88.0449 50.1431C88.0449 50.6511 87.9447 51.1541 87.7499 51.6232C87.5552 52.0924 87.2698 52.5186 86.91 52.8772L78.7251 61.0622C75.9913 63.8033 74.4553 67.5161 74.4535 71.3873L74.4535 87.1982C74.4534 91.0699 75.9897 94.7834 78.7251 97.5234L86.91 105.708C87.2698 106.067 87.5552 106.493 87.7499 106.962C87.9447 107.432 88.0449 107.935 88.0449 108.443C88.0449 108.95 87.9447 109.453 87.7499 109.923C87.5552 110.392 87.2698 110.818 86.91 111.177L73.58 124.507C73.2213 124.866 72.7952 125.152 72.326 125.347C71.8568 125.541 71.3538 125.642 70.8458 125.642C70.3378 125.642 69.8348 125.541 69.3656 125.347C68.8965 125.152 68.4703 124.866 68.1117 124.507L54.8078 111.177C54.4481 110.818 54.1627 110.392 53.9679 109.923C53.7732 109.453 53.6729 108.95 53.6729 108.443C53.6729 107.935 53.7732 107.432 53.9679 106.962C54.1627 106.493 54.4481 106.067 54.8078 105.708L62.9928 97.5234C65.7185 94.7791 67.2452 91.0662 67.2381 87.1983Z" fill="white" fill-opacity="0.3"/>
<path d="M7.33423 26.6543L7.33423 10.8434C7.33406 8.92556 6.95596 7.02656 6.22153 5.25492C5.48709 3.48328 4.41072 1.87373 3.05394 0.518265L-5.13104 -7.66671C-5.49077 -8.02538 -5.77618 -8.45152 -5.97092 -8.9207C-6.16567 -9.38988 -6.26592 -9.89287 -6.26592 -10.4009C-6.26592 -10.9089 -6.16567 -11.4118 -5.97092 -11.881C-5.77618 -12.3502 -5.49077 -12.7763 -5.13104 -13.135L8.19905 -26.4651C8.55772 -26.8248 8.98384 -27.1102 9.45301 -27.305C9.92219 -27.4997 10.4252 -27.6 10.9332 -27.6C11.4412 -27.6 11.9442 -27.4997 12.4133 -27.305C12.8825 -27.1102 13.3087 -26.8248 13.6673 -26.4651L27.0062 -13.135C27.7284 -12.4083 28.1338 -11.4254 28.1338 -10.4009C28.1338 -9.3763 27.7284 -8.39337 27.0062 -7.66671L18.8212 0.518265C17.4644 1.87373 16.388 3.48328 15.6536 5.25492C14.9192 7.02656 14.541 8.92556 14.5409 10.8434L14.5409 26.6543C14.5406 28.5722 14.9185 30.4713 15.6529 32.2431C16.3874 34.0148 17.464 35.6243 18.8212 36.9794L27.0062 45.1644C27.7284 45.8911 28.1338 46.874 28.1338 47.8986C28.1338 48.9231 27.7284 49.9061 27.0062 50.6327L13.6673 63.9628C13.3087 64.3225 12.8825 64.6079 12.4133 64.8027C11.9442 64.9974 11.4412 65.0977 10.9332 65.0977C10.4252 65.0977 9.92219 64.9974 9.45301 64.8027C8.98384 64.6079 8.55772 64.3225 8.19905 63.9628L-5.13104 50.6327C-5.49076 50.274 -5.77618 49.8479 -5.97092 49.3787C-6.16566 48.9095 -6.26592 48.4066 -6.26592 47.8986C-6.26592 47.3906 -6.16566 46.8876 -5.97092 46.4184C-5.77618 45.9492 -5.49076 45.5231 -5.13104 45.1644L3.05394 36.9794C4.4111 35.6243 5.48773 34.0148 6.22219 32.2431C6.95666 30.4713 7.33454 28.5722 7.33423 26.6543Z" fill="white" fill-opacity="0.15"/>
<path d="M-10.3111 51.5062L-26.122 51.5062C-29.9932 51.5081 -33.706 53.0441 -36.4471 55.7778L-44.6321 63.9628C-44.9908 64.3225 -45.4169 64.6079 -45.8861 64.8027C-46.3552 64.9974 -46.8582 65.0977 -47.3662 65.0977C-47.8742 65.0977 -48.3772 64.9974 -48.8464 64.8027C-49.3156 64.6079 -49.7417 64.3225 -50.1004 63.9628L-63.4304 50.6327C-63.7902 50.274 -64.0756 49.8479 -64.2703 49.3787C-64.4651 48.9095 -64.5653 48.4066 -64.5653 47.8986C-64.5653 47.3906 -64.4651 46.8876 -64.2703 46.4184C-64.0756 45.9492 -63.7902 45.5231 -63.4304 45.1644L-50.1004 31.8343C-49.7417 31.4746 -49.3156 31.1892 -48.8464 30.9944C-48.3772 30.7997 -47.8742 30.6995 -47.3662 30.6995C-46.8582 30.6995 -46.3552 30.7997 -45.8861 30.9944C-45.4169 31.1892 -44.9908 31.4746 -44.6321 31.8343L-36.4471 40.0193C-33.706 42.753 -29.9932 44.289 -26.122 44.2909L-10.3111 44.2909C-8.39383 44.2919 -6.4952 43.9151 -4.72359 43.1822C-2.95198 42.4493 -1.34213 41.3745 0.0140454 40.0193L8.19905 31.8343C8.55772 31.4746 8.98384 31.1892 9.45301 30.9944C9.92219 30.7997 10.4252 30.6995 10.9332 30.6995C11.4412 30.6995 11.9442 30.7997 12.4133 30.9944C12.8825 31.1892 13.3087 31.4746 13.6673 31.8343L27.0062 45.1644C27.7284 45.8911 28.1338 46.874 28.1338 47.8986C28.1338 48.9231 27.7284 49.906 27.0062 50.6327L13.6673 63.9628C13.3087 64.3225 12.8825 64.6079 12.4133 64.8027C11.9442 64.9974 11.4412 65.0977 10.9332 65.0977C10.4252 65.0977 9.92219 64.9974 9.45301 64.8027C8.98384 64.6079 8.55772 64.3225 8.19905 63.9628L0.0140456 55.7778C-1.34213 54.4226 -2.95198 53.3479 -4.72359 52.6149C-6.4952 51.882 -8.39383 51.5053 -10.3111 51.5062Z" fill="white" fill-opacity="0.3"/>
<path d="M153.745 44.2909L169.556 44.2909C173.427 44.289 177.14 42.753 179.881 40.0193L188.066 31.8343C188.424 31.4746 188.851 31.1892 189.32 30.9944C189.789 30.7997 190.292 30.6995 190.8 30.6995C191.308 30.6995 191.811 30.7997 192.28 30.9944C192.749 31.1892 193.175 31.4746 193.534 31.8343L206.864 45.1644C207.224 45.5231 207.509 45.9492 207.704 46.4184C207.899 46.8876 207.999 47.3906 207.999 47.8986C207.999 48.4066 207.899 48.9095 207.704 49.3787C207.509 49.8479 207.224 50.274 206.864 50.6327L193.534 63.9628C193.175 64.3225 192.749 64.6079 192.28 64.8027C191.811 64.9974 191.308 65.0977 190.8 65.0977C190.292 65.0977 189.789 64.9974 189.32 64.8027C188.851 64.6079 188.424 64.3225 188.066 63.9628L179.881 55.7778C177.14 53.0441 173.427 51.5081 169.556 51.5062L153.745 51.5062C149.873 51.5062 146.16 53.0425 143.42 55.7778L135.235 63.9628C134.876 64.3225 134.45 64.6079 133.981 64.8027C133.511 64.9974 133.009 65.0977 132.501 65.0977C131.993 65.0977 131.49 64.9974 131.02 64.8027C130.551 64.6079 130.125 64.3225 129.766 63.9628L116.436 50.6327C116.077 50.274 115.791 49.8479 115.596 49.3787C115.402 48.9095 115.301 48.4066 115.301 47.8986C115.301 47.3906 115.402 46.8876 115.596 46.4184C115.791 45.9492 116.077 45.5231 116.436 45.1644L129.766 31.8343C130.125 31.4746 130.551 31.1892 131.02 30.9944C131.49 30.7997 131.993 30.6995 132.501 30.6995C133.009 30.6995 133.511 30.7997 133.981 30.9944C134.45 31.1892 134.876 31.4746 135.235 31.8343L143.42 40.0193C146.16 42.7546 149.873 44.2909 153.745 44.2909Z" fill="white" fill-opacity="0.15"/>
<path d="M95.7252 -17.0224L111.536 -17.0224C113.454 -17.0226 115.353 -17.4007 117.125 -18.1351C118.896 -18.8696 120.506 -19.9459 121.861 -21.3027L130.046 -29.4877C130.405 -29.8474 130.831 -30.1328 131.3 -30.3275C131.769 -30.5223 132.272 -30.6225 132.78 -30.6225C133.288 -30.6225 133.791 -30.5223 134.26 -30.3275C134.73 -30.1328 135.156 -29.8474 135.514 -29.4877L148.845 -16.1576C149.569 -15.4306 149.977 -14.4458 149.977 -13.4191C149.977 -12.3924 149.569 -11.4076 148.845 -10.6806L135.514 2.68445C135.156 3.04418 134.73 3.32959 134.26 3.52434C133.791 3.71908 133.288 3.81934 132.78 3.81934C132.272 3.81934 131.769 3.71908 131.3 3.52434C130.831 3.32959 130.405 3.04418 130.046 2.68445L121.861 -5.50052C120.506 -6.8573 118.896 -7.93367 117.125 -8.66811C115.353 -9.40255 113.454 -9.78064 111.536 -9.78082L95.7252 -9.78082C93.8073 -9.78112 91.9081 -9.40324 90.1364 -8.66878C88.3647 -7.93431 86.7552 -6.85769 85.4 -5.50052L77.2151 2.68445C76.8564 3.04418 76.4303 3.3296 75.9611 3.52434C75.4919 3.71908 74.9889 3.81934 74.4809 3.81934C73.9729 3.81934 73.4699 3.71908 73.0008 3.52434C72.5316 3.3296 72.1055 3.04418 71.7468 2.68445L58.4167 -10.6456C57.6918 -11.3727 57.2847 -12.3574 57.2847 -13.3841C57.2847 -14.4108 57.6918 -15.3956 58.4167 -16.1227L71.7468 -29.4527C72.1055 -29.8125 72.5316 -30.0979 73.0008 -30.2926C73.4699 -30.4874 73.9729 -30.5876 74.4809 -30.5876C74.9889 -30.5876 75.4919 -30.4874 75.9611 -30.2926C76.4303 -30.0979 76.8564 -29.8125 77.2151 -29.4527L85.3826 -21.3027C86.7398 -19.9434 88.3522 -18.8656 90.127 -18.1311C91.9019 -17.3966 93.8043 -17.0198 95.7252 -17.0224Z" fill="white" fill-opacity="0.15"/>
</g>
<defs>
<clipPath id="clip0_864_9491">
<rect width="1210" height="200" fill="white"/>
</clipPath>
</defs>
</svg>
