<svg width="257" height="234" viewBox="0 0 257 234" fill="none" xmlns="http://www.w3.org/2000/svg">
<path d="M173.034 84.5656C154.817 84.5656 136.316 83.8266 118.991 79.0005C101.991 74.2833 86.3821 65.1312 72.4688 54.5439C63.3385 47.6527 55.0777 42.1526 43.2296 42.9785C31.6668 43.6045 20.6101 47.9252 11.6861 55.3045C-3.37916 68.4783 -1.0967 92.848 4.92517 109.978C13.9685 135.739 41.5774 153.674 64.8816 165.348C91.9032 178.848 121.577 186.739 151.36 191.196C177.447 195.174 210.947 198.044 233.555 181C254.338 165.348 260.034 129.609 254.946 105.478C253.705 98.3472 249.901 91.9149 244.251 87.3909C229.664 76.7168 207.925 83.8476 191.533 84.1952C185.447 84.3264 179.252 84.5656 173.034 84.5656Z" fill="#FEF4F2"/>
<path d="M129.381 233.5C173.455 233.5 209.186 231.272 209.186 228.522C209.186 225.772 173.455 223.544 129.381 223.544C85.3064 223.544 49.5771 225.772 49.5771 228.522C49.5771 231.272 85.3068 233.5 129.381 233.5Z" fill="#FFE7E1"/>
<path d="M16.7744 36.5863L45.0354 34.1951C48.5622 33.8854 52.0886 34.7957 55.0249 36.7745C57.9612 38.7528 60.1289 41.6794 61.1661 45.0649L88.2313 135.717L82.8834 145.217C81.5168 147.67 80.8431 150.448 80.9346 153.254C81.0258 156.061 81.8791 158.79 83.4023 161.148C84.9255 163.507 87.062 165.406 89.5819 166.644C92.1023 167.882 94.9116 168.411 97.7095 168.174L206.188 158.957" stroke="#FFD2C8" stroke-width="2.17392" stroke-linecap="round" stroke-linejoin="round"/>
<path d="M65.1855 58.8259L191.272 48.1302C192.52 48.0134 193.777 48.18 194.951 48.6179C196.125 49.0557 197.183 49.7538 198.051 50.659C198.916 51.5647 199.566 52.6542 199.951 53.8463C200.335 55.0384 200.444 56.3021 200.272 57.5431L191.729 119.196C191.471 121.048 190.597 122.761 189.249 124.058C187.901 125.355 186.155 126.161 184.295 126.348L88.2291 135.717L65.1855 58.8259Z" fill="#FFB3A2" stroke="#FFD2C8" stroke-width="2.17392" stroke-miterlimit="10"/>
<path d="M109.751 188.956C115.406 188.956 119.99 184.371 119.99 178.716C119.99 173.062 115.406 168.477 109.751 168.477C104.096 168.477 99.5117 173.062 99.5117 178.716C99.5117 184.371 104.096 188.956 109.751 188.956Z" fill="#F4603F" stroke="#FFD2C8" stroke-width="2.17392" stroke-miterlimit="10"/>
<path d="M181.054 182.912C186.708 182.912 191.293 178.328 191.293 172.673C191.293 167.018 186.708 162.434 181.054 162.434C175.399 162.434 170.814 167.018 170.814 172.673C170.814 178.328 175.4 182.912 181.054 182.912Z" fill="#F4603F" stroke="#FFD2C8" stroke-width="2.17392" stroke-miterlimit="10"/>
<path d="M39.1417 31.7621L12.4984 34.0227C10.1893 34.2188 8.47674 36.249 8.67246 38.5581C8.86819 40.8671 10.8988 42.5797 13.2079 42.3839L39.8512 40.1234C42.1602 39.9277 43.8728 37.8971 43.677 35.588C43.4809 33.279 41.4507 31.566 39.1417 31.7621Z" fill="#F4603F"/>
<path d="M118.274 106.456C118.784 102.478 120.641 98.795 123.536 96.0203C126.432 93.2456 130.19 91.5461 134.185 91.2056C138.181 90.8652 142.173 91.9038 145.496 94.1487C148.819 96.3936 151.273 99.7091 152.448 103.543" stroke="white" stroke-width="2.17392" stroke-linecap="round" stroke-linejoin="round"/>
<path d="M154.91 80.5653C154.91 81.7931 153.914 82.7891 152.686 82.7891C151.457 82.7891 150.462 81.7935 150.462 80.5653C150.462 79.337 151.457 78.3414 152.686 78.3414C153.914 78.3414 154.91 79.337 154.91 80.5653Z" fill="white" stroke="white" stroke-width="0.421818"/>
<path d="M116.342 83.8258C116.342 85.0537 115.347 86.0496 114.118 86.0496C112.89 86.0496 111.895 85.0537 111.895 83.8258C111.895 82.5976 112.89 81.602 114.118 81.602C115.347 81.602 116.342 82.5976 116.342 83.8258Z" fill="white" stroke="white" stroke-width="0.421818"/>
<path d="M45.5332 175.695V185.065" stroke="#F4603F" stroke-width="2.17392" stroke-linecap="round" stroke-linejoin="round"/>
<path d="M40.8604 180.369H50.2083" stroke="#F4603F" stroke-width="2.17392" stroke-linecap="round" stroke-linejoin="round"/>
<path d="M194.904 1.49969V10.8691" stroke="#F4603F" stroke-width="2.17392" stroke-linecap="round" stroke-linejoin="round"/>
<path d="M190.206 6.19585H199.575" stroke="#F4603F" stroke-width="2.17392" stroke-linecap="round" stroke-linejoin="round"/>
<path d="M84.208 29.4563V38.8042" stroke="#F4603F" stroke-width="2.17392" stroke-linecap="round" stroke-linejoin="round"/>
<path d="M79.5361 34.1303H88.9056" stroke="#F4603F" stroke-width="2.17392" stroke-linecap="round" stroke-linejoin="round"/>
<path d="M218.228 63.8267C219.452 63.8267 220.446 62.8337 220.446 61.6091C220.446 60.3846 219.452 59.3917 218.228 59.3917C217.004 59.3917 216.011 60.3846 216.011 61.6091C216.011 62.8337 217.005 63.8267 218.228 63.8267Z" fill="white" stroke="#F4603F" stroke-width="2.17392" stroke-linecap="round" stroke-linejoin="round"/>
<path d="M135.359 43.8899C136.536 43.8899 137.49 42.9362 137.49 41.7593C137.49 40.5829 136.536 39.6287 135.359 39.6287C134.183 39.6287 133.229 40.5825 133.229 41.7593C133.229 42.9362 134.183 43.8899 135.359 43.8899Z" fill="#F4603F"/>
<path d="M149.643 198.5C150.82 198.5 151.774 197.545 151.774 196.369C151.774 195.193 150.82 194.239 149.643 194.239C148.466 194.239 147.513 195.193 147.513 196.369C147.513 197.545 148.466 198.5 149.643 198.5Z" fill="#F4603F"/>
</svg>
