<svg width="256" height="256" viewBox="0 0 256 256" fill="none" xmlns="http://www.w3.org/2000/svg">
<path d="M185.389 64.9148L187.581 62.7227C187.858 62.4455 187.858 61.9959 187.581 61.7187L185.389 59.5266C185.112 59.2494 184.662 59.2493 184.385 59.5266L182.193 61.7187C181.916 61.9959 181.916 62.4455 182.193 62.7227L184.385 64.9148C184.662 65.192 185.112 65.1921 185.389 64.9148Z" fill="#FC8064"/>
<path d="M95.8723 99.864L98.0644 97.672C98.3416 97.3947 98.3416 96.9451 98.0644 96.6679L95.8723 94.4758C95.5951 94.1986 95.1455 94.1986 94.8682 94.4758L92.6762 96.6679C92.3989 96.9452 92.3989 97.3947 92.6762 97.672L94.8682 99.864C95.1455 100.141 95.5951 100.141 95.8723 99.864Z" fill="#FC8064"/>
<path d="M185.392 83.7087L187.584 81.5167C187.861 81.2394 187.861 80.7899 187.584 80.5126L185.392 78.3206C185.115 78.0433 184.665 78.0433 184.388 78.3206L182.196 80.5126C181.918 80.7899 181.918 81.2394 182.196 81.5167L184.388 83.7087C184.665 83.986 185.115 83.986 185.392 83.7087Z" fill="#FC8064"/>
<path d="M185.389 74.3152L187.581 72.1231C187.858 71.8459 187.858 71.3963 187.581 71.119L185.389 68.927C185.112 68.6497 184.662 68.6497 184.385 68.927L182.193 71.119C181.916 71.3963 181.916 71.8459 182.193 72.1231L184.385 74.3152C184.662 74.5924 185.112 74.5924 185.389 74.3152Z" fill="#FC8064"/>
<path d="M82.0003 111.986L84.1923 109.794C84.4696 109.517 84.4696 109.067 84.1923 108.79L82.0003 106.598C81.723 106.321 81.2734 106.321 80.9962 106.598L78.8041 108.79C78.5269 109.067 78.5269 109.517 78.8041 109.794L80.9962 111.986C81.2734 112.263 81.723 112.263 82.0003 111.986Z" fill="#FC8064"/>
<path d="M83.7044 124.999L85.8964 122.807C86.1737 122.529 86.1737 122.08 85.8964 121.803L83.7044 119.611C83.4271 119.333 82.9775 119.333 82.7003 119.611L80.5082 121.803C80.231 122.08 80.231 122.529 80.5082 122.807L82.7003 124.999C82.9775 125.276 83.4271 125.276 83.7044 124.999Z" fill="#FC8064"/>
<path d="M91.0002 108.63V111.35C90.9988 111.68 91.0626 112.008 91.1879 112.313C91.3132 112.618 91.4974 112.896 91.7302 113.13L93.1402 114.54C93.2025 114.602 93.2519 114.675 93.2857 114.756C93.3195 114.836 93.3368 114.923 93.3368 115.01C93.3368 115.098 93.3195 115.184 93.2857 115.265C93.2519 115.346 93.2025 115.419 93.1402 115.48L90.8502 117.77C90.7888 117.833 90.7156 117.882 90.6349 117.916C90.5543 117.95 90.4677 117.967 90.3802 117.967C90.2927 117.967 90.2061 117.95 90.1255 117.916C90.0448 117.882 89.9716 117.833 89.9102 117.77L87.6102 115.48C87.5479 115.419 87.4985 115.346 87.4647 115.265C87.4309 115.184 87.4136 115.098 87.4136 115.01C87.4136 114.923 87.4309 114.836 87.4647 114.756C87.4985 114.675 87.5479 114.602 87.6102 114.54L89.0002 113.13C89.473 112.658 89.7392 112.018 89.7402 111.35V108.63C89.7349 107.963 89.4694 107.325 89.0002 106.85L87.5902 105.45C87.5279 105.389 87.4785 105.316 87.4447 105.235C87.4109 105.154 87.3936 105.068 87.3936 104.98C87.3936 104.893 87.4109 104.806 87.4447 104.726C87.4785 104.645 87.5279 104.572 87.5902 104.51L89.8902 102.21C89.9516 102.148 90.0248 102.099 90.1055 102.065C90.1861 102.031 90.2727 102.014 90.3602 102.014C90.4477 102.014 90.5343 102.031 90.6149 102.065C90.6956 102.099 90.7688 102.148 90.8302 102.21L93.1202 104.51C93.1825 104.572 93.2319 104.645 93.2657 104.726C93.2995 104.806 93.3168 104.893 93.3168 104.98C93.3168 105.068 93.2995 105.154 93.2657 105.235C93.2319 105.316 93.1825 105.389 93.1202 105.45L91.7102 106.85C91.2511 107.329 90.9964 107.967 91.0002 108.63Z" fill="#FC8064"/>
<path d="M94.0004 104.36H96.7204C97.3884 104.359 98.0286 104.093 98.5004 103.62L99.9104 102.21C99.9718 102.148 100.045 102.099 100.126 102.065C100.206 102.031 100.293 102.014 100.38 102.014C100.468 102.014 100.554 102.031 100.635 102.065C100.716 102.099 100.789 102.148 100.85 102.21L103.14 104.51C103.203 104.572 103.252 104.645 103.286 104.726C103.32 104.806 103.337 104.893 103.337 104.98C103.337 105.068 103.32 105.154 103.286 105.235C103.252 105.316 103.203 105.389 103.14 105.45L100.85 107.74C100.789 107.803 100.716 107.852 100.635 107.886C100.554 107.92 100.468 107.937 100.38 107.937C100.293 107.937 100.206 107.92 100.126 107.886C100.045 107.852 99.9718 107.803 99.9104 107.74L98.5004 106.33C98.2663 106.098 97.9886 105.913 97.6832 105.788C97.3777 105.663 97.0506 105.599 96.7204 105.6H94.0004C93.3372 105.6 92.7008 105.863 92.2304 106.33L90.8204 107.74C90.759 107.803 90.6859 107.852 90.6052 107.886C90.5245 107.92 90.4379 107.937 90.3504 107.937C90.263 107.937 90.1764 107.92 90.0957 107.886C90.015 107.852 89.9418 107.803 89.8804 107.74L87.5804 105.45C87.5182 105.389 87.4687 105.316 87.4349 105.235C87.4012 105.154 87.3838 105.068 87.3838 104.98C87.3838 104.893 87.4012 104.806 87.4349 104.726C87.4687 104.645 87.5182 104.572 87.5804 104.51L89.8804 102.21C89.9418 102.148 90.015 102.099 90.0957 102.065C90.1764 102.031 90.263 102.014 90.3504 102.014C90.4379 102.014 90.5245 102.031 90.6052 102.065C90.6859 102.099 90.759 102.148 90.8204 102.21L92.2304 103.62C92.6998 104.091 93.3359 104.357 94.0004 104.36Z" fill="#FC8064"/>
<path d="M100.58 212.52L99.0503 129.52L90.8603 129.73C71.4503 130.24 56.2203 148.92 56.8603 172.14C57.5003 195.36 73.5203 213.24 92.9303 212.73L100.58 212.52Z" fill="#FFB3A2"/>
<path d="M100.85 129.93C81.4401 129.42 67.8501 147.59 67.2601 170.51C66.6701 193.43 79.2601 211.51 98.6901 212C118.12 212.49 133 195.23 133.6 172.31C134.2 149.39 120.26 130.44 100.85 129.93Z" fill="#FFE7E1"/>
<path d="M98.8099 132.49C116.55 132.03 131.43 148.93 131.98 170.17C132.53 191.41 118.56 209.07 100.82 209.54C83.0799 210.01 68.1999 193.09 67.6499 171.85C67.0999 150.61 81.0699 133 98.8099 132.49ZM98.7299 129.49C79.3299 130 64.0799 148.99 64.6699 171.91C65.2599 194.83 81.4899 213 100.9 212.51C120.31 212.02 135.56 193 135 170.1C134.44 147.2 118.14 129 98.7299 129.51V129.49Z" fill="#FFD2C8"/>
<path d="M114 139.47C114.04 139.503 114.069 139.548 114.081 139.598C114.094 139.649 114.09 139.702 114.07 139.75L112.25 143.8C112.241 143.822 112.228 143.841 112.212 143.857C112.195 143.873 112.175 143.886 112.153 143.893C112.131 143.901 112.108 143.904 112.085 143.901C112.062 143.899 112.04 143.892 112.02 143.88C111.98 143.849 111.952 143.806 111.939 143.757C111.926 143.708 111.93 143.657 111.95 143.61L113.77 139.55C113.778 139.529 113.791 139.509 113.808 139.493C113.824 139.477 113.844 139.465 113.866 139.457C113.888 139.45 113.911 139.447 113.934 139.449C113.957 139.451 113.98 139.458 114 139.47Z" fill="#55738D"/>
<path d="M125.39 152.43C125.411 152.476 125.416 152.527 125.406 152.575C125.395 152.624 125.368 152.668 125.33 152.7L122.06 155.1C122.042 155.114 122.02 155.123 121.997 155.127C121.974 155.131 121.95 155.13 121.928 155.123C121.906 155.116 121.885 155.104 121.868 155.088C121.851 155.072 121.838 155.052 121.83 155.03C121.806 154.986 121.799 154.934 121.81 154.884C121.821 154.834 121.849 154.79 121.89 154.76L125.16 152.36C125.179 152.346 125.201 152.337 125.224 152.333C125.247 152.329 125.271 152.331 125.293 152.338C125.315 152.344 125.336 152.356 125.353 152.372C125.37 152.388 125.383 152.408 125.39 152.43Z" fill="#55738D"/>
<path d="M129.89 170.41C129.893 170.434 129.891 170.458 129.884 170.48C129.878 170.503 129.867 170.525 129.852 170.543C129.837 170.562 129.819 170.577 129.798 170.589C129.777 170.6 129.754 170.607 129.73 170.61L125.88 170.71C125.856 170.71 125.832 170.705 125.81 170.695C125.788 170.686 125.768 170.671 125.752 170.653C125.736 170.635 125.724 170.614 125.717 170.591C125.71 170.568 125.707 170.544 125.71 170.52C125.71 170.41 125.78 170.31 125.87 170.31L129.72 170.21C129.769 170.215 129.814 170.239 129.845 170.276C129.877 170.313 129.893 170.361 129.89 170.41Z" fill="#55738D"/>
<path d="M96.4697 155L99.1097 148.31L102.19 154.85H100.48L101.66 169.15C101.672 169.39 101.636 169.63 101.554 169.856C101.472 170.082 101.346 170.29 101.183 170.467C101.02 170.644 100.824 170.786 100.605 170.886C100.387 170.986 100.15 171.042 99.9097 171.05C99.6692 171.058 99.4295 171.017 99.2048 170.931C98.9801 170.845 98.775 170.714 98.6015 170.548C98.4281 170.381 98.29 170.181 98.1952 169.959C98.1004 169.738 98.0509 169.5 98.0497 169.26L98.1597 154.92L96.4697 155Z" fill="#FFD2C8"/>
<path d="M97.3398 170.15C97.4371 170.643 97.6732 171.098 98.0204 171.462C98.3676 171.826 98.8115 172.083 99.2998 172.203C99.7881 172.323 100.301 172.301 100.777 172.14C101.253 171.978 101.673 171.684 101.988 171.292C102.303 170.9 102.499 170.426 102.554 169.927C102.609 169.427 102.52 168.922 102.297 168.471C102.075 168.02 101.728 167.642 101.298 167.381C100.868 167.121 100.372 166.988 99.8698 167C99.118 167.085 98.4304 167.464 97.9566 168.054C97.4828 168.644 97.2611 169.397 97.3398 170.15Z" fill="#FFD2C8"/>
<path d="M126.33 188.6C126.322 188.622 126.309 188.641 126.292 188.657C126.275 188.673 126.255 188.686 126.233 188.693C126.212 188.701 126.188 188.704 126.165 188.701C126.142 188.699 126.12 188.692 126.1 188.68L122.71 186.45C122.67 186.419 122.642 186.376 122.629 186.327C122.617 186.278 122.621 186.227 122.64 186.18C122.648 186.158 122.661 186.139 122.678 186.123C122.695 186.107 122.715 186.095 122.737 186.087C122.758 186.079 122.782 186.077 122.805 186.079C122.828 186.081 122.85 186.088 122.87 186.1L126.26 188.33C126.3 188.361 126.328 188.404 126.341 188.453C126.353 188.502 126.35 188.554 126.33 188.6Z" fill="#55738D"/>
<path d="M115.66 202.13C115.641 202.142 115.619 202.15 115.597 202.153C115.574 202.155 115.551 202.154 115.529 202.147C115.508 202.14 115.487 202.129 115.47 202.114C115.453 202.099 115.44 202.081 115.43 202.06L113.43 198.06C113.408 198.015 113.402 197.963 113.412 197.914C113.423 197.865 113.451 197.821 113.49 197.79C113.509 197.776 113.531 197.767 113.554 197.763C113.577 197.759 113.6 197.76 113.623 197.767C113.645 197.774 113.666 197.786 113.682 197.802C113.699 197.818 113.712 197.838 113.72 197.86L115.72 201.81C115.737 201.835 115.749 201.863 115.756 201.892C115.762 201.922 115.762 201.953 115.757 201.982C115.751 202.012 115.74 202.04 115.723 202.066C115.707 202.091 115.685 202.113 115.66 202.13Z" fill="#55738D"/>
<path d="M100.74 207.36C100.716 207.36 100.692 207.355 100.67 207.345C100.648 207.336 100.629 207.321 100.613 207.303C100.596 207.285 100.584 207.264 100.577 207.241C100.57 207.218 100.568 207.194 100.57 207.17L100.45 202.54C100.448 202.516 100.45 202.492 100.456 202.469C100.463 202.446 100.474 202.425 100.489 202.406C100.504 202.388 100.522 202.372 100.543 202.361C100.564 202.35 100.587 202.342 100.61 202.34C100.659 202.345 100.704 202.369 100.736 202.406C100.767 202.443 100.783 202.491 100.78 202.54L100.9 207.16C100.903 207.184 100.901 207.207 100.895 207.23C100.888 207.253 100.877 207.275 100.862 207.293C100.847 207.312 100.829 207.327 100.808 207.339C100.787 207.35 100.764 207.357 100.74 207.36Z" fill="#55738D"/>
<path d="M85.5704 202.91C85.5307 202.879 85.5024 202.836 85.4898 202.787C85.4771 202.738 85.4809 202.687 85.5004 202.64L87.3204 198.58C87.3276 198.559 87.3395 198.54 87.3552 198.524C87.3709 198.508 87.3901 198.495 87.4112 198.488C87.4323 198.48 87.4549 198.477 87.4772 198.479C87.4996 198.481 87.5212 198.489 87.5404 198.5C87.5838 198.531 87.6149 198.576 87.6277 198.627C87.6406 198.679 87.6344 198.733 87.6104 198.78L85.7904 202.83C85.7832 202.852 85.7713 202.871 85.7555 202.887C85.7398 202.903 85.7207 202.915 85.6996 202.923C85.6785 202.931 85.6559 202.934 85.6335 202.931C85.6112 202.929 85.5896 202.922 85.5704 202.91Z" fill="#55738D"/>
<path d="M74.2104 190C74.1843 189.955 74.1749 189.902 74.1841 189.851C74.1932 189.799 74.2203 189.753 74.2604 189.72L77.5304 187.32C77.5498 187.308 77.5714 187.3 77.594 187.297C77.6166 187.294 77.6395 187.296 77.6613 187.303C77.683 187.309 77.7031 187.321 77.7202 187.336C77.7373 187.351 77.751 187.369 77.7604 187.39C77.7847 187.435 77.793 187.488 77.7839 187.539C77.7748 187.589 77.749 187.636 77.7104 187.67L74.4404 190C74.4264 190.017 74.4088 190.03 74.3889 190.039C74.369 190.049 74.3474 190.054 74.3254 190.054C74.3035 190.054 74.2818 190.049 74.262 190.039C74.2421 190.03 74.2245 190.017 74.2104 190Z" fill="#55738D"/>
<path d="M69.7103 172C69.7045 171.952 69.718 171.902 69.7479 171.863C69.7777 171.824 69.8216 171.798 69.8703 171.79L73.7103 171.69C73.7598 171.695 73.8057 171.719 73.8389 171.756C73.8722 171.793 73.8905 171.841 73.8903 171.89C73.893 171.915 73.8908 171.94 73.8836 171.963C73.8764 171.987 73.8645 172.008 73.8486 172.027C73.8326 172.046 73.813 172.061 73.791 172.072C73.7689 172.083 73.7449 172.089 73.7203 172.09L69.8803 172.19C69.8566 172.189 69.8335 172.183 69.8121 172.173C69.7908 172.163 69.7716 172.148 69.7558 172.131C69.7401 172.113 69.7279 172.092 69.7201 172.07C69.7123 172.048 69.7089 172.024 69.7103 172Z" fill="#55738D"/>
<path d="M73.2701 153.78C73.2767 153.758 73.2884 153.739 73.3044 153.722C73.3203 153.706 73.34 153.694 73.3617 153.687C73.3833 153.68 73.4063 153.679 73.4287 153.683C73.4511 153.687 73.4722 153.696 73.4901 153.71L76.8801 155.93C76.9197 155.961 76.948 156.005 76.9607 156.053C76.9733 156.102 76.9696 156.154 76.9501 156.2C76.9433 156.223 76.9312 156.244 76.9148 156.261C76.8983 156.278 76.8781 156.291 76.8556 156.299C76.8331 156.307 76.8091 156.309 76.7856 156.306C76.762 156.303 76.7396 156.294 76.7201 156.28L73.3301 154.06C73.2899 154.027 73.2621 153.982 73.2512 153.931C73.2403 153.88 73.247 153.827 73.2701 153.78Z" fill="#55738D"/>
<path d="M83.9301 140.26C83.9482 140.246 83.9694 140.236 83.9919 140.232C84.0144 140.227 84.0376 140.228 84.0598 140.233C84.0821 140.239 84.1027 140.25 84.12 140.265C84.1374 140.28 84.1511 140.299 84.1601 140.32L86.1601 144.32C86.1918 144.358 86.2092 144.406 86.2092 144.455C86.2092 144.504 86.1918 144.552 86.1601 144.59C86.1419 144.604 86.1208 144.614 86.0983 144.618C86.0758 144.623 86.0525 144.622 86.0303 144.617C86.0081 144.611 85.9875 144.6 85.9701 144.585C85.9527 144.57 85.939 144.551 85.9301 144.53L83.9301 140.53C83.9001 140.491 83.8838 140.444 83.8838 140.395C83.8838 140.346 83.9001 140.299 83.9301 140.26Z" fill="#55738D"/>
<path d="M98.8497 135C98.9497 135 99.0197 135.08 99.0297 135.2L99.1497 139.82C99.1525 139.844 99.1505 139.868 99.144 139.891C99.1374 139.913 99.1264 139.935 99.1115 139.953C99.0966 139.972 99.0782 139.987 99.0573 139.999C99.0364 140.01 99.0134 140.018 98.9897 140.02C98.8897 140.02 98.8197 139.94 98.8097 139.83L98.6897 135.2C98.6869 135.176 98.6889 135.152 98.6954 135.129C98.702 135.107 98.713 135.085 98.7279 135.067C98.7428 135.048 98.7612 135.033 98.7821 135.021C98.803 135.01 98.826 135.002 98.8497 135Z" fill="#55738D"/>
<path d="M116 178.7L119.36 182.56L114.46 181.04L114.85 180.45L98.8499 170.67C98.72 170.58 98.6099 170.464 98.5264 170.33C98.4429 170.195 98.3878 170.045 98.3643 169.889C98.3409 169.733 98.3498 169.573 98.3903 169.42C98.4308 169.267 98.5021 169.124 98.5999 169C98.6789 168.866 98.784 168.75 98.909 168.657C99.0339 168.565 99.1762 168.498 99.3273 168.462C99.4784 168.426 99.6353 168.42 99.7886 168.445C99.9419 168.471 100.089 168.527 100.22 168.61L115.6 179.26L116 178.7Z" fill="#FFD2C8"/>
<path d="M72.8805 164.54H72.7805C72.7009 164.528 72.6245 164.5 72.5557 164.458C72.4869 164.416 72.4271 164.361 72.3797 164.296C72.3323 164.231 72.2982 164.157 72.2795 164.079C72.2607 164 72.2577 163.919 72.2705 163.84C72.5794 161.941 73.0341 160.069 73.6305 158.24C73.6561 158.164 73.6964 158.093 73.7492 158.033C73.802 157.972 73.8663 157.923 73.9382 157.887C74.0102 157.851 74.0885 157.83 74.1687 157.824C74.2488 157.819 74.3293 157.829 74.4055 157.855C74.4816 157.88 74.552 157.921 74.6126 157.974C74.6731 158.026 74.7227 158.091 74.7585 158.163C74.7942 158.235 74.8154 158.313 74.8209 158.393C74.8264 158.473 74.8161 158.554 74.7905 158.63C74.2153 160.393 73.7774 162.199 73.4805 164.03C73.4568 164.172 73.3836 164.301 73.2738 164.395C73.1639 164.488 73.0246 164.539 72.8805 164.54ZM120.64 150.54C115.34 142.75 107.48 138.41 99.1005 138.63C99.0131 138.641 98.9244 138.633 98.8402 138.608C98.756 138.582 98.6783 138.538 98.6122 138.48C98.5461 138.422 98.4932 138.35 98.4569 138.27C98.4206 138.19 98.4019 138.103 98.4019 138.015C98.4019 137.927 98.4206 137.84 98.4569 137.759C98.4932 137.679 98.5461 137.608 98.6122 137.549C98.6783 137.491 98.756 137.448 98.8402 137.422C98.9244 137.396 99.0131 137.389 99.1005 137.4C103.56 137.284 107.965 138.402 111.83 140.63C115.778 142.906 119.148 146.061 121.68 149.85C121.726 149.916 121.758 149.991 121.775 150.069C121.791 150.148 121.792 150.229 121.777 150.308C121.762 150.387 121.732 150.462 121.688 150.53C121.644 150.597 121.587 150.655 121.52 150.7C121.417 150.769 121.295 150.807 121.17 150.81C121.065 150.812 120.96 150.786 120.867 150.735C120.774 150.684 120.696 150.61 120.64 150.52V150.54Z" fill="white"/>
<path d="M212.15 107.73L203.48 206.78C203.56 212.61 187.55 216.47 167.72 216.78C157.4 216.94 148.07 216.09 141.49 214.43C135.42 212.9 131.68 210.66 131.64 207.87L131.26 204.66L129.76 191.88L125.24 153.52L122.75 132.37L121.21 119.3L120.61 114.3L120.01 109.15C125.78 113.49 137.35 116.15 150.51 117.15C171.02 118.76 195.4 116.44 207.78 110.42C209.33 109.685 210.795 108.783 212.15 107.73Z" fill="#FFD2C8"/>
<path d="M207.78 110.41C207.71 110.959 207.444 111.464 207.03 111.832C206.617 112.199 206.084 112.405 205.53 112.41C205.141 112.385 204.75 112.385 204.36 112.41H203.67H203.58C202.812 112.546 202.05 112.723 201.3 112.94C199.83 113.36 198.41 113.94 196.96 114.37C193.772 115.368 190.526 116.173 187.24 116.78C184.24 117.37 181.24 117.87 178.3 118.49C175.36 119.11 172.09 119.77 168.94 120.14C167.42 120.31 165.89 120.39 164.37 120.53L163.6 120.61H163.46L162.41 120.76L159.78 121.13C158.24 121.33 156.7 121.51 155.15 121.56C153.6 121.61 152.09 121.56 150.55 121.56C150.11 121.56 149.66 121.56 149.22 121.65H149.06L148.61 121.71C147.793 121.847 146.968 121.933 146.14 121.97C144.652 122.028 143.162 121.982 141.68 121.83C140.81 121.72 139.96 121.58 139.1 121.44L138.58 121.35H138.29H137.92H137.51C136.01 121.24 134.51 121.35 133.01 121.13C131.453 120.943 129.907 120.669 128.38 120.31C128.01 120.23 127.63 120.15 127.26 120.09H126.95L126.41 120.03C125.7 119.97 124.98 119.92 124.27 119.85C123.238 119.765 122.215 119.594 121.21 119.34L120.61 114.34H120.69C120.85 114.44 121.01 114.52 121.17 114.6L121.36 114.69L121.76 114.84L122.12 114.95C122.53 115.06 122.95 115.15 123.37 115.22L123.78 115.28H124.05C124.91 115.37 125.77 115.42 126.63 115.5C128.36 115.67 130.01 116.1 131.71 116.41L132.82 116.59H133.22L133.75 116.64C134.58 116.71 135.4 116.75 136.23 116.75C137.771 116.788 139.306 116.952 140.82 117.24L141.44 117.35L141.85 117.41L142.63 117.48C143.3 117.48 143.98 117.48 144.63 117.48C145.42 117.52 146.211 117.52 147 117.48H147.29H147.61L149.09 117.28C149.55 117.28 150.02 117.19 150.49 117.18C151.49 117.18 152.54 117.18 153.56 117.18C155.104 117.187 156.647 117.103 158.18 116.93C158.59 116.93 159.01 116.84 159.42 116.78H159.75H160.06L162.31 116.45C163.92 116.22 165.52 116.11 167.14 115.98C167.94 115.91 168.75 115.83 169.55 115.73H169.64L170.2 115.64L171.2 115.49C174.2 114.98 177.2 114.28 180.15 113.71C183.1 113.14 185.95 112.71 188.82 112.04C191.612 111.444 194.367 110.686 197.07 109.77C199.78 108.83 202.61 107.84 205.52 108.05C206.112 108.065 206.676 108.307 207.095 108.726C207.513 109.144 207.755 109.708 207.77 110.3C207.776 110.336 207.78 110.373 207.78 110.41Z" fill="#FFD2C8"/>
<path d="M191.29 115.32L187 215.16C197 213.46 203.56 210.52 203.51 206.78L212.18 107.78C207.9 111.12 200.35 113.66 191.29 115.32Z" fill="#FFB3A2"/>
<path d="M213.36 110.68L213.29 101.8L208.51 101.36C200.77 97.9301 130.51 98.9901 122.92 102.65L118.24 103.23L118.34 112.11C118.34 115.59 139.78 119.03 166.02 118.64C192.26 118.25 213.35 114.83 213.36 110.68Z" fill="#E2E2E2"/>
<path d="M165.848 108.38C192.095 107.986 213.334 105.039 213.285 101.797C213.236 98.5555 191.919 96.2471 165.672 96.6411C139.425 97.0351 118.187 99.9823 118.236 103.224C118.284 106.465 139.601 108.774 165.848 108.38Z" fill="#F7F8F8"/>
<path d="M203 99.0604L202.93 93.4804L199.21 93.0804C193.14 90.8904 138.06 91.7204 132.06 94.0804L128.39 94.5904L128.45 100.17C128.51 103.94 145.25 105.76 165.84 105.45C186.43 105.14 203 102.83 203 99.0604Z" fill="#E2E2E2"/>
<path d="M165.672 97.9833C186.254 97.6743 202.912 95.6556 202.879 93.4743C202.846 91.293 186.135 89.7752 165.554 90.0842C144.973 90.3931 128.315 92.4118 128.347 94.5931C128.38 96.7744 145.091 98.2922 165.672 97.9833Z" fill="#F7F8F8"/>
<path d="M199.4 93.7396C199.02 94.2296 197.86 94.5896 195.8 94.8596C195.24 94.9396 194.63 94.9996 193.94 95.0596L192.42 95.1796C190.92 95.2796 189.76 95.3096 189.69 95.3096H189.64C189.15 95.3096 188.73 95.1196 188.71 94.8696C188.69 94.6196 189.08 94.3896 189.59 94.3796C189.59 94.3796 191.07 93.9996 192.59 93.5396C193.41 93.2896 194.24 93.0196 194.89 92.7596C195.36 92.5796 194.03 92.4796 194.11 92.2296C194.19 91.9796 194.67 91.7996 195.19 91.8396C195.34 91.8396 195.69 91.8396 196.13 91.9396C197.234 92.005 198.308 92.3232 199.27 92.8696C199.342 92.9129 199.403 92.9716 199.45 93.0415C199.497 93.1114 199.527 93.1908 199.54 93.2739C199.552 93.3571 199.546 93.4419 199.522 93.5224C199.498 93.6029 199.456 93.6771 199.4 93.7396Z" fill="#FC8064"/>
<path d="M152.11 109.19C134.84 109.19 124.99 106.83 124.88 106.81C124.727 106.76 124.599 106.654 124.521 106.513C124.443 106.373 124.421 106.208 124.458 106.052C124.496 105.896 124.591 105.759 124.725 105.67C124.859 105.581 125.021 105.545 125.18 105.57C125.3 105.57 137.64 108.57 158.97 107.79C159.125 107.81 159.267 107.885 159.37 108.002C159.473 108.119 159.53 108.269 159.53 108.425C159.53 108.581 159.473 108.732 159.37 108.849C159.267 108.966 159.125 109.041 158.97 109.06C156.577 109.154 154.29 109.197 152.11 109.19Z" fill="white"/>
<path d="M155.75 98.7701C141.04 98.7701 133.75 97.2101 133.65 97.1901C133.569 97.1724 133.491 97.1388 133.423 97.0912C133.355 97.0437 133.296 96.9831 133.251 96.913C133.16 96.7714 133.129 96.5995 133.165 96.4351C133.201 96.2706 133.3 96.1272 133.442 96.0362C133.584 95.9453 133.755 95.9143 133.92 95.9501C134.02 95.9501 143.55 97.9501 162.85 97.3901C162.933 97.3861 163.017 97.3987 163.096 97.4273C163.174 97.4559 163.246 97.4999 163.308 97.5567C163.369 97.6135 163.419 97.6819 163.453 97.7581C163.488 97.8342 163.507 97.9165 163.51 98.0001C163.513 98.0841 163.499 98.1679 163.469 98.2466C163.439 98.3252 163.394 98.3973 163.337 98.4586C163.279 98.5199 163.21 98.5692 163.133 98.6038C163.057 98.6384 162.974 98.6575 162.89 98.6601C160.34 98.7401 158 98.7701 155.75 98.7701Z" fill="white"/>
<path d="M173.71 192C170.52 200.45 163.84 213.33 163.84 213.33L148.84 206.93C143.304 204.568 137.226 203.772 131.27 204.63L129.77 191.85V191.78L176.56 169.41C176.56 169.41 176.89 183.56 173.71 192Z" fill="#FC8064"/>
<path d="M217.07 30.9998L201.46 47.2598L196.15 91.9398L195.8 94.8598C195.24 94.9398 194.63 94.9998 193.94 95.0598L192.42 95.1798L192.61 93.5398L198.1 47.3298C198.207 46.6568 198.452 46.0133 198.82 45.4401C199.189 44.8669 199.672 44.3764 200.24 43.9998L216.07 27.9998C216.143 27.9251 216.233 27.8691 216.332 27.8364C216.431 27.8038 216.536 27.7954 216.639 27.8121C216.742 27.8287 216.84 27.8699 216.923 27.9322C217.007 27.9945 217.074 28.076 217.12 28.1698L217.41 28.7698C217.584 29.1326 217.645 29.5395 217.584 29.9373C217.524 30.3352 217.344 30.7055 217.07 30.9998Z" fill="#FFD2C8"/>
<path d="M175.9 165.72C176.67 162.48 177.7 162.87 178.26 155.2C178.82 147.53 179.14 146.2 179.14 146.2L152.14 141.42L175.9 165.72Z" fill="#FC8064"/>
<path d="M125.42 153.77L125.24 153.51L122.75 132.36C126.75 135.36 133.09 137.2 143.01 138.99C156.89 141.5 125.42 153.77 125.42 153.77Z" fill="#FC8064"/>
<path d="M119.57 149C118.72 160.81 118.19 169.29 115.71 175.44C113.23 181.59 102.71 193.18 102.71 193.18L110.44 195.53C126.437 200.406 142.983 203.251 159.69 204C166.271 197.852 171.396 190.312 174.69 181.93C177.31 174.87 177.31 169.19 178.25 155.23L119.57 149Z" fill="#F7F8F8"/>
<path d="M178.26 155.21L175.89 154.95L119.57 148.95C119.695 147.049 119.695 145.141 119.57 143.24C119.438 140.955 119.104 138.686 118.57 136.46L147.17 138.18C156.585 139.245 165.901 141.054 175.03 143.59C175.03 143.59 178.78 147.63 178.26 155.21Z" fill="#F7F8F8"/>
<path d="M175.06 143.63C175.06 143.63 174.06 143.24 172.22 142.63C161.155 138.901 149.609 136.79 137.94 136.36L114.94 135.49C114.94 135.49 119.45 138.58 119.64 143.28C150.55 128.9 178.31 155.21 178.31 155.21C178.78 147.63 175.06 143.63 175.06 143.63Z" fill="#E2E2E2"/>
<path d="M86.4397 209.56C80.0858 205.959 74.7444 200.811 70.9107 194.595C67.077 188.379 64.8752 181.295 64.5097 174C63.1497 148.85 79.3697 136.65 79.5097 136.53L79.8197 136.95C79.6597 137.07 63.6597 149.11 65.0097 173.95C65.3683 181.159 67.5417 188.161 71.3282 194.305C75.1147 200.45 80.3917 205.539 86.6697 209.1L86.4397 209.56Z" fill="#F4603F"/>
<path d="M165.69 217C156.13 217 146.04 216.08 137.89 213.62L138.04 213.12C156.48 218.68 184.96 216.36 194.31 213.25C203.66 210.14 203.23 206.88 203.22 206.85V206.78L210.63 122.09L211.15 122.14L203.74 206.79C203.74 207.23 203.88 210.61 194.48 213.74C189.2 215.48 177.89 217 165.69 217Z" fill="#F4603F"/>
<path d="M164.37 119C159.257 119 153.907 118.87 148.32 118.61V118.09C173.55 119.26 193.88 117.78 208.74 113.68L208.96 113.62C213.42 112.39 213.1 110.79 213.09 110.78V110.71L213 101.8C213 100.25 206.79 98.9898 202.88 98.5698L202.94 98.0498C204.02 98.1698 213.5 99.2798 213.52 101.8L213.59 110.65C213.643 110.998 213.568 111.353 213.38 111.65C213 112.33 211.94 113.31 209.09 114.1L208.87 114.16C197.28 117.35 182.35 119 164.37 119Z" fill="#F4603F"/>
<path d="M173.4 108.46V107.94C212.12 106.57 213.05 101.84 213.05 101.8H213.57C213.548 102.072 213.423 102.326 213.22 102.51C211.91 103.91 205.45 107.33 173.4 108.46Z" fill="#F4603F"/>
<path d="M173.4 98.0503V97.5303C184.66 97.1103 201.72 95.7303 202.56 93.6103C202.56 93.6103 202.64 93.4103 202.38 93.1503C199.49 90.1503 172.45 90.1503 150.18 90.9403V90.4203C158.28 90.1203 198.89 88.8303 202.77 92.7803C202.916 92.8964 203.022 93.055 203.074 93.2341C203.126 93.4133 203.121 93.6041 203.06 93.7803C201.79 96.9103 176.3 97.9403 173.4 98.0503Z" fill="#F4603F"/>
<path d="M137 97.2497C134.93 97.0697 128.14 96.3497 128.12 94.6097C128.1 92.8697 134.91 91.9297 137 91.6797L137.06 92.1997C133 92.6697 128.63 93.7297 128.64 94.5997C128.65 95.4697 133 96.3897 137 96.7397V97.2497Z" fill="#F4603F"/>
<path d="M195.26 103.24L195.18 102.73C202.67 101.56 202.69 99.1002 202.69 99.0802L202.62 93.4902H203.14L203.21 99.0702C203.21 99.1702 203.31 102 195.26 103.24Z" fill="#F4603F"/>
<path d="M137 104.25C130.63 103.46 128.3 100.99 128.2 100.88L128.13 100.81V94.5996H128.65V100.6C129.08 101 131.49 103.04 137.07 103.73L137 104.25Z" fill="#F4603F"/>
<path d="M118.08 112.11L117.98 103.23C117.98 100.97 126.57 99.3295 128.3 99.0195L128.39 99.5295C124.56 100.21 118.48 101.82 118.5 103.22L118.6 112.1L118.08 112.11Z" fill="#F4603F"/>
<path d="M161.69 105.75H160.28V105.23C160.46 105.23 178.59 105.37 187.59 103.92L187.67 104.43C180.11 105.65 166.15 105.75 161.69 105.75Z" fill="#F4603F"/>
<path d="M120.94 114.278L120.424 114.337L122.881 135.837L123.398 135.778L120.94 114.278Z" fill="#F4603F"/>
<path d="M95.0003 213.15C82.2003 213.15 71.5003 207.69 64.4703 197.44C56.9903 186.53 56.2903 171.21 56.2803 171.06H56.8003C56.8003 171.21 57.5103 186.38 64.9003 197.16C72.9003 208.8 85.6603 214.16 100.9 212.27L100.96 212.79C98.9828 213.031 96.9924 213.151 95.0003 213.15Z" fill="#F4603F"/>
<path d="M171.37 189.58L170.95 189.28C177.2 180.65 177.57 167.52 177.8 159.68C177.86 157.6 177.91 155.8 178.05 154.52C178.69 148.91 175.3 144.37 174.9 143.84C159.37 137.45 139.17 136.67 138.97 136.66V136.14C139.17 136.14 159.52 136.93 175.14 143.39H175.2V143.44C175.2 143.44 179.2 148.44 178.51 154.55C178.37 155.81 178.32 157.55 178.26 159.67C178.09 167.6 177.71 180.82 171.37 189.58Z" fill="#F4603F"/>
<path d="M158.77 204.24C150.21 204.24 133.03 201.24 127.77 200.24C119.11 198.64 102.77 193.48 102.57 193.43L102.19 193.31L106.32 188.54L106.71 188.88L103.14 193C105.65 193.79 120.01 198.22 127.91 199.68C139.03 201.74 153.22 203.86 159.68 203.68V204.2L158.77 204.24Z" fill="#F4603F"/>
<path d="M126.458 154.161L126.215 156.227L164.064 160.679L164.307 158.614L126.458 154.161Z" fill="#FFD2C8"/>
<path d="M124.574 164.014L124.444 165.046L169.691 170.714L169.82 169.682L124.574 164.014Z" fill="#FFD2C8"/>
<path d="M123.217 168.811L123.088 169.843L168.334 175.511L168.464 174.479L123.217 168.811Z" fill="#FFD2C8"/>
<path d="M121.375 173.613L121.246 174.645L166.889 180.362L167.019 179.33L121.375 173.613Z" fill="#FFD2C8"/>
<path d="M119.328 178.493L119.199 179.525L164.446 185.193L164.575 184.161L119.328 178.493Z" fill="#FFD2C8"/>
<path d="M117.078 183.251L116.949 184.283L138.213 186.947L138.342 185.915L117.078 183.251Z" fill="#FFD2C8"/>
</svg>
