<svg width="257" height="256" viewBox="0 0 257 256" fill="none" xmlns="http://www.w3.org/2000/svg">
<path d="M52.8972 108.802L49.1928 105.098C48.7244 104.63 47.965 104.63 47.4966 105.098L43.7923 108.802C43.3239 109.271 43.3239 110.03 43.7923 110.499L47.4966 114.203C47.965 114.671 48.7244 114.671 49.1928 114.203L52.8972 110.499C53.3656 110.03 53.3656 109.271 52.8972 108.802Z" fill="#FC8064"/>
<path d="M219.339 131.535L215.634 127.831C215.166 127.362 214.406 127.362 213.938 127.831L210.234 131.535C209.765 132.003 209.765 132.763 210.234 133.231L213.938 136.935C214.406 137.404 215.166 137.404 215.634 136.935L219.339 133.231C219.807 132.763 219.807 132.003 219.339 131.535Z" fill="#FC8064"/>
<path d="M218.514 148.48L214.81 144.776C214.342 144.307 213.582 144.307 213.114 144.776L209.409 148.48C208.941 148.949 208.941 149.708 209.409 150.176L213.114 153.881C213.582 154.349 214.342 154.349 214.81 153.881L218.514 150.176C218.983 149.708 218.983 148.949 218.514 148.48Z" fill="#FC8064"/>
<path d="M206.836 140.002L203.131 136.297C202.663 135.829 201.903 135.829 201.435 136.297L197.731 140.002C197.262 140.47 197.262 141.229 197.731 141.698L201.435 145.402C201.903 145.871 202.663 145.871 203.131 145.402L206.836 141.698C207.304 141.229 207.304 140.47 206.836 140.002Z" fill="#FC8064"/>
<path d="M42.7419 100.407L39.0375 96.7026C38.5692 96.2342 37.8098 96.2342 37.3414 96.7026L33.637 100.407C33.1686 100.875 33.1686 101.635 33.637 102.103L37.3414 105.807C37.8098 106.276 38.5692 106.276 39.0375 105.807L42.7419 102.103C43.2103 101.635 43.2103 100.875 42.7419 100.407Z" fill="#FC8064"/>
<path d="M47.431 79.7624V84.3562C47.4336 84.9137 47.3249 85.4661 47.1111 85.981C46.8974 86.4959 46.583 86.9629 46.1864 87.3546L43.7763 89.7307C43.5656 89.9427 43.4473 90.2295 43.4473 90.5284C43.4473 90.8274 43.5656 91.1141 43.7763 91.3261L47.646 95.1958C47.858 95.4066 48.1447 95.5248 48.4437 95.5248C48.7426 95.5248 49.0294 95.4066 49.2414 95.1958L53.145 91.3261C53.3557 91.1141 53.474 90.8274 53.474 90.5284C53.474 90.2295 53.3557 89.9427 53.145 89.7307L50.7689 87.3546C49.9729 86.5597 49.5252 85.4812 49.5242 84.3562V79.7624C49.5265 78.6377 49.974 77.5596 50.7689 76.7639L53.145 74.3878C53.3557 74.1758 53.474 73.8891 53.474 73.5901C53.474 73.2912 53.3557 73.0044 53.145 72.7924L49.2753 68.9228C49.0633 68.712 48.7765 68.5938 48.4776 68.5938C48.1787 68.5938 47.8919 68.712 47.6799 68.9228L43.7763 72.7924C43.5757 73.0029 43.4638 73.2824 43.4638 73.5732C43.4638 73.8639 43.5757 74.1435 43.7763 74.3539L46.1524 76.73C46.5583 77.1237 46.8807 77.5951 47.1003 78.1161C47.32 78.6371 47.4325 79.197 47.431 79.7624Z" fill="#FC8064"/>
<path d="M58.5653 88.8705V93.4643C58.5669 94.0233 58.4577 94.5771 58.2441 95.0937C58.0305 95.6103 57.7166 96.0795 57.3207 96.4741L54.9445 98.8502C54.7372 99.0617 54.6211 99.346 54.6211 99.6422C54.6211 99.9384 54.7372 100.223 54.9445 100.434L58.8255 104.304C59.037 104.511 59.3214 104.627 59.6176 104.627C59.9137 104.627 60.1981 104.511 60.4096 104.304L64.2793 100.434C64.4866 100.223 64.6027 99.9384 64.6027 99.6422C64.6027 99.346 64.4866 99.0617 64.2793 98.8502L61.9032 96.4741C61.1086 95.6735 60.6615 94.5922 60.6585 93.4643V88.8705C60.6572 87.7495 61.096 86.6728 61.8805 85.8721L64.2566 83.4959C64.464 83.2844 64.5801 83.0001 64.5801 82.7039C64.5801 82.4077 64.464 82.1234 64.2566 81.9119L60.4096 78.0422C60.1981 77.8349 59.9137 77.7188 59.6176 77.7188C59.3214 77.7188 59.037 77.8349 58.8255 78.0422L54.9445 81.9119C54.7372 82.1234 54.6211 82.4077 54.6211 82.7039C54.6211 83.0001 54.7372 83.2844 54.9445 83.4959L57.3207 85.8721C57.7153 86.2653 58.0284 86.7326 58.2419 87.2472C58.4555 87.7617 58.5654 88.3134 58.5653 88.8705Z" fill="#FC8064"/>
<path d="M233.663 177.76L233.561 177.602C233.535 177.561 233.504 177.524 233.471 177.489L233.38 177.376L233.267 177.274C233.142 177.162 233.006 177.063 232.86 176.98L95.4412 97.64C94.7387 97.2885 93.9639 97.1055 93.1783 97.1055C92.3927 97.1055 91.6179 97.2885 90.9153 97.64L23.5129 136.586L23.2413 136.755L23.1508 136.823C22.9987 136.943 22.8685 137.089 22.7661 137.253L22.6982 137.366C22.664 137.422 22.6409 137.483 22.6303 137.547C22.6201 137.592 22.6201 137.638 22.6303 137.683C22.6193 137.758 22.6193 137.834 22.6303 137.909C22.6249 137.962 22.6249 138.015 22.6303 138.068C22.652 138.189 22.6901 138.307 22.7435 138.419C22.9344 138.755 23.2169 139.029 23.5581 139.211L160.931 218.505C161.351 218.735 161.806 218.892 162.278 218.969C162.586 219.012 162.895 219.039 163.206 219.048C163.513 219.045 163.819 219.018 164.122 218.969L164.416 218.912C164.701 218.849 164.978 218.754 165.242 218.629L165.48 218.505L232.86 179.582C233.72 179.107 233.991 178.45 233.663 177.76ZM218.863 174.943L214.552 177.432L157.152 210.551C157.005 210.64 156.849 210.715 156.688 210.777C156.221 210.973 155.719 211.074 155.212 211.074C154.705 211.074 154.203 210.973 153.735 210.777C153.571 210.716 153.412 210.64 153.26 210.551L44.2756 147.629L39.0029 144.585C38.8176 144.484 38.6495 144.354 38.505 144.2C37.9619 143.601 38.1316 142.831 39.0029 142.334L100.691 106.714C101.399 106.242 102.24 106.008 103.09 106.047C103.288 106.078 103.481 106.132 103.667 106.205L103.973 106.352L218.863 172.691C219.061 172.806 219.225 172.97 219.338 173.167C219.452 173.365 219.512 173.589 219.512 173.817C219.512 174.045 219.452 174.269 219.338 174.467C219.225 174.664 219.061 174.829 218.863 174.943Z" fill="#FFB3A2"/>
<path d="M23.2426 136.71C22.6539 137.155 22.169 137.722 21.8212 138.372C21.4735 139.023 21.2712 139.741 21.2285 140.478V143.488C21.2674 144.279 21.4926 145.05 21.8859 145.739C22.2791 146.427 22.8292 147.012 23.4915 147.448L160.899 226.776C161.416 227.06 161.986 227.233 162.573 227.285C162.777 227.296 162.981 227.296 163.184 227.285V219.003C162.878 219.003 162.571 218.981 162.268 218.935C161.789 218.858 161.326 218.701 160.899 218.471L23.5028 139.165C22.3487 138.498 22.2808 137.434 23.2426 136.71Z" fill="#FFD2C8"/>
<path d="M197.263 193.918C195.998 193.292 194.606 192.967 193.195 192.967C191.784 192.967 190.392 193.292 189.127 193.918C188.632 194.183 188.215 194.573 187.917 195.049C187.181 196.316 188.516 197.312 189.127 197.629C190.392 198.254 191.784 198.58 193.195 198.58C194.606 198.58 195.998 198.254 197.263 197.629C197.758 197.359 198.178 196.97 198.485 196.497C199.209 195.23 197.862 194.291 197.263 193.918Z" fill="#FFD2C8"/>
<path d="M62.7074 120.654C62.8432 120.609 62.9615 120.523 63.0453 120.407C63.1292 120.291 63.1743 120.152 63.1743 120.009C63.1743 119.866 63.1292 119.726 63.0453 119.611C62.9615 119.495 62.8432 119.408 62.7074 119.364C62.357 119.185 61.9693 119.092 61.5759 119.092C61.1826 119.092 60.7948 119.185 60.4444 119.364C60.3086 119.408 60.1904 119.495 60.1065 119.611C60.0227 119.726 59.9775 119.866 59.9775 120.009C59.9775 120.152 60.0227 120.291 60.1065 120.407C60.1904 120.523 60.3086 120.609 60.4444 120.654C60.7948 120.833 61.1826 120.926 61.5759 120.926C61.9693 120.926 62.357 120.833 62.7074 120.654Z" fill="#FC8064"/>
<path d="M59.2119 126.741C59.3291 126.7 59.4306 126.624 59.5024 126.522C59.5742 126.421 59.6127 126.3 59.6127 126.176C59.6127 126.051 59.5742 125.93 59.5024 125.829C59.4306 125.728 59.3291 125.651 59.2119 125.61C58.9035 125.46 58.5649 125.382 58.2219 125.382C57.8789 125.382 57.5403 125.46 57.2318 125.61C57.1147 125.651 57.0132 125.728 56.9414 125.829C56.8696 125.93 56.8311 126.051 56.8311 126.176C56.8311 126.3 56.8696 126.421 56.9414 126.522C57.0132 126.624 57.1147 126.7 57.2318 126.741C57.5386 126.897 57.8778 126.979 58.2219 126.979C58.566 126.979 58.9052 126.897 59.2119 126.741Z" fill="#FC8064"/>
<path d="M62.5477 124.863L73.6136 118.482C74.2246 118.131 74.2473 117.588 73.6815 117.26C73.3518 117.093 72.9875 117.006 72.6179 117.006C72.2484 117.006 71.884 117.093 71.5543 117.26L60.4884 123.653C59.8887 124.004 59.8548 124.547 60.4205 124.875C60.7511 125.04 61.1159 125.125 61.4855 125.123C61.855 125.121 62.2189 125.032 62.5477 124.863Z" fill="#FC8064"/>
<path d="M233.153 177.183C234.103 177.918 233.99 178.948 232.859 179.604L165.479 218.504C164.783 218.875 164.004 219.062 163.216 219.047V227.33C164.004 227.334 164.781 227.143 165.479 226.776L232.847 187.886C233.509 187.453 234.058 186.869 234.452 186.183C234.845 185.497 235.071 184.727 235.11 183.938V180.928C235.072 180.2 234.877 179.488 234.539 178.842C234.202 178.196 233.729 177.63 233.153 177.183Z" fill="#FFD2C8"/>
<path d="M55.6483 160.041C55.9761 160.257 56.2491 160.546 56.4455 160.886C56.6419 161.226 56.7564 161.607 56.7797 161.998C56.7954 162.131 56.7728 162.265 56.7146 162.386C56.6565 162.506 56.5653 162.607 56.4516 162.677L55.6256 163.164C55.4871 163.22 55.3366 163.24 55.1882 163.223C55.0397 163.205 54.8983 163.15 54.777 163.062L39.4567 154.225C39.1307 154.007 38.8591 153.718 38.6629 153.378C38.4667 153.039 38.3512 152.659 38.3253 152.268C38.312 152.14 38.3321 152.012 38.3837 151.895C38.4353 151.778 38.5166 151.676 38.6194 151.6C38.7665 151.498 39.3323 151.181 39.4794 151.102C39.6162 151.041 39.7668 151.017 39.9159 151.033C40.0649 151.049 40.2071 151.104 40.328 151.193L55.6483 160.041Z" fill="#FFB3A2"/>
<path d="M54.8209 160.516L39.5006 151.668C38.8557 151.294 38.3691 151.566 38.3691 152.267C38.3951 152.659 38.5106 153.039 38.7068 153.378C38.903 153.717 39.1746 154.007 39.5006 154.225L54.8209 163.062C55.4772 163.446 55.9524 163.175 55.9524 162.473C55.9308 162.081 55.8171 161.7 55.6205 161.36C55.4239 161.019 55.15 160.73 54.8209 160.516Z" fill="#FFD2C8"/>
<path d="M34.3875 147.765C34.6993 147.967 34.9564 148.243 35.136 148.569C35.3156 148.895 35.4121 149.26 35.4172 149.631C35.4262 149.765 35.4008 149.899 35.3433 150.019C35.2859 150.14 35.1983 150.244 35.089 150.322C34.9532 150.401 34.4441 150.74 34.297 150.82C34.172 150.882 34.0325 150.909 33.8932 150.899C33.7539 150.889 33.6198 150.842 33.5049 150.763L26.931 146.961C26.6192 146.759 26.3622 146.482 26.1826 146.157C26.003 145.831 25.9064 145.466 25.9014 145.094C25.9007 144.967 25.9276 144.842 25.9804 144.727C26.0331 144.611 26.1104 144.509 26.2069 144.427L27.0215 143.906C27.1469 143.843 27.2873 143.816 27.4272 143.828C27.567 143.84 27.7008 143.891 27.8136 143.974L34.3875 147.765Z" fill="#FFB3A2"/>
<path d="M33.5955 148.262L27.0329 144.505C26.4332 144.155 25.9014 144.437 25.9014 145.128C25.9064 145.499 26.003 145.864 26.1826 146.19C26.3621 146.516 26.6192 146.792 26.931 146.995L33.5049 150.796C33.6139 150.882 33.746 150.934 33.8844 150.945C34.0229 150.956 34.1614 150.926 34.2826 150.858C34.4038 150.79 34.5021 150.688 34.5651 150.564C34.6281 150.44 34.6529 150.301 34.6364 150.163C34.6358 149.784 34.5402 149.412 34.3583 149.08C34.1764 148.747 33.9141 148.466 33.5955 148.262Z" fill="#FFD2C8"/>
<path d="M218.865 174.909L214.554 177.398L157.154 210.517C157.004 210.605 156.849 210.684 156.69 210.754C155.743 211.139 154.683 211.139 153.737 210.754L153.261 210.517L44.2769 147.595L39.0041 144.506C38.8189 144.405 38.6508 144.275 38.5063 144.121C37.9632 143.522 38.1329 142.764 39.0041 142.254L100.693 106.635C101.399 106.161 102.242 105.93 103.091 105.979C103.29 106.005 103.484 106.059 103.668 106.137L103.974 106.273L218.865 172.612C219.073 172.723 219.247 172.888 219.369 173.091C219.49 173.293 219.554 173.525 219.554 173.761C219.554 173.996 219.49 174.228 219.369 174.43C219.247 174.633 219.073 174.798 218.865 174.909Z" fill="white"/>
<path d="M52.0269 139.889H51.9477L51.6422 139.708L50.9067 140.138C50.8889 140.152 50.867 140.159 50.8445 140.159C50.822 140.159 50.8001 140.152 50.7823 140.138L50.6804 140.082H50.6239L50.3184 138.95L50.4202 138.894H50.5107H50.6125L51.6648 139.505L51.8232 139.414C51.8527 139.405 51.8843 139.405 51.9138 139.414H52.0043H52.0722C52.0722 139.414 52.0722 139.414 52.0722 139.471L51.9138 139.561L52.2193 139.742C52.2193 139.742 52.2193 139.742 52.2193 139.799L52.0948 139.867C52.0746 139.88 52.0511 139.888 52.0269 139.889ZM51.4272 139.516L50.6804 139.075L50.9067 139.821L51.4272 139.516Z" fill="#FFD2C8"/>
<path d="M52.7172 139.29C52.3936 139.269 52.0795 139.172 51.8007 139.007C51.4952 138.837 51.3368 138.656 51.3141 138.475C51.2915 138.294 51.416 138.136 51.6762 137.988C51.7801 137.928 51.8901 137.879 52.0043 137.841C52.115 137.808 52.2287 137.785 52.3438 137.773L52.4117 137.887C52.245 137.91 52.084 137.964 51.9365 138.045C51.763 138.151 51.6838 138.264 51.6988 138.384C51.6988 138.509 51.8346 138.633 52.0722 138.769C52.2714 138.9 52.502 138.974 52.7398 138.984C52.9363 138.996 53.1321 138.953 53.3055 138.86L53.464 138.747C53.5017 138.716 53.5325 138.677 53.5545 138.633L53.0679 138.35L52.7624 138.52C52.7487 138.528 52.7331 138.532 52.7172 138.532C52.7013 138.532 52.6857 138.528 52.6719 138.52H52.5814H52.5135C52.5135 138.52 52.5135 138.52 52.5135 138.464L52.9887 138.181H53.0906C53.1279 138.173 53.1664 138.173 53.2037 138.181L53.9052 138.577H53.9618C53.9618 138.577 53.7808 138.86 53.5432 138.995C53.3038 139.175 53.0159 139.277 52.7172 139.29Z" fill="#FFD2C8"/>
<path d="M58.747 135.669C58.8003 135.685 58.847 135.718 58.8802 135.763C58.9134 135.808 58.9313 135.862 58.9313 135.918C58.9313 135.973 58.9134 136.028 58.8802 136.073C58.847 136.117 58.8003 136.15 58.747 136.167C58.6141 136.228 58.4693 136.26 58.3227 136.26C58.1761 136.26 58.0313 136.228 57.8984 136.167C57.8499 136.145 57.8087 136.111 57.7797 136.066C57.7508 136.022 57.7354 135.97 57.7354 135.918C57.7354 135.865 57.7508 135.813 57.7797 135.769C57.8087 135.725 57.8499 135.69 57.8984 135.669C58.0299 135.602 58.1753 135.567 58.3227 135.567C58.4701 135.567 58.6155 135.602 58.747 135.669Z" fill="#FFD2C8"/>
<path d="M57.2091 135.273C56.7792 135.521 56.6547 135.872 56.8131 136.178C56.8432 136.217 56.8833 136.247 56.9291 136.265C56.975 136.283 57.0248 136.288 57.0734 136.28C57.2204 136.28 57.311 136.189 57.2657 136.11C57.2204 136.031 57.2657 135.635 57.5486 135.465C57.8969 135.286 58.2958 135.23 58.6801 135.306C58.8158 135.306 58.9516 135.306 58.9742 135.193C58.9742 135.125 58.9742 135.069 58.8045 135.046C58.2624 134.941 57.7006 135.021 57.2091 135.273Z" fill="#FFD2C8"/>
<path d="M56.5283 134.876C55.8947 135.25 55.6684 135.759 55.8494 136.234C55.8494 136.302 55.9852 136.347 56.1097 136.347C56.2454 136.347 56.3359 136.257 56.3133 136.177C56.1662 135.793 56.3133 135.374 56.8677 135.046C57.4562 134.742 58.1251 134.632 58.78 134.729C58.9157 134.729 59.0515 134.729 59.0628 134.616C59.0628 134.548 58.9949 134.48 58.8705 134.469C58.0663 134.355 57.2467 134.497 56.5283 134.876Z" fill="#FFD2C8"/>
<path d="M69.0113 128.846H68.9434L69.0791 128.212L69.2941 128.088H69.3733H69.4525L71.2629 129.129L71.0253 129.253H70.9574H70.8782L69.4978 128.461L69.4073 128.869H69.3281L69.0113 128.846Z" fill="#FFD2C8"/>
<path d="M70.4366 128.032C70.4366 128.032 70.4366 128.032 70.3574 128.032L70.4932 127.409L70.7195 127.273H70.9345L72.7449 128.326L72.5186 128.461H72.4394H72.3602L70.9345 127.534L70.844 127.952H70.4706L70.4366 128.032Z" fill="#FFD2C8"/>
<path d="M72.2134 126.911H72.2926H72.3605L72.6433 127.07L72.3831 127.228H72.2247L71.9531 127.07L72.2134 126.911ZM73.1978 127.477H73.2656H73.3448L73.6164 127.635L73.3562 127.794H73.1978L72.9262 127.635L73.1978 127.477Z" fill="#FFD2C8"/>
<path d="M75.1097 126.855H75.0418H74.9626L74.6232 126.662L73.7519 127.16H73.684H73.6048L73.4012 127.047C73.4012 127.047 73.4012 127.047 73.4012 126.979L73.1862 125.848C73.178 125.83 73.1738 125.811 73.1738 125.791C73.1738 125.772 73.178 125.752 73.1862 125.735L73.4012 125.621C73.4135 125.615 73.427 125.612 73.4408 125.612C73.4545 125.612 73.468 125.615 73.4804 125.621C73.5059 125.612 73.534 125.612 73.5596 125.621L74.691 126.266L74.94 126.119H75.0871L75.2907 126.244L75.0418 126.391L75.3813 126.583L75.1097 126.855ZM74.2724 126.459L73.6727 126.108L73.7972 126.73L74.2724 126.459Z" fill="#FFD2C8"/>
<path d="M74.3281 125.124L75.3804 124.513H75.5388L75.7312 124.626L74.9504 125.078L75.2786 125.305C75.3074 125.259 75.346 125.22 75.3917 125.192L75.5049 125.124C75.6088 125.063 75.7188 125.014 75.833 124.977C75.9505 124.941 76.0724 124.922 76.1951 124.92C76.3152 124.903 76.437 124.903 76.5571 124.92C76.6743 124.943 76.7858 124.99 76.8853 125.056C76.9834 125.103 77.0687 125.173 77.1342 125.259C77.1603 125.329 77.1603 125.405 77.1342 125.474C77.1144 125.551 77.0755 125.621 77.0211 125.678C76.9467 125.75 76.863 125.81 76.7721 125.859C76.6547 125.93 76.5294 125.987 76.3987 126.029L76.0367 126.097H75.7312C75.6411 126.077 75.5537 126.047 75.4709 126.006L75.6972 125.87H75.7651C75.7776 125.865 75.7911 125.862 75.8047 125.862C75.8183 125.862 75.8318 125.865 75.8443 125.87H76.0027H76.1498H76.2856H76.4214C76.4619 125.85 76.4978 125.821 76.5269 125.786C76.5561 125.751 76.5779 125.71 76.5911 125.667C76.5911 125.599 76.5911 125.531 76.4553 125.474C76.3566 125.427 76.248 125.404 76.1385 125.407C76.0187 125.412 75.9022 125.447 75.7991 125.508L75.6746 125.588C75.6713 125.61 75.6713 125.633 75.6746 125.655L75.4143 125.803H75.3351H75.2673L74.3281 125.124Z" fill="#FFD2C8"/>
<path d="M44.1972 144.675L43.6201 144.335L44.3895 143.883L44.9779 144.222L44.1972 144.675Z" fill="#FFD2C8"/>
<path d="M45.3617 143.996L44.1963 143.329L44.977 142.876L46.1424 143.555L45.3617 143.996Z" fill="#FFD2C8"/>
<path d="M46.538 143.329L44.7842 142.31L45.5649 141.869L47.3074 142.876L46.538 143.329Z" fill="#FFD2C8"/>
<path d="M47.7049 142.65L45.374 141.303L46.1434 140.851L48.4856 142.197L47.7049 142.65Z" fill="#FFD2C8"/>
<path d="M100.465 109.995C100.311 109.977 100.155 110.001 100.012 110.063L97.1045 111.749C96.9121 111.851 96.9574 112.055 97.2063 112.19L98.2699 112.813C98.4328 112.893 98.6093 112.943 98.7904 112.96H99.0167C99.0959 112.953 99.1729 112.929 99.243 112.892L102.151 111.217C102.343 111.104 102.298 110.9 102.038 110.765L100.985 110.154C100.825 110.064 100.648 110.01 100.465 109.995ZM98.7565 112.824C98.6808 112.817 98.6075 112.794 98.5415 112.756L97.4779 112.145C97.2968 112.032 97.2516 111.873 97.3874 111.794L100.307 110.12C100.344 110.113 100.382 110.113 100.42 110.12H100.499C100.575 110.127 100.648 110.15 100.714 110.188L101.778 110.799C101.959 110.912 102.004 111.07 101.857 111.149L98.9488 112.824C98.8868 112.847 98.8184 112.847 98.7565 112.824Z" fill="#FFD2C8"/>
<path d="M98.0883 111.613L99.3329 112.337L98.8803 112.598C98.8554 112.609 98.8284 112.615 98.8011 112.615C98.7738 112.615 98.7468 112.609 98.7219 112.598L97.7941 112.055C97.6583 111.987 97.6244 111.862 97.7262 111.806L98.0883 111.613Z" fill="#FFD2C8"/>
<path d="M98.3379 111.489L98.8923 111.172L100.148 111.896L99.5938 112.213L98.3379 111.489Z" fill="#FFD2C8"/>
<path d="M99.1074 111.048L99.6505 110.742L100.906 111.466L100.363 111.783L99.1074 111.048Z" fill="#FFD2C8"/>
<path d="M100.489 110.346L101.394 110.866C101.563 110.968 101.529 111.104 101.303 111.24L101.122 111.341L99.8662 110.617L100.296 110.368C100.325 110.351 100.357 110.34 100.39 110.337C100.423 110.333 100.457 110.336 100.489 110.346Z" fill="#FFD2C8"/>
<path d="M101.1 110.086C101.179 110.086 101.417 110.086 101.632 110.233L101.836 110.346C102.051 110.471 102.164 110.618 102.096 110.663L101.949 110.754L100.953 110.176L101.1 110.086Z" fill="#FFD2C8"/>
<path d="M93.0537 114.895L95.3167 112.938L96.5047 114.623L94.9433 114.205L93.0537 114.895Z" fill="#FFD2C8"/>
<path d="M141.086 197.334V197.889C141.114 198.371 141.255 198.84 141.496 199.259C141.738 199.677 142.074 200.033 142.478 200.299L153.363 206.578C153.792 206.796 154.267 206.91 154.749 206.91C155.23 206.91 155.705 206.796 156.135 206.578L209.79 175.587C210.191 175.32 210.524 174.963 210.764 174.545C211.003 174.126 211.142 173.658 211.17 173.177V172.623C211.145 172.141 211.007 171.672 210.767 171.253C210.527 170.834 210.192 170.478 209.79 170.213L198.905 163.933C198.473 163.715 197.996 163.602 197.513 163.602C197.03 163.602 196.553 163.715 196.121 163.933L142.478 194.924C142.073 195.188 141.736 195.544 141.494 195.963C141.252 196.382 141.112 196.851 141.086 197.334Z" fill="#FC8064"/>
<g opacity="0.15">
<path d="M209.992 170.337C210.569 170.778 210.501 171.412 209.811 171.819L156.156 202.81C155.732 203.038 155.256 203.151 154.775 203.139V206.906C155.264 206.915 155.747 206.798 156.178 206.567L209.811 175.587C210.218 175.326 210.557 174.97 210.799 174.551C211.042 174.132 211.18 173.661 211.202 173.177V172.623C211.176 172.177 211.055 171.742 210.846 171.348C210.637 170.954 210.346 170.609 209.992 170.337Z" fill="black"/>
</g>
<g opacity="0.3">
<path d="M142.286 195.071C141.949 195.348 141.674 195.692 141.479 196.082C141.284 196.472 141.173 196.899 141.154 197.334V197.889C141.181 198.37 141.32 198.838 141.562 199.255C141.804 199.672 142.141 200.026 142.546 200.287L153.431 206.567C153.854 206.798 154.329 206.915 154.811 206.907V203.139C154.327 203.154 153.846 203.041 153.42 202.811L142.501 196.554C141.811 196.135 141.743 195.513 142.286 195.071Z" fill="black"/>
</g>
<path d="M174.239 180.328C172.542 181.313 172.542 182.908 174.239 183.893C175.196 184.372 176.251 184.622 177.322 184.622C178.393 184.622 179.448 184.372 180.405 183.893C182.103 182.908 182.103 181.313 180.405 180.328C179.45 179.842 178.394 179.588 177.322 179.588C176.25 179.588 175.194 179.842 174.239 180.328ZM179.308 181.46L178.176 182.116L179.308 182.784C179.353 182.799 179.392 182.827 179.42 182.866C179.448 182.905 179.463 182.951 179.463 182.999C179.463 183.046 179.448 183.093 179.42 183.131C179.392 183.17 179.353 183.199 179.308 183.214C179.189 183.275 179.057 183.307 178.923 183.307C178.789 183.307 178.657 183.275 178.538 183.214L177.407 182.557L176.275 183.214C176.159 183.275 176.028 183.307 175.896 183.307C175.764 183.307 175.634 183.275 175.517 183.214C175.472 183.199 175.433 183.17 175.405 183.131C175.377 183.093 175.362 183.046 175.362 182.999C175.362 182.951 175.377 182.905 175.405 182.866C175.433 182.827 175.472 182.799 175.517 182.784L176.649 182.116L175.517 181.46C175.473 181.442 175.435 181.412 175.409 181.373C175.382 181.333 175.368 181.287 175.368 181.239C175.368 181.192 175.382 181.145 175.409 181.106C175.435 181.067 175.473 181.036 175.517 181.019C175.636 180.963 175.765 180.934 175.896 180.934C176.027 180.934 176.157 180.963 176.275 181.019L177.407 181.686L178.538 181.019C178.659 180.963 178.79 180.934 178.923 180.934C179.056 180.934 179.187 180.963 179.308 181.019C179.371 181.019 179.431 181.044 179.476 181.088C179.52 181.133 179.545 181.193 179.545 181.256C179.545 181.319 179.52 181.38 179.476 181.424C179.431 181.469 179.371 181.494 179.308 181.494V181.46Z" fill="white"/>
<path d="M181.311 154.259C181.212 152.286 180.648 150.365 179.665 148.652C178.682 146.939 177.307 145.483 175.653 144.403C175.064 143.96 174.36 143.693 173.625 143.635C172.889 143.577 172.153 143.73 171.501 144.075L167.665 146.236L175.71 160.108L179.512 157.959C180.123 157.567 180.614 157.014 180.931 156.361C181.248 155.709 181.38 154.981 181.311 154.259Z" fill="#FFB3A2"/>
<path d="M171.715 146.656C173.371 147.736 174.747 149.193 175.731 150.909C176.714 152.624 177.277 154.548 177.372 156.522C177.372 160.132 174.804 161.591 171.715 159.758C170.064 158.676 168.691 157.22 167.708 155.507C166.725 153.795 166.16 151.875 166.058 149.903C166.046 146.282 168.592 144.834 171.715 146.656Z" fill="#FFD2C8"/>
<path d="M169.757 152.086C169.757 150.672 170.628 150.027 171.692 150.649C172.272 151.072 172.745 151.625 173.074 152.263C173.402 152.902 173.576 153.609 173.581 154.327C173.581 155.741 172.71 156.386 171.658 155.775C171.078 155.349 170.604 154.794 170.274 154.154C169.944 153.514 169.767 152.806 169.757 152.086Z" fill="#FC8064"/>
<g opacity="0.15">
<path d="M177.293 156.522C177.278 155.217 177.017 153.927 176.524 152.72L166.782 147.062C166.234 147.906 165.961 148.898 166.001 149.903V150.038L177.316 156.59L177.293 156.522Z" fill="black"/>
</g>
<path d="M140.96 185.092C138.898 185.222 136.836 184.833 134.963 183.96L81.8512 153.41C78.6377 151.804 75.0623 147.595 74.8133 143.623L73.1953 105.786L76.1598 105.617L77.7212 143.465C77.8797 146.158 80.7084 149.541 83.1297 150.763L136.309 181.313C137.737 181.911 139.281 182.176 140.826 182.088C142.371 182 143.876 181.56 145.226 180.804L180.652 160.437C181.49 159.883 181.976 159.215 181.953 158.661C181.931 158.106 181.388 157.529 180.494 157.076L123.626 124.071C120.412 122.453 116.837 118.255 116.599 114.272L115.807 93.2947L118.771 93.125L119.563 114.114C119.711 116.818 122.528 120.201 124.949 121.423L181.818 154.429C182.651 154.764 183.378 155.319 183.922 156.034C184.466 156.749 184.806 157.598 184.907 158.491C184.9 159.396 184.652 160.283 184.189 161.061C183.726 161.838 183.063 162.478 182.27 162.915L146.855 183.282C145.076 184.377 143.047 185 140.96 185.092Z" fill="#FC8064"/>
<path d="M131.411 184.232C131.31 182.26 130.745 180.34 129.762 178.627C128.779 176.915 127.405 175.458 125.754 174.377C125.164 173.932 124.46 173.666 123.724 173.61C122.988 173.554 122.251 173.71 121.601 174.06L117.811 176.187L125.855 190.059L129.668 187.898C130.265 187.503 130.743 186.954 131.05 186.307C131.357 185.661 131.482 184.944 131.411 184.232Z" fill="#FFB3A2"/>
<path d="M121.85 176.64C123.502 177.721 124.875 179.178 125.858 180.89C126.841 182.603 127.406 184.523 127.507 186.495C127.507 190.116 124.939 191.564 121.85 189.742C120.196 188.659 118.822 187.201 117.839 185.487C116.856 183.772 116.292 181.85 116.192 179.876C116.192 176.266 118.693 174.807 121.85 176.64Z" fill="#FFD2C8"/>
<path d="M119.86 182.071C119.86 180.656 120.743 180.011 121.795 180.634C122.376 181.056 122.851 181.609 123.181 182.247C123.511 182.886 123.687 183.592 123.696 184.311C123.696 185.725 122.814 186.37 121.761 185.748C121.181 185.324 120.708 184.771 120.378 184.133C120.048 183.495 119.871 182.789 119.86 182.071Z" fill="#FC8064"/>
<path d="M92.1829 161.614C92.0911 159.646 91.5373 157.727 90.5662 156.013C89.5952 154.299 88.2341 152.837 86.5933 151.747C84.9527 150.785 83.4818 150.729 82.4408 151.419L78.5938 153.569L86.616 167.452L90.4291 165.302C91.0308 164.907 91.5124 164.353 91.8216 163.703C92.1308 163.053 92.2558 162.33 92.1829 161.614Z" fill="#FFB3A2"/>
<path d="M82.5979 153.998C84.2406 155.087 85.603 156.548 86.5743 158.262C87.5456 159.977 88.0983 161.896 88.1874 163.865C88.1874 167.486 85.6076 168.934 82.53 167.101C80.8858 166.011 79.5224 164.549 78.551 162.832C77.5796 161.116 77.0278 159.194 76.9405 157.223C76.9292 153.614 79.4863 152.165 82.5979 153.998Z" fill="#FFD2C8"/>
<path d="M80.6426 159.43C80.6426 158.016 81.5138 157.371 82.5661 157.993C83.1609 158.406 83.6481 158.955 83.9868 159.595C84.3254 160.235 84.5056 160.946 84.5122 161.67C84.5122 163.085 83.641 163.73 82.5887 163.107C81.9939 162.695 81.5067 162.145 81.1681 161.506C80.8294 160.866 80.6492 160.154 80.6426 159.43Z" fill="#FC8064"/>
<path d="M66.8721 59.9272C66.3775 58.0049 66.4735 55.9782 67.1477 54.1113C67.8218 52.2444 69.0427 50.6238 70.6512 49.461L106.01 29.4677C109.223 27.3631 112.799 28.834 113.863 32.5L116.318 40.4204L113.897 41.8348L111.271 33.8012C111.165 33.3689 110.952 32.97 110.653 32.6408C110.353 32.3116 109.976 32.0626 109.555 31.9164C109.135 31.7702 108.684 31.7315 108.245 31.8038C107.806 31.8761 107.391 32.0571 107.04 32.3303L72.6087 51.7918C71.5693 52.5501 70.7796 53.6009 70.3402 54.8101C69.9009 56.0194 69.8319 57.3321 70.1421 58.5807L72.2127 66.2069L69.3274 67.8815L66.8721 59.9272Z" fill="#FC8064"/>
<path d="M121.466 98.2168L74.0342 125.61L143.36 165.631L190.803 138.237L121.466 98.2168Z" fill="#FFD2C8"/>
<g opacity="0.5">
<path d="M121.466 98.2168L74.0342 125.61L143.36 165.631L190.803 138.237L121.466 98.2168Z" fill="#FFD2C8"/>
</g>
<path d="M69.3271 67.8705L116.272 40.4434L121.466 98.2169L74.0341 125.61L69.3271 67.8705Z" fill="#FFD2C8"/>
<g opacity="0.35">
<path d="M69.3271 67.8705L116.272 40.4434L121.466 98.2169L74.0341 125.61L69.3271 67.8705Z" fill="#FFD2C8"/>
</g>
<path d="M116.273 40.4092L121.467 98.1827L190.804 138.203L201.746 89.7532L116.273 40.4092ZM140.51 95.9537C139.51 96.267 138.428 96.1729 137.498 95.6919C136.567 95.2108 135.865 94.3818 135.543 93.3852L124.115 63.6838C123.872 63.2177 123.731 62.7057 123.7 62.1813C123.67 61.6569 123.75 61.1319 123.936 60.6406C124.122 60.1494 124.409 59.7028 124.779 59.3302C125.15 58.9576 125.594 58.6673 126.084 58.4783C126.575 58.2893 127.099 58.2059 127.624 58.2334C128.148 58.261 128.661 58.3989 129.129 58.6381C129.596 58.8774 130.008 59.2126 130.337 59.622C130.667 60.0313 130.906 60.5054 131.039 61.0135L142.501 90.7489C142.93 91.7079 142.96 92.7976 142.587 93.7794C142.214 94.7612 141.467 95.5552 140.51 95.9876V95.9537ZM162.155 106.137C161.156 106.45 160.073 106.356 159.143 105.875C158.213 105.394 157.51 104.565 157.188 103.569L145.737 73.8671C145.495 73.401 145.354 72.889 145.323 72.3647C145.292 71.8403 145.372 71.3153 145.558 70.824C145.744 70.3327 146.032 69.8862 146.402 69.5136C146.772 69.141 147.217 68.8507 147.707 68.6617C148.197 68.4727 148.722 68.3892 149.246 68.4168C149.771 68.4443 150.284 68.5822 150.751 68.8215C151.219 69.0607 151.631 69.396 151.96 69.8053C152.289 70.2146 152.528 70.6888 152.662 71.1968L164.113 100.932C164.546 101.887 164.584 102.974 164.217 103.956C163.85 104.938 163.108 105.735 162.155 106.171V106.137ZM183.8 116.32C182.801 116.637 181.717 116.544 180.786 116.063C179.855 115.581 179.153 114.75 178.833 113.752L167.383 84.0505C167.14 83.5844 166.999 83.0724 166.968 82.548C166.938 82.0236 167.018 81.4986 167.204 81.0073C167.39 80.5161 167.677 80.0695 168.047 79.6969C168.418 79.3243 168.862 79.034 169.352 78.845C169.843 78.656 170.367 78.5726 170.892 78.6001C171.416 78.6277 171.929 78.7656 172.397 79.0048C172.864 79.2441 173.276 79.5793 173.605 79.9886C173.935 80.398 174.174 80.8721 174.307 81.3802L185.758 111.116C186.191 112.07 186.229 113.158 185.862 114.14C185.495 115.122 184.754 115.918 183.8 116.354V116.32Z" fill="#FFB3A2"/>
<g opacity="0.23">
<path d="M116.271 40.4092L121.465 98.1827L190.802 138.203L201.744 89.7532L116.271 40.4092ZM140.508 95.9537C139.509 96.267 138.426 96.1729 137.496 95.6919C136.565 95.2108 135.863 94.3818 135.541 93.3852L124.113 63.6838C123.87 63.2177 123.729 62.7057 123.699 62.1813C123.668 61.6569 123.748 61.1319 123.934 60.6406C124.12 60.1494 124.407 59.7028 124.777 59.3302C125.148 58.9576 125.592 58.6673 126.083 58.4783C126.573 58.2893 127.097 58.2059 127.622 58.2334C128.146 58.261 128.659 58.3989 129.127 58.6381C129.594 58.8774 130.006 59.2126 130.335 59.622C130.665 60.0313 130.904 60.5054 131.037 61.0135L142.499 90.7489C142.928 91.7079 142.958 92.7976 142.585 93.7794C142.212 94.7612 141.465 95.5552 140.508 95.9876V95.9537ZM162.153 106.137C161.154 106.45 160.071 106.356 159.141 105.875C158.211 105.394 157.508 104.565 157.186 103.569L145.735 73.8671C145.493 73.401 145.352 72.889 145.321 72.3647C145.29 71.8403 145.37 71.3153 145.556 70.824C145.742 70.3327 146.03 69.8862 146.4 69.5136C146.77 69.141 147.215 68.8507 147.705 68.6617C148.195 68.4727 148.72 68.3892 149.244 68.4168C149.769 68.4443 150.282 68.5822 150.749 68.8215C151.217 69.0607 151.629 69.396 151.958 69.8053C152.287 70.2146 152.527 70.6888 152.66 71.1968L164.111 100.932C164.544 101.887 164.582 102.974 164.215 103.956C163.848 104.938 163.106 105.735 162.153 106.171V106.137ZM183.798 116.32C182.799 116.637 181.715 116.544 180.784 116.063C179.853 115.581 179.151 114.75 178.831 113.752L167.381 84.0505C167.138 83.5844 166.997 83.0724 166.966 82.548C166.936 82.0236 167.016 81.4986 167.202 81.0073C167.388 80.5161 167.675 80.0695 168.045 79.6969C168.416 79.3243 168.86 79.034 169.35 78.845C169.841 78.656 170.365 78.5726 170.89 78.6001C171.414 78.6277 171.927 78.7656 172.395 79.0048C172.862 79.2441 173.274 79.5793 173.603 79.9886C173.933 80.398 174.172 80.8721 174.305 81.3802L185.756 111.116C186.189 112.07 186.227 113.158 185.86 114.14C185.493 115.122 184.752 115.918 183.798 116.354V116.32Z" fill="#FFB3A2"/>
</g>
<path d="M69.3271 67.8701L74.0341 125.576L143.349 165.63L154.302 117.18L69.3271 67.8701ZM96.6864 124.705C95.687 125.015 94.6057 124.919 93.6762 124.439C92.7468 123.958 92.0437 123.131 91.7192 122.136L80.2686 92.4573C80.0264 91.9911 79.8853 91.4792 79.8544 90.9548C79.8236 90.4304 79.9038 89.9054 80.0897 89.4141C80.2756 88.9228 80.5631 88.4763 80.9334 88.1037C81.3036 87.7311 81.7484 87.4408 82.2385 87.2518C82.7286 87.0628 83.253 86.9794 83.7776 87.0069C84.3022 87.0344 84.815 87.1723 85.2827 87.4116C85.7503 87.6509 86.1622 87.9861 86.4914 88.3954C86.8206 88.8047 87.0598 89.2789 87.1933 89.7869L98.6439 119.522C99.0598 120.471 99.0879 121.544 98.722 122.513C98.3561 123.481 97.6254 124.268 96.6864 124.705ZM118.332 134.888C117.332 135.198 116.251 135.103 115.322 134.622C114.392 134.141 113.689 133.314 113.364 132.319L101.914 102.641C101.672 102.174 101.531 101.662 101.5 101.138C101.469 100.614 101.549 100.089 101.735 99.5975C101.921 99.1062 102.208 98.6596 102.579 98.287C102.949 97.9144 103.394 97.6242 103.884 97.4352C104.374 97.2462 104.898 97.1627 105.423 97.1902C105.947 97.2178 106.46 97.3557 106.928 97.5949C107.396 97.8342 107.807 98.1694 108.137 98.5788C108.466 98.9881 108.705 99.4622 108.839 99.9703L120.289 129.706C120.705 130.654 120.733 131.727 120.367 132.696C120.001 133.665 119.271 134.451 118.332 134.888ZM139.988 145.071C138.987 145.385 137.903 145.291 136.971 144.81C136.039 144.329 135.334 143.5 135.01 142.503L123.559 112.824C123.317 112.358 123.176 111.846 123.145 111.321C123.114 110.797 123.194 110.272 123.38 109.781C123.566 109.29 123.854 108.843 124.224 108.47C124.594 108.098 125.039 107.808 125.529 107.619C126.019 107.43 126.544 107.346 127.068 107.374C127.593 107.401 128.106 107.539 128.573 107.778C129.041 108.018 129.453 108.353 129.782 108.762C130.111 109.171 130.35 109.646 130.484 110.154L141.946 139.889C142.356 140.842 142.378 141.917 142.006 142.886C141.634 143.854 140.897 144.639 139.954 145.071H139.988Z" fill="#FFB3A2"/>
<path d="M154.313 117.181L201.745 89.7988L190.803 138.249L143.36 165.631L154.313 117.181Z" fill="#FFD2C8"/>
<g opacity="0.4">
<path d="M154.312 117.181L201.744 89.7988L190.802 138.249L143.359 165.631L154.312 117.181Z" fill="#FFD2C8"/>
</g>
<path d="M130.1 158.344L74.3515 126.436L74.3402 126.266L68.9883 67.7004L104.245 47.1074L104.562 47.6505L69.6559 68.0399L74.9512 126.051L130.417 157.789L130.1 158.344Z" fill="#FC8064"/>
<path d="M154.312 117.542L135.473 106.669L135.789 106.126L154.312 116.818L179.193 102.448L179.51 102.991L154.312 117.542Z" fill="#FC8064"/>
<path d="M154.014 117.118L143.052 165.565L143.67 165.705L154.632 117.258L154.014 117.118Z" fill="#FC8064"/>
<path d="M98.7053 84.5564L98.3857 85.1035L121.307 98.492L121.626 97.9449L98.7053 84.5564Z" fill="#FC8064"/>
<path d="M72.2457 175.564L23.2638 147.277C22.5814 146.883 22.0137 146.318 21.6168 145.637C21.2199 144.957 21.0075 144.184 21.0008 143.396V140.251C20.9855 139.442 21.1874 138.644 21.5854 137.939C21.9834 137.235 22.563 136.65 23.2638 136.245L54.7869 118.142L55.1037 118.685L23.5693 136.788C22.9728 137.132 22.4775 137.626 22.1338 138.222C21.79 138.818 21.6099 139.495 21.6118 140.183V143.328C21.6066 144.025 21.786 144.71 22.1319 145.314C22.4777 145.918 22.9776 146.42 23.5806 146.768L72.5625 175.055L72.2457 175.564Z" fill="#FC8064"/>
<path d="M163.081 227.499C161.741 227.502 160.424 227.147 159.268 226.47L125.244 206.533L125.561 205.979L159.585 225.972C160.641 226.586 161.842 226.909 163.064 226.909C164.286 226.909 165.487 226.586 166.543 225.972L231.92 188.09L232.237 188.644L166.86 226.526C165.706 227.173 164.404 227.508 163.081 227.499Z" fill="#FC8064"/>
<path d="M163.07 219.489C162.455 219.488 161.851 219.329 161.316 219.025L67.2783 164.782L67.5951 164.228L161.633 218.471C162.067 218.718 162.559 218.848 163.058 218.848C163.558 218.848 164.049 218.718 164.484 218.471L193.043 202.211L193.36 202.766L164.846 219.037C164.305 219.344 163.692 219.5 163.07 219.489Z" fill="#FC8064"/>
<path d="M210.817 192.696L210.5 192.141L233.017 179.095C233.169 179.01 233.296 178.885 233.384 178.734C233.471 178.582 233.516 178.41 233.514 178.235C233.514 178.061 233.468 177.89 233.38 177.739C233.293 177.588 233.168 177.463 233.017 177.375L198.246 157.371L198.563 156.816L233.333 176.832C233.58 176.974 233.785 177.178 233.928 177.425C234.07 177.671 234.146 177.951 234.146 178.235C234.146 178.52 234.07 178.8 233.928 179.046C233.785 179.292 233.58 179.497 233.333 179.638L210.817 192.696Z" fill="#FC8064"/>
<path d="M150.919 201.758L142.376 196.689C142.231 196.6 142.111 196.475 142.028 196.327C141.945 196.178 141.901 196.011 141.901 195.841C141.901 195.67 141.945 195.503 142.028 195.354C142.111 195.206 142.231 195.081 142.376 194.992L150.466 189.968L196.009 163.661L196.325 164.204L150.794 190.511L142.716 195.535C142.665 195.568 142.622 195.613 142.593 195.667C142.563 195.72 142.547 195.78 142.546 195.841C142.547 195.901 142.564 195.961 142.596 196.012C142.628 196.064 142.673 196.106 142.727 196.135L151.258 201.215L150.919 201.758Z" fill="#FC8064"/>
<path d="M185.082 185.898L160.592 199.85L160.905 200.4L185.395 186.448L185.082 185.898Z" fill="#FC8064"/>
<path d="M156.619 158.343L156.303 157.8L190.519 138.045L201.381 89.9566L123.082 44.7425L116.769 41.0312L120.65 85.6343L120.027 85.6909L116.033 39.8545L123.399 44.1994L202.105 89.6398L191.073 138.452L156.619 158.343Z" fill="#FC8064"/>
<path d="M95.4874 125.203C94.6258 125.203 93.7841 124.943 93.0732 124.457C92.3622 123.97 91.8154 123.279 91.5046 122.476L82.249 98.3298L82.8374 98.1035L92.1382 122.238C92.4461 123.072 93.0498 123.763 93.8343 124.18C94.6187 124.597 95.5293 124.712 96.3926 124.501L96.6415 124.444L96.7999 125.055L96.551 125.123C96.2006 125.19 95.8438 125.217 95.4874 125.203Z" fill="#FC8064"/>
<path d="M116.996 135.454C116.135 135.453 115.294 135.192 114.583 134.706C113.872 134.219 113.325 133.529 113.013 132.727L103.746 108.558L104.346 108.332L113.635 132.467C113.945 133.301 114.551 133.992 115.338 134.41C116.124 134.827 117.036 134.941 117.901 134.73H118.15L118.297 135.341L118.048 135.408C117.7 135.464 117.347 135.48 116.996 135.454Z" fill="#FC8064"/>
<path d="M139.164 96.5307C138.302 96.5275 137.46 96.2646 136.75 95.7761C136.039 95.2877 135.493 94.5964 135.181 93.7925L125.892 69.6579L126.48 69.4316L135.781 93.5888C136.089 94.4223 136.692 95.1135 137.477 95.5308C138.261 95.9481 139.172 96.0623 140.035 95.8518H140.295L140.442 96.4628L140.194 96.5307C139.851 96.5698 139.506 96.5698 139.164 96.5307Z" fill="#FC8064"/>
<path d="M160.806 106.77C159.947 106.769 159.108 106.508 158.399 106.021C157.69 105.535 157.145 104.845 156.835 104.043L147.534 79.9089L148.123 79.6826L157.423 103.772C157.733 104.604 158.337 105.294 159.121 105.711C159.905 106.127 160.815 106.243 161.678 106.035L161.938 105.967L162.085 106.589L161.836 106.646C161.5 106.732 161.154 106.774 160.806 106.77Z" fill="#FC8064"/>
<path d="M138.641 145.637C137.778 145.635 136.937 145.373 136.226 144.884C135.515 144.396 134.969 143.704 134.658 142.899L125.357 118.708L125.957 118.481L135.247 142.616C135.557 143.45 136.163 144.142 136.949 144.559C137.735 144.976 138.647 145.09 139.512 144.879H139.761L139.92 145.49L139.659 145.558C139.324 145.623 138.982 145.649 138.641 145.637Z" fill="#FC8064"/>
<path d="M169.413 88.4636L168.821 88.6914L175.143 105.099L175.734 104.871L169.413 88.4636Z" fill="#FC8064"/>
<path d="M170.221 125.52C170.507 123.515 170.147 121.806 169.417 121.702C168.687 121.598 167.863 123.139 167.578 125.143C167.292 127.148 167.652 128.857 168.382 128.961C169.112 129.065 169.936 127.524 170.221 125.52Z" fill="#FC8064"/>
<path d="M184.747 118.139C185.032 116.135 184.672 114.425 183.942 114.321C183.212 114.217 182.389 115.758 182.103 117.762C181.817 119.767 182.178 121.476 182.908 121.58C183.638 121.684 184.461 120.143 184.747 118.139Z" fill="#FC8064"/>
<path d="M177.133 138.395C180.71 136.329 183.301 134.12 182.92 133.46C182.539 132.799 179.33 133.938 175.752 136.004C172.175 138.069 169.584 140.278 169.966 140.939C170.347 141.599 173.556 140.46 177.133 138.395Z" fill="#FC8064"/>
<path d="M41.4693 149.382L27.1787 77.2275L161.248 152.822L157.729 216.287L41.4693 149.382Z" fill="url(#paint0_linear_869_1583)"/>
<defs>
<linearGradient id="paint0_linear_869_1583" x1="62.1755" y1="181.709" x2="102.683" y2="134.956" gradientUnits="userSpaceOnUse">
<stop offset="0.13" stop-color="white"/>
<stop offset="0.77" stop-color="white" stop-opacity="0"/>
</linearGradient>
</defs>
</svg>
