<svg width="361" height="360" viewBox="0 0 361 360" fill="none" xmlns="http://www.w3.org/2000/svg">
<path d="M162.931 42.0135L166.739 38.2051C167.222 37.7218 167.222 36.9383 166.739 36.455L162.931 32.6466C162.448 32.1633 161.664 32.1633 161.181 32.6466L157.372 36.455C156.889 36.9383 156.889 37.7218 157.372 38.2051L161.181 42.0135C161.664 42.4968 162.447 42.4968 162.931 42.0135Z" fill="#FC8064"/>
<path d="M276.476 312.455L195.42 313.594L183.073 97.5797L271.78 96.3281L283.705 304.678C283.76 305.668 283.614 306.658 283.277 307.591C282.941 308.523 282.419 309.378 281.744 310.104C281.07 310.83 280.255 311.412 279.35 311.816C278.445 312.22 277.467 312.437 276.476 312.455Z" fill="#FFB3A2"/>
<path d="M249.125 312.553L126.528 312.342L149.281 95.3016C149.496 93.3198 150.434 91.4868 151.915 90.1533C153.397 88.8197 155.318 88.0792 157.311 88.0734L264.031 88.2422C265.12 88.2416 266.197 88.4707 267.192 88.9144C268.187 89.358 269.076 90.0064 269.804 90.8171C270.531 91.6278 271.079 92.5828 271.412 93.6196C271.745 94.6564 271.856 95.7518 271.738 96.8344L249.125 312.553Z" fill="#FFD2C8"/>
<path d="M220.578 311.541H132.182C130.005 311.608 127.84 311.201 125.835 310.349C123.831 309.497 122.036 308.22 120.574 306.606C119.113 304.991 118.019 303.079 117.369 301C116.719 298.922 116.529 296.727 116.811 294.567L141.969 67.2328C142.595 62.587 144.87 58.3206 148.377 55.2105C151.885 52.1003 156.393 50.3533 161.08 50.2875H249.477C251.66 50.2151 253.833 50.6194 255.844 51.4721C257.855 52.3248 259.656 53.6056 261.121 55.2251C262.587 56.8447 263.682 58.7642 264.33 60.8501C264.979 62.936 265.165 65.1381 264.875 67.3031L239.703 294.595C239.071 299.241 236.794 303.506 233.284 306.615C229.775 309.725 225.267 311.472 220.578 311.541Z" fill="#FC8064"/>
<path d="M219.523 304.833H125.108C123.846 304.873 122.591 304.637 121.43 304.143C120.268 303.649 119.229 302.907 118.383 301.97C117.537 301.034 116.905 299.924 116.532 298.718C116.158 297.512 116.052 296.24 116.22 294.989L142.109 61.0875C142.449 58.3873 143.756 55.9019 145.789 54.092C147.821 52.282 150.441 51.27 153.162 51.2438H247.578C248.839 51.2036 250.093 51.4389 251.254 51.9333C252.415 52.4277 253.454 53.1694 254.299 54.1065C255.144 55.0437 255.774 56.1538 256.146 57.3594C256.517 58.5651 256.622 59.8374 256.451 61.0875L230.576 295.031C230.21 297.717 228.894 300.182 226.866 301.98C224.838 303.778 222.233 304.79 219.523 304.833Z" fill="#FEF4F2"/>
<path d="M207.458 61.0594H191.412C191.261 61.0625 191.111 61.0331 190.973 60.9733C190.834 60.9134 190.71 60.8245 190.609 60.7125C190.507 60.6005 190.431 60.4681 190.385 60.3241C190.34 60.1802 190.325 60.0281 190.344 59.8781C190.398 59.562 190.558 59.2739 190.799 59.0616C191.039 58.8493 191.345 58.7256 191.665 58.7109H207.711C207.862 58.7078 208.012 58.7372 208.15 58.797C208.289 58.8569 208.413 58.9458 208.515 59.0578C208.616 59.1698 208.692 59.3023 208.738 59.4462C208.783 59.5902 208.798 59.7422 208.78 59.8922C208.725 60.2083 208.565 60.4964 208.324 60.7087C208.084 60.921 207.778 61.0447 207.458 61.0594Z" fill="#F4603F"/>
<path d="M181.738 61.0453C181.587 61.0484 181.437 61.0191 181.298 60.9592C181.159 60.8994 181.035 60.8105 180.934 60.6985C180.832 60.5865 180.756 60.454 180.711 60.31C180.665 60.1661 180.651 60.014 180.669 59.8641C180.72 59.5454 180.879 59.254 181.12 59.0389C181.361 58.8238 181.668 58.6981 181.991 58.6828C182.142 58.6797 182.292 58.7091 182.43 58.7689C182.569 58.8287 182.693 58.9177 182.794 59.0297C182.896 59.1417 182.972 59.2741 183.018 59.4181C183.063 59.562 183.078 59.7141 183.059 59.8641C183.008 60.1828 182.849 60.4741 182.608 60.6892C182.367 60.9043 182.06 61.03 181.738 61.0453Z" fill="#F4603F"/>
<path d="M251.684 160.228C251.388 160.239 251.093 160.185 250.819 160.07C250.546 159.955 250.301 159.781 250.101 159.562C249.902 159.342 249.752 159.081 249.664 158.798C249.576 158.515 249.55 158.216 249.589 157.922L250.616 148.697C250.7 148.066 251.007 147.487 251.482 147.064C251.956 146.641 252.567 146.402 253.203 146.391C253.5 146.38 253.795 146.434 254.068 146.549C254.342 146.664 254.587 146.838 254.786 147.057C254.986 147.277 255.135 147.537 255.223 147.82C255.312 148.104 255.337 148.403 255.298 148.697L254.272 157.922C254.191 158.553 253.884 159.135 253.409 159.558C252.933 159.982 252.321 160.22 251.684 160.228Z" fill="#FFB3A2"/>
<path d="M256.508 116.62C256.211 116.631 255.916 116.577 255.642 116.462C255.369 116.347 255.124 116.173 254.924 115.954C254.725 115.734 254.576 115.474 254.487 115.19C254.399 114.907 254.373 114.608 254.412 114.314L257.52 86.1891C257.607 85.5575 257.917 84.9779 258.394 84.5549C258.872 84.132 259.484 83.8936 260.122 83.8828C260.418 83.8765 260.713 83.9341 260.985 84.0517C261.257 84.1692 261.501 84.344 261.7 84.5641C261.898 84.7842 262.047 85.0445 262.137 85.3273C262.226 85.6101 262.253 85.9088 262.217 86.2031L259.109 114.328C259.022 114.958 258.711 115.536 258.234 115.957C257.756 116.377 257.144 116.613 256.508 116.62Z" fill="#FFB3A2"/>
<path d="M257.844 116.62C257.547 116.631 257.252 116.577 256.978 116.462C256.705 116.347 256.46 116.173 256.26 115.954C256.061 115.734 255.912 115.474 255.823 115.19C255.735 114.907 255.709 114.608 255.748 114.314L258.856 86.1891C258.941 85.5577 259.251 84.9781 259.729 84.5569C260.207 84.1358 260.821 83.9014 261.458 83.8969C261.75 83.8978 262.038 83.9616 262.304 84.0837C262.569 84.2059 262.805 84.3837 262.996 84.6051C263.187 84.8265 263.327 85.0862 263.409 85.3668C263.491 85.6473 263.511 85.9422 263.469 86.2312L260.361 114.356C260.27 114.967 259.969 115.528 259.509 115.941C259.05 116.354 258.461 116.594 257.844 116.62Z" fill="#FC8064"/>
<path d="M252.95 160.228C252.65 160.245 252.35 160.196 252.072 160.084C251.793 159.971 251.543 159.799 251.338 159.578C251.134 159.358 250.981 159.095 250.89 158.809C250.8 158.523 250.773 158.22 250.813 157.922L251.84 148.697C251.924 148.066 252.231 147.487 252.706 147.064C253.18 146.641 253.791 146.402 254.427 146.391C254.723 146.382 255.017 146.438 255.289 146.554C255.562 146.67 255.806 146.843 256.005 147.062C256.204 147.281 256.353 147.541 256.442 147.823C256.532 148.105 256.559 148.403 256.522 148.697L255.496 157.922C255.413 158.545 255.112 159.119 254.646 159.541C254.18 159.964 253.579 160.207 252.95 160.228Z" fill="#FC8064"/>
<path d="M249.87 176.583C249.573 176.594 249.278 176.54 249.005 176.424C248.731 176.309 248.486 176.136 248.287 175.916C248.087 175.697 247.938 175.436 247.85 175.153C247.761 174.87 247.736 174.571 247.775 174.277L248.801 165.052C248.886 164.419 249.195 163.838 249.673 163.414C250.15 162.991 250.764 162.753 251.403 162.745C251.698 162.737 251.992 162.792 252.263 162.908C252.535 163.024 252.778 163.198 252.976 163.417C253.174 163.637 253.322 163.896 253.41 164.179C253.498 164.461 253.523 164.759 253.484 165.052L252.471 174.277C252.387 174.909 252.078 175.491 251.6 175.914C251.122 176.338 250.508 176.575 249.87 176.583Z" fill="#FFB3A2"/>
<path d="M251.15 176.583C250.854 176.594 250.558 176.54 250.285 176.424C250.012 176.309 249.766 176.136 249.567 175.916C249.367 175.697 249.218 175.436 249.13 175.153C249.041 174.87 249.016 174.571 249.055 174.277L250.081 165.052C250.169 164.42 250.479 163.84 250.956 163.417C251.433 162.994 252.046 162.756 252.683 162.745C252.978 162.737 253.272 162.792 253.544 162.908C253.815 163.024 254.059 163.198 254.257 163.417C254.455 163.637 254.603 163.896 254.69 164.179C254.778 164.461 254.803 164.759 254.764 165.052L253.752 174.277C253.667 174.909 253.358 175.491 252.88 175.914C252.403 176.338 251.789 176.575 251.15 176.583Z" fill="#FC8064"/>
<path d="M230.9 290.742L116.558 290.672L141.265 67.3875L255.622 67.4578L230.9 290.742Z" fill="#FFD2C8"/>
<path d="M217.977 306.169H126.345C124.74 306.219 123.143 305.92 121.665 305.292C120.187 304.664 118.863 303.722 117.785 302.531C116.707 301.341 115.9 299.93 115.421 298.397C114.942 296.864 114.802 295.246 115.011 293.653L140.591 62.4516C141.056 59.0309 142.73 55.8895 145.308 53.5943C147.887 51.2992 151.202 50.0017 154.653 49.9359H246.284C247.89 49.8905 249.487 50.1933 250.964 50.8237C252.442 51.4541 253.765 52.3971 254.844 53.5877C255.922 54.7783 256.73 56.1884 257.211 57.721C257.693 59.2535 257.837 60.8722 257.633 62.4656L232.095 293.653C231.625 297.082 229.943 300.229 227.353 302.525C224.763 304.821 221.437 306.113 217.977 306.169ZM154.4 52.6219C151.681 52.6677 149.069 53.6857 147.036 55.4915C145.004 57.2973 143.685 59.7714 143.319 62.4656L117.739 293.597C117.575 294.849 117.686 296.122 118.063 297.328C118.44 298.533 119.074 299.643 119.922 300.579C120.77 301.515 121.811 302.256 122.974 302.75C124.136 303.244 125.392 303.48 126.655 303.441H218.272C220.994 303.401 223.611 302.385 225.647 300.579C227.684 298.772 229.004 296.295 229.367 293.597L254.947 62.5219C255.108 61.2698 254.996 59.9977 254.618 58.7933C254.24 57.5888 253.606 56.4805 252.758 55.5449C251.911 54.6092 250.87 53.8684 249.709 53.3735C248.548 52.8786 247.293 52.6414 246.031 52.6781L154.4 52.6219Z" fill="#DFE3E8"/>
<path d="M218.3 305.002H126.289C124.919 305.041 123.557 304.784 122.297 304.246C121.036 303.709 119.907 302.904 118.988 301.888C118.068 300.872 117.38 299.669 116.97 298.362C116.56 297.054 116.439 295.673 116.614 294.314L142.306 62.1141C142.709 59.1925 144.144 56.5116 146.352 54.5564C148.56 52.6012 151.395 51.501 154.344 51.4547H246.355C247.723 51.4125 249.085 51.6683 250.345 52.2042C251.605 52.7401 252.733 53.5435 253.652 54.5586C254.571 55.5738 255.258 56.7765 255.666 58.0834C256.074 59.3904 256.194 60.7705 256.016 62.1281L230.338 294.328C229.935 297.251 228.501 299.934 226.293 301.891C224.085 303.849 221.25 304.952 218.3 305.002ZM154.231 52.4672C151.561 52.5063 148.994 53.501 146.994 55.2709C144.995 57.0407 143.696 59.4686 143.333 62.1141L117.641 294.272C117.481 295.502 117.591 296.752 117.962 297.935C118.333 299.119 118.957 300.207 119.79 301.126C120.623 302.045 121.646 302.771 122.787 303.256C123.929 303.741 125.162 303.972 126.402 303.933H218.413C221.08 303.876 223.64 302.873 225.636 301.104C227.632 299.334 228.935 296.913 229.311 294.272L255.031 62.1844C255.191 60.9538 255.081 59.7033 254.71 58.5193C254.339 57.3352 253.716 56.2457 252.883 55.3259C252.05 54.4061 251.027 53.678 249.886 53.1917C248.744 52.7055 247.511 52.4727 246.27 52.5094L154.231 52.4672Z" fill="#F4603F"/>
<path d="M248.731 315.745C248.607 316.875 248.071 317.92 247.225 318.68C246.38 319.44 245.284 319.862 244.147 319.866L108.359 319.43C106.868 319.43 105.437 318.837 104.382 317.782C103.327 316.727 102.734 315.297 102.734 313.805C102.734 312.313 103.327 310.882 104.382 309.827C105.437 308.772 106.868 308.18 108.359 308.18L249.533 308.813L248.731 315.745Z" fill="#FFB3A2"/>
<path d="M119.688 50.7357L123.496 46.9272C123.979 46.444 123.979 45.6604 123.496 45.1771L119.688 41.3687C119.204 40.8854 118.421 40.8854 117.938 41.3687L114.129 45.1771C113.646 45.6604 113.646 46.444 114.129 46.9272L117.938 50.7357C118.421 51.2189 119.204 51.2189 119.688 50.7357Z" fill="#FC8064"/>
<path d="M131.169 43.6781V48.4172C131.17 49.5728 131.63 50.6805 132.448 51.4969L134.895 53.9578C135.002 54.0649 135.087 54.192 135.145 54.332C135.203 54.4719 135.233 54.6219 135.233 54.7734C135.233 54.9249 135.203 55.0749 135.145 55.2149C135.087 55.3548 135.002 55.482 134.895 55.5891L130.901 59.5828C130.794 59.69 130.667 59.775 130.527 59.833C130.387 59.8909 130.237 59.9208 130.086 59.9208C129.934 59.9208 129.784 59.8909 129.644 59.833C129.504 59.775 129.377 59.69 129.27 59.5828L125.276 55.5891C125.169 55.482 125.084 55.3548 125.026 55.2149C124.968 55.0749 124.938 54.9249 124.938 54.7734C124.938 54.6219 124.968 54.4719 125.026 54.332C125.084 54.192 125.169 54.0649 125.276 53.9578L127.723 51.4969C128.131 51.0945 128.454 50.6149 128.674 50.086C128.893 49.5572 129.005 48.9898 129.003 48.4172V43.6781C129.005 43.1055 128.893 42.5381 128.674 42.0093C128.454 41.4804 128.131 41.0008 127.723 40.5984L125.276 38.1375C125.169 38.0304 125.084 37.9033 125.026 37.7633C124.968 37.6234 124.938 37.4734 124.938 37.3219C124.938 37.1704 124.968 37.0204 125.026 36.8804C125.084 36.7405 125.169 36.6133 125.276 36.5062L129.27 32.5125C129.377 32.4053 129.504 32.3203 129.644 32.2624C129.784 32.2044 129.934 32.1745 130.086 32.1745C130.237 32.1745 130.387 32.2044 130.527 32.2624C130.667 32.3203 130.794 32.4053 130.901 32.5125L134.895 36.5625C135.002 36.6696 135.087 36.7967 135.145 36.9367C135.203 37.0766 135.233 37.2266 135.233 37.3781C135.233 37.5296 135.203 37.6796 135.145 37.8196C135.087 37.9595 135.002 38.0867 134.895 38.1937L132.448 40.6547C131.644 41.4572 131.185 42.5421 131.169 43.6781Z" fill="#FC8064"/>
<path d="M136.442 36.2531H141.125C142.28 36.2516 143.388 35.7913 144.205 34.9734L146.75 32.5125C146.969 32.2952 147.264 32.1733 147.573 32.1733C147.881 32.1733 148.177 32.2952 148.395 32.5125L152.375 36.5625C152.486 36.6676 152.574 36.7941 152.634 36.9343C152.694 37.0745 152.725 37.2255 152.725 37.3781C152.725 37.5307 152.694 37.6817 152.634 37.8219C152.574 37.9621 152.486 38.0887 152.375 38.1938L148.353 42.1875C148.136 42.3922 147.85 42.5063 147.551 42.5063C147.253 42.5063 146.967 42.3922 146.75 42.1875L144.303 39.7406C143.487 38.9227 142.379 38.4625 141.223 38.4609H136.442C135.283 38.4664 134.172 38.9258 133.348 39.7406L130.901 42.1875C130.794 42.2947 130.667 42.3797 130.527 42.4376C130.387 42.4956 130.237 42.5255 130.086 42.5255C129.934 42.5255 129.784 42.4956 129.644 42.4376C129.504 42.3797 129.377 42.2947 129.27 42.1875L125.276 38.1938C125.169 38.0867 125.084 37.9595 125.026 37.8196C124.968 37.6796 124.938 37.5296 124.938 37.3781C124.938 37.2266 124.968 37.0766 125.026 36.9367C125.084 36.7967 125.169 36.6696 125.276 36.5625L129.27 32.5688C129.377 32.4616 129.504 32.3766 129.644 32.3186C129.784 32.2606 129.934 32.2308 130.086 32.2308C130.237 32.2308 130.387 32.2606 130.527 32.3186C130.667 32.3766 130.794 32.4616 130.901 32.5688L133.348 35.0297C134.181 35.824 135.291 36.2628 136.442 36.2531Z" fill="#FC8064"/>
<path d="M243.106 320.203H211.255V319.528H243.106C244.522 319.457 245.856 318.844 246.833 317.817C247.81 316.789 248.354 315.426 248.354 314.009C248.354 312.591 247.81 311.228 246.833 310.201C245.856 309.173 244.522 308.561 243.106 308.489H159.716V307.814H243.106C244.698 307.89 246.2 308.576 247.3 309.729C248.399 310.882 249.013 312.415 249.013 314.009C249.013 315.602 248.399 317.135 247.3 318.288C246.2 319.441 244.698 320.127 243.106 320.203Z" fill="#F4603F"/>
<path d="M234.866 327.811C246.818 327.811 256.508 318.121 256.508 306.169C256.508 294.216 246.818 284.527 234.866 284.527C222.913 284.527 213.224 294.216 213.224 306.169C213.224 318.121 222.913 327.811 234.866 327.811Z" fill="#FEF4F2"/>
<path d="M234.865 325.336C245.451 325.336 254.033 316.754 254.033 306.169C254.033 295.583 245.451 287.002 234.865 287.002C224.28 287.002 215.698 295.583 215.698 306.169C215.698 316.754 224.28 325.336 234.865 325.336Z" fill="#FC8064"/>
<path d="M235.71 295.144V304.988H245.188V307.491H235.752V317.334H233.08V307.491H223.658V304.988H233.08V295.144H235.71Z" fill="#FEF4F2"/>
<path d="M182.89 90.1406H107.417C103.301 90.1406 99.9639 93.4775 99.9639 97.5938V129.966C99.9639 134.082 103.301 137.419 107.417 137.419H182.89C187.007 137.419 190.344 134.082 190.344 129.966V97.5938C190.344 93.4775 187.007 90.1406 182.89 90.1406Z" fill="#FEF4F2"/>
<path d="M97.5308 134.156C92.7777 134.156 88.0105 134.156 83.2573 134.156C82.15 134.186 81.0569 133.902 80.104 133.337C79.1511 132.772 78.3772 131.95 77.8714 130.964C77.4001 130.102 77.158 129.134 77.1683 128.152C77.1683 118.561 77.1683 108.975 77.1683 99.3938C77.172 97.8111 77.8033 96.2946 78.9237 95.1768C80.0442 94.059 81.5622 93.4313 83.1448 93.4313H111.917C112.709 93.4275 113.494 93.5806 114.227 93.8816C114.959 94.1825 115.625 94.6255 116.186 95.185C116.747 95.7444 117.191 96.4093 117.494 97.1413C117.797 97.8733 117.951 98.6579 117.95 99.45C117.95 109.013 117.95 118.57 117.95 128.123C117.955 128.918 117.803 129.707 117.5 130.442C117.198 131.177 116.753 131.845 116.19 132.407C115.627 132.968 114.958 133.412 114.222 133.713C113.486 134.013 112.698 134.164 111.903 134.156H97.5308ZM89.0933 109.688L89.473 110.011L102.003 121.416C102.326 121.697 102.495 121.683 102.804 121.416C104.928 119.616 107.023 117.858 109.203 116.058C109.244 116.008 109.295 115.968 109.353 115.94C109.412 115.912 109.476 115.898 109.54 115.898C109.605 115.898 109.669 115.912 109.727 115.94C109.785 115.968 109.837 116.008 109.878 116.058L114.828 120.192L115.489 120.712C115.489 120.544 115.489 120.445 115.489 120.361V99.4641C115.487 99.107 115.434 98.752 115.334 98.4094C115.114 97.648 114.646 96.9821 114.004 96.5182C113.361 96.0542 112.582 95.819 111.79 95.85H83.4683C82.9657 95.8257 82.4637 95.9071 81.9945 96.0888C81.5253 96.2705 81.0995 96.5485 80.7444 96.905C80.3892 97.2614 80.1128 97.6883 79.9328 98.1582C79.7529 98.628 79.6734 99.1304 79.6995 99.6328V119.602C79.6995 119.756 79.6995 119.911 79.6995 120.164L89.0933 109.688ZM89.2902 113.119L89.0652 113.358C85.9808 116.78 82.9058 120.202 79.8402 123.623C79.7115 123.777 79.6417 123.971 79.6433 124.172C79.6433 125.452 79.6433 126.717 79.6433 127.983C79.6236 128.478 79.7064 128.972 79.8865 129.434C80.0667 129.896 80.3402 130.315 80.6901 130.667C81.0399 131.018 81.4585 131.293 81.9196 131.475C82.3808 131.657 82.8745 131.741 83.3698 131.723H111.818C112.314 131.742 112.807 131.657 113.268 131.474C113.729 131.291 114.146 131.014 114.494 130.661C114.842 130.307 115.113 129.886 115.289 129.422C115.465 128.959 115.542 128.464 115.517 127.969C115.517 126.759 115.517 125.55 115.517 124.327C115.524 124.182 115.494 124.037 115.43 123.907C115.366 123.776 115.27 123.664 115.151 123.581L110.75 119.953L109.554 118.955L109.09 119.32L102.664 124.692C102.453 124.875 102.312 124.959 102.073 124.692L92.2292 115.734L89.2902 113.119Z" fill="#FC8064"/>
<path d="M105.969 111.403C104.786 111.4 103.631 111.048 102.649 110.39C101.666 109.731 100.901 108.797 100.448 107.705C99.9957 106.612 99.8766 105.411 100.106 104.251C100.335 103.091 100.903 102.024 101.737 101.186C102.571 100.348 103.635 99.7759 104.793 99.5411C105.952 99.3064 107.155 99.4198 108.249 99.8672C109.344 100.315 110.282 101.076 110.944 102.055C111.607 103.034 111.965 104.188 111.973 105.37C111.979 106.162 111.828 106.946 111.528 107.679C111.229 108.412 110.787 109.078 110.229 109.639C109.67 110.2 109.006 110.644 108.275 110.947C107.544 111.25 106.76 111.405 105.969 111.403ZM109.526 105.469C109.538 104.759 109.337 104.063 108.951 103.468C108.565 102.873 108.01 102.406 107.358 102.128C106.705 101.849 105.985 101.771 105.288 101.904C104.591 102.036 103.949 102.373 103.444 102.872C102.94 103.37 102.595 104.008 102.454 104.703C102.313 105.399 102.383 106.12 102.654 106.776C102.924 107.432 103.384 107.992 103.975 108.385C104.565 108.778 105.259 108.987 105.969 108.984C106.905 108.984 107.804 108.615 108.47 107.957C109.136 107.299 109.515 106.405 109.526 105.469Z" fill="#FC8064"/>
<path d="M89.0938 109.687L79.6719 120.164C79.6719 119.911 79.6719 119.756 79.6719 119.602V99.6328C79.6455 99.1279 79.7257 98.623 79.9073 98.1511C80.0889 97.6792 80.3679 97.2509 80.7261 96.894C81.0843 96.5372 81.5137 96.2597 81.9863 96.0799C82.4588 95.9 82.964 95.8217 83.4688 95.85H111.875C112.661 95.8334 113.43 96.0786 114.062 96.547C114.693 97.0154 115.151 97.6805 115.363 98.4375C115.463 98.7801 115.515 99.1351 115.517 99.4922V120.375C115.517 120.459 115.517 120.558 115.517 120.727L114.856 120.206L109.906 116.072C109.865 116.022 109.814 115.982 109.756 115.954C109.697 115.926 109.633 115.912 109.569 115.912C109.504 115.912 109.44 115.926 109.382 115.954C109.324 115.982 109.272 116.022 109.231 116.072C107.108 117.872 105.013 119.63 102.833 121.43C102.523 121.697 102.355 121.711 102.031 121.43L89.5016 110.025L89.0938 109.687ZM105.969 111.403C107.155 111.4 108.314 111.045 109.299 110.383C110.283 109.72 111.049 108.78 111.499 107.682C111.948 106.584 112.061 105.377 111.824 104.214C111.587 103.052 111.009 101.986 110.165 101.152C109.321 100.318 108.249 99.7528 107.083 99.5292C105.918 99.3056 104.713 99.4331 103.62 99.8956C102.527 100.358 101.596 101.135 100.945 102.127C100.294 103.119 99.953 104.282 99.9641 105.469C99.9826 107.049 100.623 108.558 101.748 109.669C102.872 110.78 104.388 111.403 105.969 111.403Z" fill="#FFD2C8"/>
<path d="M89.3044 113.119L92.2153 115.762L102.059 124.72C102.298 124.959 102.439 124.875 102.65 124.72L109.076 119.348L109.54 118.983L110.736 119.981L115.151 123.652C115.27 123.735 115.366 123.847 115.43 123.977C115.494 124.107 115.524 124.252 115.517 124.397C115.517 125.62 115.517 126.83 115.517 128.039C115.537 128.531 115.454 129.021 115.276 129.479C115.097 129.938 114.826 130.354 114.478 130.703C114.131 131.051 113.716 131.325 113.258 131.505C112.8 131.685 112.31 131.769 111.818 131.752H83.37C82.8709 131.77 82.3735 131.684 81.9094 131.5C81.4453 131.315 81.0246 131.036 80.6741 130.68C80.3236 130.325 80.051 129.9 79.8735 129.433C79.6961 128.966 79.6177 128.468 79.6434 127.969C79.6434 126.703 79.6434 125.437 79.6434 124.158C79.6419 123.957 79.7116 123.763 79.8403 123.609C82.9059 120.178 85.9809 116.756 89.0653 113.344L89.3044 113.119Z" fill="#FFD2C8"/>
<path d="M109.526 105.469C109.515 106.173 109.296 106.859 108.896 107.439C108.496 108.019 107.934 108.468 107.279 108.73C106.625 108.991 105.908 109.053 105.218 108.908C104.529 108.762 103.898 108.416 103.404 107.913C102.911 107.41 102.578 106.772 102.446 106.08C102.314 105.388 102.39 104.672 102.664 104.023C102.938 103.374 103.398 102.82 103.986 102.432C104.574 102.044 105.264 101.838 105.968 101.841C106.441 101.842 106.909 101.938 107.344 102.122C107.779 102.306 108.174 102.574 108.505 102.912C108.836 103.249 109.097 103.649 109.272 104.088C109.447 104.527 109.534 104.996 109.526 105.469Z" fill="#FFD2C8"/>
<path d="M180.12 103.317H127.062C126.823 103.317 126.594 103.222 126.426 103.054C126.257 102.885 126.162 102.656 126.162 102.417C126.162 102.178 126.257 101.95 126.426 101.781C126.594 101.612 126.823 101.517 127.062 101.517H180.078C180.316 101.517 180.545 101.612 180.714 101.781C180.883 101.95 180.978 102.178 180.978 102.417C180.978 102.649 180.889 102.871 180.729 103.039C180.569 103.207 180.351 103.306 180.12 103.317Z" fill="#FFD2C8"/>
<path d="M166.704 113.02H127.062C126.823 113.02 126.594 112.925 126.426 112.757C126.257 112.588 126.162 112.359 126.162 112.12C126.162 111.882 126.257 111.653 126.426 111.484C126.594 111.315 126.823 111.22 127.062 111.22H166.662C166.901 111.22 167.13 111.315 167.299 111.484C167.467 111.653 167.562 111.882 167.562 112.12C167.562 112.352 167.473 112.575 167.314 112.742C167.154 112.91 166.936 113.009 166.704 113.02Z" fill="#FFD2C8"/>
<path d="M166.705 126.745H127.063C126.842 126.718 126.638 126.61 126.491 126.443C126.343 126.276 126.262 126.061 126.262 125.838C126.262 125.615 126.343 125.4 126.491 125.233C126.638 125.066 126.842 124.959 127.063 124.931H166.663C166.884 124.959 167.087 125.066 167.235 125.233C167.382 125.4 167.464 125.615 167.464 125.838C167.464 126.061 167.382 126.276 167.235 126.443C167.087 126.61 166.884 126.718 166.663 126.745H166.705Z" fill="#FFD2C8"/>
<path d="M182.89 149.442H107.417C103.301 149.442 99.9639 152.779 99.9639 156.895V189.267C99.9639 193.383 103.301 196.72 107.417 196.72H182.89C187.007 196.72 190.344 193.383 190.344 189.267V156.895C190.344 152.779 187.007 149.442 182.89 149.442Z" fill="#FEF4F2"/>
<path d="M97.5308 193.444C92.7777 193.444 88.0105 193.444 83.2573 193.444C82.15 193.473 81.0569 193.189 80.104 192.624C79.1511 192.06 78.3772 191.237 77.8714 190.252C77.4001 189.39 77.158 188.421 77.1683 187.439C77.1683 177.848 77.1683 168.263 77.1683 158.681C77.172 157.099 77.8033 155.582 78.9237 154.464C80.0442 153.346 81.5622 152.719 83.1448 152.719C92.7214 152.719 102.298 152.719 111.86 152.719C112.653 152.715 113.438 152.868 114.17 153.169C114.903 153.47 115.569 153.913 116.13 154.472C116.69 155.032 117.135 155.697 117.438 156.429C117.74 157.161 117.895 157.945 117.893 158.738C117.893 168.3 117.893 177.858 117.893 187.411C117.897 188.205 117.743 188.993 117.44 189.727C117.138 190.462 116.692 191.129 116.13 191.69C115.567 192.251 114.899 192.695 114.164 192.996C113.429 193.297 112.641 193.449 111.846 193.444H97.5308ZM89.0933 168.989L89.473 169.298L102.003 180.717C102.326 180.998 102.495 180.984 102.804 180.717C104.928 178.917 107.023 177.159 109.203 175.359C109.456 175.134 109.625 175.148 109.878 175.359L114.828 179.494L115.489 180.014C115.489 179.831 115.489 179.747 115.489 179.663V158.766C115.487 158.409 115.434 158.054 115.334 157.711C115.114 156.95 114.646 156.284 114.004 155.82C113.361 155.356 112.582 155.121 111.79 155.152H83.4683C82.9636 155.119 82.4579 155.194 81.984 155.37C81.5101 155.547 81.0786 155.821 80.7178 156.175C80.3569 156.529 80.0747 156.956 79.8896 157.426C79.7045 157.897 79.6205 158.401 79.6433 158.906V178.875C79.6433 179.03 79.6433 179.184 79.6433 179.438L89.0933 168.989ZM89.2902 172.42L89.0652 172.659L79.8402 182.911C79.7135 183.071 79.6442 183.269 79.6433 183.473C79.6433 184.753 79.6433 186.019 79.6433 187.284C79.6236 187.78 79.7064 188.274 79.8865 188.736C80.0667 189.197 80.3402 189.617 80.6901 189.968C81.0399 190.319 81.4585 190.594 81.9196 190.776C82.3808 190.958 82.8745 191.043 83.3698 191.025H111.818C112.31 191.043 112.8 190.959 113.258 190.778C113.715 190.598 114.131 190.325 114.478 189.976C114.825 189.628 115.097 189.211 115.276 188.753C115.454 188.294 115.536 187.804 115.517 187.313C115.517 186.103 115.517 184.88 115.517 183.67C115.525 183.525 115.496 183.38 115.432 183.25C115.368 183.119 115.271 183.007 115.151 182.925L110.735 179.255L109.54 178.256L109.076 178.622L102.65 183.994C102.439 184.177 102.298 184.261 102.059 183.994L92.2152 175.036L89.2902 172.42Z" fill="#FC8064"/>
<path d="M105.969 170.705C104.786 170.702 103.631 170.349 102.649 169.691C101.666 169.033 100.901 168.099 100.448 167.006C99.9957 165.914 99.8766 164.712 100.106 163.552C100.335 162.392 100.903 161.326 101.737 160.488C102.571 159.65 103.635 159.077 104.793 158.843C105.952 158.608 107.155 158.721 108.249 159.169C109.344 159.616 110.282 160.377 110.944 161.357C111.607 162.336 111.965 163.489 111.973 164.672C111.979 165.463 111.828 166.248 111.528 166.981C111.229 167.713 110.787 168.379 110.229 168.94C109.67 169.501 109.006 169.946 108.275 170.249C107.544 170.552 106.76 170.707 105.969 170.705ZM109.54 164.714C109.54 164.005 109.329 163.312 108.934 162.724C108.539 162.135 107.978 161.678 107.322 161.409C106.666 161.14 105.945 161.073 105.251 161.215C104.556 161.358 103.92 161.704 103.423 162.209C102.926 162.714 102.59 163.356 102.459 164.052C102.327 164.749 102.406 165.469 102.685 166.12C102.964 166.772 103.431 167.326 104.025 167.712C104.62 168.097 105.316 168.297 106.025 168.286C106.961 168.271 107.854 167.888 108.509 167.219C109.165 166.551 109.53 165.65 109.526 164.714H109.54Z" fill="#FC8064"/>
<path d="M89.0938 168.989L79.6579 179.466C79.6579 179.213 79.6579 179.058 79.6579 178.903V158.906C79.6353 158.402 79.7189 157.899 79.9032 157.43C80.0875 156.96 80.3684 156.535 80.7277 156.181C81.087 155.827 81.5167 155.552 81.9889 155.375C82.4611 155.198 82.9653 155.122 83.4688 155.152H111.875C112.667 155.121 113.446 155.356 114.089 155.82C114.731 156.284 115.199 156.95 115.419 157.711C115.519 158.054 115.571 158.409 115.574 158.766V179.677C115.574 179.761 115.574 179.845 115.574 180.028L114.913 179.508L109.963 175.373C109.709 175.148 109.541 175.134 109.288 175.373C107.164 177.173 105.069 178.931 102.889 180.731C102.58 180.998 102.411 181.013 102.088 180.731L89.5579 169.313L89.0938 168.989ZM105.969 170.705C107.154 170.705 108.312 170.353 109.297 169.695C110.282 169.037 111.05 168.101 111.503 167.007C111.957 165.912 112.076 164.707 111.844 163.545C111.613 162.383 111.043 161.316 110.205 160.478C109.367 159.64 108.3 159.07 107.138 158.839C105.975 158.607 104.771 158.726 103.676 159.179C102.582 159.633 101.646 160.401 100.988 161.386C100.33 162.371 99.9782 163.529 99.9782 164.714C99.9819 166.302 100.614 167.823 101.737 168.946C102.86 170.069 104.381 170.701 105.969 170.705Z" fill="#FFD2C8"/>
<path d="M89.3044 172.42L92.2153 175.064L102.059 184.022C102.298 184.261 102.439 184.177 102.65 184.022L109.09 178.594L109.554 178.228L110.75 179.227L115.165 182.897C115.285 182.979 115.382 183.091 115.446 183.221C115.51 183.352 115.539 183.497 115.531 183.642C115.531 184.852 115.531 186.075 115.531 187.284C115.551 187.776 115.469 188.266 115.29 188.725C115.111 189.183 114.84 189.6 114.492 189.948C114.145 190.297 113.73 190.57 113.272 190.75C112.814 190.931 112.324 191.015 111.833 190.997H83.37C82.8747 191.015 82.3809 190.93 81.9198 190.748C81.4587 190.566 81.0401 190.291 80.6903 189.94C80.3404 189.589 80.0669 189.169 79.8867 188.707C79.7066 188.246 79.6238 187.752 79.6435 187.256C79.6435 185.991 79.6435 184.725 79.6435 183.445C79.6444 183.241 79.7137 183.043 79.8403 182.883L89.0935 172.659L89.3044 172.42Z" fill="#FFD2C8"/>
<path d="M109.527 164.714C109.527 165.421 109.317 166.112 108.924 166.7C108.53 167.288 107.972 167.745 107.318 168.015C106.665 168.285 105.946 168.355 105.253 168.216C104.559 168.077 103.923 167.736 103.424 167.235C102.925 166.734 102.586 166.096 102.45 165.402C102.314 164.708 102.386 163.99 102.659 163.337C102.931 162.685 103.391 162.128 103.981 161.737C104.57 161.347 105.262 161.139 105.969 161.142C106.914 161.146 107.819 161.524 108.485 162.193C109.152 162.863 109.527 163.769 109.527 164.714Z" fill="#FFD2C8"/>
<path d="M180.12 162.619H127.062C126.823 162.619 126.594 162.524 126.426 162.355C126.257 162.186 126.162 161.957 126.162 161.719C126.162 161.48 126.257 161.251 126.426 161.082C126.594 160.914 126.823 160.819 127.062 160.819H180.078C180.316 160.819 180.545 160.914 180.714 161.082C180.883 161.251 180.978 161.48 180.978 161.719C180.978 161.95 180.889 162.173 180.729 162.341C180.569 162.508 180.351 162.608 180.12 162.619Z" fill="#FFD2C8"/>
<path d="M166.704 172.322H127.062C126.823 172.322 126.594 172.227 126.426 172.058C126.257 171.889 126.162 171.661 126.162 171.422C126.162 171.183 126.257 170.954 126.426 170.785C126.594 170.617 126.823 170.522 127.062 170.522H166.662C166.901 170.522 167.13 170.617 167.299 170.785C167.467 170.954 167.562 171.183 167.562 171.422C167.562 171.653 167.473 171.876 167.314 172.044C167.154 172.211 166.936 172.311 166.704 172.322Z" fill="#FFD2C8"/>
<path d="M166.705 186.047H127.063C126.82 186.047 126.588 185.951 126.416 185.779C126.245 185.608 126.148 185.375 126.148 185.133C126.148 184.89 126.245 184.658 126.416 184.486C126.588 184.315 126.82 184.219 127.063 184.219H166.663C166.884 184.246 167.087 184.354 167.235 184.521C167.382 184.688 167.463 184.903 167.463 185.126C167.463 185.349 167.382 185.564 167.235 185.731C167.087 185.898 166.884 186.005 166.663 186.033L166.705 186.047Z" fill="#FFD2C8"/>
<path d="M182.89 208.744H107.417C103.301 208.744 99.9639 212.081 99.9639 216.197V248.569C99.9639 252.685 103.301 256.022 107.417 256.022H182.89C187.007 256.022 190.344 252.685 190.344 248.569V216.197C190.344 212.081 187.007 208.744 182.89 208.744Z" fill="#FEF4F2"/>
<path d="M97.5308 252.745C92.7777 252.745 88.0105 252.745 83.2573 252.745C82.15 252.775 81.0569 252.491 80.104 251.926C79.1511 251.361 78.3772 250.539 77.8714 249.553C77.4001 248.691 77.158 247.723 77.1683 246.741C77.1683 237.15 77.1683 227.564 77.1683 217.983C77.1757 216.4 77.8077 214.884 78.9269 213.765C80.0462 212.646 81.562 212.014 83.1448 212.006C92.7261 212.006 102.298 212.006 111.86 212.006C112.653 212.003 113.438 212.156 114.17 212.457C114.903 212.758 115.569 213.201 116.13 213.76C116.69 214.319 117.135 214.984 117.438 215.716C117.74 216.448 117.895 217.233 117.893 218.025C117.893 227.587 117.893 237.145 117.893 246.698C117.897 247.493 117.743 248.28 117.44 249.015C117.138 249.749 116.692 250.416 116.13 250.978C115.567 251.539 114.899 251.983 114.164 252.284C113.429 252.585 112.641 252.737 111.846 252.731C107.121 252.759 102.354 252.745 97.5308 252.745ZM89.0933 228.291L89.473 228.6L102.003 240.019C102.326 240.3 102.495 240.286 102.804 240.019C104.928 238.219 107.023 236.461 109.203 234.661C109.456 234.436 109.625 234.45 109.878 234.661L114.828 238.795L115.489 239.316C115.489 239.133 115.489 239.048 115.489 238.964V218.067C115.487 217.71 115.434 217.355 115.334 217.013C115.114 216.251 114.646 215.585 114.004 215.121C113.361 214.657 112.582 214.422 111.79 214.453H83.4683C82.9657 214.429 82.4637 214.51 81.9945 214.692C81.5253 214.874 81.0995 215.152 80.7444 215.508C80.3892 215.865 80.1128 216.291 79.9328 216.761C79.7529 217.231 79.6734 217.733 79.6995 218.236V238.205C79.6995 238.359 79.6995 238.514 79.6995 238.767L89.0933 228.291ZM89.2902 231.708L89.0652 231.947L79.8402 242.213C79.7135 242.373 79.6442 242.571 79.6433 242.775C79.6433 244.055 79.6433 245.32 79.6433 246.586C79.6277 247.08 79.7134 247.571 79.8951 248.03C80.0769 248.49 80.3508 248.907 80.7 249.256C81.0492 249.605 81.4663 249.879 81.9255 250.061C82.3847 250.242 82.8762 250.328 83.3698 250.313H111.818C112.309 250.328 112.799 250.243 113.255 250.062C113.712 249.88 114.127 249.607 114.474 249.259C114.82 248.911 115.092 248.495 115.271 248.038C115.451 247.581 115.534 247.091 115.517 246.6C115.517 245.391 115.517 244.167 115.517 242.958C115.525 242.813 115.496 242.668 115.432 242.537C115.368 242.406 115.271 242.295 115.151 242.213L110.735 238.542L109.54 237.544L109.076 237.909L102.664 243.281C102.453 243.464 102.312 243.548 102.073 243.281C98.8011 240.291 95.5198 237.305 92.2292 234.323L89.2902 231.708Z" fill="#FC8064"/>
<path d="M105.969 230.006C104.786 230.003 103.631 229.651 102.649 228.993C101.666 228.335 100.901 227.4 100.448 226.308C99.9957 225.216 99.8766 224.014 100.106 222.854C100.335 221.694 100.903 220.628 101.737 219.79C102.571 218.951 103.635 218.379 104.793 218.144C105.952 217.91 107.155 218.023 108.249 218.47C109.344 218.918 110.282 219.679 110.944 220.658C111.607 221.638 111.965 222.791 111.973 223.973C111.979 224.765 111.828 225.55 111.528 226.282C111.229 227.015 110.787 227.681 110.229 228.242C109.67 228.803 109.006 229.247 108.275 229.55C107.544 229.853 106.76 230.008 105.969 230.006ZM109.54 224.016C109.54 223.307 109.329 222.614 108.934 222.025C108.539 221.437 107.978 220.979 107.322 220.711C106.666 220.442 105.945 220.375 105.251 220.517C104.556 220.659 103.92 221.005 103.423 221.51C102.926 222.016 102.59 222.657 102.459 223.354C102.327 224.05 102.406 224.77 102.685 225.422C102.964 226.074 103.431 226.627 104.025 227.013C104.62 227.399 105.316 227.599 106.025 227.587C106.961 227.573 107.854 227.189 108.509 226.521C109.165 225.852 109.53 224.952 109.526 224.016H109.54Z" fill="#FC8064"/>
<path d="M89.0933 228.291L79.6573 238.767C79.6573 238.514 79.6573 238.359 79.6573 238.205V218.236C79.6307 217.73 79.7112 217.224 79.8937 216.751C80.0762 216.278 80.3564 215.849 80.7162 215.492C81.076 215.135 81.5071 214.857 81.9813 214.678C82.4556 214.5 82.9623 214.423 83.4683 214.453H111.875C112.666 214.422 113.446 214.657 114.088 215.121C114.73 215.585 115.199 216.251 115.418 217.013C115.519 217.355 115.571 217.71 115.573 218.067V238.978C115.573 239.063 115.573 239.147 115.573 239.33L114.912 238.809L109.962 234.675C109.709 234.45 109.54 234.436 109.287 234.675C107.164 236.475 105.068 238.233 102.889 240.033C102.579 240.3 102.41 240.314 102.087 240.033L89.5573 228.614L89.0933 228.291ZM105.968 230.006C107.153 230.006 108.311 229.655 109.296 228.997C110.282 228.338 111.049 227.403 111.503 226.308C111.956 225.213 112.075 224.009 111.844 222.847C111.613 221.685 111.042 220.617 110.204 219.78C109.366 218.942 108.299 218.371 107.137 218.14C105.975 217.909 104.77 218.028 103.676 218.481C102.581 218.934 101.645 219.702 100.987 220.687C100.329 221.673 99.9776 222.831 99.9776 224.016C99.9813 225.603 100.614 227.125 101.736 228.248C102.859 229.37 104.381 230.003 105.968 230.006Z" fill="#FFD2C8"/>
<path d="M89.3048 231.708L92.2158 234.366C95.5064 237.347 98.7876 240.333 102.06 243.323C102.299 243.563 102.439 243.478 102.65 243.323L109.077 237.952L109.541 237.586L110.736 238.584L115.152 242.255C115.272 242.337 115.368 242.449 115.433 242.579C115.497 242.71 115.526 242.855 115.517 243C115.517 244.209 115.517 245.433 115.517 246.642C115.529 247.13 115.441 247.615 115.259 248.067C115.077 248.52 114.805 248.93 114.458 249.274C114.112 249.617 113.7 249.887 113.246 250.065C112.792 250.244 112.306 250.328 111.819 250.313H83.3704C82.8756 250.328 82.3828 250.242 81.9227 250.06C81.4625 249.877 81.0447 249.602 80.6953 249.251C80.3459 248.9 80.0723 248.481 79.8914 248.021C79.7105 247.56 79.6263 247.067 79.6439 246.572C79.6439 245.306 79.6439 244.041 79.6439 242.761C79.6448 242.557 79.7141 242.359 79.8408 242.198L89.0658 231.933L89.3048 231.708Z" fill="#FFD2C8"/>
<path d="M109.527 224.016C109.527 224.723 109.317 225.414 108.924 226.002C108.53 226.589 107.972 227.047 107.318 227.317C106.665 227.587 105.946 227.657 105.253 227.518C104.559 227.379 103.923 227.037 103.424 226.536C102.925 226.035 102.586 225.398 102.45 224.704C102.314 224.01 102.386 223.291 102.659 222.639C102.931 221.987 103.391 221.43 103.981 221.039C104.57 220.648 105.262 220.441 105.969 220.444C106.914 220.447 107.819 220.825 108.485 221.495C109.152 222.164 109.527 223.071 109.527 224.016Z" fill="#FFD2C8"/>
<path d="M180.12 221.92H127.062C126.823 221.92 126.594 221.825 126.426 221.657C126.257 221.488 126.162 221.259 126.162 221.02C126.162 220.782 126.257 220.553 126.426 220.384C126.594 220.215 126.823 220.12 127.062 220.12H180.078C180.316 220.12 180.545 220.215 180.714 220.384C180.883 220.553 180.978 220.782 180.978 221.02C180.978 221.252 180.889 221.475 180.729 221.642C180.569 221.81 180.351 221.909 180.12 221.92Z" fill="#FFD2C8"/>
<path d="M166.704 231.623H127.062C126.823 231.623 126.594 231.529 126.426 231.36C126.257 231.191 126.162 230.962 126.162 230.723C126.162 230.485 126.257 230.256 126.426 230.087C126.594 229.918 126.823 229.823 127.062 229.823H166.662C166.901 229.823 167.13 229.918 167.299 230.087C167.467 230.256 167.562 230.485 167.562 230.723C167.562 230.955 167.473 231.178 167.314 231.345C167.154 231.513 166.936 231.613 166.704 231.623Z" fill="#FFD2C8"/>
<path d="M166.705 245.348H127.063C126.842 245.321 126.638 245.213 126.491 245.046C126.343 244.879 126.262 244.664 126.262 244.441C126.262 244.219 126.343 244.003 126.491 243.836C126.638 243.669 126.842 243.562 127.063 243.534H166.663C166.884 243.562 167.087 243.669 167.235 243.836C167.382 244.003 167.464 244.219 167.464 244.441C167.464 244.664 167.382 244.879 167.235 245.046C167.087 245.213 166.884 245.321 166.663 245.348H166.705Z" fill="#FFD2C8"/>
<path d="M243.781 261.928L242.881 261.83L264.537 67.7672C264.783 65.5791 264.563 63.3639 263.894 61.2665C263.224 59.169 262.119 57.2367 260.65 55.5959C259.182 53.9551 257.384 52.6428 255.374 51.745C253.363 50.8472 251.186 50.3841 248.984 50.3859H208.779V49.4719H248.97C251.298 49.4757 253.599 49.9697 255.724 50.9218C257.848 51.8739 259.748 53.2628 261.3 54.9979C262.852 56.7331 264.022 58.7757 264.732 60.9927C265.442 63.2098 265.678 65.5516 265.423 67.8656L243.781 261.928Z" fill="#F4603F"/>
<path d="M260.038 214.003L259.138 213.919L271.246 96.5813C271.342 95.5689 271.225 94.5476 270.903 93.5829C270.581 92.6183 270.062 91.7315 269.377 90.9794C268.693 90.2274 267.858 89.6267 266.928 89.2159C265.998 88.805 264.992 88.5931 263.975 88.5938H262.71V87.6938H263.975C265.126 87.6892 266.265 87.9275 267.318 88.393C268.371 88.8586 269.313 89.541 270.085 90.3957C270.856 91.2504 271.438 92.2581 271.793 93.353C272.148 94.4479 272.268 95.6055 272.146 96.75L260.038 214.003Z" fill="#F4603F"/>
<path d="M255.031 313.214V312.3L275.872 312.159C276.831 312.161 277.779 311.967 278.66 311.588C279.541 311.209 280.335 310.655 280.994 309.958C281.652 309.261 282.161 308.437 282.49 307.536C282.818 306.636 282.959 305.677 282.903 304.72L280.288 252.492H281.188L283.803 304.72C283.866 305.801 283.708 306.883 283.34 307.901C282.971 308.919 282.398 309.851 281.658 310.64C280.917 311.43 280.023 312.06 279.031 312.493C278.039 312.926 276.969 313.152 275.886 313.158L255.031 313.214Z" fill="#F4603F"/>
<path d="M272.143 96.5925L271.244 96.6448L277.327 201.191L278.226 201.139L272.143 96.5925Z" fill="#F4603F"/>
<path d="M161.839 320.316H108.612C106.953 320.316 105.361 319.656 104.187 318.483C103.014 317.309 102.354 315.718 102.354 314.058C102.354 312.398 103.014 310.806 104.187 309.633C105.361 308.459 106.953 307.8 108.612 307.8H131.745V308.7H108.612C107.191 308.7 105.829 309.264 104.824 310.269C103.819 311.274 103.254 312.637 103.254 314.058C103.254 315.479 103.819 316.842 104.824 317.846C105.829 318.851 107.191 319.416 108.612 319.416H161.839V320.316Z" fill="#F4603F"/>
<path d="M182.862 197.184H132.026V196.27H182.862C184.727 196.27 186.516 195.53 187.834 194.211C189.153 192.892 189.894 191.104 189.894 189.239V172.364H190.808V189.239C190.808 190.282 190.602 191.316 190.203 192.28C189.804 193.244 189.218 194.119 188.48 194.857C187.743 195.595 186.867 196.18 185.903 196.58C184.939 196.979 183.906 197.184 182.862 197.184Z" fill="#F4603F"/>
<path d="M182.862 137.883H132.026V136.983H182.862C184.727 136.983 186.516 136.242 187.834 134.923C189.153 133.605 189.894 131.816 189.894 129.952V113.077H190.808V129.952C190.808 130.994 190.602 132.027 190.203 132.99C189.803 133.953 189.218 134.828 188.48 135.565C187.742 136.301 186.866 136.885 185.902 137.283C184.938 137.681 183.905 137.885 182.862 137.883Z" fill="#F4603F"/>
<path d="M182.862 256.486H132.026V255.572H182.862C184.727 255.572 186.516 254.831 187.834 253.512C189.153 252.194 189.894 250.405 189.894 248.541V231.666H190.808V248.541C190.808 249.584 190.602 250.617 190.203 251.581C189.804 252.545 189.218 253.421 188.48 254.159C187.743 254.897 186.867 255.482 185.903 255.881C184.939 256.28 183.906 256.486 182.862 256.486Z" fill="#F4603F"/>
</svg>
