<svg width="361" height="360" viewBox="0 0 361 360" fill="none" xmlns="http://www.w3.org/2000/svg">
<path d="M233.571 147.204C211.71 147.204 189.51 146.317 168.719 140.526C148.319 134.865 129.588 123.883 112.892 111.178C101.936 102.909 92.0231 96.3086 77.8054 97.2997C63.93 98.0509 50.662 103.236 39.9532 112.091C21.8749 127.899 24.6138 157.143 31.8401 177.7C42.6921 208.613 75.8227 230.134 103.788 244.143C136.214 260.343 171.823 269.813 207.562 275.16C238.866 279.934 279.066 283.378 306.196 262.925C331.135 244.143 337.97 201.256 331.866 172.299C330.376 163.742 325.811 156.023 319.031 150.595C301.527 137.786 275.44 146.343 255.77 146.76C248.467 146.917 241.032 147.204 233.571 147.204Z" fill="#FEF4F2"/>
<path d="M181.187 325.924C234.076 325.924 276.952 323.25 276.952 319.95C276.952 316.65 234.075 313.976 181.187 313.976C128.297 313.976 85.4219 316.65 85.4219 319.95C85.4219 323.25 128.297 325.924 181.187 325.924Z" fill="#FFE7E1"/>
<path d="M165.787 184.855L73.0996 190.571L88.1966 175.474L182.82 167.825L165.787 184.855ZM220.748 182.98C241.763 184.423 262.758 185.838 283.734 187.223C287.083 187.48 290.46 187.713 293.809 187.945L281.483 175.648L205.855 168.084L220.748 182.98ZM278.451 227.722H279.115V195.594C258.937 194.266 238.75 192.909 218.554 191.524C217.509 191.443 216.527 190.993 215.783 190.254L198.521 173.02V293.19L246.989 287.561C242.583 281.204 240.236 273.647 240.263 265.912C240.28 255.788 244.308 246.085 251.466 238.926C258.624 231.768 268.328 227.739 278.451 227.722ZM170.754 192.13L189.863 173.02V293.306L90.5927 283.722V198.163L167.953 193.4C169.009 193.326 170.002 192.875 170.754 192.13ZM100.436 252.373C100.325 253.518 100.673 254.66 101.404 255.548C102.135 256.436 103.188 256.997 104.333 257.108L118.996 258.522H119.433C120.544 258.522 121.613 258.093 122.417 257.325C123.221 256.558 123.699 255.51 123.751 254.399C123.803 253.289 123.425 252.201 122.696 251.361C121.967 250.522 120.943 249.996 119.836 249.891L105.173 248.477C104.605 248.419 104.032 248.474 103.486 248.639C102.94 248.804 102.432 249.075 101.992 249.438C101.551 249.8 101.187 250.246 100.92 250.75C100.653 251.254 100.488 251.806 100.436 252.373ZM140.098 274.167C140.155 273.602 140.101 273.032 139.938 272.488C139.774 271.944 139.505 271.438 139.146 270.998C138.787 270.559 138.345 270.194 137.844 269.925C137.344 269.657 136.796 269.49 136.231 269.433L105.17 266.431C104.602 266.369 104.028 266.422 103.48 266.585C102.933 266.748 102.424 267.02 101.983 267.383C101.541 267.746 101.177 268.194 100.912 268.699C100.646 269.205 100.485 269.759 100.436 270.329C100.326 271.473 100.674 272.615 101.405 273.502C102.136 274.39 103.189 274.951 104.334 275.062L135.393 278.064H135.798C136.871 278.069 137.908 277.672 138.704 276.95C139.5 276.229 139.997 275.237 140.098 274.167ZM164.883 74.7417C165.07 74.9239 165.21 75.149 165.291 75.3974C165.372 75.6459 165.391 75.9103 165.347 76.1679L161.787 96.9259C161.736 97.2222 161.769 97.5268 161.882 97.8053C161.996 98.0837 162.184 98.325 162.428 98.5017C162.671 98.6784 162.959 98.7835 163.259 98.8052C163.558 98.8269 163.858 98.7642 164.124 98.6244L182.766 88.8223C182.997 88.7007 183.254 88.6371 183.515 88.6371C183.776 88.6371 184.034 88.7007 184.265 88.8223L202.907 98.6228C203.173 98.7628 203.473 98.8254 203.772 98.8038C204.072 98.7821 204.36 98.677 204.603 98.5002C204.847 98.3235 205.035 98.0823 205.149 97.8038C205.262 97.5253 205.295 97.2206 205.244 96.9244L201.686 76.1663C201.642 75.9088 201.661 75.6444 201.742 75.3959C201.823 75.1474 201.963 74.9223 202.15 74.7401L217.231 60.0396C217.446 59.8298 217.599 59.5639 217.671 59.2721C217.743 58.9802 217.732 58.6741 217.639 58.3881C217.546 58.1022 217.375 57.848 217.145 57.6542C216.916 57.4604 216.636 57.3347 216.339 57.2914L195.497 54.2631C195.238 54.2255 194.993 54.1255 194.781 53.9719C194.57 53.8183 194.399 53.6157 194.283 53.3814L184.96 34.4971C184.827 34.228 184.621 34.0014 184.366 33.843C184.111 33.6846 183.816 33.6007 183.516 33.6007C183.216 33.6007 182.921 33.6846 182.666 33.843C182.411 34.0014 182.205 34.228 182.072 34.4971L172.748 53.3829C172.633 53.6172 172.462 53.8199 172.251 53.9735C172.039 54.1271 171.794 54.227 171.536 54.2646L150.693 57.2929C150.396 57.3362 150.116 57.4618 149.887 57.6556C149.657 57.8493 149.486 58.1036 149.393 58.3895C149.3 58.6754 149.289 58.9816 149.361 59.2735C149.433 59.5654 149.585 59.8313 149.8 60.0412L164.883 74.7417ZM97.598 90.0361C97.706 90.1417 97.7869 90.2719 97.8336 90.4156C97.8803 90.5593 97.8915 90.7122 97.8661 90.8611L95.8036 102.884C95.7742 103.056 95.7934 103.232 95.859 103.393C95.9246 103.555 96.034 103.694 96.1749 103.797C96.3158 103.899 96.4824 103.96 96.6561 103.972C96.8298 103.985 97.0035 103.949 97.1576 103.868L107.955 98.1912C108.089 98.1209 108.238 98.0841 108.389 98.0841C108.54 98.0841 108.689 98.1209 108.823 98.1912L119.62 103.868C119.774 103.949 119.948 103.985 120.122 103.972C120.296 103.96 120.462 103.899 120.603 103.797C120.744 103.694 120.853 103.555 120.919 103.393C120.985 103.232 121.004 103.056 120.974 102.884L118.912 90.8611C118.887 90.7122 118.898 90.5593 118.944 90.4156C118.991 90.2719 119.072 90.1417 119.18 90.0361L127.916 81.5211C128.041 81.3997 128.129 81.2458 128.171 81.0769C128.213 80.9079 128.207 80.7305 128.153 80.5649C128.1 80.3993 128.001 80.252 127.868 80.1396C127.735 80.0273 127.573 79.9545 127.401 79.9294L115.329 78.1762C115.18 78.1545 115.037 78.0967 114.915 78.0078C114.792 77.9189 114.693 77.8015 114.626 77.6658L109.226 66.7263C109.149 66.5701 109.03 66.4386 108.882 66.3467C108.734 66.2547 108.563 66.206 108.389 66.206C108.215 66.206 108.044 66.2547 107.897 66.3467C107.749 66.4386 107.63 66.5701 107.553 66.7263L102.154 77.6647C102.087 77.8004 101.988 77.9177 101.866 78.0067C101.743 78.0956 101.601 78.1534 101.451 78.1752L89.3799 79.9283C89.2077 79.9534 89.0459 80.0263 88.9128 80.1386C88.7798 80.2509 88.6809 80.3982 88.6272 80.5639C88.5736 80.7295 88.5673 80.9068 88.6092 81.0758C88.6511 81.2448 88.7395 81.3987 88.8643 81.5201L97.598 90.0361ZM247.851 90.0361C247.959 90.1416 248.04 90.2718 248.087 90.4155C248.134 90.5592 248.145 90.7121 248.12 90.8611L246.057 102.884C246.028 103.056 246.047 103.232 246.112 103.393C246.178 103.555 246.287 103.694 246.428 103.797C246.569 103.899 246.736 103.96 246.909 103.973C247.083 103.985 247.257 103.949 247.411 103.868L258.208 98.1912C258.342 98.1209 258.491 98.0841 258.642 98.0841C258.794 98.0841 258.942 98.1209 259.076 98.1912L269.874 103.868C270.028 103.949 270.202 103.985 270.375 103.972C270.549 103.96 270.716 103.899 270.857 103.797C270.998 103.694 271.107 103.555 271.173 103.393C271.238 103.232 271.257 103.056 271.228 102.884L269.165 90.8611C269.14 90.7122 269.151 90.5592 269.198 90.4155C269.244 90.2718 269.325 90.1416 269.434 90.0361L278.168 81.5211C278.292 81.3996 278.381 81.2458 278.422 81.0768C278.464 80.9079 278.458 80.7307 278.404 80.5651C278.351 80.3996 278.252 80.2523 278.119 80.1399C277.986 80.0276 277.824 79.9547 277.652 79.9294L265.58 78.1762C265.431 78.1545 265.289 78.0966 265.166 78.0077C265.044 77.9188 264.945 77.8014 264.878 77.6658L259.476 66.7263C259.399 66.57 259.28 66.4383 259.132 66.3463C258.984 66.2542 258.814 66.2055 258.64 66.2055C258.465 66.2055 258.295 66.2542 258.147 66.3463C257.999 66.4383 257.88 66.57 257.803 66.7263L252.405 77.6647C252.338 77.8004 252.239 77.9178 252.117 78.0068C251.995 78.0957 251.852 78.1535 251.703 78.1752L239.631 79.9283C239.459 79.9536 239.297 80.0266 239.164 80.1389C239.031 80.2513 238.933 80.3985 238.879 80.5641C238.825 80.7296 238.819 80.9069 238.861 81.0758C238.903 81.2447 238.991 81.3986 239.115 81.5201L247.851 90.0361ZM179.185 117.741V146.753C179.212 147.883 179.681 148.957 180.49 149.747C181.299 150.536 182.384 150.978 183.515 150.978C184.645 150.978 185.731 150.536 186.54 149.747C187.349 148.957 187.817 147.883 187.845 146.753V117.741C187.817 116.611 187.349 115.537 186.54 114.747C185.731 113.958 184.645 113.516 183.515 113.516C182.384 113.516 181.299 113.958 180.49 114.747C179.681 115.537 179.212 116.611 179.185 117.741ZM243.293 156.77C244.133 156.77 244.954 156.527 245.657 156.069C246.36 155.612 246.915 154.959 247.255 154.192L261.428 122.18C261.682 121.657 261.828 121.088 261.858 120.507C261.887 119.926 261.799 119.345 261.599 118.799C261.399 118.253 261.091 117.753 260.694 117.328C260.297 116.903 259.818 116.563 259.286 116.328C258.754 116.092 258.181 115.966 257.599 115.957C257.018 115.948 256.44 116.056 255.901 116.275C255.363 116.494 254.873 116.819 254.463 117.231C254.053 117.643 253.729 118.134 253.513 118.673L239.339 150.685C239.047 151.344 238.924 152.066 238.982 152.784C239.039 153.502 239.275 154.195 239.668 154.799C240.06 155.403 240.598 155.9 241.231 156.244C241.864 156.588 242.573 156.769 243.293 156.77ZM214.853 154.406C215.399 154.565 215.972 154.613 216.537 154.55C217.102 154.486 217.649 154.312 218.147 154.037C218.645 153.761 219.083 153.39 219.437 152.945C219.791 152.5 220.053 151.989 220.209 151.442L232.446 108.865C232.727 107.773 232.571 106.614 232.012 105.635C231.452 104.656 230.533 103.935 229.449 103.623C228.365 103.311 227.203 103.434 226.209 103.966C225.214 104.498 224.467 105.397 224.125 106.471L211.888 149.047C211.73 149.594 211.682 150.166 211.745 150.732C211.809 151.297 211.983 151.844 212.259 152.342C212.534 152.84 212.905 153.278 213.35 153.632C213.796 153.987 214.306 154.25 214.853 154.406ZM147.745 151.818C147.891 152.378 148.147 152.902 148.499 153.361C148.851 153.819 149.291 154.203 149.793 154.489C150.295 154.775 150.85 154.957 151.423 155.026C151.997 155.094 152.579 155.047 153.134 154.887C153.69 154.727 154.208 154.458 154.657 154.094C155.107 153.731 155.479 153.282 155.753 152.773C156.026 152.263 156.194 151.705 156.248 151.129C156.302 150.554 156.241 149.973 156.067 149.422L144.117 107.914C143.777 106.837 143.03 105.935 142.034 105.4C141.039 104.866 139.874 104.742 138.788 105.055C137.702 105.367 136.782 106.092 136.223 107.074C135.663 108.056 135.51 109.217 135.795 110.311L147.745 151.818ZM113.779 119.252C113.303 118.221 112.44 117.418 111.376 117.017C110.313 116.616 109.135 116.649 108.096 117.109C107.056 117.568 106.24 118.418 105.821 119.474C105.402 120.531 105.416 121.709 105.858 122.756L119.772 154.191C120.237 155.241 121.101 156.064 122.172 156.478C123.244 156.892 124.436 156.863 125.486 156.398C126.537 155.933 127.36 155.07 127.774 153.999C128.188 152.927 128.159 151.735 127.694 150.684L113.779 119.252ZM309.109 265.912C309.107 271.978 307.305 277.907 303.932 282.949C300.56 287.991 295.768 291.92 290.163 294.239C284.557 296.557 278.39 297.162 272.441 295.976C266.492 294.789 261.029 291.866 256.742 287.574C252.454 283.283 249.536 277.817 248.355 271.867C247.174 265.917 247.785 259.75 250.109 254.147C252.433 248.544 256.366 243.755 261.411 240.388C266.457 237.02 272.387 235.224 278.453 235.227C280.126 235.229 281.796 235.364 283.447 235.631C290.619 236.819 297.136 240.516 301.836 246.061C306.536 251.607 309.114 258.642 309.109 265.912ZM298.488 265.912C298.488 265.343 298.377 264.779 298.16 264.253C297.942 263.727 297.623 263.249 297.221 262.847C296.819 262.445 296.341 262.126 295.815 261.908C295.289 261.691 294.725 261.58 294.156 261.58H282.783V250.209C282.783 249.06 282.326 247.958 281.514 247.146C280.702 246.334 279.6 245.878 278.451 245.878C277.303 245.878 276.201 246.334 275.389 247.146C274.576 247.958 274.12 249.06 274.12 250.209V261.582H262.75C261.601 261.582 260.5 262.038 259.687 262.851C258.875 263.663 258.419 264.765 258.419 265.913C258.419 267.062 258.875 268.164 259.687 268.976C260.5 269.788 261.601 270.244 262.75 270.244H274.124V281.615C274.124 282.763 274.58 283.865 275.392 284.677C276.205 285.489 277.306 285.946 278.455 285.946C279.604 285.946 280.705 285.489 281.518 284.677C282.33 283.865 282.786 282.763 282.786 281.615V270.242H294.159C294.728 270.242 295.291 270.131 295.817 269.913C296.342 269.696 296.819 269.377 297.221 268.974C297.623 268.572 297.942 268.095 298.159 267.569C298.376 267.044 298.488 266.48 298.488 265.912Z" fill="#F4603F"/>
<mask id="path-4-inside-1_307_13975" fill="white">
<path d="M278.451 227.721H279.116V195.593C258.937 194.265 238.75 192.909 218.554 191.523C217.509 191.442 216.527 190.992 215.783 190.253L198.521 173.02V293.19L246.99 287.561C242.584 281.203 240.236 273.646 240.263 265.911C240.28 255.788 244.308 246.084 251.466 238.926C258.625 231.767 268.328 227.738 278.451 227.721ZM170.754 192.129L189.863 173.02V293.305L90.5928 283.722V198.163L167.953 193.399C169.009 193.325 170.002 192.874 170.754 192.129ZM100.436 252.373C100.325 253.517 100.673 254.659 101.404 255.547C102.135 256.435 103.189 256.996 104.333 257.107L118.996 258.522H119.433C120.544 258.521 121.613 258.092 122.417 257.325C123.221 256.557 123.699 255.509 123.751 254.399C123.803 253.288 123.425 252.2 122.696 251.361C121.967 250.521 120.943 249.995 119.836 249.891L105.173 248.476C104.605 248.418 104.032 248.473 103.486 248.638C102.94 248.803 102.432 249.075 101.992 249.437C101.551 249.799 101.187 250.245 100.92 250.749C100.653 251.253 100.489 251.805 100.436 252.373ZM140.098 274.167C140.155 273.602 140.101 273.031 139.938 272.487C139.774 271.944 139.505 271.437 139.146 270.998C138.787 270.558 138.345 270.193 137.844 269.925C137.344 269.656 136.796 269.489 136.231 269.433L105.171 266.431C104.603 266.369 104.028 266.421 103.48 266.584C102.933 266.748 102.424 267.019 101.983 267.382C101.542 267.745 101.177 268.193 100.912 268.699C100.646 269.205 100.485 269.759 100.437 270.328C100.326 271.472 100.674 272.614 101.405 273.502C102.136 274.39 103.189 274.951 104.334 275.062L135.393 278.064H135.798C136.872 278.068 137.908 277.671 138.704 276.95C139.5 276.229 139.997 275.236 140.098 274.167ZM179.185 117.741V146.752C179.212 147.882 179.681 148.957 180.49 149.746C181.299 150.536 182.384 150.978 183.515 150.978C184.645 150.978 185.731 150.536 186.54 149.746C187.349 148.957 187.817 147.882 187.845 146.752V117.741C187.817 116.61 187.349 115.536 186.54 114.746C185.731 113.957 184.645 113.515 183.515 113.515C182.384 113.515 181.299 113.957 180.49 114.746C179.681 115.536 179.212 116.61 179.185 117.741ZM243.294 156.769C244.133 156.77 244.954 156.526 245.657 156.069C246.36 155.611 246.915 154.959 247.255 154.191L261.428 122.179C261.682 121.656 261.828 121.087 261.858 120.506C261.887 119.925 261.799 119.344 261.599 118.798C261.399 118.252 261.092 117.752 260.694 117.327C260.297 116.903 259.818 116.563 259.286 116.327C258.754 116.091 258.181 115.965 257.599 115.956C257.018 115.947 256.44 116.056 255.901 116.274C255.363 116.493 254.874 116.819 254.463 117.231C254.053 117.643 253.729 118.133 253.513 118.673L239.339 150.685C239.047 151.344 238.924 152.065 238.982 152.783C239.039 153.502 239.275 154.194 239.668 154.798C240.061 155.403 240.598 155.899 241.231 156.243C241.864 156.588 242.573 156.768 243.294 156.769ZM214.853 154.406C215.4 154.564 215.972 154.613 216.537 154.549C217.102 154.486 217.649 154.311 218.147 154.036C218.645 153.761 219.083 153.39 219.437 152.944C219.791 152.499 220.054 151.988 220.21 151.441L232.446 108.864C232.727 107.772 232.571 106.614 232.012 105.635C231.452 104.656 230.533 103.934 229.449 103.622C228.365 103.311 227.203 103.434 226.209 103.966C225.214 104.497 224.467 105.396 224.125 106.471L211.888 149.047C211.73 149.593 211.682 150.166 211.745 150.731C211.809 151.296 211.984 151.843 212.259 152.341C212.534 152.839 212.905 153.278 213.351 153.632C213.796 153.986 214.306 154.249 214.853 154.406ZM147.745 151.818C147.891 152.377 148.147 152.901 148.499 153.36C148.851 153.818 149.291 154.202 149.793 154.488C150.295 154.774 150.85 154.957 151.424 155.025C151.997 155.093 152.579 155.046 153.135 154.886C153.69 154.726 154.208 154.457 154.657 154.094C155.107 153.731 155.479 153.281 155.753 152.772C156.026 152.263 156.194 151.704 156.248 151.129C156.302 150.553 156.241 149.973 156.067 149.422L144.117 107.914C143.777 106.836 143.03 105.934 142.034 105.4C141.039 104.866 139.874 104.742 138.788 105.054C137.702 105.367 136.782 106.091 136.223 107.073C135.664 108.055 135.51 109.217 135.796 110.31L147.745 151.818ZM113.779 119.252C113.303 118.22 112.44 117.418 111.376 117.017C110.313 116.615 109.135 116.648 108.096 117.108C107.057 117.568 106.24 118.417 105.821 119.474C105.403 120.53 105.416 121.709 105.858 122.756L119.773 154.19C120.237 155.241 121.101 156.063 122.172 156.477C123.244 156.891 124.436 156.863 125.486 156.398C126.537 155.933 127.36 155.07 127.774 153.998C128.188 152.926 128.159 151.734 127.694 150.684L113.779 119.252Z"/>
</mask>
<path d="M278.451 227.721H279.116V195.593C258.937 194.265 238.75 192.909 218.554 191.523C217.509 191.442 216.527 190.992 215.783 190.253L198.521 173.02V293.19L246.99 287.561C242.584 281.203 240.236 273.646 240.263 265.911C240.28 255.788 244.308 246.084 251.466 238.926C258.625 231.767 268.328 227.738 278.451 227.721ZM170.754 192.129L189.863 173.02V293.305L90.5928 283.722V198.163L167.953 193.399C169.009 193.325 170.002 192.874 170.754 192.129ZM100.436 252.373C100.325 253.517 100.673 254.659 101.404 255.547C102.135 256.435 103.189 256.996 104.333 257.107L118.996 258.522H119.433C120.544 258.521 121.613 258.092 122.417 257.325C123.221 256.557 123.699 255.509 123.751 254.399C123.803 253.288 123.425 252.2 122.696 251.361C121.967 250.521 120.943 249.995 119.836 249.891L105.173 248.476C104.605 248.418 104.032 248.473 103.486 248.638C102.94 248.803 102.432 249.075 101.992 249.437C101.551 249.799 101.187 250.245 100.92 250.749C100.653 251.253 100.489 251.805 100.436 252.373ZM140.098 274.167C140.155 273.602 140.101 273.031 139.938 272.487C139.774 271.944 139.505 271.437 139.146 270.998C138.787 270.558 138.345 270.193 137.844 269.925C137.344 269.656 136.796 269.489 136.231 269.433L105.171 266.431C104.603 266.369 104.028 266.421 103.48 266.584C102.933 266.748 102.424 267.019 101.983 267.382C101.542 267.745 101.177 268.193 100.912 268.699C100.646 269.205 100.485 269.759 100.437 270.328C100.326 271.472 100.674 272.614 101.405 273.502C102.136 274.39 103.189 274.951 104.334 275.062L135.393 278.064H135.798C136.872 278.068 137.908 277.671 138.704 276.95C139.5 276.229 139.997 275.236 140.098 274.167ZM179.185 117.741V146.752C179.212 147.882 179.681 148.957 180.49 149.746C181.299 150.536 182.384 150.978 183.515 150.978C184.645 150.978 185.731 150.536 186.54 149.746C187.349 148.957 187.817 147.882 187.845 146.752V117.741C187.817 116.61 187.349 115.536 186.54 114.746C185.731 113.957 184.645 113.515 183.515 113.515C182.384 113.515 181.299 113.957 180.49 114.746C179.681 115.536 179.212 116.61 179.185 117.741ZM243.294 156.769C244.133 156.77 244.954 156.526 245.657 156.069C246.36 155.611 246.915 154.959 247.255 154.191L261.428 122.179C261.682 121.656 261.828 121.087 261.858 120.506C261.887 119.925 261.799 119.344 261.599 118.798C261.399 118.252 261.092 117.752 260.694 117.327C260.297 116.903 259.818 116.563 259.286 116.327C258.754 116.091 258.181 115.965 257.599 115.956C257.018 115.947 256.44 116.056 255.901 116.274C255.363 116.493 254.874 116.819 254.463 117.231C254.053 117.643 253.729 118.133 253.513 118.673L239.339 150.685C239.047 151.344 238.924 152.065 238.982 152.783C239.039 153.502 239.275 154.194 239.668 154.798C240.061 155.403 240.598 155.899 241.231 156.243C241.864 156.588 242.573 156.768 243.294 156.769ZM214.853 154.406C215.4 154.564 215.972 154.613 216.537 154.549C217.102 154.486 217.649 154.311 218.147 154.036C218.645 153.761 219.083 153.39 219.437 152.944C219.791 152.499 220.054 151.988 220.21 151.441L232.446 108.864C232.727 107.772 232.571 106.614 232.012 105.635C231.452 104.656 230.533 103.934 229.449 103.622C228.365 103.311 227.203 103.434 226.209 103.966C225.214 104.497 224.467 105.396 224.125 106.471L211.888 149.047C211.73 149.593 211.682 150.166 211.745 150.731C211.809 151.296 211.984 151.843 212.259 152.341C212.534 152.839 212.905 153.278 213.351 153.632C213.796 153.986 214.306 154.249 214.853 154.406ZM147.745 151.818C147.891 152.377 148.147 152.901 148.499 153.36C148.851 153.818 149.291 154.202 149.793 154.488C150.295 154.774 150.85 154.957 151.424 155.025C151.997 155.093 152.579 155.046 153.135 154.886C153.69 154.726 154.208 154.457 154.657 154.094C155.107 153.731 155.479 153.281 155.753 152.772C156.026 152.263 156.194 151.704 156.248 151.129C156.302 150.553 156.241 149.973 156.067 149.422L144.117 107.914C143.777 106.836 143.03 105.934 142.034 105.4C141.039 104.866 139.874 104.742 138.788 105.054C137.702 105.367 136.782 106.091 136.223 107.073C135.664 108.055 135.51 109.217 135.796 110.31L147.745 151.818ZM113.779 119.252C113.303 118.22 112.44 117.418 111.376 117.017C110.313 116.615 109.135 116.648 108.096 117.108C107.057 117.568 106.24 118.417 105.821 119.474C105.403 120.53 105.416 121.709 105.858 122.756L119.773 154.19C120.237 155.241 121.101 156.063 122.172 156.477C123.244 156.891 124.436 156.863 125.486 156.398C126.537 155.933 127.36 155.07 127.774 153.998C128.188 152.926 128.159 151.734 127.694 150.684L113.779 119.252Z" fill="#FFB3A2" stroke="#FFD2C8" stroke-width="3" mask="url(#path-4-inside-1_307_13975)"/>
</svg>
