<svg width="40" height="40" viewBox="0 0 40 40" fill="none" xmlns="http://www.w3.org/2000/svg">
<rect width="40" height="40" rx="20" fill="#F4603F"/>
<path d="M26.0001 15.16C25.9401 15.15 25.8701 15.15 25.8101 15.16C24.4301 15.11 23.3301 13.98 23.3301 12.58C23.3301 11.15 24.4801 10 25.9101 10C27.3401 10 28.4901 11.16 28.4901 12.58C28.4801 13.98 27.3801 15.11 26.0001 15.16Z" stroke="#F9FAFB" stroke-width="1.5" stroke-linecap="round" stroke-linejoin="round"/>
<path d="M24.9704 22.4402C26.3404 22.6702 27.8504 22.4302 28.9104 21.7202C30.3204 20.7802 30.3204 19.2402 28.9104 18.3002C27.8404 17.5902 26.3104 17.3502 24.9404 17.5902" stroke="#F9FAFB" stroke-width="1.5" stroke-linecap="round" stroke-linejoin="round"/>
<path d="M13.9705 15.16C14.0305 15.15 14.1005 15.15 14.1605 15.16C15.5405 15.11 16.6405 13.98 16.6405 12.58C16.6405 11.15 15.4905 10 14.0605 10C12.6305 10 11.4805 11.16 11.4805 12.58C11.4905 13.98 12.5905 15.11 13.9705 15.16Z" stroke="#F9FAFB" stroke-width="1.5" stroke-linecap="round" stroke-linejoin="round"/>
<path d="M15.0004 22.4402C13.6304 22.6702 12.1204 22.4302 11.0604 21.7202C9.65043 20.7802 9.65043 19.2402 11.0604 18.3002C12.1304 17.5902 13.6604 17.3502 15.0304 17.5902" stroke="#F9FAFB" stroke-width="1.5" stroke-linecap="round" stroke-linejoin="round"/>
<path d="M20.0011 22.6288C19.9411 22.6188 19.8711 22.6188 19.8111 22.6288C18.4311 22.5788 17.3311 21.4488 17.3311 20.0488C17.3311 18.6188 18.4811 17.4688 19.9111 17.4688C21.3411 17.4688 22.4911 18.6288 22.4911 20.0488C22.4811 21.4488 21.3811 22.5888 20.0011 22.6288Z" stroke="#F9FAFB" stroke-width="1.5" stroke-linecap="round" stroke-linejoin="round"/>
<path d="M17.0907 25.7794C15.6807 26.7194 15.6807 28.2594 17.0907 29.1994C18.6907 30.2694 21.3107 30.2694 22.9107 29.1994C24.3207 28.2594 24.3207 26.7194 22.9107 25.7794C21.3207 24.7194 18.6907 24.7194 17.0907 25.7794Z" stroke="#F9FAFB" stroke-width="1.5" stroke-linecap="round" stroke-linejoin="round"/>
</svg>
