<svg width="20" height="20" viewBox="0 0 20 20" fill="none" xmlns="http://www.w3.org/2000/svg">
<path fill-rule="evenodd" clip-rule="evenodd" d="M6.39199 1.66602H13.617C16.442 1.66602 18.3337 3.64935 18.3337 6.59935V13.4085C18.3337 16.3493 16.442 18.3327 13.617 18.3327H6.39199C3.56699 18.3327 1.66699 16.3493 1.66699 13.4085V6.59935C1.66699 3.64935 3.56699 1.66602 6.39199 1.66602ZM9.52533 12.491L13.4837 8.53268C13.767 8.24935 13.767 7.79102 13.4837 7.49935C13.2003 7.21602 12.7337 7.21602 12.4503 7.49935L9.00866 10.941L7.55033 9.48268C7.26699 9.19935 6.80033 9.19935 6.51699 9.48268C6.23366 9.76602 6.23366 10.2243 6.51699 10.516L8.50033 12.491C8.64199 12.6327 8.82533 12.6993 9.00866 12.6993C9.20033 12.6993 9.38366 12.6327 9.52533 12.491Z" fill="#00AB55"/>
</svg>
