<svg width="20" height="20" viewBox="0 0 20 20" fill="none" xmlns="http://www.w3.org/2000/svg">
<path fill-rule="evenodd" clip-rule="evenodd" d="M6.39199 1.66602H13.617C16.442 1.66602 18.3337 3.64852 18.3337 6.59852V13.4068C18.3337 16.3493 16.442 18.3327 13.617 18.3327H6.39199C3.56699 18.3327 1.66699 16.3493 1.66699 13.4068V6.59852C1.66699 3.64852 3.56699 1.66602 6.39199 1.66602ZM12.9837 13.1743C13.192 13.1743 13.4003 13.066 13.517 12.866C13.7003 12.5735 13.6003 12.1902 13.3003 12.0077L10.3337 10.241V6.39018C10.3337 6.04935 10.0587 5.76518 9.70866 5.76518C9.36699 5.76518 9.08366 6.04935 9.08366 6.39018V10.5993C9.08366 10.816 9.20033 11.0243 9.39199 11.1327L12.6587 13.0827C12.7587 13.1493 12.8753 13.1743 12.9837 13.1743Z" fill="#FFAB00"/>
</svg>
