<svg width="28" height="28" viewBox="0 0 28 28" fill="none" xmlns="http://www.w3.org/2000/svg">
<path d="M21 22.002H20.1133C19.18 22.002 18.2933 22.3637 17.64 23.017L15.645 24.9887C14.735 25.887 13.2534 25.887 12.3434 24.9887L10.3483 23.017C9.69499 22.3637 8.79667 22.002 7.875 22.002H7C5.06333 22.002 3.5 20.4504 3.5 18.537V5.79703C3.5 3.8837 5.06333 2.33203 7 2.33203H21C22.9367 2.33203 24.5 3.8837 24.5 5.79703V18.5254C24.5 20.4387 22.9367 22.002 21 22.002Z" stroke="#F4603F" stroke-width="1.5" stroke-miterlimit="10" stroke-linecap="round" stroke-linejoin="round"/>
<path d="M14.0813 10.4426C14.0346 10.4426 13.9646 10.4426 13.9062 10.4426C12.6812 10.3959 11.7129 9.40424 11.7129 8.16758C11.7129 6.90758 12.7279 5.89258 13.9879 5.89258C15.2479 5.89258 16.2629 6.91924 16.2629 8.16758C16.2746 9.40424 15.3063 10.4076 14.0813 10.4426Z" stroke="#F4603F" stroke-width="1.5" stroke-linecap="round" stroke-linejoin="round"/>
<path d="M10.7917 13.9551C9.24001 14.9934 9.24001 16.6851 10.7917 17.7234C12.5533 18.9017 15.4467 18.9017 17.2083 17.7234C18.76 16.6851 18.76 14.9934 17.2083 13.9551C15.4467 12.7884 12.565 12.7884 10.7917 13.9551Z" stroke="#F4603F" stroke-width="1.5" stroke-linecap="round" stroke-linejoin="round"/>
</svg>
