<svg width="29" height="28" viewBox="0 0 29 28" fill="none" xmlns="http://www.w3.org/2000/svg">
<path d="M22.2507 22.75H17.584" stroke="#F4603F" stroke-width="1.5" stroke-linecap="round" stroke-linejoin="round"/>
<path d="M19.917 25.0846V20.418" stroke="#F4603F" stroke-width="1.5" stroke-linecap="round" stroke-linejoin="round"/>
<path d="M14.853 12.6804C14.7364 12.6687 14.5964 12.6687 14.468 12.6804C11.6914 12.587 9.48637 10.312 9.48637 7.51203C9.47471 4.6537 11.7964 2.33203 14.6547 2.33203C17.513 2.33203 19.8347 4.6537 19.8347 7.51203C19.8347 10.312 17.618 12.587 14.853 12.6804Z" stroke="#F4603F" stroke-width="1.5" stroke-linecap="round" stroke-linejoin="round"/>
<path d="M14.6559 25.4433C12.5325 25.4433 10.4209 24.9067 8.81086 23.8333C5.98753 21.9433 5.98753 18.8633 8.81086 16.985C12.0192 14.8383 17.2809 14.8383 20.4892 16.985" stroke="#F4603F" stroke-width="1.5" stroke-linecap="round" stroke-linejoin="round"/>
</svg>
