<svg width="29" height="28" viewBox="0 0 29 28" fill="none" xmlns="http://www.w3.org/2000/svg">
<path d="M18.1139 2.33203H10.5539C6.1672 2.33203 5.82887 6.27536 8.1972 8.42203L20.4705 19.5754C22.8389 21.722 22.5005 25.6654 18.1139 25.6654H10.5539C6.1672 25.6654 5.82887 21.722 8.1972 19.5754L20.4705 8.42203C22.8389 6.27536 22.5005 2.33203 18.1139 2.33203Z" stroke="#F4603F" stroke-width="1.5" stroke-linecap="round" stroke-linejoin="round"/>
<path d="M16.749 7.4187H12.5023C12.059 7.4187 11.709 7.05703 11.709 6.62536C11.709 6.18203 12.0707 5.83203 12.5023 5.83203H16.749C17.1923 5.83203 17.5423 6.1937 17.5423 6.62536C17.5423 7.05703 17.1807 7.4187 16.749 7.4187Z" fill="#F4603F"/>
</svg>
