<svg width="20" height="20" viewBox="0 0 20 20" fill="none" xmlns="http://www.w3.org/2000/svg">
<path d="M13.492 1.66602H6.50866C3.47533 1.66602 1.66699 3.47435 1.66699 6.50768V13.4827C1.66699 16.5243 3.47533 18.3327 6.50866 18.3327H13.4837C16.517 18.3327 18.3253 16.5243 18.3253 13.491V6.50768C18.3337 3.47435 16.5253 1.66602 13.492 1.66602ZM12.8003 11.916C13.042 12.1577 13.042 12.5577 12.8003 12.7993C12.6753 12.9243 12.517 12.9827 12.3587 12.9827C12.2003 12.9827 12.042 12.9243 11.917 12.7993L10.0003 10.8827L8.08366 12.7993C7.95866 12.9243 7.80033 12.9827 7.64199 12.9827C7.48366 12.9827 7.32533 12.9243 7.20033 12.7993C6.95866 12.5577 6.95866 12.1577 7.20033 11.916L9.11699 9.99935L7.20033 8.08268C6.95866 7.84102 6.95866 7.44102 7.20033 7.19935C7.44199 6.95768 7.84199 6.95768 8.08366 7.19935L10.0003 9.11601L11.917 7.19935C12.1587 6.95768 12.5587 6.95768 12.8003 7.19935C13.042 7.44102 13.042 7.84102 12.8003 8.08268L10.8837 9.99935L12.8003 11.916Z" fill="#FD397A"/>
</svg>
