<svg width="29" height="28" viewBox="0 0 29 28" fill="none" xmlns="http://www.w3.org/2000/svg">
<path d="M20.166 23.9154H8.49935C4.99935 23.9154 2.66602 22.1654 2.66602 18.082V9.91536C2.66602 5.83203 4.99935 4.08203 8.49935 4.08203H20.166C23.666 4.08203 25.9994 5.83203 25.9994 9.91536V18.082C25.9994 22.1654 23.666 23.9154 20.166 23.9154Z" stroke="#F4603F" stroke-width="1.5" stroke-miterlimit="10" stroke-linecap="round" stroke-linejoin="round"/>
<path d="M14.333 17.5C16.266 17.5 17.833 15.933 17.833 14C17.833 12.067 16.266 10.5 14.333 10.5C12.4 10.5 10.833 12.067 10.833 14C10.833 15.933 12.4 17.5 14.333 17.5Z" stroke="#F4603F" stroke-width="1.5" stroke-miterlimit="10" stroke-linecap="round" stroke-linejoin="round"/>
<path d="M6.75 11.082V16.9154" stroke="#F4603F" stroke-width="1.5" stroke-miterlimit="10" stroke-linecap="round" stroke-linejoin="round"/>
<path d="M21.916 11.082V16.9154" stroke="#F4603F" stroke-width="1.5" stroke-miterlimit="10" stroke-linecap="round" stroke-linejoin="round"/>
</svg>
