<svg width="29" height="28" viewBox="0 0 29 28" fill="none" xmlns="http://www.w3.org/2000/svg">
<path d="M20.5 23.9154H8.83333C5.33333 23.9154 3 22.1654 3 18.082V9.91536C3 5.83203 5.33333 4.08203 8.83333 4.08203H20.5C24 4.08203 26.3333 5.83203 26.3333 9.91536V18.082C26.3333 22.1654 24 23.9154 20.5 23.9154Z" stroke="#F4603F" stroke-width="1.5" stroke-miterlimit="10" stroke-linecap="round" stroke-linejoin="round"/>
<path d="M14.666 17.5C16.599 17.5 18.166 15.933 18.166 14C18.166 12.067 16.599 10.5 14.666 10.5C12.733 10.5 11.166 12.067 11.166 14C11.166 15.933 12.733 17.5 14.666 17.5Z" stroke="#F4603F" stroke-width="1.5" stroke-miterlimit="10" stroke-linecap="round" stroke-linejoin="round"/>
<path d="M7.08203 11.082V16.9154" stroke="#F4603F" stroke-width="1.5" stroke-miterlimit="10" stroke-linecap="round" stroke-linejoin="round"/>
<path d="M22.25 11.082V16.9154" stroke="#F4603F" stroke-width="1.5" stroke-miterlimit="10" stroke-linecap="round" stroke-linejoin="round"/>
</svg>
