<svg width="128" height="128" viewBox="0 0 128 128" fill="none" xmlns="http://www.w3.org/2000/svg">
<path d="M115.739 57.1082L70.6164 11.9855C67.4822 8.85131 62.4006 8.85131 59.2665 11.9855L14.1438 57.1082C11.0096 60.2424 11.0096 65.3239 14.1438 68.4581L59.2665 113.581C62.4006 116.715 67.4822 116.715 70.6164 113.581L115.739 68.4581C118.873 65.3239 118.873 60.2424 115.739 57.1082Z" fill="#FFE7E1"/>
<path d="M64.9448 116.052C63.8734 116.054 62.8124 115.843 61.8225 115.433C60.8327 115.024 59.9337 114.422 59.1771 113.664L14.0571 68.5461C12.5307 67.0178 11.6733 64.9461 11.6733 62.7861C11.6733 60.6261 12.5307 58.5545 14.0571 57.0261L59.1771 11.8933C60.7061 10.3682 62.7775 9.51172 64.9371 9.51172C67.0967 9.51172 69.1681 10.3682 70.6971 11.8933L115.832 57.0159C117.357 58.5452 118.213 60.6165 118.213 62.7759C118.213 64.9353 117.357 67.0066 115.832 68.5359L70.7099 113.664C69.9537 114.422 69.055 115.023 68.0657 115.433C67.0763 115.843 66.0157 116.053 64.9448 116.052ZM59.3588 113.492C60.8409 114.971 62.8494 115.802 64.9435 115.802C67.0375 115.802 69.046 114.971 70.5281 113.492L115.651 68.3644C117.131 66.8826 117.962 64.874 117.962 62.7797C117.962 60.6855 117.131 58.6769 115.651 57.1951L70.5281 12.0751C69.7949 11.3414 68.9243 10.7593 67.9661 10.3622C67.0078 9.96509 65.9807 9.76069 64.9435 9.76069C63.9062 9.76069 62.8791 9.96509 61.9209 10.3622C60.9626 10.7593 60.092 11.3414 59.3588 12.0751L14.2363 57.1951C12.7563 58.6769 11.925 60.6855 11.925 62.7797C11.925 64.874 12.7563 66.8826 14.2363 68.3644L59.3588 113.492Z" fill="#BE3617"/>
<path d="M107.906 57.9827L69.744 19.8202C67.0927 17.1688 62.794 17.1688 60.1427 19.8202L21.9802 57.9827C19.3289 60.634 19.3289 64.9326 21.9802 67.5839L60.1427 105.746C62.794 108.398 67.0927 108.398 69.744 105.746L107.906 67.5839C110.558 64.9326 110.558 60.634 107.906 57.9827Z" fill="#FEF4F2"/>
<path d="M64.9445 107.86C64.0357 107.863 63.1355 107.685 62.2958 107.337C61.4561 106.99 60.6936 106.479 60.0524 105.835L21.8879 67.6707C21.2454 67.0288 20.7358 66.2666 20.388 65.4276C20.0403 64.5886 19.8613 63.6893 19.8613 62.7811C19.8613 61.873 20.0403 60.9737 20.388 60.1347C20.7358 59.2957 21.2454 58.5335 21.8879 57.8915L60.0524 19.7271C60.6943 19.0842 61.4567 18.5742 62.2959 18.2263C63.1352 17.8783 64.0347 17.6992 64.9432 17.6992C65.8517 17.6992 66.7513 17.8783 67.5905 18.2263C68.4298 18.5742 69.1922 19.0842 69.8341 19.7271L107.999 57.8915C108.641 58.5335 109.151 59.2957 109.498 60.1347C109.846 60.9737 110.025 61.873 110.025 62.7811C110.025 63.6893 109.846 64.5886 109.498 65.4276C109.151 66.2666 108.641 67.0288 107.999 67.6707L69.8341 105.835C69.1933 106.479 68.4313 106.99 67.592 107.337C66.7528 107.685 65.8529 107.862 64.9445 107.86ZM64.9445 17.9581C64.0696 17.9553 63.2027 18.126 62.3942 18.4604C61.5857 18.7948 60.8515 19.2863 60.2341 19.9063L22.0696 58.0707C21.4508 58.6889 20.9599 59.423 20.6249 60.231C20.2899 61.039 20.1175 61.9052 20.1175 62.7799C20.1175 63.6546 20.2899 64.5207 20.6249 65.3287C20.9599 66.1367 21.4508 66.8708 22.0696 67.489L60.2341 105.653C60.8523 106.272 61.5864 106.763 62.3944 107.098C63.2024 107.433 64.0685 107.606 64.9432 107.606C65.8179 107.606 66.6841 107.433 67.4921 107.098C68.3001 106.763 69.0342 106.272 69.6524 105.653L107.817 67.489C108.436 66.8708 108.927 66.1367 109.262 65.3287C109.597 64.5207 109.769 63.6546 109.769 62.7799C109.769 61.9052 109.597 61.039 109.262 60.231C108.927 59.423 108.436 58.6889 107.817 58.0707L69.6524 19.9063C69.0353 19.2866 68.3015 18.7953 67.4934 18.4609C66.6854 18.1265 65.819 17.9556 64.9445 17.9581Z" fill="#BE3617"/>
<path d="M83.0846 15.5192C82.7847 15.1951 82.4293 14.9272 82.035 14.7282L78.3666 11.9531L79.5314 14.4184L56.7474 18.796C55.8536 18.9678 55.0539 19.4614 54.4996 20.1832C53.9452 20.905 53.6748 21.805 53.7394 22.7128L58.4882 89.3189L55.5518 89.8949L59.9038 93.2229C59.9934 93.2971 60.0856 93.3688 60.1829 93.4354C60.4822 93.6413 60.8099 93.8026 61.1557 93.9141L68.2494 96.1925C68.7641 96.3577 69.3086 96.4088 69.845 96.342C70.3813 96.2752 70.8967 96.0923 71.3552 95.8059C71.8136 95.5196 72.204 95.1367 72.4993 94.6839C72.7946 94.2312 72.9876 93.7195 73.0648 93.1845L84.0344 18.5861C84.1176 18.0364 84.0754 17.4749 83.9109 16.9438C83.7465 16.4127 83.464 15.9257 83.0846 15.5192Z" fill="#F4603F"/>
<path d="M49.7767 19.7732L54.6253 87.7002C54.6772 88.4392 54.9486 89.146 55.4047 89.7298C55.8608 90.3136 56.4808 90.7479 57.1853 90.977L64.2817 93.2554C64.7971 93.4242 65.3433 93.4782 65.8819 93.4136C66.4204 93.349 66.9383 93.1674 67.3993 92.8816C67.8603 92.5957 68.2532 92.2125 68.5504 91.7588C68.8477 91.3051 69.0421 90.7919 69.1201 90.2551L80.0794 15.649C80.1662 15.0616 80.111 14.462 79.9184 13.9004C79.7259 13.3387 79.4016 12.8313 78.9727 12.4207C78.5438 12.0101 78.0228 11.7083 77.4533 11.5404C76.8837 11.3725 76.2823 11.3435 75.6993 11.4557L52.7847 15.8717C51.8932 16.0423 51.0951 16.5333 50.5409 17.2521C49.9867 17.9709 49.7149 18.8677 49.7767 19.7732Z" fill="#FFB3A2"/>
<path d="M70.958 105.94L70.9171 105.917L70.8096 105.856L68.4774 104.524L68.2828 105.233L59.904 103.544C59.5226 103.469 59.1292 103.482 58.7536 103.582C58.3781 103.682 58.0302 103.866 57.7363 104.121C57.4425 104.375 57.2104 104.693 57.0577 105.05C56.905 105.408 56.8357 105.795 56.855 106.183L57.4233 116.48C57.4233 116.536 57.4233 116.59 57.4387 116.646L55.9692 116.968L58.6649 118.528L58.7315 118.566C59.0609 118.747 59.4263 118.854 59.8016 118.878L67.1692 119.329C67.7582 119.363 68.3411 119.194 68.8192 118.848C69.2974 118.502 69.6414 118.002 69.7932 117.432L72.064 108.748C72.2009 108.223 72.1676 107.669 71.9689 107.164C71.7701 106.659 71.4161 106.231 70.958 105.94Z" fill="#F4603F"/>
<path d="M57.3928 102.106L67.5995 104.154C67.9387 104.224 68.2602 104.362 68.5444 104.56C68.8286 104.758 69.0697 105.012 69.253 105.306C69.4363 105.6 69.5581 105.928 69.611 106.27C69.6638 106.612 69.6466 106.962 69.5605 107.297L67.2898 115.978C67.1385 116.549 66.7951 117.049 66.3174 117.395C65.8397 117.741 65.2572 117.912 64.6683 117.878L57.2981 117.425C56.6754 117.384 56.089 117.117 55.6492 116.675C55.2093 116.232 54.9463 115.644 54.9096 115.021L54.3464 104.735C54.3288 104.348 54.3993 103.962 54.5525 103.606C54.7058 103.25 54.9378 102.934 55.2312 102.681C55.5245 102.427 55.8714 102.244 56.2459 102.145C56.6203 102.045 57.0125 102.032 57.3928 102.106Z" fill="#FFB3A2"/>
<path d="M79.8447 115.39L78.2122 114.816C78.0041 114.743 77.7761 114.852 77.7029 115.06L77.1287 116.693C77.0555 116.901 77.1648 117.129 77.3729 117.202L79.0054 117.776C79.2135 117.85 79.4415 117.74 79.5146 117.532L80.0889 115.9C80.1621 115.692 80.0527 115.464 79.8447 115.39Z" fill="#FC8064"/>
<path d="M78.7636 111.179L77.1311 110.605C76.9231 110.532 76.6951 110.641 76.6219 110.849L76.0476 112.482C75.9744 112.69 76.0838 112.918 76.2918 112.991L77.9243 113.565C78.1324 113.639 78.3604 113.529 78.4336 113.321L79.0078 111.689C79.081 111.481 78.9717 111.253 78.7636 111.179Z" fill="#FC8064"/>
<path d="M74.8564 115.39L73.2239 114.816C73.0158 114.743 72.7878 114.852 72.7146 115.06L72.1404 116.693C72.0672 116.901 72.1765 117.129 72.3846 117.202L74.0171 117.776C74.2252 117.85 74.4532 117.74 74.5264 117.532L75.1006 115.9C75.1738 115.692 75.0645 115.464 74.8564 115.39Z" fill="#FC8064"/>
<path d="M50.2854 10.2522L49.0617 9.02848C48.9057 8.87252 48.6529 8.87252 48.4969 9.02848L47.2732 10.2522C47.1173 10.4081 47.1173 10.661 47.2732 10.817L48.4969 12.0406C48.6529 12.1966 48.9057 12.1966 49.0617 12.0406L50.2854 10.817C50.4413 10.661 50.4413 10.4081 50.2854 10.2522Z" fill="#FC8064"/>
<path d="M45.0251 15.8727V17.3933C45.0251 17.5778 44.9887 17.7606 44.918 17.931C44.8473 18.1015 44.7436 18.2563 44.6129 18.3866L43.827 19.1751C43.7607 19.2438 43.7236 19.3356 43.7236 19.4311C43.7236 19.5266 43.7607 19.6184 43.827 19.6871L45.107 20.9671C45.1757 21.0334 45.2675 21.0705 45.363 21.0705C45.4585 21.0705 45.5503 21.0334 45.619 20.9671L46.899 19.6871C46.9653 19.6184 47.0024 19.5266 47.0024 19.4311C47.0024 19.3356 46.9653 19.2438 46.899 19.1751L46.1131 18.3866C45.9824 18.2563 45.8788 18.1015 45.8081 17.931C45.7373 17.7606 45.7009 17.5778 45.7009 17.3933V15.8727C45.7009 15.6881 45.7373 15.5054 45.8081 15.335C45.8788 15.1645 45.9824 15.0097 46.1131 14.8794L46.9169 14.0807C46.9518 14.0462 46.9794 14.0051 46.9983 13.9598C47.0172 13.9146 47.0269 13.866 47.0269 13.817C47.0269 13.768 47.0172 13.7194 46.9983 13.6742C46.9794 13.6289 46.9518 13.5878 46.9169 13.5533L45.6369 12.2733C45.5676 12.2082 45.4761 12.1719 45.3809 12.1719C45.2858 12.1719 45.1943 12.2082 45.1249 12.2733L43.8449 13.5533C43.8101 13.5878 43.7825 13.6289 43.7636 13.6742C43.7447 13.7194 43.735 13.768 43.735 13.817C43.735 13.866 43.7447 13.9146 43.7636 13.9598C43.7825 14.0051 43.8101 14.0462 43.8449 14.0807L44.6309 14.8692C44.7595 15.0022 44.8606 15.1593 44.9282 15.3315C44.9959 15.5038 45.0288 15.6877 45.0251 15.8727Z" fill="#FC8064"/>
<path d="M41.1134 13.1248V14.6455C41.1138 15.0177 40.9665 15.375 40.7038 15.6388L39.9154 16.4272C39.849 16.4959 39.812 16.5877 39.812 16.6832C39.812 16.7787 39.849 16.8705 39.9154 16.9392L41.1954 18.2192C41.2299 18.2541 41.2709 18.2817 41.3162 18.3006C41.3615 18.3194 41.41 18.3292 41.459 18.3292C41.5081 18.3292 41.5566 18.3194 41.6019 18.3006C41.6471 18.2817 41.6882 18.2541 41.7227 18.2192L43.0027 16.9392C43.069 16.8705 43.1061 16.7787 43.1061 16.6832C43.1061 16.5877 43.069 16.4959 43.0027 16.4272L42.2142 15.6388C41.9508 15.3752 41.8026 15.0181 41.8021 14.6455V13.1248C41.8018 12.9403 41.8381 12.7574 41.9088 12.587C41.9796 12.4165 42.0834 12.2617 42.2142 12.1316L43.0078 11.3431C43.0427 11.3086 43.0703 11.2675 43.0892 11.2222C43.1081 11.177 43.1178 11.1284 43.1178 11.0794C43.1178 11.0304 43.1081 10.9818 43.0892 10.9366C43.0703 10.8913 43.0427 10.8502 43.0078 10.8157L41.7278 9.53571C41.6933 9.50088 41.6523 9.47323 41.607 9.45436C41.5617 9.4355 41.5132 9.42578 41.4642 9.42578C41.4151 9.42578 41.3666 9.4355 41.3213 9.45436C41.2761 9.47323 41.235 9.50088 41.2005 9.53571L39.9205 10.8157C39.8856 10.8502 39.858 10.8913 39.8391 10.9366C39.8203 10.9818 39.8105 11.0304 39.8105 11.0794C39.8105 11.1284 39.8203 11.177 39.8391 11.2222C39.858 11.2675 39.8856 11.3086 39.9205 11.3431L40.7038 12.1316C40.8344 12.2618 40.9378 12.4167 41.0081 12.5872C41.0784 12.7577 41.1142 12.9404 41.1134 13.1248Z" fill="#FC8064"/>
<path d="M51.5455 46.3492L49.8354 19.5793C49.7817 18.7079 50.0462 17.8465 50.5796 17.1554C51.1131 16.4642 51.8793 15.9901 52.7359 15.8212L75.8041 11.3003C76.4065 11.1818 77.0287 11.2103 77.6177 11.3834C78.2068 11.5565 78.7455 11.8691 79.1881 12.2946C79.6307 12.7201 79.9642 13.2461 80.1603 13.8279C80.3565 14.4097 80.4095 15.0303 80.3148 15.6369L78.4255 27.7969L78.1695 27.7585L80.0588 15.5959C80.1468 15.0303 80.0972 14.4517 79.9142 13.9093C79.7313 13.3669 79.4203 12.8765 79.0077 12.4797C78.5951 12.0829 78.0929 11.7913 77.5437 11.6297C76.9945 11.4681 76.4145 11.4411 75.8527 11.5511L52.7794 16.0721C51.9848 16.2308 51.2745 16.6719 50.7798 17.3139C50.2852 17.9558 50.0398 18.7551 50.0889 19.5639L51.8015 46.3364L51.5455 46.3492Z" fill="#BE3617"/>
<path d="M65.3568 93.5697C64.964 93.5686 64.5738 93.5073 64.1997 93.3879L57.2877 91.1991C56.546 90.966 55.8913 90.5156 55.4084 89.9063C54.9256 89.297 54.6367 88.5568 54.5792 87.7815L53.376 71.9812L53.632 71.9632L54.8352 87.761C54.8878 88.4855 55.1572 89.1773 55.6083 89.7466C56.0593 90.316 56.6712 90.7364 57.3645 90.9533L64.2765 93.1447C64.7687 93.298 65.2882 93.3434 65.7996 93.2776C66.3109 93.2118 66.8021 93.0365 67.2395 92.7636C67.6769 92.4907 68.0503 92.1267 68.3342 91.6963C68.6181 91.2659 68.8058 90.7793 68.8845 90.2698L71.6518 72.0017L77.7958 30.248L78.0518 30.2864L71.9078 72.0401L69.1405 90.3082C69.0022 91.2151 68.5439 92.0425 67.8485 92.6408C67.1531 93.239 66.2664 93.5685 65.3491 93.5697H65.3568Z" fill="#BE3617"/>
<path d="M69.2225 96.5547C68.8142 96.5551 68.4086 96.4885 68.0219 96.3576L61.1099 94.0357L61.1918 93.7925L68.1038 96.1144C68.5884 96.2775 69.1029 96.3326 69.6111 96.276C70.1193 96.2193 70.6089 96.0522 71.0457 95.7863C71.4825 95.5205 71.8559 95.1623 72.1397 94.737C72.4236 94.3116 72.6109 93.8294 72.6887 93.324L77.7115 60.707L77.9675 60.7454L72.9422 93.3624C72.8048 94.2507 72.3544 95.0606 71.6723 95.646C70.9902 96.2314 70.1213 96.5537 69.2225 96.5547Z" fill="#BE3617"/>
<path d="M80.924 40.6306L80.668 40.5922L84.0318 18.7606C84.1317 18.1097 84.0554 17.4441 83.811 16.8327C83.5665 16.2213 83.1628 15.6866 82.6417 15.2841L78.9604 12.4425L79.1166 12.2402L82.8004 15.0818C83.3579 15.5126 83.7899 16.0847 84.0514 16.7388C84.313 17.393 84.3946 18.1052 84.2878 18.8015L80.924 40.6306Z" fill="#BE3617"/>
<path d="M65.0929 117.937H64.9828L57.9864 117.606L57.9992 117.35L64.9956 117.681C65.474 117.699 65.9446 117.556 66.3315 117.274C66.7184 116.992 66.999 116.588 67.1281 116.127L69.5038 107.343C69.5907 107.021 69.6108 106.683 69.5628 106.352C69.5149 106.022 69.3999 105.704 69.225 105.419C69.05 105.134 68.8188 104.888 68.5454 104.695C68.272 104.503 67.9622 104.368 67.635 104.3L57.5102 102.185C57.1309 102.105 56.7383 102.114 56.3629 102.211C55.9875 102.307 55.6394 102.489 55.3455 102.742C55.0517 102.994 54.82 103.311 54.6684 103.668C54.5168 104.025 54.4495 104.412 54.4715 104.799L54.8708 111.982L54.6148 111.997L54.2155 104.814C54.1911 104.388 54.2652 103.962 54.432 103.569C54.5988 103.176 54.8539 102.827 55.1774 102.548C55.501 102.27 55.8843 102.069 56.2978 101.963C56.7112 101.856 57.1436 101.847 57.5614 101.934L67.6888 104.049C68.0487 104.126 68.3892 104.276 68.6893 104.49C68.9895 104.703 69.243 104.975 69.4346 105.289C69.6262 105.604 69.7518 105.954 69.8038 106.319C69.8557 106.683 69.8329 107.055 69.7368 107.41L67.3611 116.193C67.2237 116.691 66.9281 117.13 66.5188 117.445C66.1096 117.759 65.6091 117.932 65.0929 117.937Z" fill="#BE3617"/>
<path d="M67.3408 119.499C67.2819 119.499 67.2256 119.499 67.1667 119.499L61.1123 119.09L61.1302 118.834L67.1846 119.243C67.7145 119.279 68.2404 119.129 68.6713 118.819C69.1023 118.509 69.4113 118.057 69.5449 117.543L71.9206 108.394C72.0434 107.913 71.9984 107.404 71.7932 106.953C71.5879 106.501 71.2346 106.132 70.7917 105.908L68.8256 104.925L68.9408 104.697L70.9043 105.68C71.3998 105.93 71.7953 106.342 72.0252 106.847C72.2552 107.352 72.3059 107.92 72.1689 108.458L69.7933 117.607C69.6504 118.149 69.3324 118.628 68.8888 118.97C68.4453 119.313 67.901 119.499 67.3408 119.499Z" fill="#BE3617"/>
</svg>
