<svg width="350" height="80" viewBox="0 0 350 80" fill="none" xmlns="http://www.w3.org/2000/svg">
<rect width="350" height="80" fill="#22C55E"/>
<g clip-path="url(#clip0_1233_12172)">
<path d="M351.547 53.0116L355.367 48.921C356.353 47.8647 356.353 46.1523 355.367 45.096L338.59 27.1315C337.604 26.0752 336.004 26.0752 335.018 27.1315L331.198 31.2221C330.211 32.2783 330.211 33.9908 331.198 35.047L347.975 53.0116C348.961 54.0678 350.56 54.0678 351.547 53.0116Z" fill="white" fill-opacity="0.15"/>
<path d="M350.818 78.5075L356.304 72.6333C356.831 72.0696 356.831 71.1557 356.304 70.592L340.083 53.222C339.556 52.6582 338.703 52.6582 338.176 53.2219L332.69 59.0961C332.164 59.6598 332.164 60.5738 332.69 61.1375L348.912 78.5075C349.438 79.0712 350.292 79.0712 350.818 78.5075Z" fill="white" fill-opacity="0.15"/>
<path d="M314.165 41.0579L319.228 35.6362C319.871 34.9475 319.871 33.831 319.228 33.1424L314.165 27.7206C313.522 27.032 312.479 27.032 311.836 27.7206L306.773 33.1424C306.13 33.831 306.13 34.9475 306.773 35.6362L311.836 41.0579C312.479 41.7466 313.522 41.7466 314.165 41.0579Z" fill="white" fill-opacity="0.3"/>
<path d="M346.723 8.86135L353.012 8.86135C353.774 8.86142 354.53 9.02246 355.234 9.33525C355.939 9.64803 356.579 10.1064 357.118 10.6843L360.374 14.1553C360.516 14.3085 360.686 14.4301 360.872 14.513C361.059 14.5959 361.259 14.6386 361.461 14.6386C361.663 14.6386 361.863 14.5959 362.05 14.513C362.236 14.4301 362.406 14.3085 362.549 14.1553L367.854 8.48932C367.997 8.33656 368.11 8.15509 368.188 7.95527C368.265 7.75545 368.305 7.54123 368.305 7.32488C368.305 7.10854 368.265 6.89431 368.188 6.69449C368.11 6.49467 367.997 6.31319 367.854 6.16044L362.552 0.483305C362.409 0.3301 362.24 0.208545 362.053 0.125606C361.867 0.0426668 361.667 -3.01316e-05 361.465 -3.01341e-05C361.263 -3.01367e-05 361.063 0.0426668 360.876 0.125606C360.689 0.208545 360.52 0.3301 360.377 0.483305L357.122 3.96919C356.583 4.54703 355.942 5.00545 355.238 5.31823C354.533 5.63102 353.778 5.79205 353.015 5.79212L346.727 5.79212C345.964 5.79266 345.208 5.63191 344.504 5.31909C343.799 5.00626 343.159 4.54753 342.62 3.96919L339.365 0.483305C339.222 0.3301 339.052 0.208545 338.866 0.125606C338.679 0.0426665 338.479 -3.04276e-05 338.277 -3.04302e-05C338.075 -3.04328e-05 337.875 0.0426665 337.688 0.125606C337.502 0.208545 337.332 0.3301 337.19 0.483305L331.888 6.16044C331.745 6.31319 331.631 6.49467 331.554 6.69449C331.476 6.89431 331.437 7.10854 331.437 7.32488C331.437 7.54123 331.476 7.75545 331.554 7.95527C331.631 8.15509 331.745 8.33656 331.888 8.48932L337.186 14.1553C337.329 14.3085 337.498 14.4301 337.685 14.513C337.872 14.5959 338.072 14.6386 338.274 14.6386C338.476 14.6386 338.676 14.5959 338.862 14.513C339.049 14.4301 339.218 14.3085 339.361 14.1553L342.617 10.6694C343.156 10.0938 343.797 9.63776 344.502 9.32751C345.206 9.01727 345.961 8.85886 346.723 8.86135Z" fill="white" fill-opacity="0.3"/>
<path d="M327.472 63.5418L327.472 56.8081C327.473 55.1593 328.084 53.5781 329.171 52.4107L332.427 48.9248C332.57 48.7721 332.683 48.5906 332.761 48.3908C332.838 48.1909 332.878 47.9767 332.878 47.7604C332.878 47.544 332.838 47.3298 332.761 47.13C332.683 46.9302 332.57 46.7487 332.427 46.5959L327.125 40.9188C326.982 40.7656 326.813 40.644 326.626 40.5611C326.44 40.4782 326.239 40.4355 326.037 40.4355C325.835 40.4355 325.635 40.4782 325.449 40.5611C325.262 40.644 325.093 40.7656 324.95 40.9188L319.648 46.5959C319.505 46.7487 319.392 46.9302 319.314 47.13C319.237 47.3298 319.197 47.544 319.197 47.7604C319.197 47.9767 319.237 48.1909 319.314 48.3908C319.392 48.5906 319.505 48.7721 319.648 48.9248L322.904 52.4107C323.991 53.5781 324.602 55.1593 324.603 56.8081L324.603 63.5418C324.603 65.1907 323.992 66.7722 322.904 67.9391L319.648 71.425C319.505 71.5778 319.392 71.7592 319.314 71.9591C319.237 72.1589 319.197 72.3731 319.197 72.5895C319.197 72.8058 319.237 73.02 319.314 73.2198C319.392 73.4197 319.505 73.6011 319.648 73.7539L324.95 79.431C325.093 79.5842 325.262 79.7058 325.449 79.7887C325.635 79.8717 325.835 79.9144 326.037 79.9144C326.239 79.9144 326.439 79.8717 326.626 79.7887C326.813 79.7058 326.982 79.5842 327.125 79.431L332.416 73.7539C332.559 73.6011 332.673 73.4197 332.75 73.2198C332.828 73.02 332.868 72.8058 332.868 72.5895C332.868 72.3731 332.828 72.1589 332.75 71.9591C332.673 71.7592 332.559 71.5778 332.416 71.425L329.161 67.9391C328.077 66.7704 327.469 65.1891 327.472 63.5418Z" fill="white" fill-opacity="0.3"/>
<path d="M351.299 37.7566L351.299 31.023C351.299 30.2062 351.449 29.3974 351.741 28.6429C352.033 27.8884 352.461 27.2029 353.001 26.6256L356.256 23.1397C356.399 22.9869 356.513 22.8055 356.59 22.6056C356.668 22.4058 356.708 22.1916 356.708 21.9753C356.708 21.7589 356.668 21.5447 356.59 21.3449C356.513 21.1451 356.399 20.9636 356.256 20.8108L350.955 15.1337C350.812 14.9805 350.642 14.8589 350.456 14.776C350.269 14.6931 350.069 14.6504 349.867 14.6504C349.665 14.6504 349.465 14.6931 349.278 14.776C349.092 14.8589 348.922 14.9805 348.78 15.1337L343.474 20.8108C343.187 21.1203 343.026 21.5389 343.026 21.9753C343.026 22.4116 343.187 22.8302 343.474 23.1397L346.73 26.6256C347.269 27.2029 347.698 27.8884 347.99 28.6429C348.282 29.3974 348.432 30.2062 348.432 31.023L348.432 37.7566C348.432 38.5735 348.282 39.3823 347.99 40.1368C347.698 40.8914 347.27 41.5768 346.73 42.154L343.474 45.6399C343.187 45.9494 343.026 46.368 343.026 46.8043C343.026 47.2407 343.187 47.6593 343.474 47.9688L348.78 53.6459C348.922 53.7991 349.092 53.9207 349.278 54.0036C349.465 54.0865 349.665 54.1292 349.867 54.1292C350.069 54.1292 350.269 54.0865 350.456 54.0036C350.642 53.9207 350.812 53.7991 350.955 53.6459L356.256 47.9688C356.399 47.816 356.513 47.6345 356.59 47.4347C356.668 47.2349 356.708 47.0207 356.708 46.8043C356.708 46.588 356.668 46.3738 356.59 46.1739C356.513 45.9741 356.399 45.7926 356.256 45.6399L353.001 42.154C352.461 41.5768 352.033 40.8914 351.741 40.1368C351.449 39.3823 351.298 38.5735 351.299 37.7566Z" fill="white" fill-opacity="0.15"/>
<path d="M358.317 48.3408L364.605 48.3408C366.145 48.3416 367.621 48.9958 368.712 50.16L371.967 53.6459C372.11 53.7991 372.279 53.9207 372.466 54.0036C372.652 54.0865 372.853 54.1292 373.055 54.1292C373.257 54.1292 373.457 54.0865 373.643 54.0036C373.83 53.9207 373.999 53.7991 374.142 53.6459L379.444 47.9688C379.587 47.816 379.7 47.6345 379.778 47.4347C379.855 47.2349 379.895 47.0207 379.895 46.8043C379.895 46.588 379.855 46.3738 379.778 46.1739C379.7 45.9741 379.587 45.7926 379.444 45.6399L374.142 39.9628C373.999 39.8095 373.83 39.688 373.643 39.6051C373.457 39.5221 373.257 39.4794 373.055 39.4794C372.853 39.4794 372.652 39.5221 372.466 39.6051C372.279 39.688 372.11 39.8095 371.967 39.9628L368.712 43.4486C367.621 44.6129 366.145 45.2671 364.605 45.2679L358.317 45.2679C357.554 45.2683 356.799 45.1078 356.094 44.7957C355.39 44.4835 354.749 44.0258 354.21 43.4486L350.955 39.9628C350.812 39.8095 350.642 39.688 350.456 39.6051C350.269 39.5221 350.069 39.4794 349.867 39.4794C349.665 39.4794 349.465 39.5221 349.278 39.6051C349.092 39.688 348.922 39.8095 348.78 39.9628L343.474 45.6399C343.187 45.9494 343.026 46.368 343.026 46.8043C343.026 47.2407 343.187 47.6593 343.474 47.9688L348.78 53.6459C348.922 53.7991 349.092 53.9207 349.278 54.0036C349.465 54.0865 349.665 54.1292 349.867 54.1292C350.069 54.1292 350.269 54.0865 350.456 54.0036C350.642 53.9207 350.812 53.7991 350.955 53.6459L354.21 50.16C354.749 49.5828 355.39 49.1251 356.094 48.813C356.799 48.5008 357.554 48.3404 358.317 48.3408Z" fill="white" fill-opacity="0.3"/>
<path d="M293.066 45.2679L286.778 45.2679C285.238 45.2671 283.762 44.6129 282.671 43.4486L279.416 39.9628C279.273 39.8095 279.104 39.688 278.917 39.6051C278.731 39.5221 278.53 39.4794 278.328 39.4794C278.126 39.4794 277.926 39.5221 277.74 39.6051C277.553 39.688 277.384 39.8095 277.241 39.9628L271.939 45.6399C271.796 45.7926 271.683 45.9741 271.605 46.1739C271.528 46.3738 271.488 46.588 271.488 46.8043C271.488 47.0207 271.528 47.2349 271.605 47.4347C271.683 47.6345 271.796 47.816 271.939 47.9688L277.241 53.6459C277.384 53.7991 277.553 53.9207 277.74 54.0036C277.926 54.0865 278.126 54.1292 278.328 54.1292C278.53 54.1292 278.731 54.0865 278.917 54.0036C279.104 53.9207 279.273 53.7991 279.416 53.6459L282.671 50.16C283.762 48.9958 285.238 48.3416 286.778 48.3408L293.066 48.3408C294.606 48.3408 296.083 48.9951 297.173 50.16L300.428 53.6459C300.571 53.7991 300.741 53.9207 300.927 54.0036C301.114 54.0865 301.314 54.1292 301.516 54.1292C301.718 54.1292 301.918 54.0865 302.105 54.0036C302.291 53.9207 302.461 53.7991 302.603 53.6459L307.905 47.9688C308.048 47.816 308.162 47.6345 308.239 47.4347C308.317 47.2349 308.356 47.0207 308.356 46.8043C308.356 46.588 308.317 46.3738 308.239 46.1739C308.162 45.9741 308.048 45.7926 307.905 45.6399L302.603 39.9628C302.461 39.8095 302.291 39.688 302.105 39.6051C301.918 39.5221 301.718 39.4794 301.516 39.4794C301.314 39.4794 301.114 39.5221 300.927 39.6051C300.741 39.688 300.571 39.8095 300.428 39.9628L297.173 43.4486C296.083 44.6136 294.606 45.2679 293.066 45.2679Z" fill="white" fill-opacity="0.15"/>
<path d="M316.143 19.1553L309.854 19.1553C309.092 19.1552 308.336 18.9942 307.632 18.6814C306.927 18.3686 306.287 17.9102 305.748 17.3324L302.492 13.8465C302.35 13.6933 302.18 13.5717 301.994 13.4888C301.807 13.4058 301.607 13.3631 301.405 13.3631C301.203 13.3631 301.003 13.4058 300.816 13.4888C300.63 13.5717 300.46 13.6933 300.317 13.8465L295.016 19.5236C294.727 19.8332 294.565 20.2526 294.565 20.6899C294.565 21.1272 294.727 21.5466 295.016 21.8562L300.317 27.5482C300.46 27.7014 300.63 27.823 300.816 27.9059C301.003 27.9889 301.203 28.0315 301.405 28.0315C301.607 28.0315 301.807 27.9889 301.994 27.9059C302.18 27.823 302.35 27.7014 302.492 27.5482L305.748 24.0623C306.287 23.4845 306.927 23.0261 307.632 22.7133C308.336 22.4005 309.092 22.2395 309.854 22.2394L316.143 22.2394C316.906 22.2393 317.661 22.4002 318.366 22.713C319.07 23.0258 319.711 23.4843 320.25 24.0623L323.505 27.5482C323.648 27.7014 323.817 27.823 324.004 27.9059C324.19 27.9889 324.39 28.0315 324.592 28.0315C324.794 28.0315 324.994 27.9889 325.181 27.9059C325.368 27.823 325.537 27.7014 325.68 27.5482L330.982 21.8711C331.27 21.5614 331.432 21.142 331.432 20.7048C331.432 20.2675 331.27 19.8481 330.982 19.5385L325.68 13.8613C325.537 13.7081 325.368 13.5866 325.181 13.5036C324.994 13.4207 324.794 13.378 324.592 13.378C324.39 13.378 324.19 13.4207 324.004 13.5036C323.817 13.5866 323.648 13.7081 323.505 13.8613L320.256 17.3324C319.717 17.9112 319.075 18.3703 318.369 18.6831C317.664 18.9959 316.907 19.1564 316.143 19.1553Z" fill="white" fill-opacity="0.15"/>
</g>
<defs>
<clipPath id="clip0_1233_12172">
<rect width="150" height="80" fill="white" transform="translate(200)"/>
</clipPath>
</defs>
</svg>
