<svg width="128" height="128" viewBox="0 0 128 128" fill="none" xmlns="http://www.w3.org/2000/svg">
<path d="M76.2052 58.32L49.7102 63.765L42.7202 29.755L62.3902 25.715L70.5452 30.79L76.2052 58.32Z" fill="#FFC829"/>
<path d="M76.2052 58.32L49.7102 63.765L42.7202 29.755L62.3902 25.715L70.5452 30.79L76.2052 58.32Z" fill="#FFD2C8"/>
<path d="M62.3901 25.715L70.5451 30.79L63.7251 32.195L62.3901 25.715Z" fill="#FFB3A2"/>
<path d="M46.6535 35.8013L61.3857 32.7745L61.2066 31.9027L46.4743 34.9295L46.6535 35.8013Z" fill="#FFE7E1"/>
<path d="M47.109 38.007L61.8413 34.9802L61.6622 34.1084L46.9299 37.1352L47.109 38.007Z" fill="#FFE7E1"/>
<path d="M47.5607 40.2136L62.293 37.1868L62.1139 36.315L47.3816 39.3418L47.5607 40.2136Z" fill="#FFE7E1"/>
<path d="M48.0135 42.4136L69.5977 37.979L69.4185 37.1073L47.8344 41.5418L48.0135 42.4136Z" fill="#FFE7E1"/>
<path d="M48.47 44.6202L70.0542 40.1856L69.8751 39.3138L48.2909 43.7484L48.47 44.6202Z" fill="#FFE7E1"/>
<path d="M48.9256 46.8258L70.5098 42.3913L70.3307 41.5195L48.7465 45.954L48.9256 46.8258Z" fill="#FFE7E1"/>
<path d="M49.3763 49.0275L70.9604 44.593L70.7813 43.7212L49.1972 48.1557L49.3763 49.0275Z" fill="#FFE7E1"/>
<path d="M49.827 51.2342L71.4111 46.7997L71.232 45.9279L49.6478 50.3624L49.827 51.2342Z" fill="#FFE7E1"/>
<path d="M50.282 53.4349L71.8662 49.0004L71.6871 48.1286L50.1029 52.5631L50.282 53.4349Z" fill="#FFE7E1"/>
<path d="M50.7327 55.6416L72.3169 51.207L72.1378 50.3352L50.5536 54.7698L50.7327 55.6416Z" fill="#FFE7E1"/>
<path d="M51.1883 57.8422L72.7725 53.4077L72.5933 52.5359L51.0092 56.9704L51.1883 57.8422Z" fill="#FFE7E1"/>
<path d="M51.64 60.0538L73.2241 55.6193L73.045 54.7475L51.4608 59.182L51.64 60.0538Z" fill="#FFE7E1"/>
<path d="M100.69 119.82H26.1299L36.9099 58.675H111.47L100.69 119.82Z" fill="#4D3F60"/>
<path d="M62.4302 52.34H38.0252L36.9102 58.675H63.0252L62.4302 52.34Z" fill="#4D3F60"/>
<path d="M100.69 119.82H26.1299L36.9099 58.675H111.47L100.69 119.82Z" fill="#FC8064"/>
<path d="M62.4297 52.34H38.0247L36.9097 58.675H63.0247L62.4297 52.34Z" fill="#FC8064"/>
<path d="M37.8551 39.42H5.31006V81.2H37.8551V39.42Z" fill="#FEF4F2"/>
<path d="M37.8549 81.2L21.6249 81.3L5.30994 81.355H5.14994V81.2L5.06494 39.42V39.17H5.31494L37.8599 39.225H38.0499V39.415L37.9999 60.36L37.8549 81.2ZM37.8549 81.2L37.7299 60.255L37.6649 39.42L37.8549 39.605L5.30994 39.665L5.55494 39.42L5.46494 81.2L5.30994 81.04L21.5399 81.095L37.8549 81.2Z" fill="#FFD2C8"/>
<path d="M8.87012 48.345L21.5801 48.315L34.2951 48.345L21.5801 48.38L8.87012 48.345Z" fill="#FFD2C8"/>
<path d="M8.87012 49.385L21.5801 49.35L34.2951 49.385L21.5801 49.415L8.87012 49.385Z" fill="#FFD2C8"/>
<path d="M8.87012 50.42L21.5801 50.39L34.2951 50.42L21.5801 50.455L8.87012 50.42Z" fill="#FFD2C8"/>
<path d="M8.87012 51.46L21.5801 51.425L34.2951 51.46L21.5801 51.49L8.87012 51.46Z" fill="#FFD2C8"/>
<path d="M8.87012 52.495L21.5801 52.46L34.2951 52.495L21.5801 52.525L8.87012 52.495Z" fill="#FFD2C8"/>
<path d="M8.87012 53.53L21.5801 53.5L34.2951 53.53L21.5801 53.565L8.87012 53.53Z" fill="#FFD2C8"/>
<path d="M8.87012 54.57L21.5801 54.535L34.2951 54.57L21.5801 54.6L8.87012 54.57Z" fill="#FFD2C8"/>
<path d="M8.87012 55.605L21.5801 55.575L34.2951 55.605L21.5801 55.635L8.87012 55.605Z" fill="#FFD2C8"/>
<path d="M8.87012 56.64L21.5801 56.61L34.2951 56.64L21.5801 56.675L8.87012 56.64Z" fill="#FFD2C8"/>
<path d="M8.87012 57.68L21.5801 57.645L34.2951 57.68L21.5801 57.71L8.87012 57.68Z" fill="#FFD2C8"/>
<path d="M8.87012 58.715L21.5801 58.685L34.2951 58.715L21.5801 58.75L8.87012 58.715Z" fill="#FFD2C8"/>
<path d="M8.87012 59.75L21.5801 59.72L34.2951 59.75L21.5801 59.785L8.87012 59.75Z" fill="#FFD2C8"/>
<path d="M8.87012 60.79L21.5801 60.755L34.2951 60.79L21.5801 60.82L8.87012 60.79Z" fill="#FFD2C8"/>
<path d="M8.87012 61.825L21.5801 61.795L34.2951 61.825L21.5801 61.86L8.87012 61.825Z" fill="#FFD2C8"/>
<path d="M8.87012 62.865L21.5801 62.83L34.2951 62.865L21.5801 62.895L8.87012 62.865Z" fill="#FFD2C8"/>
<path d="M13.4852 59.72H11.5552V64.07H13.4852V59.72Z" fill="#FFD2C8"/>
<path d="M17.0648 57.4H15.1348V64.075H17.0648V57.4Z" fill="#FFD2C8"/>
<path d="M20.64 54.8H18.71V64.07H20.64V54.8Z" fill="#FFD2C8"/>
<path d="M24.2152 53.685H22.2852V64.07H24.2152V53.685Z" fill="#FFD2C8"/>
<path d="M27.7952 51.695H25.8652V64.07H27.7952V51.695Z" fill="#FFD2C8"/>
<path d="M31.3699 49.73H29.4399V64.07H31.3699V49.73Z" fill="#FFD2C8"/>
<path d="M9.55994 47.62L9.60994 51.735L9.63994 55.845C9.66328 58.5917 9.67494 61.3333 9.67494 64.07L9.55994 63.95H15.7399H21.9249L28.1099 63.99L34.2949 64.06L28.1099 64.135L21.9249 64.17H15.7399H9.43994V64.05C9.43994 61.31 9.43994 58.55 9.47494 55.825L9.50994 51.715L9.55994 47.62Z" fill="#FFE7E1"/>
<path d="M13.4852 64.94H11.5552V65.115H13.4852V64.94Z" fill="#FFE7E1"/>
<path d="M17.0648 64.94H15.1348V65.115H17.0648V64.94Z" fill="#FFE7E1"/>
<path d="M20.64 64.94H18.71V65.115H20.64V64.94Z" fill="#FFD2C8"/>
<path d="M24.2152 64.94H22.2852V65.115H24.2152V64.94Z" fill="#FFD2C8"/>
<path d="M27.7952 64.94H25.8652V65.115H27.7952V64.94Z" fill="#FFD2C8"/>
<path d="M31.3699 64.94H29.4399V65.115H31.3699V64.94Z" fill="#FFD2C8"/>
<path d="M11.7749 60.27C12.7166 60.2535 13.6566 60.1817 14.5899 60.055C15.5229 59.9362 16.4491 59.7693 17.3649 59.555C19.1973 59.1444 20.9747 58.5184 22.6599 57.69C24.3511 56.8757 25.9115 55.8141 27.2899 54.54L27.5499 54.3L27.7999 54.05L28.2999 53.55C28.6049 53.19 28.9299 52.85 29.2049 52.47C29.7888 51.732 30.317 50.9515 30.7849 50.135C29.9333 51.8315 28.8006 53.3716 27.4349 54.69C26.7529 55.3521 26.0152 55.9543 25.2299 56.49C24.4514 57.0321 23.6323 57.5135 22.7799 57.93C21.07 58.7568 19.2647 59.3698 17.4049 59.755C15.5562 60.1551 13.6655 60.328 11.7749 60.27Z" fill="#263238"/>
<path d="M31.3201 51.475L31.0551 51.54L30.7251 50.225L29.4401 50.65L29.3501 50.39L30.9201 49.875L31.3201 51.475Z" fill="#263238"/>
<path d="M8.31996 71.615H34.835V70.54H8.31996V71.615Z" fill="#FFE7E1"/>
<path d="M8.325 74.32H23.25V73.245H8.325V74.32Z" fill="#FFE7E1"/>
<path d="M14.115 45.105H29.04V44.03H14.115V45.105Z" fill="#FFE7E1"/>
<path d="M35.3948 54.925C35.2305 54.594 35.145 54.2295 35.145 53.86C35.145 53.4905 35.2305 53.126 35.3948 52.795C35.5592 53.126 35.6447 53.4905 35.6447 53.86C35.6447 54.2295 35.5592 54.594 35.3948 54.925Z" fill="white"/>
<path d="M33.2252 55.55C32.9107 55.3542 32.6523 55.0803 32.4752 54.755C32.2822 54.4376 32.1738 54.0762 32.1602 53.705C32.468 53.9095 32.7243 54.1825 32.9091 54.5026C33.0938 54.8227 33.202 55.1811 33.2252 55.55Z" fill="white"/>
<path d="M31.6599 57.18C31.2909 57.1632 30.9318 57.0549 30.6149 56.865C30.2891 56.6867 30.0139 56.4287 29.8149 56.115C30.1859 56.1295 30.5472 56.2379 30.8649 56.43C31.1883 56.6098 31.4616 56.8677 31.6599 57.18Z" fill="white"/>
<path d="M31.1202 59.37C30.7921 59.5421 30.4257 59.6281 30.0552 59.62C29.6845 59.6306 29.3175 59.5444 28.9902 59.37C29.3184 59.1979 29.6848 59.1119 30.0552 59.12C30.4254 59.1142 30.7913 59.2001 31.1202 59.37Z" fill="white"/>
<path d="M31.7449 61.54C31.5464 61.8522 31.2731 62.11 30.9499 62.29C30.6325 62.4829 30.2711 62.5914 29.8999 62.605C30.1044 62.2972 30.3774 62.0408 30.6975 61.8561C31.0176 61.6713 31.376 61.5631 31.7449 61.54Z" fill="white"/>
<path d="M33.3751 63.105C33.3582 63.474 33.25 63.8331 33.0601 64.15C32.8818 64.4758 32.6237 64.7511 32.3101 64.95C32.3237 64.5788 32.4321 64.2174 32.6251 63.9C32.8022 63.5747 33.0606 63.3008 33.3751 63.105Z" fill="white"/>
<path d="M35.565 63.645C35.7349 63.974 35.8207 64.3398 35.815 64.71C35.8255 65.0807 35.7394 65.4477 35.565 65.775C35.3929 65.4469 35.3069 65.0804 35.315 64.71C35.3092 64.3398 35.3951 63.974 35.565 63.645Z" fill="white"/>
<path d="M37.7349 63C38.0471 63.1991 38.3035 63.4744 38.4799 63.8C38.6758 64.1145 38.7861 64.4747 38.7999 64.845C38.4854 64.6492 38.227 64.3753 38.0499 64.05C37.8569 63.7326 37.7485 63.3712 37.7349 63Z" fill="white"/>
<path d="M39.2998 61.39C39.6692 61.4045 40.0289 61.5129 40.3448 61.705C40.6701 61.8822 40.944 62.1406 41.1398 62.455C40.7704 62.4405 40.4107 62.3321 40.0948 62.14C39.7695 61.9628 39.4956 61.7045 39.2998 61.39Z" fill="white"/>
<path d="M39.8398 59.2C40.1708 59.0357 40.5353 58.9502 40.9048 58.9502C41.2744 58.9502 41.6389 59.0357 41.9698 59.2C41.6389 59.3643 41.2744 59.4498 40.9048 59.4498C40.5353 59.4498 40.1708 59.3643 39.8398 59.2Z" fill="white"/>
<path d="M39.21 57.03C39.4145 56.7222 39.6875 56.4658 40.0075 56.2811C40.3276 56.0963 40.6861 55.9881 41.055 55.965C40.8592 56.2794 40.5853 56.5378 40.26 56.715C39.9422 56.9071 39.581 57.0155 39.21 57.03Z" fill="white"/>
<path d="M37.585 55.465C37.6081 55.0961 37.7163 54.7376 37.901 54.4176C38.0858 54.0975 38.3421 53.8245 38.65 53.62C38.6355 53.991 38.5271 54.3523 38.335 54.67C38.1551 54.9934 37.8973 55.2666 37.585 55.465Z" fill="white"/>
<path d="M75.5816 22.0508L66.3677 82.1942L111.644 89.1306L120.858 28.9873L75.5816 22.0508Z" fill="#EBEBEB"/>
<path d="M75.5816 22.0508L66.3677 82.1942L111.644 89.1306L120.858 28.9873L75.5816 22.0508Z" fill="#FFB3A2"/>
<path d="M74.3521 21.8686L65.1382 82.0119L110.415 88.9483L119.629 28.805L74.3521 21.8686Z" fill="#FFE7E1"/>
<path d="M76.643 25.1988L69.0332 79.483L109.082 85.0972L116.691 30.813L76.643 25.1988Z" fill="#EBEBEB"/>
<path d="M77.07 24.5688L67.5986 78.5593L107.43 85.5469L116.902 31.5563L77.07 24.5688Z" fill="#FFE7E1"/>
<path d="M76.4121 24.9L68.1113 79.0829L108.085 85.2069L116.386 31.024L76.4121 24.9Z" fill="white"/>
<path d="M82.9701 43.17C81.9101 43.045 79.8851 42.785 78.8301 42.64C78.9851 41.43 79.2551 39.73 79.4301 38.505V38.375H79.5601C80.7901 38.58 82.4751 38.825 83.6851 39.04C83.5051 40.09 83.1501 42.105 82.9501 43.15L82.9701 43.17ZM82.9701 43.17C83.0901 42.17 83.3501 40.135 83.4701 39.125L83.5551 39.245C82.3901 39.085 80.7101 38.83 79.5251 38.655L79.6751 38.545C79.4851 39.73 79.2251 41.4 79.0301 42.545L78.9451 42.425C79.9451 42.595 81.9451 42.96 82.9451 43.145L82.9701 43.17Z" fill="#FFD2C8"/>
<path d="M85.6201 40.16C88.6042 40.4288 91.5696 40.8762 94.5001 41.5C91.5156 41.2246 88.5503 40.7705 85.6201 40.14V40.16Z" fill="#FFD2C8"/>
<path d="M85.4702 41.13C93.0702 42.13 101.47 43.41 109.04 44.74C101.435 43.74 93.0402 42.465 85.4702 41.13Z" fill="#FFD2C8"/>
<path d="M79.5801 40.375C79.7101 40.52 79.8301 40.675 79.9501 40.825C80.0701 40.975 80.1851 41.135 80.3051 41.285C80.5351 41.595 80.7551 41.91 80.9701 42.23L80.5001 42.19C80.9855 41.4891 81.5166 40.8209 82.0901 40.19C82.3801 39.875 82.6801 39.57 82.9951 39.275C83.3105 38.979 83.6445 38.7034 83.9951 38.45C83.8102 38.8443 83.598 39.2252 83.3601 39.59C83.1301 39.95 82.8851 40.3 82.6251 40.64C82.1064 41.3195 81.5417 41.9627 80.9351 42.565L80.6301 42.865L80.5001 42.5C80.3351 42.15 80.1701 41.8 80.0001 41.445C79.9301 41.265 79.8551 41.09 79.7851 40.91C79.7151 40.73 79.6401 40.56 79.5801 40.375Z" fill="#FFB3A2"/>
<path d="M81.8148 50.715C80.7548 50.585 78.7298 50.33 77.6748 50.185C77.8298 48.975 78.0998 47.275 78.2748 46.05V45.92H78.4048C79.6348 46.125 81.3198 46.37 82.5298 46.585C82.3498 47.635 81.9898 49.645 81.7948 50.695L81.8148 50.715ZM81.8148 50.715C81.9348 49.715 82.1948 47.68 82.3148 46.67L82.3998 46.79C81.2348 46.63 79.5498 46.375 78.3698 46.2L78.5198 46.09C78.3298 47.275 78.0698 48.945 77.8748 50.09L77.7898 49.975C78.7898 50.145 80.7898 50.51 81.7898 50.695L81.8148 50.715Z" fill="#FFD2C8"/>
<path d="M84.4648 47.705C87.4494 47.9804 90.4147 48.4345 93.3448 49.065C90.3603 48.7896 87.395 48.3355 84.4648 47.705Z" fill="#FFD2C8"/>
<path d="M84.3149 48.675C91.9149 49.675 100.315 50.955 107.885 52.285C100.28 51.285 91.8849 50.01 84.3149 48.675Z" fill="#FFD2C8"/>
<path d="M78.4248 47.92C78.5548 48.065 78.6748 48.22 78.7948 48.37C78.9148 48.52 79.0298 48.675 79.1498 48.83C79.3798 49.14 79.5948 49.455 79.8098 49.775L79.3448 49.735C79.8302 49.0341 80.3613 48.3659 80.9348 47.735C81.2248 47.42 81.5248 47.115 81.8398 46.82C82.154 46.5225 82.4881 46.2469 82.8398 45.995C82.654 46.3872 82.4419 46.7665 82.2048 47.13C81.9748 47.495 81.7048 47.845 81.4698 48.185C80.9499 48.8635 80.3853 49.5066 79.7798 50.11L79.4748 50.41L79.3098 50.065C79.1448 49.72 78.9848 49.37 78.8348 49.015C78.7648 48.835 78.6848 48.66 78.6198 48.48C78.5548 48.3 78.4998 48.105 78.4248 47.92Z" fill="#FFB3A2"/>
<path d="M83.3101 55.25C86.2945 55.5258 89.2598 55.9799 92.1901 56.61C89.2055 56.3346 86.2402 55.8805 83.3101 55.25Z" fill="#FFD2C8"/>
<path d="M83.1602 56.22C90.7602 57.22 99.1602 58.5 106.73 59.83C99.1252 58.83 90.7052 57.555 83.1602 56.22Z" fill="#FFD2C8"/>
<path d="M80.66 58.24C79.605 58.11 77.58 57.855 76.52 57.71C76.68 56.495 76.945 54.8 77.12 53.575V53.445H77.25C78.48 53.645 80.165 53.895 81.375 54.11C81.195 55.16 80.84 57.17 80.64 58.22L80.66 58.24ZM80.66 58.24C80.78 57.24 81.04 55.2 81.16 54.195L81.245 54.31C80.075 54.15 78.395 53.9 77.21 53.725L77.365 53.615C77.175 54.8 76.915 56.47 76.715 57.615L76.63 57.5C77.63 57.67 79.63 58.03 80.63 58.22L80.66 58.24Z" fill="#FFD2C8"/>
<path d="M77.27 55.445C77.4 55.5917 77.525 55.7417 77.645 55.895C77.765 56.045 77.88 56.2 77.995 56.355C78.225 56.665 78.445 56.98 78.66 57.3L78.195 57.255C78.6784 56.5525 79.2096 55.8843 79.785 55.255C80.0684 54.9417 80.3684 54.6367 80.685 54.34C80.9992 54.0426 81.3333 53.7669 81.685 53.515C81.5029 53.9081 81.2923 54.2875 81.055 54.65C80.82 55.015 80.555 55.365 80.315 55.705C79.7951 56.3835 79.2305 57.0266 78.625 57.63L78.32 57.925L78.16 57.585C77.995 57.24 77.835 56.89 77.66 56.535C77.585 56.355 77.51 56.18 77.44 56C77.37 55.82 77.335 55.63 77.27 55.445Z" fill="#FFB3A2"/>
<path d="M79.4999 65.805C78.4399 65.675 76.4149 65.42 75.3599 65.275C75.5149 64.06 75.7849 62.365 75.9549 61.14V61.01H76.0899C77.3149 61.21 79.0049 61.46 80.2149 61.675C80.0349 62.725 79.6749 64.735 79.4799 65.785L79.4999 65.805ZM79.4999 65.805C79.6199 64.805 79.8799 62.765 79.9999 61.76L80.0849 61.875C78.9149 61.715 77.2349 61.465 76.0549 61.29L76.2049 61.18C76.0149 62.365 75.7549 64.035 75.5549 65.18L75.4699 65.065C76.4699 65.235 78.4699 65.595 79.4699 65.785L79.4999 65.805Z" fill="#FFD2C8"/>
<path d="M82.1548 62.795C85.1396 63.0683 88.105 63.5225 91.0348 64.155C88.0502 63.88 85.0849 63.4258 82.1548 62.795Z" fill="#FFD2C8"/>
<path d="M82 63.765C89.6 64.765 98 66.045 105.57 67.375C97.965 66.375 89.545 65.095 82 63.765Z" fill="#FFD2C8"/>
<path d="M78.3451 73.35C77.2901 73.22 75.2651 72.965 74.2051 72.82C74.3651 71.605 74.6301 69.91 74.8051 68.685V68.55L74.9351 68.575C76.1651 68.775 77.8551 69.025 79.0601 69.24C78.8801 70.29 78.5251 72.3 78.3251 73.35H78.3451ZM78.3451 73.35C78.4651 72.35 78.7301 70.31 78.8451 69.305L78.9301 69.42C77.7601 69.26 76.0801 69.005 74.8951 68.835L75.0501 68.725C74.8601 69.91 74.6001 71.58 74.4001 72.725L74.3151 72.61C75.3151 72.78 77.3151 73.14 78.3151 73.33L78.3451 73.35Z" fill="#FFD2C8"/>
<path d="M81 70.34C83.9848 70.6133 86.9502 71.0675 89.88 71.7C86.8954 71.425 83.9301 70.9708 81 70.34Z" fill="#FFD2C8"/>
<path d="M80.8501 71.31C88.4451 72.31 96.8501 73.59 104.415 74.92C96.8151 73.92 88.4151 72.64 80.8501 71.31Z" fill="#FFD2C8"/>
<path d="M89.625 35.595C93.3176 35.7944 96.9818 36.3555 100.565 37.27C96.8721 37.073 93.2077 36.512 89.625 35.595Z" fill="#FFD2C8"/>
<path d="M84.4551 33.175C91.7617 33.9317 99.0184 35.045 106.225 36.515C98.9217 35.765 91.6651 34.6517 84.4551 33.175Z" fill="#FFD2C8"/>
<path d="M86.9077 22.6651L85.9907 28.6503L105.627 31.6585L106.544 25.6733L86.9077 22.6651Z" fill="#FFD2C8"/>
<path d="M103.23 21.82L91.045 19.95L90 23.14L103.44 25.2L103.23 21.82ZM96.865 23.255C96.7221 23.2335 96.5888 23.1701 96.4819 23.0727C96.3751 22.9754 96.2996 22.8485 96.2649 22.7082C96.2303 22.5679 96.238 22.4205 96.2872 22.2846C96.3364 22.1487 96.4249 22.0305 96.5413 21.9449C96.6578 21.8593 96.797 21.8102 96.9414 21.8038C97.0858 21.7975 97.2288 21.8341 97.3523 21.909C97.4759 21.984 97.5744 22.094 97.6354 22.225C97.6964 22.356 97.7171 22.5022 97.695 22.645C97.6654 22.8358 97.5615 23.007 97.4059 23.1213C97.2504 23.2357 97.0559 23.2837 96.865 23.255Z" fill="#FFD2C8"/>
<path d="M103.445 25.2L90 23.14L90.235 22.425L103.395 24.445L103.445 25.2Z" fill="#FFE7E1"/>
<path d="M100.58 119.82H25.86L15.25 60.895H89.97L100.58 119.82Z" fill="#FFB3A2"/>
<path d="M41.1402 96.915C42.855 96.915 44.2452 95.5248 44.2452 93.81C44.2452 92.0952 42.855 90.705 41.1402 90.705C39.4253 90.705 38.0352 92.0952 38.0352 93.81C38.0352 95.5248 39.4253 96.915 41.1402 96.915Z" fill="#263238"/>
<path d="M65.6948 96.915C67.4097 96.915 68.7998 95.5248 68.7998 93.81C68.7998 92.0952 67.4097 90.705 65.6948 90.705C63.98 90.705 62.5898 92.0952 62.5898 93.81C62.5898 95.5248 63.98 96.915 65.6948 96.915Z" fill="#263238"/>
<path d="M57.8801 97.41L57.7101 97.085C57.7101 97.055 56.0901 94.085 52.8601 94.085C49.9151 94.085 49.2001 96.875 49.1701 96.995L49.0801 97.35L48.3701 97.18L48.4551 96.825C48.4551 96.79 49.3301 93.35 52.8601 93.35C56.5401 93.35 58.2851 96.6 58.3601 96.74L58.5301 97.065L57.8801 97.41Z" fill="#263238"/>
<path d="M13.9005 102.708L12.108 100.915C11.8795 100.687 11.5091 100.687 11.2807 100.915L9.48816 102.708C9.2597 102.936 9.2597 103.307 9.48816 103.535L11.2807 105.328C11.5091 105.556 11.8795 105.556 12.108 105.328L13.9005 103.535C14.129 103.307 14.129 102.936 13.9005 102.708Z" fill="#FFB3A2"/>
<path d="M18.7018 115.152L16.9093 113.359C16.6808 113.131 16.3104 113.131 16.0819 113.359L14.2894 115.152C14.061 115.38 14.061 115.751 14.2894 115.979L16.0819 117.772C16.3104 118 16.6808 118 16.9093 117.772L18.7018 115.979C18.9302 115.751 18.9302 115.38 18.7018 115.152Z" fill="#FFB3A2"/>
<path d="M16 102V104.23C16.0004 104.775 15.7847 105.299 15.4 105.685L14.245 106.84C14.1442 106.943 14.0878 107.081 14.0878 107.225C14.0878 107.369 14.1442 107.507 14.245 107.61L16.11 109.5C16.1602 109.551 16.2202 109.592 16.2863 109.619C16.3524 109.647 16.4233 109.661 16.495 109.661C16.5666 109.661 16.6376 109.647 16.7037 109.619C16.7698 109.592 16.8297 109.551 16.88 109.5L18.76 107.625C18.8608 107.522 18.9172 107.384 18.9172 107.24C18.9172 107.096 18.8608 106.958 18.76 106.855L17.605 105.7C17.2203 105.314 17.0045 104.79 17.005 104.245V102C17.0051 101.455 17.2207 100.932 17.605 100.545L18.76 99.395C18.8608 99.2922 18.9172 99.154 18.9172 99.01C18.9172 98.866 18.8608 98.7278 18.76 98.625L16.88 96.745C16.8297 96.6939 16.7698 96.6533 16.7037 96.6256C16.6376 96.5979 16.5666 96.5836 16.495 96.5836C16.4233 96.5836 16.3524 96.5979 16.2863 96.6256C16.2202 96.6533 16.1602 96.6939 16.11 96.745L14.23 98.625C14.1292 98.7278 14.0728 98.866 14.0728 99.01C14.0728 99.154 14.1292 99.2922 14.23 99.395L15.385 100.545C15.7747 100.929 15.9959 101.453 16 102Z" fill="#FFB3A2"/>
<path d="M19.605 85.095L15.25 60.895L51.14 61.01" stroke="#F4603F" stroke-miterlimit="10"/>
<path d="M24.8848 114.425L25.8598 119.82H100.58L92.1348 72.905" stroke="#F4603F" stroke-miterlimit="10"/>
<path d="M118.155 88.78L93.53 87C92.89 76.595 97.345 66.185 96.185 55.775L120.79 57.57C121.34 67.965 116.89 78.375 118.155 88.78Z" fill="#FEF4F2"/>
<path d="M118.155 88.78L93.5452 87.16H93.3702V86.985C92.6702 76.57 97.1452 66.16 95.9452 55.75L95.9152 55.5H96.1702L120.79 57.335H121.005C121.005 57.405 121.005 57.475 121.005 57.545C121.5 68 116.965 78.38 118.155 88.78ZM118.155 88.78C116.82 78.37 121.205 67.955 120.58 57.54L120.8 57.765L96.2102 56L96.4352 55.77C97.5652 66.175 93.1302 76.585 93.7052 86.99L93.5202 86.805L118.155 88.78Z" fill="#FFD2C8"/>
<path d="M98.6252 60.55L112.185 61.55C112.185 61.82 112.155 62.085 112.135 62.355L98.5952 61.355C98.6102 61.085 98.6202 60.815 98.6252 60.55Z" fill="#FFD2C8"/>
<path d="M98.4999 62.575L112 63.575C112 63.845 111.95 64.11 111.92 64.38L98.4199 63.38C98.4999 63.105 98.4999 62.84 98.4999 62.575Z" fill="#FFD2C8"/>
<path d="M98.3299 64.595L111.83 65.595L111.725 66.395L98.2549 65.395C98.2699 65.13 98.2999 64.865 98.3299 64.595Z" fill="#FFE7E1"/>
<path d="M98.075 66.62L117.785 68.085C117.745 68.35 117.7 68.62 117.66 68.885L97.96 67.42C98 67.155 98.04 66.89 98.075 66.62Z" fill="#FFE7E1"/>
<path d="M97.775 68.645L117.46 70.105L117.325 70.91L97.645 69.445C97.69 69.18 97.73 68.91 97.775 68.645Z" fill="#FFE7E1"/>
<path d="M97.4402 70.67L117.115 72.13L116.98 72.935L97.3052 71.47L97.4402 70.67Z" fill="#FFE7E1"/>
<path d="M97.095 72.69L116.77 74.155C116.725 74.42 116.685 74.69 116.64 74.955L96.96 73.5L97.095 72.69Z" fill="#FFE7E1"/>
<path d="M96.755 74.715L116.445 76.18L116.325 76.98L96.625 75.5C96.665 75.25 96.71 75 96.755 74.715Z" fill="#FFE7E1"/>
<path d="M96.4348 76.74L116.155 78.205L116.05 79.005L96.3198 77.54C96.3548 77.275 96.3948 77 96.4348 76.74Z" fill="#FFE7E1"/>
<path d="M96.1551 78.765L115.915 80.225L115.84 81.03L96.0601 79.565C96.0901 79.3 96.1251 79.03 96.1551 78.765Z" fill="#FFE7E1"/>
<path d="M95.9351 80.79L115.745 82.25C115.745 82.52 115.715 82.785 115.705 83.05L95.8701 81.59C95.8901 81.325 95.9101 81.055 95.9351 80.79Z" fill="#FFE7E1"/>
<path d="M95.7898 82.81L115.665 84.275C115.665 84.54 115.665 84.81 115.665 85.075L95.7598 83.615C95.7648 83.345 95.7748 83.08 95.7898 82.81Z" fill="#FFE7E1"/>
<path d="M112.865 99.27C104.605 96.715 96.6748 94.165 88.9448 91.61C92.1698 81.7 98.3548 71.79 99.5348 61.88C107.795 64.435 115.72 66.985 123.455 69.54C120.225 79.45 114.04 89.36 112.865 99.27Z" fill="#FFC829"/>
<path d="M112.865 99.27C104.605 96.715 96.6748 94.165 88.9448 91.61C92.1698 81.7 98.3548 71.79 99.5348 61.88C107.795 64.435 115.72 66.985 123.455 69.54C120.225 79.45 114.04 89.36 112.865 99.27Z" fill="#FEF4F2"/>
<path d="M100.905 67C105.285 68.4133 109.598 69.8317 113.845 71.255L113.565 72.02C109.332 70.6 105.04 69.18 100.69 67.76C100.765 67.5 100.835 67.245 100.905 67Z" fill="#FFD2C8"/>
<path d="M100.34 68.92C104.66 70.34 108.91 71.76 113.125 73.175L112.825 73.94C108.625 72.52 104.382 71.1017 100.095 69.685C100.18 69.43 100.26 69.175 100.34 68.92Z" fill="#FFD2C8"/>
<path d="M99.7002 70.845C103.964 72.265 108.182 73.685 112.355 75.105L112.04 75.865C107.87 74.4517 103.667 73.0333 99.4302 71.61L99.7002 70.845Z" fill="#FFD2C8"/>
<path d="M99.0001 72.775C105.185 74.855 111.275 76.93 117.35 79.01C117.24 79.265 117.13 79.51 117.015 79.775C110.945 77.695 104.87 75.615 98.7051 73.535C98.8001 73.28 98.9001 73.03 99.0001 72.775Z" fill="#FFD2C8"/>
<path d="M98.2348 74.7C104.37 76.78 110.435 78.86 116.505 80.94C116.395 81.19 116.28 81.44 116.17 81.7C110.1 79.62 104.045 77.545 97.9248 75.465C98.0298 75.21 98.1348 74.955 98.2348 74.7Z" fill="#FFD2C8"/>
<path d="M97.4402 76.625C103.535 78.705 109.59 80.785 115.665 82.865C115.555 83.12 115.445 83.365 115.34 83.63C109.25 81.55 103.2 79.47 97.1152 77.39L97.4402 76.625Z" fill="#FFD2C8"/>
<path d="M96.6148 78.555C102.69 80.635 108.74 82.71 114.845 84.79L114.525 85.555C108.41 83.475 102.355 81.395 96.2798 79.315C96.3948 79.065 96.4998 78.81 96.6148 78.555Z" fill="#FFD2C8"/>
<path d="M95.7749 80.5C101.845 82.58 107.91 84.66 114.05 86.74C113.95 86.995 113.845 87.24 113.745 87.5C107.59 85.425 101.51 83.345 95.4399 81.265C95.5549 81 95.6649 80.735 95.7749 80.5Z" fill="#FFD2C8"/>
<path d="M94.935 82.41C101.01 84.485 107.105 86.565 113.3 88.645L113.015 89.41C106.8 87.33 100.685 85.25 94.605 83.17L94.935 82.41Z" fill="#FFD2C8"/>
<path d="M94.1098 84.335C100.205 86.415 106.345 88.495 112.61 90.57C112.525 90.825 112.435 91.07 112.355 91.335C106.065 89.255 99.9048 87.175 93.7998 85.1C93.8948 84.845 93.9998 84.59 94.1098 84.335Z" fill="#FFD2C8"/>
<path d="M93.305 86.26C99.435 88.34 105.635 90.42 111.97 92.5C111.895 92.755 111.815 93 111.745 93.26C105.37 91.185 99.145 89.105 93 87.025L93.305 86.26Z" fill="#FFD2C8"/>
<path d="M92.545 88.19C98.72 90.27 104.99 92.345 111.42 94.425C111.355 94.68 111.29 94.925 111.23 95.19C104.73 93.11 98.455 91.03 92.23 88.95C92.35 88.695 92.445 88.445 92.545 88.19Z" fill="#FFD2C8"/>
<path d="M89.9699 60.895L63.0249 61.03" stroke="#F4603F" stroke-miterlimit="10"/>
<path d="M68.3848 60.82L74.3498 21.87L82.1548 23.065" stroke="#F4603F" stroke-miterlimit="10"/>
<path d="M116.69 28.355L119.63 28.805L115.305 57.03" stroke="#F4603F" stroke-miterlimit="10"/>
<path d="M18.7101 81.2H5.31006V77.44" stroke="#F4603F" stroke-miterlimit="10"/>
<path d="M5.31006 52.46V39.415H28.9901" stroke="#F4603F" stroke-miterlimit="10"/>
<path d="M99.535 61.88C99.535 61.88 97.41 73.145 93.615 80.13C89.82 87.115 88.855 91.69 88.855 91.69L100.265 95.385" stroke="#F4603F" stroke-miterlimit="10"/>
<path d="M94.3902 23.815L86.9052 22.67L85.9902 28.655L98.8202 30.62" stroke="#F4603F" stroke-miterlimit="10"/>
</svg>
