<svg width="350" height="160" viewBox="0 0 350 160" fill="none" xmlns="http://www.w3.org/2000/svg">
<rect x="0.5" y="0.5" width="349" height="159" rx="7.5" stroke="#DFE3E8" stroke-dasharray="8 8"/>
<path d="M142.573 79.699L142.034 79.314L143.024 77.994L141.583 77.51L141.781 76.872L143.244 77.356V75.805H143.915V77.356L145.367 76.872L145.576 77.51L144.135 77.994L145.125 79.314L144.586 79.699L143.574 78.39L142.573 79.699ZM147.19 84V75.805H149.94C150.461 75.805 150.919 75.9077 151.315 76.113C151.711 76.3183 152.019 76.608 152.239 76.982C152.467 77.356 152.58 77.7887 152.58 78.28C152.58 78.7713 152.467 79.204 152.239 79.578C152.019 79.9447 151.711 80.2343 151.315 80.447C150.927 80.6523 150.468 80.755 149.94 80.755H147.905V84H147.19ZM147.905 80.095H149.962C150.336 80.095 150.666 80.0217 150.952 79.875C151.238 79.721 151.462 79.5083 151.623 79.237C151.785 78.9583 151.865 78.6357 151.865 78.269C151.865 77.9023 151.785 77.587 151.623 77.323C151.462 77.0517 151.238 76.8427 150.952 76.696C150.666 76.542 150.336 76.465 149.962 76.465H147.905V80.095ZM154.148 84V78.159H154.808V84H154.148ZM154.148 77.015V75.805H154.808V77.015H154.148ZM156.619 84V75.673H157.279V84H156.619ZM159.09 84V78.159H159.75V84H159.09ZM159.09 77.015V75.805H159.75V77.015H159.09ZM161.56 84V75.673H162.22V79.336L162.055 79.292C162.187 78.9033 162.422 78.5953 162.759 78.368C163.104 78.1407 163.504 78.027 163.958 78.027C164.362 78.027 164.728 78.1187 165.058 78.302C165.388 78.4853 165.652 78.742 165.85 79.072C166.048 79.3947 166.147 79.765 166.147 80.183V84H165.487V80.37C165.487 80.018 165.414 79.7173 165.267 79.468C165.128 79.2113 164.934 79.017 164.684 78.885C164.442 78.7457 164.167 78.676 163.859 78.676C163.529 78.676 163.24 78.753 162.99 78.907C162.748 79.061 162.558 79.2737 162.418 79.545C162.286 79.8163 162.22 80.128 162.22 80.48V84H161.56ZM171.64 84.132C171.097 84.132 170.62 83.9963 170.21 83.725C169.799 83.4537 169.498 83.0833 169.308 82.614L169.88 82.35C170.063 82.7093 170.309 82.9953 170.617 83.208C170.925 83.4133 171.266 83.516 171.64 83.516C172.021 83.516 172.34 83.4243 172.597 83.241C172.861 83.0503 172.993 82.801 172.993 82.493C172.993 82.3023 172.941 82.141 172.839 82.009C172.743 81.877 172.619 81.7707 172.465 81.69C172.311 81.602 172.146 81.536 171.97 81.492L171.068 81.239C170.562 81.0997 170.188 80.8943 169.946 80.623C169.711 80.3517 169.594 80.0327 169.594 79.666C169.594 79.336 169.678 79.05 169.847 78.808C170.015 78.5587 170.243 78.368 170.529 78.236C170.815 78.0967 171.13 78.027 171.475 78.027C171.959 78.027 172.399 78.1517 172.795 78.401C173.191 78.6503 173.469 78.9877 173.631 79.413L173.037 79.688C172.883 79.358 172.666 79.1013 172.388 78.918C172.109 78.7273 171.801 78.632 171.464 78.632C171.112 78.632 170.826 78.7273 170.606 78.918C170.386 79.1013 170.276 79.336 170.276 79.622C170.276 79.8053 170.32 79.9593 170.408 80.084C170.496 80.2013 170.609 80.3003 170.749 80.381C170.895 80.4543 171.046 80.513 171.2 80.557L172.179 80.843C172.655 80.975 173.022 81.184 173.279 81.47C173.543 81.756 173.675 82.0933 173.675 82.482C173.675 82.7973 173.587 83.0797 173.411 83.329C173.235 83.5783 172.993 83.7763 172.685 83.923C172.377 84.0623 172.028 84.132 171.64 84.132ZM176.875 84.132C176.508 84.132 176.182 84.0623 175.896 83.923C175.61 83.7837 175.383 83.5893 175.214 83.34C175.045 83.0907 174.961 82.8047 174.961 82.482C174.961 82.196 175.023 81.9283 175.148 81.679C175.273 81.4297 175.474 81.217 175.753 81.041C176.032 80.8577 176.395 80.7293 176.842 80.656L179.207 80.26V80.876L177.018 81.239C176.519 81.3197 176.167 81.47 175.962 81.69C175.757 81.91 175.654 82.1667 175.654 82.46C175.654 82.7753 175.771 83.032 176.006 83.23C176.248 83.428 176.552 83.527 176.919 83.527C177.344 83.527 177.715 83.4317 178.03 83.241C178.345 83.043 178.591 82.7863 178.767 82.471C178.943 82.1483 179.031 81.7963 179.031 81.415V79.963C179.031 79.5743 178.892 79.259 178.613 79.017C178.334 78.775 177.971 78.654 177.524 78.654C177.157 78.654 176.827 78.7457 176.534 78.929C176.241 79.1123 176.017 79.3507 175.863 79.644L175.269 79.325C175.379 79.0903 175.548 78.874 175.775 78.676C176.002 78.478 176.266 78.3203 176.567 78.203C176.868 78.0857 177.187 78.027 177.524 78.027C177.949 78.027 178.323 78.1113 178.646 78.28C178.976 78.4413 179.233 78.6687 179.416 78.962C179.599 79.248 179.691 79.5817 179.691 79.963V84H179.031V82.779L179.108 82.834C179.013 83.0687 178.855 83.285 178.635 83.483C178.415 83.6737 178.155 83.8313 177.854 83.956C177.561 84.0733 177.234 84.132 176.875 84.132ZM183.524 84.066C183.04 84.066 182.666 83.9303 182.402 83.659C182.138 83.3803 182.006 82.977 182.006 82.449V78.786H180.906V78.159H181.324C181.544 78.159 181.713 78.093 181.83 77.961C181.948 77.829 182.006 77.6493 182.006 77.422V76.795H182.666V78.159H183.942V78.786H182.666V82.449C182.666 82.6103 182.688 82.768 182.732 82.922C182.784 83.076 182.879 83.2007 183.018 83.296C183.158 83.3913 183.359 83.439 183.623 83.439C183.682 83.439 183.752 83.4353 183.832 83.428C183.92 83.4207 183.99 83.4133 184.041 83.406V84C183.961 84.022 183.869 84.0367 183.766 84.044C183.664 84.0587 183.583 84.066 183.524 84.066ZM187.691 84.132C187.295 84.132 186.928 84.0403 186.591 83.857C186.261 83.6737 185.997 83.417 185.799 83.087C185.601 82.7497 185.502 82.35 185.502 81.888V78.159H186.162V81.833C186.162 82.1777 186.232 82.4747 186.371 82.724C186.518 82.966 186.712 83.153 186.954 83.285C187.203 83.417 187.482 83.483 187.79 83.483C188.127 83.483 188.417 83.406 188.659 83.252C188.908 83.098 189.099 82.8853 189.231 82.614C189.363 82.3353 189.429 82.02 189.429 81.668V78.159H190.089V84H189.429V82.812L189.594 82.867C189.462 83.2483 189.227 83.5563 188.89 83.791C188.553 84.0183 188.153 84.132 187.691 84.132ZM194.338 84V78.786H193.15V78.159H194.338V77.598C194.338 77.1873 194.419 76.839 194.58 76.553C194.749 76.267 194.976 76.0507 195.262 75.904C195.548 75.75 195.864 75.673 196.208 75.673C196.289 75.673 196.37 75.6803 196.45 75.695C196.538 75.7023 196.612 75.7133 196.67 75.728V76.322C196.612 76.3073 196.542 76.3 196.461 76.3C196.381 76.2927 196.318 76.289 196.274 76.289C195.893 76.289 195.585 76.399 195.35 76.619C195.116 76.8317 194.998 77.158 194.998 77.598V78.159H196.45V78.786H194.998V84H194.338ZM197.912 84V78.159H198.572V84H197.912ZM197.912 77.015V75.805H198.572V77.015H197.912ZM200.383 84V75.673H201.043V84H200.383ZM205.526 84.132C204.976 84.132 204.481 84 204.041 83.736C203.601 83.4647 203.253 83.098 202.996 82.636C202.74 82.1667 202.611 81.6423 202.611 81.063C202.611 80.4837 202.736 79.9667 202.985 79.512C203.235 79.05 203.572 78.687 203.997 78.423C204.423 78.159 204.899 78.027 205.427 78.027C205.831 78.027 206.194 78.1003 206.516 78.247C206.846 78.3937 207.129 78.599 207.363 78.863C207.605 79.1197 207.789 79.4167 207.913 79.754C208.045 80.084 208.111 80.4323 208.111 80.799C208.111 80.8723 208.108 80.9493 208.1 81.03C208.093 81.1107 208.082 81.195 208.067 81.283H202.996V80.678H207.693L207.396 80.909C207.44 80.4837 207.378 80.1023 207.209 79.765C207.041 79.4203 206.799 79.149 206.483 78.951C206.175 78.7457 205.823 78.643 205.427 78.643C205.031 78.643 204.668 78.7493 204.338 78.962C204.008 79.1673 203.748 79.4533 203.557 79.82C203.367 80.1793 203.279 80.5973 203.293 81.074C203.279 81.5507 203.37 81.9723 203.568 82.339C203.766 82.7057 204.038 82.9953 204.382 83.208C204.727 83.4133 205.108 83.516 205.526 83.516C205.952 83.516 206.322 83.417 206.637 83.219C206.953 83.0137 207.209 82.7423 207.407 82.405L207.968 82.702C207.836 82.9733 207.649 83.219 207.407 83.439C207.165 83.6517 206.883 83.8203 206.56 83.945C206.245 84.0697 205.9 84.132 205.526 84.132Z" fill="#637381"/>
</svg>
