<svg width="350" height="150" viewBox="0 0 350 150" fill="none" xmlns="http://www.w3.org/2000/svg">
<g clip-path="url(#clip0_2006_33532)">
<rect width="350" height="150" fill="#F4603F"/>
<path d="M353.93 98.9456L360.582 91.8219C361.427 90.9171 361.427 89.4501 360.582 88.5453L353.93 81.4216C353.085 80.5168 351.715 80.5168 350.87 81.4216L344.217 88.5453C343.372 89.4501 343.372 90.9171 344.217 91.8219L350.87 98.9456C351.715 99.8504 353.085 99.8504 353.93 98.9456Z" fill="white" fill-opacity="0.1"/>
<path d="M339.371 114.651L344.391 109.276C345.687 107.889 345.687 105.639 344.391 104.251L322.347 80.6471C321.051 79.2593 318.95 79.2593 317.654 80.6471L312.635 86.0218C311.339 87.4096 311.339 89.6596 312.635 91.0474L334.678 114.651C335.974 116.039 338.075 116.039 339.371 114.651Z" fill="white" fill-opacity="0.1"/>
<path d="M338.414 148.151L345.622 140.433C346.313 139.692 346.313 138.491 345.622 137.751L324.308 114.928C323.616 114.187 322.495 114.187 321.803 114.928L314.595 122.646C313.904 123.387 313.904 124.588 314.595 125.328L335.909 148.151C336.601 148.892 337.722 148.892 338.414 148.151Z" fill="white" fill-opacity="0.1"/>
<path d="M290.255 98.9456L296.907 91.8219C297.752 90.9171 297.752 89.4501 296.907 88.5453L290.255 81.4216C289.41 80.5168 288.04 80.5168 287.195 81.4216L280.542 88.5453C279.697 89.4501 279.697 90.9171 280.542 91.8219L287.195 98.9456C288.04 99.8504 289.41 99.8504 290.255 98.9456Z" fill="white" fill-opacity="0.2"/>
<path d="M333.033 56.6436L341.296 56.6436C342.298 56.6437 343.291 56.8552 344.216 57.2662C345.142 57.6772 345.983 58.2795 346.692 59.0387L350.969 63.5993C351.156 63.8006 351.379 63.9603 351.624 64.0693C351.869 64.1783 352.132 64.2344 352.398 64.2344C352.663 64.2344 352.926 64.1783 353.171 64.0693C353.417 63.9603 353.639 63.8006 353.827 63.5993L360.797 56.1548C360.985 55.954 361.134 55.7156 361.236 55.4531C361.338 55.1905 361.39 54.9091 361.39 54.6248C361.39 54.3405 361.338 54.0591 361.236 53.7965C361.134 53.534 360.985 53.2955 360.797 53.0948L353.831 45.6356C353.644 45.4343 353.421 45.2746 353.176 45.1656C352.931 45.0566 352.668 45.0005 352.402 45.0005C352.137 45.0005 351.874 45.0566 351.629 45.1656C351.384 45.2746 351.161 45.4343 350.974 45.6356L346.696 50.2157C345.988 50.975 345.147 51.5773 344.221 51.9882C343.295 52.3992 342.303 52.6108 341.301 52.6109L333.038 52.6109C332.036 52.6116 331.043 52.4004 330.117 51.9894C329.191 51.5783 328.35 50.9756 327.642 50.2157L323.365 45.6356C323.178 45.4343 322.955 45.2746 322.71 45.1656C322.464 45.0566 322.202 45.0005 321.936 45.0005C321.671 45.0005 321.408 45.0566 321.163 45.1656C320.917 45.2746 320.695 45.4343 320.507 45.6356L313.541 53.0948C313.353 53.2955 313.204 53.534 313.102 53.7965C313.001 54.0591 312.948 54.3405 312.948 54.6248C312.948 54.9091 313.001 55.1905 313.102 55.4531C313.204 55.7156 313.353 55.954 313.541 56.1548L320.503 63.5993C320.69 63.8006 320.913 63.9603 321.158 64.0693C321.403 64.1783 321.666 64.2344 321.932 64.2344C322.197 64.2344 322.46 64.1783 322.705 64.0693C322.95 63.9603 323.173 63.8006 323.36 63.5993L327.638 59.0192C328.347 58.2628 329.189 57.6637 330.115 57.2561C331.041 56.8484 332.032 56.6403 333.033 56.6436Z" fill="white" fill-opacity="0.2"/>
<path d="M372.433 123.722L364.171 123.722C362.148 123.722 360.207 122.863 358.775 121.332L354.498 116.752C354.31 116.55 354.088 116.391 353.842 116.282C353.597 116.173 353.334 116.117 353.069 116.117C352.804 116.117 352.541 116.173 352.295 116.282C352.05 116.391 351.828 116.55 351.64 116.752L344.674 124.211C344.486 124.412 344.337 124.65 344.235 124.913C344.133 125.175 344.081 125.457 344.081 125.741C344.081 126.025 344.133 126.307 344.235 126.569C344.337 126.832 344.486 127.07 344.674 127.271L351.64 134.73C351.828 134.931 352.05 135.091 352.295 135.2C352.541 135.309 352.804 135.365 353.069 135.365C353.334 135.365 353.597 135.309 353.842 135.2C354.088 135.091 354.31 134.931 354.498 134.73L358.775 130.15C360.207 128.619 362.148 127.76 364.171 127.76L372.433 127.76C374.456 127.761 376.397 128.62 377.829 130.15L382.106 134.73C382.294 134.931 382.516 135.091 382.762 135.2C383.007 135.309 383.27 135.365 383.535 135.365C383.801 135.365 384.064 135.309 384.309 135.2C384.554 135.091 384.777 134.931 384.964 134.73L391.93 127.271C392.118 127.07 392.267 126.832 392.369 126.569C392.471 126.307 392.523 126.025 392.523 125.741C392.523 125.457 392.471 125.175 392.369 124.913C392.267 124.65 392.118 124.412 391.93 124.211L384.964 116.752C384.777 116.55 384.554 116.391 384.309 116.282C384.064 116.173 383.801 116.117 383.535 116.117C383.27 116.117 383.007 116.173 382.762 116.282C382.516 116.391 382.294 116.55 382.106 116.752L377.829 121.332C376.397 122.862 374.456 123.721 372.433 123.722Z" fill="white" fill-opacity="0.1"/>
<path d="M307.739 128.488L307.739 119.64C307.74 117.474 308.543 115.397 309.972 113.863L314.249 109.283C314.437 109.082 314.586 108.843 314.688 108.581C314.79 108.318 314.842 108.037 314.842 107.753C314.842 107.468 314.79 107.187 314.688 106.924C314.586 106.662 314.437 106.423 314.249 106.223L307.283 98.7635C307.096 98.5622 306.873 98.4025 306.628 98.2935C306.382 98.1845 306.12 98.1284 305.854 98.1284C305.589 98.1284 305.326 98.1845 305.081 98.2935C304.835 98.4025 304.613 98.5622 304.425 98.7635L297.459 106.223C297.271 106.423 297.122 106.662 297.02 106.924C296.919 107.187 296.866 107.468 296.866 107.753C296.866 108.037 296.919 108.318 297.02 108.581C297.122 108.843 297.271 109.082 297.459 109.283L301.737 113.863C303.165 115.397 303.968 117.474 303.969 119.64L303.969 128.488C303.969 130.654 303.166 132.732 301.737 134.266L297.459 138.846C297.271 139.046 297.122 139.285 297.02 139.547C296.919 139.81 296.866 140.091 296.866 140.376C296.866 140.66 296.919 140.941 297.02 141.204C297.122 141.467 297.271 141.705 297.459 141.906L304.425 149.365C304.613 149.566 304.835 149.726 305.081 149.835C305.326 149.944 305.589 150 305.854 150C306.12 150 306.382 149.944 306.628 149.835C306.873 149.726 307.096 149.566 307.283 149.365L314.235 141.906C314.423 141.705 314.572 141.467 314.674 141.204C314.776 140.941 314.828 140.66 314.828 140.376C314.828 140.091 314.776 139.81 314.674 139.547C314.572 139.285 314.423 139.046 314.235 138.846L309.958 134.266C308.534 132.73 307.736 130.652 307.739 128.488Z" fill="white" fill-opacity="0.2"/>
<path d="M339.045 94.609L339.045 85.7616C339.045 84.6884 339.243 83.6258 339.627 82.6344C340.011 81.643 340.573 80.7423 341.282 79.9838L345.559 75.4037C345.747 75.203 345.897 74.9645 345.998 74.702C346.1 74.4395 346.152 74.158 346.152 73.8737C346.152 73.5895 346.1 73.308 345.998 73.0455C345.897 72.7829 345.747 72.5445 345.559 72.3438L338.593 64.8846C338.406 64.6833 338.183 64.5235 337.938 64.4146C337.693 64.3056 337.43 64.2495 337.165 64.2495C336.899 64.2495 336.636 64.3056 336.391 64.4146C336.146 64.5235 335.923 64.6833 335.736 64.8846L328.765 72.3438C328.388 72.7504 328.176 73.3004 328.176 73.8737C328.176 74.4471 328.388 74.9971 328.765 75.4037L333.042 79.9838C333.751 80.7423 334.314 81.643 334.698 82.6344C335.082 83.6258 335.279 84.6884 335.279 85.7616L335.279 94.609C335.279 95.6822 335.082 96.745 334.698 97.7364C334.314 98.7278 333.752 99.6284 333.042 100.387L328.765 104.967C328.388 105.374 328.176 105.924 328.176 106.497C328.176 107.07 328.388 107.62 328.765 108.027L335.736 115.486C335.923 115.687 336.146 115.847 336.391 115.956C336.636 116.065 336.899 116.121 337.165 116.121C337.43 116.121 337.693 116.065 337.938 115.956C338.183 115.847 338.406 115.687 338.593 115.486L345.559 108.027C345.747 107.826 345.897 107.588 345.998 107.325C346.1 107.063 346.152 106.781 346.152 106.497C346.152 106.213 346.1 105.931 345.998 105.669C345.897 105.406 345.747 105.168 345.559 104.967L341.282 100.387C340.573 99.6284 340.01 98.7278 339.626 97.7364C339.243 96.745 339.045 95.6822 339.045 94.609Z" fill="white" fill-opacity="0.1"/>
<path d="M348.266 108.516L356.529 108.516C358.552 108.517 360.492 109.376 361.925 110.906L366.202 115.486C366.389 115.687 366.612 115.847 366.857 115.956C367.102 116.065 367.365 116.121 367.631 116.121C367.896 116.121 368.159 116.065 368.404 115.956C368.649 115.847 368.872 115.687 369.06 115.486L376.026 108.027C376.214 107.826 376.363 107.588 376.464 107.325C376.566 107.063 376.619 106.781 376.619 106.497C376.619 106.213 376.566 105.931 376.464 105.669C376.363 105.406 376.214 105.168 376.026 104.967L369.06 97.5076C368.872 97.3064 368.649 97.1466 368.404 97.0377C368.159 96.9287 367.896 96.8726 367.631 96.8726C367.365 96.8726 367.102 96.9287 366.857 97.0377C366.612 97.1466 366.389 97.3064 366.202 97.5076L361.925 102.088C360.492 103.618 358.552 104.477 356.529 104.478L348.266 104.478C347.264 104.479 346.272 104.268 345.346 103.858C344.421 103.448 343.579 102.846 342.871 102.088L338.593 97.5076C338.406 97.3064 338.183 97.1466 337.938 97.0377C337.693 96.9287 337.43 96.8726 337.165 96.8726C336.899 96.8726 336.636 96.9287 336.391 97.0377C336.146 97.1466 335.923 97.3064 335.736 97.5076L328.765 104.967C328.388 105.374 328.176 105.924 328.176 106.497C328.176 107.07 328.388 107.62 328.765 108.027L335.736 115.486C335.923 115.687 336.146 115.847 336.391 115.956C336.636 116.065 336.899 116.121 337.165 116.121C337.43 116.121 337.693 116.065 337.938 115.956C338.183 115.847 338.406 115.687 338.593 115.486L342.871 110.906C343.579 110.148 344.421 109.546 345.346 109.136C346.272 108.726 347.264 108.515 348.266 108.516Z" fill="white" fill-opacity="0.2"/>
<path d="M262.534 104.478L254.271 104.478C252.248 104.477 250.308 103.618 248.876 102.088L244.598 97.5076C244.411 97.3064 244.188 97.1466 243.943 97.0377C243.698 96.9287 243.435 96.8726 243.17 96.8726C242.904 96.8726 242.641 96.9287 242.396 97.0377C242.151 97.1466 241.928 97.3064 241.741 97.5076L234.775 104.967C234.587 105.168 234.438 105.406 234.336 105.669C234.234 105.931 234.182 106.213 234.182 106.497C234.182 106.781 234.234 107.063 234.336 107.325C234.438 107.588 234.587 107.826 234.775 108.027L241.741 115.486C241.928 115.687 242.151 115.847 242.396 115.956C242.641 116.065 242.904 116.121 243.17 116.121C243.435 116.121 243.698 116.065 243.943 115.956C244.188 115.847 244.411 115.687 244.598 115.486L248.876 110.906C250.308 109.376 252.248 108.517 254.271 108.516L262.534 108.516C264.557 108.516 266.498 109.375 267.93 110.906L272.207 115.486C272.394 115.687 272.617 115.847 272.862 115.956C273.107 116.065 273.37 116.121 273.636 116.121C273.901 116.121 274.164 116.065 274.409 115.956C274.654 115.847 274.877 115.687 275.065 115.486L282.031 108.027C282.219 107.826 282.368 107.588 282.47 107.325C282.571 107.063 282.624 106.781 282.624 106.497C282.624 106.213 282.571 105.931 282.47 105.669C282.368 105.406 282.219 105.168 282.031 104.967L275.065 97.5076C274.877 97.3064 274.654 97.1466 274.409 97.0377C274.164 96.9287 273.901 96.8726 273.636 96.8726C273.37 96.8726 273.107 96.9287 272.862 97.0377C272.617 97.1466 272.394 97.3064 272.207 97.5076L267.93 102.088C266.498 103.618 264.557 104.478 262.534 104.478Z" fill="white" fill-opacity="0.1"/>
<path d="M292.854 70.1694L284.591 70.1694C283.589 70.1694 282.597 69.9578 281.671 69.5468C280.745 69.1358 279.904 68.5335 279.195 67.7743L274.918 63.1942C274.731 62.9929 274.508 62.8331 274.263 62.7242C274.018 62.6152 273.755 62.5591 273.489 62.5591C273.224 62.5591 272.961 62.6152 272.716 62.7242C272.471 62.8331 272.248 62.9929 272.061 63.1942L265.094 70.6534C264.716 71.0602 264.503 71.6113 264.503 72.1858C264.503 72.7603 264.716 73.3114 265.094 73.7182L272.061 81.197C272.248 81.3983 272.471 81.558 272.716 81.667C272.961 81.7759 273.224 81.832 273.489 81.832C273.755 81.832 274.018 81.7759 274.263 81.667C274.508 81.558 274.731 81.3983 274.918 81.197L279.195 76.6168C279.904 75.8576 280.745 75.2553 281.671 74.8443C282.597 74.4333 283.589 74.2218 284.591 74.2217L292.854 74.2217C293.856 74.2215 294.848 74.433 295.774 74.844C296.7 75.2549 297.541 75.8574 298.249 76.6168L302.527 81.197C302.714 81.3983 302.937 81.558 303.182 81.667C303.427 81.7759 303.69 81.832 303.956 81.832C304.221 81.832 304.484 81.7759 304.729 81.667C304.974 81.558 305.197 81.3983 305.384 81.197L312.35 73.7377C312.729 73.3309 312.942 72.7799 312.942 72.2053C312.942 71.6308 312.729 71.0798 312.35 70.6729L305.384 63.2137C305.197 63.0124 304.974 62.8527 304.729 62.7437C304.484 62.6347 304.221 62.5787 303.956 62.5787C303.69 62.5787 303.427 62.6347 303.182 62.7437C302.937 62.8527 302.714 63.0124 302.527 63.2137L298.259 67.7743C297.549 68.5349 296.707 69.138 295.779 69.549C294.852 69.9601 293.858 70.1709 292.854 70.1694Z" fill="white" fill-opacity="0.1"/>
</g>
<defs>
<clipPath id="clip0_2006_33532">
<rect width="350" height="150" fill="white"/>
</clipPath>
</defs>
</svg>
