<svg width="350" height="80" viewBox="0 0 350 80" fill="none" xmlns="http://www.w3.org/2000/svg">
<rect width="350" height="80" fill="#22C55E"/>
<g clip-path="url(#clip0_2187_18773)">
<path d="M350.139 41.0593L355.203 35.6375C355.846 34.9489 355.846 33.8324 355.203 33.1437L350.139 27.722C349.496 27.0333 348.454 27.0333 347.81 27.722L342.747 33.1437C342.104 33.8324 342.104 34.9489 342.747 35.6375L347.81 41.0593C348.454 41.7479 349.496 41.7479 350.139 41.0593Z" fill="white" fill-opacity="0.15"/>
<path d="M339.059 53.0109L342.879 48.9203C343.865 47.864 343.865 46.1516 342.879 45.0953L326.102 27.1308C325.116 26.0746 323.517 26.0746 322.53 27.1308L318.71 31.2214C317.724 32.2776 317.724 33.9901 318.71 35.0463L335.487 53.0109C336.473 54.0671 338.072 54.0671 339.059 53.0109Z" fill="white" fill-opacity="0.15"/>
<path d="M338.331 78.5082L343.816 72.634C344.343 72.0703 344.343 71.1563 343.816 70.5926L327.595 53.2226C327.068 52.6589 326.215 52.6589 325.688 53.2226L320.203 59.0968C319.676 59.6605 319.676 60.5744 320.203 61.1381L336.424 78.5081C336.951 79.0719 337.804 79.0719 338.331 78.5082Z" fill="white" fill-opacity="0.15"/>
<path d="M301.678 41.0593L306.741 35.6375C307.384 34.9489 307.384 33.8324 306.741 33.1437L301.678 27.722C301.034 27.0333 299.992 27.0333 299.349 27.722L294.285 33.1437C293.642 33.8324 293.642 34.9489 294.285 35.6375L299.349 41.0593C299.992 41.7479 301.034 41.7479 301.678 41.0593Z" fill="white" fill-opacity="0.3"/>
<path d="M334.236 8.86334L340.524 8.86334C341.287 8.86342 342.042 9.02446 342.747 9.33724C343.452 9.65003 344.092 10.1084 344.631 10.6863L347.886 14.1573C348.029 14.3105 348.199 14.432 348.385 14.515C348.572 14.5979 348.772 14.6406 348.974 14.6406C349.176 14.6406 349.376 14.5979 349.563 14.515C349.749 14.432 349.919 14.3105 350.061 14.1573L355.367 8.49132C355.51 8.33856 355.623 8.15708 355.701 7.95727C355.778 7.75745 355.818 7.54323 355.818 7.32688C355.818 7.11054 355.778 6.8963 355.701 6.69649C355.623 6.49667 355.51 6.31519 355.367 6.16244L350.065 0.485303C349.922 0.332098 349.753 0.210543 349.566 0.127604C349.379 0.0446648 349.179 0.00196782 348.977 0.00196781C348.775 0.00196781 348.575 0.0446648 348.389 0.127604C348.202 0.210543 348.033 0.332098 347.89 0.485303L344.634 3.97119C344.095 4.54903 343.455 5.00744 342.751 5.32023C342.046 5.63302 341.291 5.79405 340.528 5.79412L334.239 5.79412C333.476 5.79466 332.721 5.63391 332.016 5.32108C331.312 5.00826 330.671 4.54952 330.133 3.97119L326.877 0.485303C326.735 0.332098 326.565 0.210543 326.379 0.127604C326.192 0.0446645 325.992 0.00196752 325.79 0.00196752C325.588 0.00196751 325.388 0.0446645 325.201 0.127604C325.015 0.210543 324.845 0.332098 324.702 0.485303L319.401 6.16244C319.258 6.31519 319.144 6.49667 319.067 6.69649C318.989 6.8963 318.949 7.11054 318.949 7.32688C318.949 7.54323 318.989 7.75745 319.067 7.95727C319.144 8.15708 319.258 8.33856 319.401 8.49132L324.699 14.1573C324.842 14.3105 325.011 14.432 325.198 14.515C325.384 14.5979 325.584 14.6406 325.786 14.6406C325.988 14.6406 326.188 14.5979 326.375 14.515C326.562 14.432 326.731 14.3105 326.874 14.1573L330.129 10.6714C330.669 10.0958 331.31 9.63976 332.014 9.32951C332.719 9.01927 333.474 8.86085 334.236 8.86334Z" fill="white" fill-opacity="0.3"/>
<path d="M364.222 59.916L357.934 59.916C356.394 59.916 354.917 59.2617 353.827 58.0968L350.572 54.6109C350.429 54.4577 350.259 54.3361 350.073 54.2532C349.886 54.1702 349.686 54.1275 349.484 54.1275C349.282 54.1275 349.082 54.1702 348.895 54.2532C348.709 54.3361 348.539 54.4577 348.397 54.6109L343.095 60.288C342.952 60.4408 342.838 60.6222 342.761 60.8221C342.683 61.0219 342.644 61.2361 342.644 61.4524C342.644 61.6688 342.683 61.883 342.761 62.0828C342.838 62.2826 342.952 62.4641 343.095 62.6169L348.397 68.294C348.539 68.4472 348.709 68.5688 348.895 68.6517C349.082 68.7346 349.282 68.7773 349.484 68.7773C349.686 68.7773 349.886 68.7346 350.073 68.6517C350.259 68.5688 350.429 68.4472 350.572 68.294L353.827 64.8081C354.917 63.6432 356.394 62.9889 357.934 62.9889L364.222 62.9889C365.762 62.9897 367.239 63.6439 368.329 64.8081L371.584 68.294C371.727 68.4472 371.896 68.5688 372.083 68.6517C372.27 68.7346 372.47 68.7773 372.672 68.7773C372.874 68.7773 373.074 68.7346 373.26 68.6517C373.447 68.5688 373.616 68.4472 373.759 68.294L379.061 62.6169C379.204 62.4641 379.317 62.2826 379.395 62.0828C379.472 61.883 379.512 61.6688 379.512 61.4524C379.512 61.2361 379.472 61.0219 379.395 60.8221C379.317 60.6222 379.204 60.4408 379.061 60.288L373.759 54.6109C373.616 54.4577 373.447 54.3361 373.26 54.2532C373.074 54.1702 372.874 54.1275 372.672 54.1275C372.47 54.1275 372.27 54.1702 372.083 54.2532C371.896 54.3361 371.727 54.4577 371.584 54.6109L368.329 58.0968C367.239 59.261 365.762 59.9152 364.222 59.916Z" fill="white" fill-opacity="0.15"/>
<path d="M314.984 63.5415L314.984 56.8078C314.985 55.159 315.596 53.5778 316.683 52.4104L319.939 48.9245C320.082 48.7718 320.195 48.5903 320.273 48.3905C320.35 48.1907 320.39 47.9764 320.39 47.7601C320.39 47.5437 320.35 47.3295 320.273 47.1297C320.195 46.9299 320.082 46.7484 319.939 46.5956L314.637 40.9185C314.494 40.7653 314.325 40.6438 314.138 40.5608C313.952 40.4779 313.752 40.4352 313.55 40.4352C313.348 40.4352 313.147 40.4779 312.961 40.5608C312.774 40.6438 312.605 40.7653 312.462 40.9185L307.16 46.5956C307.017 46.7484 306.904 46.9299 306.826 47.1297C306.749 47.3295 306.709 47.5437 306.709 47.7601C306.709 47.9764 306.749 48.1907 306.826 48.3905C306.904 48.5903 307.017 48.7718 307.16 48.9245L310.416 52.4104C311.503 53.5778 312.114 55.159 312.115 56.8078L312.115 63.5415C312.115 65.1904 311.504 66.7719 310.416 67.9388L307.16 71.4247C307.017 71.5775 306.904 71.759 306.826 71.9588C306.749 72.1586 306.709 72.3728 306.709 72.5892C306.709 72.8055 306.749 73.0197 306.826 73.2195C306.904 73.4194 307.017 73.6008 307.16 73.7536L312.462 79.4307C312.605 79.5839 312.774 79.7055 312.961 79.7884C313.147 79.8714 313.348 79.9141 313.55 79.9141C313.752 79.9141 313.952 79.8714 314.138 79.7884C314.325 79.7055 314.494 79.5839 314.637 79.4307L319.928 73.7536C320.071 73.6008 320.185 73.4194 320.262 73.2195C320.34 73.0197 320.38 72.8055 320.38 72.5892C320.38 72.3728 320.34 72.1586 320.262 71.9588C320.185 71.759 320.071 71.5775 319.928 71.4247L316.673 67.9388C315.589 66.7701 314.982 65.1888 314.984 63.5415Z" fill="white" fill-opacity="0.3"/>
<path d="M338.811 37.7563L338.811 31.0226C338.811 30.2058 338.961 29.3971 339.253 28.6425C339.545 27.888 339.973 27.2025 340.513 26.6253L343.769 23.1394C343.912 22.9866 344.025 22.8051 344.103 22.6053C344.18 22.4055 344.22 22.1913 344.22 21.9749C344.22 21.7586 344.18 21.5444 344.103 21.3445C344.025 21.1447 343.912 20.9632 343.769 20.8105L338.467 15.1334C338.324 14.9802 338.155 14.8586 337.968 14.7757C337.781 14.6927 337.581 14.65 337.379 14.65C337.177 14.65 336.977 14.6927 336.791 14.7757C336.604 14.8586 336.435 14.9802 336.292 15.1334L330.987 20.8105C330.699 21.12 330.538 21.5386 330.538 21.9749C330.538 22.4113 330.699 22.8299 330.987 23.1394L334.242 26.6253C334.782 27.2025 335.21 27.888 335.502 28.6425C335.794 29.3971 335.944 30.2058 335.944 31.0226L335.944 37.7563C335.945 38.5731 335.794 39.3819 335.502 40.1365C335.21 40.891 334.782 41.5765 334.242 42.1537L330.987 45.6396C330.699 45.949 330.538 46.3677 330.538 46.804C330.538 47.2403 330.699 47.659 330.987 47.9685L336.292 53.6456C336.435 53.7988 336.604 53.9203 336.791 54.0033C336.977 54.0862 337.177 54.1289 337.379 54.1289C337.581 54.1289 337.781 54.0862 337.968 54.0033C338.155 53.9203 338.324 53.7988 338.467 53.6456L343.769 47.9685C343.912 47.8157 344.025 47.6342 344.103 47.4344C344.18 47.2346 344.22 47.0204 344.22 46.804C344.22 46.5877 344.18 46.3734 344.103 46.1736C344.025 45.9738 343.912 45.7923 343.769 45.6396L340.513 42.1537C339.973 41.5765 339.545 40.891 339.253 40.1365C338.961 39.3819 338.811 38.5731 338.811 37.7563Z" fill="white" fill-opacity="0.15"/>
<path d="M345.829 48.3405L352.117 48.3405C353.657 48.3413 355.134 48.9954 356.224 50.1597L359.479 53.6456C359.622 53.7988 359.791 53.9203 359.978 54.0033C360.165 54.0862 360.365 54.1289 360.567 54.1289C360.769 54.1289 360.969 54.0862 361.155 54.0033C361.342 53.9203 361.512 53.7988 361.654 53.6456L366.956 47.9684C367.099 47.8157 367.213 47.6342 367.29 47.4344C367.368 47.2346 367.407 47.0204 367.407 46.804C367.407 46.5877 367.368 46.3734 367.29 46.1736C367.213 45.9738 367.099 45.7923 366.956 45.6396L361.654 39.9624C361.512 39.8092 361.342 39.6877 361.155 39.6047C360.969 39.5218 360.769 39.4791 360.567 39.4791C360.365 39.4791 360.165 39.5218 359.978 39.6047C359.791 39.6877 359.622 39.8092 359.479 39.9624L356.224 43.4483C355.134 44.6126 353.657 45.2667 352.117 45.2675L345.829 45.2675C345.066 45.2679 344.311 45.1075 343.606 44.7954C342.902 44.4832 342.262 44.0255 341.722 43.4483L338.467 39.9624C338.324 39.8092 338.155 39.6877 337.968 39.6047C337.781 39.5218 337.581 39.4791 337.379 39.4791C337.177 39.4791 336.977 39.5218 336.791 39.6047C336.604 39.6877 336.435 39.8092 336.292 39.9624L330.987 45.6396C330.699 45.949 330.538 46.3677 330.538 46.804C330.538 47.2403 330.699 47.659 330.987 47.9684L336.292 53.6456C336.435 53.7988 336.604 53.9203 336.791 54.0033C336.977 54.0862 337.177 54.1289 337.379 54.1289C337.581 54.1289 337.781 54.0862 337.968 54.0033C338.155 53.9203 338.324 53.7988 338.467 53.6456L341.722 50.1597C342.262 49.5825 342.902 49.1248 343.606 48.8127C344.311 48.5005 345.066 48.3401 345.829 48.3405Z" fill="white" fill-opacity="0.3"/>
<path d="M280.579 45.2675L274.29 45.2675C272.75 45.2667 271.274 44.6126 270.183 43.4483L266.928 39.9624C266.785 39.8092 266.616 39.6877 266.429 39.6047C266.243 39.5218 266.043 39.4791 265.841 39.4791C265.639 39.4791 265.439 39.5218 265.252 39.6047C265.065 39.6877 264.896 39.8092 264.753 39.9624L259.451 45.6396C259.308 45.7923 259.195 45.9738 259.117 46.1736C259.04 46.3734 259 46.5877 259 46.804C259 47.0203 259.04 47.2346 259.117 47.4344C259.195 47.6342 259.308 47.8157 259.451 47.9684L264.753 53.6456C264.896 53.7988 265.065 53.9203 265.252 54.0033C265.439 54.0862 265.639 54.1289 265.841 54.1289C266.043 54.1289 266.243 54.0862 266.429 54.0033C266.616 53.9203 266.785 53.7988 266.928 53.6456L270.183 50.1597C271.274 48.9954 272.75 48.3413 274.29 48.3405L280.579 48.3405C282.118 48.3405 283.595 48.9947 284.685 50.1597L287.941 53.6456C288.083 53.7988 288.253 53.9203 288.439 54.0033C288.626 54.0862 288.826 54.1289 289.028 54.1289C289.23 54.1289 289.43 54.0862 289.617 54.0033C289.803 53.9203 289.973 53.7988 290.116 53.6456L295.417 47.9684C295.56 47.8157 295.674 47.6342 295.751 47.4344C295.829 47.2346 295.869 47.0204 295.869 46.804C295.869 46.5877 295.829 46.3734 295.751 46.1736C295.674 45.9738 295.56 45.7923 295.417 45.6396L290.116 39.9624C289.973 39.8092 289.803 39.6877 289.617 39.6047C289.43 39.5218 289.23 39.4791 289.028 39.4791C288.826 39.4791 288.626 39.5218 288.439 39.6047C288.253 39.6877 288.083 39.8092 287.941 39.9624L284.685 43.4483C283.595 44.6133 282.118 45.2676 280.579 45.2675Z" fill="white" fill-opacity="0.15"/>
<path d="M303.655 19.155L297.366 19.155C296.603 19.1549 295.848 18.9939 295.143 18.6811C294.439 18.3683 293.799 17.9099 293.259 17.3321L290.004 13.8462C289.861 13.693 289.692 13.5714 289.505 13.4885C289.319 13.4055 289.119 13.3628 288.917 13.3628C288.715 13.3628 288.515 13.4055 288.328 13.4885C288.141 13.5714 287.972 13.693 287.829 13.8462L282.527 19.5233C282.239 19.8329 282.077 20.2523 282.077 20.6896C282.077 21.1269 282.239 21.5463 282.527 21.8559L287.829 27.5479C287.972 27.7011 288.141 27.8227 288.328 27.9056C288.515 27.9886 288.715 28.0313 288.917 28.0313C289.119 28.0313 289.319 27.9886 289.505 27.9056C289.692 27.8227 289.861 27.7011 290.004 27.5479L293.259 24.062C293.799 23.4842 294.439 23.0258 295.143 22.713C295.848 22.4002 296.603 22.2392 297.366 22.2391L303.655 22.2391C304.417 22.239 305.173 22.3999 305.877 22.7127C306.582 23.0255 307.222 23.484 307.761 24.062L311.017 27.5479C311.159 27.7011 311.329 27.8227 311.515 27.9056C311.702 27.9886 311.902 28.0313 312.104 28.0313C312.306 28.0313 312.506 27.9886 312.693 27.9056C312.879 27.8227 313.049 27.7011 313.192 27.5479L318.493 21.8708C318.782 21.5611 318.944 21.1417 318.944 20.7045C318.944 20.2672 318.782 19.8478 318.493 19.5382L313.192 13.861C313.049 13.7078 312.879 13.5863 312.693 13.5033C312.506 13.4204 312.306 13.3777 312.104 13.3777C311.902 13.3777 311.702 13.4204 311.515 13.5033C311.329 13.5863 311.159 13.7078 311.017 13.861L307.768 17.3321C307.228 17.911 306.587 18.37 305.881 18.6828C305.175 18.9956 304.419 19.1561 303.655 19.155Z" fill="white" fill-opacity="0.15"/>
</g>
<defs>
<clipPath id="clip0_2187_18773">
<rect width="121" height="80" fill="white" transform="translate(229)"/>
</clipPath>
</defs>
</svg>
