<svg width="350" height="90" viewBox="0 0 350 90" fill="none" xmlns="http://www.w3.org/2000/svg">
<rect width="350" height="90" fill="#F4603F"/>
<g clip-path="url(#clip0_2189_18354)">
<path d="M351.74 59.6382L356.038 55.0363C357.147 53.848 357.147 51.9215 356.038 50.7332L337.164 30.5231C336.054 29.3349 334.255 29.3349 333.145 30.5231L328.847 35.1251C327.738 36.3133 327.738 38.2399 328.847 39.4281L347.721 59.6382C348.831 60.8265 350.63 60.8265 351.74 59.6382Z" fill="white" fill-opacity="0.1"/>
<path d="M350.92 88.3212L357.092 81.7127C357.684 81.0785 357.684 80.0504 357.092 79.4162L338.842 59.8749C338.25 59.2407 337.29 59.2407 336.698 59.8749L330.526 66.4834C329.934 67.1175 329.934 68.1457 330.526 68.7799L348.775 88.3212C349.368 88.9553 350.328 88.9554 350.92 88.3212Z" fill="white" fill-opacity="0.1"/>
<path d="M309.685 46.1917L315.381 40.0922C316.105 39.3175 316.105 38.0614 315.381 37.2867L309.685 31.1872C308.962 30.4125 307.789 30.4125 307.065 31.1872L301.369 37.2867C300.645 38.0614 300.645 39.3175 301.369 40.0922L307.065 46.1917C307.789 46.9664 308.962 46.9664 309.685 46.1917Z" fill="white" fill-opacity="0.1"/>
<path d="M346.313 9.96931L353.387 9.96931C354.245 9.96939 355.095 10.1506 355.888 10.5024C356.681 10.8543 357.401 11.3701 358.007 12.0201L361.67 15.925C361.83 16.0974 362.021 16.2341 362.231 16.3274C362.441 16.4207 362.666 16.4688 362.893 16.4688C363.12 16.4688 363.345 16.4207 363.555 16.3274C363.765 16.2341 363.956 16.0974 364.116 15.925L370.085 9.55078C370.246 9.37893 370.373 9.17477 370.461 8.94997C370.548 8.72518 370.593 8.48418 370.593 8.24079C370.593 7.9974 370.548 7.75639 370.461 7.53159C370.373 7.3068 370.246 7.10264 370.085 6.93079L364.12 0.544012C363.96 0.371657 363.769 0.234906 363.559 0.1416C363.349 0.0482945 363.124 0.000259834 362.897 0.000259831C362.67 0.000259828 362.444 0.0482945 362.235 0.1416C362.025 0.234906 361.834 0.371657 361.673 0.544012L358.011 4.46564C357.405 5.1157 356.684 5.63142 355.892 5.98331C355.099 6.33519 354.249 6.51635 353.391 6.51643L346.317 6.51643C345.458 6.51704 344.608 6.33619 343.816 5.98427C343.023 5.63234 342.303 5.11626 341.697 4.46564L338.034 0.544011C337.874 0.371657 337.683 0.234905 337.473 0.1416C337.263 0.0482942 337.038 0.000259501 336.811 0.000259498C336.584 0.000259495 336.359 0.0482942 336.149 0.1416C335.939 0.234905 335.748 0.371657 335.588 0.544011L329.623 6.93079C329.462 7.10264 329.334 7.3068 329.247 7.53159C329.16 7.75639 329.115 7.9974 329.115 8.24079C329.115 8.48418 329.16 8.72518 329.247 8.94997C329.334 9.17477 329.462 9.37893 329.623 9.55078L335.584 15.925C335.744 16.0974 335.935 16.2341 336.145 16.3274C336.355 16.4207 336.58 16.4688 336.807 16.4688C337.034 16.4688 337.259 16.4207 337.469 16.3274C337.679 16.2341 337.87 16.0974 338.03 15.925L341.693 12.0034C342.3 11.3558 343.021 10.8428 343.814 10.4937C344.606 10.1447 345.456 9.96651 346.313 9.96931Z" fill="white" fill-opacity="0.1"/>
<path d="M324.656 71.4851L324.656 63.9097C324.656 62.0549 325.344 60.276 326.567 58.9627L330.229 55.0411C330.39 54.8692 330.518 54.665 330.605 54.4403C330.692 54.2155 330.737 53.9745 330.737 53.7311C330.737 53.4877 330.692 53.2467 330.605 53.0219C330.518 52.7971 330.39 52.5929 330.229 52.4211L324.265 46.0343C324.104 45.862 323.914 45.7252 323.704 45.6319C323.494 45.5386 323.269 45.4906 323.041 45.4906C322.814 45.4906 322.589 45.5386 322.379 45.6319C322.169 45.7252 321.979 45.862 321.818 46.0343L315.854 52.4211C315.693 52.5929 315.565 52.7971 315.478 53.0219C315.391 53.2467 315.346 53.4877 315.346 53.7311C315.346 53.9745 315.391 54.2155 315.478 54.4403C315.565 54.665 315.693 54.8692 315.854 55.0411L319.516 58.9627C320.739 60.276 321.426 62.0549 321.427 63.9097L321.427 71.4851C321.427 73.3401 320.74 75.1193 319.516 76.4322L315.854 80.3538C315.693 80.5256 315.565 80.7298 315.478 80.9546C315.391 81.1794 315.346 81.4204 315.346 81.6638C315.346 81.9072 315.391 82.1482 315.478 82.373C315.565 82.5978 315.693 82.8019 315.854 82.9738L321.818 89.3606C321.979 89.5329 322.169 89.6697 322.379 89.763C322.589 89.8563 322.814 89.9043 323.041 89.9043C323.269 89.9043 323.494 89.8563 323.704 89.763C323.914 89.6697 324.104 89.5329 324.265 89.3606L330.218 82.9738C330.379 82.8019 330.506 82.5978 330.593 82.373C330.681 82.1482 330.725 81.9072 330.725 81.6638C330.725 81.4204 330.681 81.1794 330.593 80.9546C330.506 80.7298 330.379 80.5256 330.218 80.3538L326.555 76.4322C325.336 75.1173 324.653 73.3383 324.656 71.4851Z" fill="white" fill-opacity="0.1"/>
<path d="M351.461 42.4773L351.461 34.9019C351.461 33.983 351.63 33.0732 351.959 32.2243C352.288 31.3755 352.769 30.6043 353.376 29.9549L357.039 26.0333C357.2 25.8614 357.327 25.6572 357.414 25.4324C357.501 25.2076 357.546 24.9666 357.546 24.7233C357.546 24.4799 357.501 24.2389 357.414 24.0141C357.327 23.7893 357.2 23.5851 357.039 23.4133L351.074 17.0265C350.914 16.8541 350.723 16.7174 350.513 16.6241C350.303 16.5308 350.078 16.4827 349.851 16.4827C349.623 16.4827 349.398 16.5308 349.188 16.6241C348.978 16.7174 348.788 16.8541 348.627 17.0265L342.659 23.4133C342.336 23.7614 342.154 24.2324 342.154 24.7233C342.154 25.2141 342.336 25.6851 342.659 26.0333L346.321 29.9549C346.928 30.6043 347.41 31.3755 347.739 32.2243C348.067 33.0732 348.236 33.983 348.236 34.9019L348.236 42.4773C348.237 43.3962 348.067 44.3062 347.739 45.155C347.41 46.0039 346.928 46.775 346.321 47.4243L342.659 51.346C342.336 51.6941 342.154 52.1651 342.154 52.656C342.154 53.1469 342.336 53.6178 342.659 53.966L348.627 60.3527C348.788 60.5251 348.978 60.6618 349.188 60.7551C349.398 60.8485 349.623 60.8965 349.851 60.8965C350.078 60.8965 350.303 60.8485 350.513 60.7551C350.723 60.6618 350.914 60.5251 351.074 60.3527L357.039 53.966C357.2 53.7941 357.327 53.5899 357.414 53.3652C357.501 53.1404 357.546 52.8994 357.546 52.656C357.546 52.4126 357.501 52.1716 357.414 51.9468C357.327 51.722 357.2 51.5178 357.039 51.346L353.376 47.4243C352.769 46.775 352.287 46.0039 351.959 45.155C351.63 44.3062 351.461 43.3962 351.461 42.4773Z" fill="white" fill-opacity="0.1"/>
<path d="M359.356 54.3845L366.431 54.3845C368.163 54.3854 369.824 55.1213 371.051 56.4311L374.713 60.3527C374.874 60.5251 375.064 60.6618 375.274 60.7551C375.484 60.8485 375.709 60.8965 375.937 60.8965C376.164 60.8965 376.389 60.8485 376.599 60.7551C376.809 60.6618 376.999 60.5251 377.16 60.3527L383.124 53.966C383.285 53.7941 383.413 53.5899 383.5 53.3652C383.587 53.1404 383.632 52.8994 383.632 52.656C383.632 52.4126 383.587 52.1716 383.5 51.9468C383.413 51.722 383.285 51.5178 383.124 51.346L377.16 44.9592C376.999 44.7868 376.809 44.6501 376.599 44.5568C376.389 44.4635 376.164 44.4155 375.937 44.4155C375.709 44.4155 375.484 44.4635 375.274 44.5568C375.064 44.6501 374.874 44.7868 374.713 44.9592L371.051 48.8808C369.824 50.1906 368.163 50.9265 366.431 50.9274L359.356 50.9274C358.498 50.9279 357.649 50.7474 356.856 50.3962C356.064 50.0451 355.343 49.5301 354.736 48.8808L351.074 44.9592C350.914 44.7868 350.723 44.6501 350.513 44.5568C350.303 44.4635 350.078 44.4155 349.851 44.4155C349.623 44.4155 349.398 44.4635 349.188 44.5568C348.978 44.6501 348.788 44.7868 348.627 44.9592L342.659 51.346C342.336 51.6941 342.154 52.1651 342.154 52.656C342.154 53.1469 342.336 53.6178 342.659 53.966L348.627 60.3527C348.788 60.5251 348.978 60.6618 349.188 60.7551C349.398 60.8485 349.623 60.8965 349.851 60.8965C350.078 60.8965 350.303 60.8485 350.513 60.7551C350.723 60.6618 350.914 60.5251 351.074 60.3527L354.736 56.4311C355.343 55.7818 356.064 55.2669 356.856 54.9157C357.649 54.5645 358.498 54.384 359.356 54.3845Z" fill="white" fill-opacity="0.1"/>
<path d="M285.95 50.9274L278.875 50.9274C277.143 50.9265 275.482 50.1906 274.255 48.8808L270.593 44.9592C270.432 44.7868 270.242 44.6501 270.032 44.5568C269.822 44.4635 269.597 44.4155 269.37 44.4155C269.142 44.4155 268.917 44.4635 268.707 44.5568C268.497 44.6501 268.307 44.7868 268.146 44.9592L262.182 51.346C262.021 51.5178 261.893 51.722 261.806 51.9468C261.719 52.1716 261.674 52.4126 261.674 52.656C261.674 52.8994 261.719 53.1404 261.806 53.3652C261.893 53.5899 262.021 53.7941 262.182 53.966L268.146 60.3527C268.307 60.5251 268.497 60.6618 268.707 60.7551C268.917 60.8485 269.142 60.8965 269.37 60.8965C269.597 60.8965 269.822 60.8485 270.032 60.7551C270.242 60.6618 270.432 60.5251 270.593 60.3527L274.255 56.4311C275.482 55.1213 277.143 54.3854 278.875 54.3845L285.95 54.3845C287.682 54.3845 289.344 55.1205 290.57 56.4311L294.232 60.3527C294.393 60.5251 294.583 60.6618 294.793 60.7551C295.003 60.8485 295.228 60.8965 295.455 60.8965C295.683 60.8965 295.908 60.8485 296.118 60.7551C296.328 60.6618 296.518 60.5251 296.679 60.3527L302.643 53.966C302.804 53.7941 302.932 53.5899 303.019 53.3652C303.106 53.1404 303.151 52.8994 303.151 52.656C303.151 52.4126 303.106 52.1716 303.019 51.9468C302.932 51.722 302.804 51.5178 302.643 51.346L296.679 44.9592C296.518 44.7868 296.328 44.6501 296.118 44.5568C295.908 44.4635 295.683 44.4155 295.455 44.4155C295.228 44.4155 295.003 44.4635 294.793 44.5568C294.583 44.6501 294.393 44.7868 294.232 44.9592L290.57 48.8808C289.344 50.1914 287.682 50.9275 285.95 50.9274Z" fill="white" fill-opacity="0.1"/>
<path d="M311.911 21.5513L304.837 21.5513C303.979 21.5512 303.129 21.3701 302.336 21.0182C301.544 20.6663 300.823 20.1506 300.217 19.5005L296.555 15.5789C296.394 15.4065 296.203 15.2698 295.993 15.1765C295.783 15.0832 295.558 15.0351 295.331 15.0351C295.104 15.0351 294.879 15.0832 294.669 15.1765C294.459 15.2698 294.268 15.4065 294.108 15.5789L288.143 21.9657C287.819 22.314 287.637 22.7858 287.637 23.2778C287.637 23.7697 287.819 24.2415 288.143 24.5899L294.108 30.9934C294.268 31.1657 294.459 31.3025 294.669 31.3958C294.879 31.4891 295.104 31.5371 295.331 31.5371C295.558 31.5371 295.783 31.4891 295.993 31.3958C296.203 31.3025 296.394 31.1657 296.555 30.9934L300.217 27.0717C300.823 26.4217 301.544 25.9059 302.336 25.5541C303.129 25.2022 303.979 25.021 304.837 25.0209L311.911 25.0209C312.77 25.0208 313.619 25.2018 314.412 25.5537C315.205 25.9056 315.925 26.4215 316.531 27.0717L320.194 30.9934C320.354 31.1657 320.545 31.3025 320.755 31.3958C320.965 31.4891 321.19 31.5371 321.417 31.5371C321.644 31.5371 321.869 31.4891 322.079 31.3958C322.289 31.3025 322.48 31.1657 322.64 30.9934L328.605 24.6066C328.929 24.2582 329.111 23.7864 329.111 23.2945C329.111 22.8026 328.929 22.3307 328.605 21.9824L322.64 15.5956C322.48 15.4233 322.289 15.2865 322.079 15.1932C321.869 15.0999 321.644 15.0519 321.417 15.0519C321.19 15.0519 320.965 15.0999 320.755 15.1932C320.545 15.2865 320.354 15.4233 320.194 15.5956L316.539 19.5005C315.932 20.1518 315.21 20.6682 314.416 21.0201C313.622 21.372 312.771 21.5526 311.911 21.5513Z" fill="white" fill-opacity="0.1"/>
<path d="M328.562 33.2166C327.068 28.1533 322.845 23.9299 317.782 22.4366C313.932 21.3166 311.272 21.4099 309.428 22.7866C307.212 24.4433 306.955 27.4299 306.955 29.5533V35.3633C306.955 41.1033 309.568 44.0199 314.702 44.0199H321.398C323.498 44.0199 326.508 43.7633 328.165 41.5466C329.588 39.7266 329.705 37.0666 328.562 33.2166Z" fill="white"/>
<path d="M322.123 48.1727C321.516 47.4727 320.629 47.076 319.719 47.076H311.366C307.259 47.076 303.923 43.7394 303.923 39.6327V31.2794C303.923 30.3694 303.526 29.4827 302.826 28.876C302.149 28.2694 301.216 27.9894 300.329 28.106C294.846 28.806 289.806 31.816 286.516 36.3427C283.203 40.8927 281.989 46.446 283.039 51.9994C284.556 60.026 290.973 66.4427 299.023 67.9594C300.306 68.216 301.589 68.3327 302.873 68.3327C307.096 68.3327 311.179 67.026 314.656 64.4827C319.183 61.1927 322.193 56.1527 322.893 50.6694C323.009 49.7594 322.729 48.8494 322.123 48.1727Z" fill="#FFB3A2"/>
</g>
<defs>
<clipPath id="clip0_2189_18354">
<rect width="168.75" height="90" fill="white" transform="translate(181.25)"/>
</clipPath>
</defs>
</svg>
