<svg width="106" height="76" viewBox="0 0 106 76" fill="none" xmlns="http://www.w3.org/2000/svg">
<path d="M61.2055 66.0072L57.1179 61.9043C55.7459 60.5326 54.975 58.672 54.9748 56.7318V48.805C54.9748 46.8637 55.7457 45.0019 57.1179 43.6287L61.2207 39.5259C61.5787 39.1009 61.7751 38.5631 61.7751 38.0074C61.7751 37.4517 61.5787 36.9138 61.2207 36.4888L57.1179 32.386C55.7459 31.0142 54.975 29.1536 54.9748 27.2135V19.2867C54.9748 17.3454 55.7457 15.4836 57.1179 14.1104L61.2207 10.0075C61.4015 9.82821 61.545 9.61486 61.6429 9.37981C61.7408 9.14476 61.7912 8.89264 61.7912 8.63802C61.7912 8.38339 61.7408 8.13128 61.6429 7.89622C61.545 7.66117 61.4015 7.44783 61.2207 7.26849L54.5393 0.583221C54.1754 0.219772 53.6822 0.015625 53.1679 0.015625C52.6536 0.015625 52.1603 0.219772 51.7964 0.583221L45.115 7.26849C44.7518 7.63172 44.5477 8.12435 44.5477 8.63802C44.5477 9.15169 44.7518 9.64432 45.115 10.0075L49.2178 14.1104C50.59 15.4836 51.3609 17.3454 51.3609 19.2867V27.2135C51.3607 29.1536 50.5898 31.0142 49.2178 32.386L45.115 36.4888C44.757 36.9138 44.5606 37.4517 44.5606 38.0074C44.5606 38.5631 44.757 39.1009 45.115 39.5259L49.2178 43.6287C50.59 45.0019 51.3609 46.8637 51.3609 48.805V56.7318C51.3607 58.672 50.5898 60.5326 49.2178 61.9043L47.6898 63.4324C46.3136 64.8044 44.449 65.5738 42.5058 65.5717H34.579C32.6379 65.5708 30.7763 64.8001 29.4027 63.4286L27.8746 61.9005C27.1946 61.2218 26.6553 60.4155 26.2875 59.5279C25.9197 58.6403 25.7308 57.6888 25.7315 56.728V48.805C25.7307 47.8437 25.9196 46.8916 26.2873 46.0033C26.6551 45.1151 27.1945 44.3082 27.8746 43.6287L31.9775 39.5259C32.0955 39.4034 32.1969 39.266 32.2793 39.1171L45.7568 25.6396C46.0335 25.3642 46.2531 25.0367 46.403 24.6762C46.5528 24.3156 46.63 23.929 46.63 23.5385C46.63 23.1481 46.5528 22.7614 46.403 22.4009C46.2531 22.0403 46.0335 21.7129 45.7568 21.4374L40.6301 16.3108C40.3547 16.034 40.0273 15.8144 39.6667 15.6646C39.3061 15.5147 38.9195 15.4376 38.529 15.4376C38.1386 15.4376 37.7519 15.5147 37.3914 15.6646C37.0308 15.8144 36.7034 16.034 36.4279 16.3108L22.9504 29.7883C22.8008 29.8693 22.6632 29.9709 22.5417 30.0901L15.8602 36.7868C15.497 37.15 15.293 37.6427 15.293 38.1563C15.293 38.67 15.497 39.1627 15.8602 39.5259L16.6243 40.2899L19.9478 43.6134C20.6285 44.2927 21.1684 45.0995 21.5368 45.9878C21.9053 46.876 22.0948 47.8282 22.0947 48.7897V56.7166C22.0947 57.6776 21.9051 58.6292 21.5367 59.5168C21.1683 60.4043 20.6283 61.2105 19.9478 61.8891L15.8602 66.0072C15.5886 66.2813 15.4038 66.6294 15.3292 67.0081C15.2834 67.253 15.2834 67.5043 15.3292 67.7492C15.403 68.1281 15.5878 68.4765 15.8602 68.7501L22.5455 75.4315C22.8691 75.7553 23.2974 75.9534 23.7537 75.9905C24.21 76.0276 24.6646 75.9012 25.0363 75.634C25.1249 75.574 25.208 75.5063 25.2846 75.4315L29.3874 71.3287C30.0694 70.6477 30.879 70.1079 31.7698 69.7402C32.6607 69.3725 33.6152 69.184 34.579 69.1855H42.5058C44.4469 69.1864 46.3085 69.9572 47.6821 71.3287L51.7697 75.4315C52.1336 75.795 52.6268 75.9991 53.1411 75.9991C53.6554 75.9991 54.1487 75.795 54.5126 75.4315L61.194 68.7501C61.4696 68.4783 61.6561 68.1293 61.7288 67.7492C61.7747 67.5043 61.7747 67.253 61.7288 67.0081C61.6577 66.6299 61.4755 66.2814 61.2055 66.0072Z" fill="white"/>
<path d="M66.2913 15.3962L59.9109 21.7766C59.0993 22.5882 59.0993 23.904 59.9109 24.7156L66.2913 31.0959C67.1028 31.9075 68.4187 31.9075 69.2302 31.0959L75.6106 24.7156C76.4222 23.904 76.4222 22.5882 75.6106 21.7766L69.2302 15.3962C68.4187 14.5847 67.1028 14.5847 66.2913 15.3962Z" fill="white"/>
<path d="M104.195 50.3725L84.559 30.7369C84.3476 30.5249 84.1055 30.3459 83.8408 30.2059L83.7377 30.1028C83.3738 29.7393 82.8805 29.5352 82.3662 29.5352C81.8519 29.5352 81.3587 29.7393 80.9948 30.1028L80.3607 30.7369L75.2416 35.8559L74.2981 36.788C73.9349 37.1512 73.7308 37.6439 73.7308 38.1576C73.7308 38.6712 73.9349 39.1639 74.2981 39.5271L78.4009 43.6299C79.7731 45.0031 80.544 46.8649 80.544 48.8062V56.733C80.5438 58.6732 79.7729 60.5338 78.4009 61.9055L74.2981 66.0084C73.9346 66.3723 73.7305 66.8655 73.7305 67.3798C73.7305 67.8941 73.9346 68.3874 74.2981 68.7513L80.9795 75.4327C81.3434 75.7962 81.8367 76.0003 82.351 76.0003C82.8652 76.0003 83.3585 75.7962 83.7224 75.4327L90.4038 68.7513C90.7673 68.3874 90.9714 67.8941 90.9714 67.3798C90.9714 66.8655 90.7673 66.3723 90.4038 66.0084L86.3163 61.9055C84.9443 60.5338 84.1734 58.6732 84.1732 56.733V48.9858L94.8696 59.6822C95.1453 59.9585 95.4728 60.1777 95.8333 60.3273C96.1939 60.4768 96.5804 60.5538 96.9707 60.5538C97.361 60.5538 97.7475 60.4768 98.108 60.3273C98.4686 60.1777 98.7961 59.9585 99.0718 59.6822L104.187 54.567C104.744 54.0115 105.057 53.2578 105.059 52.4713C105.06 51.6849 104.749 50.93 104.195 50.3725Z" fill="white"/>
<path d="M7.84204 44.9138L1.46167 51.2942C0.650098 52.1058 0.650098 53.4216 1.46167 54.2332L7.84204 60.6135C8.65362 61.4251 9.96944 61.4251 10.781 60.6135L17.1614 54.2332C17.973 53.4216 17.973 52.1058 17.1614 51.2942L10.781 44.9138C9.96944 44.1022 8.65362 44.1022 7.84204 44.9138Z" fill="white"/>
<path d="M66.2913 44.9158L59.9109 51.2961C59.0993 52.1077 59.0993 53.4235 59.9109 54.2351L66.2913 60.6155C67.1028 61.4271 68.4187 61.4271 69.2302 60.6155L75.6106 54.2351C76.4222 53.4235 76.4222 52.1077 75.6106 51.2961L69.2302 44.9158C68.4187 44.1042 67.1028 44.1042 66.2913 44.9158Z" fill="white"/>
<path d="M36.7678 44.9158L30.3874 51.2961C29.5759 52.1077 29.5759 53.4235 30.3875 54.2351L36.7678 60.6155C37.5794 61.4271 38.8952 61.4271 39.7068 60.6155L46.0872 54.2351C46.8987 53.4235 46.8987 52.1077 46.0872 51.2961L39.7068 44.9158C38.8952 44.1042 37.5794 44.1042 36.7678 44.9158Z" fill="white"/>
</svg>
