<svg width="48" height="48" viewBox="0 0 48 48" fill="none" xmlns="http://www.w3.org/2000/svg">
<path d="M15.9455 3.19239V3.19242V5.50233C15.9455 6.7577 16.9664 7.77848 18.2217 7.77848H29.7734C31.0288 7.77848 32.0496 6.75768 32.0496 5.50233V3.19242C32.0496 1.93706 31.0287 0.916174 29.7733 0.916174H18.2217C16.9663 0.916174 15.9456 1.93708 15.9455 3.19239ZM17.8514 3.19242C17.8514 2.98849 18.0178 2.8221 18.2217 2.8221H29.7733C29.9773 2.8221 30.1436 2.98843 30.1436 3.19242V5.50233C30.1436 5.70614 29.9773 5.87256 29.7733 5.87256H18.2217C18.0177 5.87256 17.8514 5.7062 17.8514 5.50233V3.19242Z" fill="#637381" stroke="#637381" stroke-width="0.569996"/>
<path d="M9.79215 47.0842H38.212C39.9649 47.0842 41.3907 45.6585 41.3907 43.9054V6.57136C41.3907 4.81841 39.965 3.39274 38.212 3.39274H34.2091C33.6828 3.39274 33.2561 3.81929 33.2561 4.3457C33.2561 4.87211 33.6828 5.29866 34.2091 5.29866H38.212C38.9135 5.29866 39.4848 5.86979 39.4848 6.57136V43.9054C39.4848 44.6069 38.9136 45.1782 38.212 45.1782H9.79215C9.09062 45.1782 8.51936 44.607 8.51936 43.9054V6.57136C8.51936 5.86985 9.09053 5.29866 9.79215 5.29866H13.795C14.3213 5.29866 14.748 4.87211 14.748 4.3457C14.748 3.81929 14.3213 3.39274 13.795 3.39274H9.79215C8.03921 3.39274 6.61344 4.8184 6.61344 6.57136V43.9055C6.61344 45.6585 8.03911 47.0842 9.79215 47.0842Z" fill="#637381" stroke="#637381" stroke-width="0.569996"/>
<path d="M25.7394 21.5153H33.6516C34.0974 21.5153 34.4489 21.1552 34.4489 20.718C34.4489 15.909 30.5399 12 25.7308 12C25.2851 12 24.9336 12.36 24.9336 12.7972V20.7095C24.9336 21.1552 25.2936 21.5153 25.7394 21.5153ZM26.5366 13.6459C29.8198 14.0145 32.4344 16.629 32.803 19.9122H26.5366V13.6459Z" fill="#637381" stroke="#637381" stroke-width="0.707215"/>
<path d="M22.7641 32.4001C27.5732 32.4001 31.4822 28.4912 31.4822 23.6821C31.4822 23.2364 31.1221 22.8849 30.685 22.8849H23.5699V15.7699C23.5699 15.3241 23.2099 14.9727 22.7727 14.9727C17.9637 14.9727 14.0547 18.8816 14.0547 23.6907C14.0547 28.4997 17.9551 32.4001 22.7641 32.4001ZM29.8363 24.4879C29.4677 27.7711 26.8531 30.3857 23.5699 30.7543V24.4879H29.8363ZM21.9583 16.61V23.6821V30.7543C18.4094 30.3514 15.6491 27.3339 15.6491 23.6821C15.6491 20.0303 18.418 17.0129 21.9583 16.61Z" fill="#637381" stroke="#637381" stroke-width="0.707215"/>
<path d="M32.7696 36H16.4336C15.9684 36 15.6016 36.271 15.6016 36.6C15.6016 36.929 15.9773 37.2 16.4336 37.2H32.7696C33.2348 37.2 33.6016 36.929 33.6016 36.6C33.6016 36.271 33.2348 36 32.7696 36Z" fill="#637381" stroke="#637381" stroke-width="0.6"/>
<path d="M29.0881 39.5996H18.9022C18.3977 39.5996 18 39.8706 18 40.1996C18 40.5286 18.4074 40.7996 18.9022 40.7996H29.0978C29.6023 40.7996 30 40.5286 30 40.1996C30 39.8706 29.5926 39.5996 29.0881 39.5996Z" fill="#637381" stroke="#637381" stroke-width="0.6"/>
</svg>
