<svg width="20" height="20" viewBox="0 0 20 20" fill="none" xmlns="http://www.w3.org/2000/svg">
<path d="M10.4156 18.3349H3.39896C2.43229 18.3349 1.64062 17.5599 1.64062 16.6099V4.24326C1.64062 2.05993 3.26563 1.06826 5.25729 2.04326L8.95729 3.85993C9.75729 4.25159 10.4156 5.29326 10.4156 6.17659V18.3349Z" stroke="#F4603F" stroke-width="1.5" stroke-linecap="round" stroke-linejoin="round"/>
<path d="M18.3077 12.5503V15.7003C18.3077 17.5003 17.4743 18.3336 15.6743 18.3336H10.416V8.68359L10.8077 8.76693L14.5577 9.60859L16.2493 9.98359C17.3493 10.2253 18.2493 10.7919 18.2993 12.3919C18.3077 12.4419 18.3077 12.4919 18.3077 12.5503Z" stroke="#F4603F" stroke-width="1.5" stroke-linecap="round" stroke-linejoin="round"/>
<path d="M4.58398 7.5H7.47565" stroke="#F4603F" stroke-width="1.5" stroke-linecap="round" stroke-linejoin="round"/>
<path d="M4.58398 10.832H7.47565" stroke="#F4603F" stroke-width="1.5" stroke-linecap="round" stroke-linejoin="round"/>
<path d="M14.5586 9.60924V12.2926C14.5586 13.3259 13.7169 14.1676 12.6836 14.1676C11.6503 14.1676 10.8086 13.3259 10.8086 12.2926V8.76758L14.5586 9.60924Z" stroke="#F4603F" stroke-width="1.5" stroke-linecap="round" stroke-linejoin="round"/>
<path d="M18.3003 12.3908C18.2503 13.3741 17.4336 14.1658 16.4336 14.1658C15.4003 14.1658 14.5586 13.3241 14.5586 12.2908V9.60742L16.2503 9.98242C17.3503 10.2241 18.2503 10.7908 18.3003 12.3908Z" stroke="#F4603F" stroke-width="1.5" stroke-linecap="round" stroke-linejoin="round"/>
</svg>
