<svg width="148" height="156" viewBox="0 0 148 156" fill="none" xmlns="http://www.w3.org/2000/svg">
<path fill-rule="evenodd" clip-rule="evenodd" d="M64.9128 4.72051C67.3208 2.31251 70.5888 0.958008 74.0001 0.958008C77.4114 0.958008 80.6794 2.31251 83.0874 4.72051L93.4433 15.0763C93.9163 15.5493 94.5899 15.7715 95.2564 15.664L109.719 13.3778C113.087 12.8403 116.527 13.6717 119.286 15.6712C122.038 17.6778 123.887 20.695 124.425 24.0562L126.711 38.5185C126.818 39.185 127.234 39.7583 127.836 40.0665L140.879 46.71C143.918 48.258 146.219 50.9527 147.272 54.192C148.326 57.4313 148.046 60.9645 146.498 63.996L139.855 77.0465C139.546 77.6485 139.546 78.3508 139.855 78.9529L146.498 92.0033C148.046 95.0349 148.326 98.568 147.272 101.807C146.219 105.047 143.918 107.741 140.879 109.289L127.836 115.933C127.234 116.241 126.818 116.814 126.711 117.481L124.425 131.943C123.887 135.304 122.038 138.322 119.286 140.328C116.527 142.328 113.087 143.159 109.719 142.622L95.2564 140.335C94.5899 140.228 93.9163 140.45 93.4433 140.923L83.0874 151.279C80.6794 153.687 77.4114 155.041 74.0001 155.041C70.5888 155.041 67.3208 153.687 64.9128 151.279L54.5569 140.923C54.0839 140.45 53.4103 140.228 52.7438 140.335L38.2814 142.622C34.9131 143.159 31.4731 142.328 28.7139 140.328C25.9619 138.322 24.1129 135.304 23.5754 131.943L21.2893 117.481C21.1818 116.814 20.7661 116.241 20.1641 115.933L7.12077 109.289C4.0821 107.741 1.7816 105.047 0.728101 101.807C-0.325399 98.568 -0.0458992 95.0349 1.5021 92.0033L8.1456 78.9529C8.45377 78.3508 8.45377 77.6485 8.1456 77.0465L1.5021 63.996C-0.0458992 60.9645 -0.325399 57.4313 0.728101 54.192C1.7816 50.9527 4.0821 48.258 7.12077 46.71L20.1641 40.0665C20.7661 39.7583 21.1818 39.185 21.2893 38.5185L23.5754 24.0562C24.1129 20.695 25.9619 17.6778 28.7139 15.6712C31.4731 13.6717 34.9131 12.8403 38.2814 13.3778L52.7438 15.664C53.4103 15.7715 54.0839 15.5493 54.5569 15.0763L64.9128 4.72051ZM45.1184 81.798L61.8383 98.525C63.9381 100.625 67.3423 100.625 69.4421 98.525L102.882 65.0782C104.982 62.9783 104.982 59.5742 102.882 57.4743C100.789 55.3817 97.3778 55.3817 95.2851 57.4743L65.6366 87.1228L52.7151 74.2013C50.6224 72.1015 47.2111 72.1015 45.1184 74.2013C43.0186 76.294 43.0186 79.7053 45.1184 81.798Z" fill="#22C55E"/>
</svg>
