<svg width="60" height="60" viewBox="0 0 60 60" fill="none" xmlns="http://www.w3.org/2000/svg">
<rect x="0.576923" y="0.576923" width="58.8462" height="58.8462" rx="6.34615" stroke="#DFE3E8" stroke-width="1.15385"/>
<path d="M19.2112 33.581L17.165 31.5348C16.3304 30.7002 16.3304 29.3271 17.165 28.4925L19.2112 26.4463C19.5612 26.0963 19.8439 25.4098 19.8439 24.9251V22.0309C19.8439 20.8463 20.8131 19.8771 21.9977 19.8771H24.8919C25.3765 19.8771 26.0631 19.5944 26.4131 19.2444L28.4592 17.1982C29.2938 16.3636 30.6669 16.3636 31.5016 17.1982L33.5477 19.2444C33.8977 19.5944 34.5842 19.8771 35.0689 19.8771H37.9631C39.1477 19.8771 40.1169 20.8463 40.1169 22.0309V24.9251C40.1169 25.4098 40.3996 26.0963 40.7496 26.4463L42.7958 28.4925C43.6304 29.3271 43.6304 30.7002 42.7958 31.5348L40.7496 33.581C40.3996 33.931 40.1169 34.6175 40.1169 35.1021V37.9962C40.1169 39.1809 39.1477 40.1502 37.9631 40.1502H35.0689C34.5842 40.1502 33.8977 40.4329 33.5477 40.7829L31.5016 42.829C30.6669 43.6637 29.2938 43.6637 28.4592 42.829L26.4131 40.7829C26.0631 40.4329 25.3765 40.1502 24.8919 40.1502H21.9977C20.8131 40.1502 19.8439 39.1809 19.8439 37.9962V35.1021C19.8439 34.6041 19.5612 33.9175 19.2112 33.581Z" stroke="#292D32" stroke-width="1.73077" stroke-linecap="round" stroke-linejoin="round"/>
<path d="M25.9609 34.0379L34.0379 25.9609" stroke="#292D32" stroke-width="1.73077" stroke-linecap="round" stroke-linejoin="round"/>
<path d="M33.3532 33.3664H33.3653" stroke="#292D32" stroke-width="2.30769" stroke-linecap="round" stroke-linejoin="round"/>
<path d="M26.6266 26.634H26.6387" stroke="#292D32" stroke-width="2.30769" stroke-linecap="round" stroke-linejoin="round"/>
</svg>
