<svg width="40" height="40" viewBox="0 0 40 40" fill="none" xmlns="http://www.w3.org/2000/svg">
<path d="M19.9997 24.1663C22.3009 24.1663 24.1663 22.3009 24.1663 19.9997C24.1663 17.6985 22.3009 15.833 19.9997 15.833C17.6985 15.833 15.833 17.6985 15.833 19.9997C15.833 22.3009 17.6985 24.1663 19.9997 24.1663Z" stroke="#212B36" stroke-width="2" stroke-miterlimit="10" stroke-linecap="round" stroke-linejoin="round"/>
<path d="M30.833 15.833V24.1663" stroke="#212B36" stroke-width="2" stroke-miterlimit="10" stroke-linecap="round" stroke-linejoin="round"/>
<path d="M15.0003 29.9997C15.0003 31.2497 14.6503 32.433 14.0337 33.433C12.8837 35.3663 10.767 36.6663 8.33366 36.6663C5.90033 36.6663 3.78364 35.3663 2.63364 33.433C2.01697 32.433 1.66699 31.2497 1.66699 29.9997C1.66699 26.3163 4.65033 23.333 8.33366 23.333C12.017 23.333 15.0003 26.3163 15.0003 29.9997Z" stroke="#212B36" stroke-width="2" stroke-miterlimit="10" stroke-linecap="round" stroke-linejoin="round"/>
<path d="M3.33301 25.5003V15.0003C3.33301 9.16699 6.66634 6.66699 11.6663 6.66699H28.333C33.333 6.66699 36.6663 9.16699 36.6663 15.0003V25.0003C36.6663 30.8337 33.333 33.3337 28.333 33.3337H14.1663" stroke="#212B36" stroke-width="2" stroke-miterlimit="10" stroke-linecap="round" stroke-linejoin="round"/>
<path d="M11 32V28H7" stroke="#292D32" stroke-width="1.5" stroke-linecap="round" stroke-linejoin="round"/>
<path d="M6 33L11 28" stroke="#292D32" stroke-width="1.5" stroke-linecap="round" stroke-linejoin="round"/>
</svg>
