<svg width="48" height="48" viewBox="0 0 48 48" fill="none" xmlns="http://www.w3.org/2000/svg">
<mask id="path-1-outside-1_225_1255" maskUnits="userSpaceOnUse" x="2" y="2" width="44" height="44" fill="black">
<rect fill="white" x="2" y="2" width="44" height="44"/>
<path d="M40.6985 34.3413C40.223 33.7342 40.148 32.988 40.4918 32.2985C40.8942 31.4938 41.2398 30.6525 41.5197 29.7984C41.7574 29.0705 42.3298 28.5932 43.0888 28.4926C44.1971 28.3445 45.0018 27.4392 45.0018 26.3437V21.6581C45.0018 20.5425 44.1807 19.6171 43.0925 19.5037C42.3116 19.4233 41.7208 18.9496 41.4703 18.2052C41.1905 17.3713 40.8466 16.5501 40.4479 15.7655C40.095 15.0687 40.17 14.317 40.6564 13.7044C41.3496 12.832 41.2856 11.5865 40.5065 10.8074L37.1926 7.49354C36.4098 6.71078 35.1369 6.64311 34.2975 7.33991C33.6939 7.83919 32.9148 7.92881 32.2144 7.57949C31.4371 7.19177 30.6269 6.85709 29.8039 6.58459C29.0632 6.33952 28.5749 5.72868 28.4981 4.95141C28.3884 3.83945 27.4611 3 26.3419 3H21.6563C20.559 3 19.6336 3.82116 19.5056 4.90934C19.4141 5.6793 18.9386 6.26271 18.2034 6.50595C17.3585 6.78576 16.5282 7.13142 15.7326 7.53011C15.0395 7.87943 14.2914 7.80444 13.6806 7.32345C12.8192 6.64311 11.5847 6.71627 10.8074 7.49354L7.49354 10.8074C6.71809 11.5829 6.64494 12.8192 7.32345 13.6806C7.80444 14.2914 7.87943 15.0395 7.53011 15.7326C7.12959 16.5282 6.78576 17.3585 6.50594 18.2034C6.2627 18.9404 5.6793 19.4141 4.90934 19.5056C3.82116 19.6354 3 20.559 3 21.6563V26.3419C3 27.4392 3.82116 28.3646 4.90934 28.4926C5.6793 28.5841 6.2627 29.0596 6.50594 29.7948C6.78576 30.6397 7.13142 31.47 7.53011 32.2656C7.87943 32.9587 7.80444 33.7067 7.32162 34.3176C6.64311 35.179 6.71626 36.4135 7.4917 37.1907L10.8056 40.5046C11.5811 41.2819 12.8174 41.3532 13.6788 40.6747C14.2896 40.1937 15.0376 40.1187 15.7308 40.4681C16.5263 40.8686 17.3585 41.2142 18.2016 41.4941C18.9386 41.7373 19.4123 42.3207 19.5037 43.0907C19.6336 44.1788 20.5572 45 21.6545 45H26.34C27.4374 45 28.3628 44.1788 28.4908 43.0907C28.5822 42.3207 29.0577 41.7373 29.7929 41.4941C30.6361 41.2142 31.4682 40.8704 32.2637 40.4699C32.9587 40.1206 33.7067 40.1956 34.3157 40.6766C35.1771 41.3551 36.4116 41.2819 37.1889 40.5065L40.5028 37.1926C41.2819 36.4171 41.3642 35.1918 40.6985 34.3413ZM38.9391 35.6563L35.6581 38.9355C34.3907 37.9497 32.7173 37.7851 31.2816 38.5075C30.5812 38.8605 29.8478 39.1641 29.1071 39.4091C27.5837 39.9139 26.5174 41.2142 26.3181 42.8054H21.6819C21.4826 41.2142 20.4163 39.9157 18.8929 39.4091C18.1504 39.1641 17.4188 38.8605 16.7184 38.5075C15.2827 37.7851 13.6074 37.9497 12.3419 38.9355L9.06453 35.6581C10.0503 34.3926 10.2149 32.7173 9.49249 31.2816C9.13952 30.5812 8.83593 29.8496 8.59086 29.1071C8.08609 27.5837 6.78576 26.5174 5.19464 26.3181V21.6819C6.78576 21.4844 8.08426 20.4163 8.58903 18.8929C8.83592 18.1504 9.13952 17.4188 9.49066 16.7184C10.2131 15.2827 10.0485 13.6074 9.06271 12.3419L12.34 9.06453C13.6074 10.0503 15.2809 10.2149 16.7165 9.49249C17.417 9.13952 18.1485 8.83593 18.8911 8.59086C20.4145 8.08609 21.4807 6.78576 21.6801 5.19464H26.3163C26.4882 6.82234 27.5562 8.15193 29.1126 8.66767C29.8368 8.90725 30.5501 9.20353 31.2341 9.5437C32.699 10.2752 34.3889 10.0887 35.6581 9.06271L38.9355 12.34C37.9259 13.6129 37.754 15.3065 38.4892 16.7549C38.8404 17.4462 39.1421 18.1686 39.389 18.9039C39.9029 20.4328 41.2088 21.4917 42.8054 21.6783V26.3144C42.8017 26.3144 42.798 26.3163 42.7944 26.3163C41.1905 26.5321 39.934 27.5782 39.4311 29.1163C39.186 29.8679 38.8806 30.6086 38.5276 31.3182C37.818 32.7393 37.9771 34.3962 38.9391 35.6563ZM14.9846 14.9828C12.576 17.3914 11.25 20.5937 11.25 23.9991C11.25 27.4044 12.576 30.6068 14.9846 33.0154C17.47 35.5008 20.7364 36.7445 24.0009 36.7445C27.2654 36.7445 30.5318 35.5008 33.0172 33.0154C35.4259 30.6068 36.7518 27.4044 36.7518 23.9991C36.7518 20.5937 35.4259 17.3914 33.0172 14.9828C28.0464 10.0101 19.9555 10.0101 14.9846 14.9828ZM17.7297 32.4905C18.3204 30.0929 20.4913 28.35 23.0097 28.35H24.9922C27.5105 28.35 29.6832 30.0929 30.2721 32.4905C28.4158 33.864 26.2084 34.5498 24.0009 34.5498C21.7935 34.5517 19.586 33.864 17.7297 32.4905ZM24.0009 25.7493C22.2927 25.7493 20.9028 24.3594 20.9028 22.6512C20.9028 20.943 22.2927 19.5531 24.0009 19.5531C25.7091 19.5531 27.099 20.943 27.099 22.6512C27.099 24.3594 25.7091 25.7493 24.0009 25.7493ZM32.0333 30.8464C31.1975 28.8566 29.5479 27.3112 27.527 26.5943C28.6097 25.625 29.2918 24.2167 29.2918 22.653C29.2918 19.7342 26.918 17.3603 23.9991 17.3603C21.0802 17.3603 18.7063 19.7342 18.7063 22.653C18.7063 24.2167 19.3885 25.625 20.4712 26.5943C18.4503 27.3112 16.8007 28.8566 15.9649 30.8464C14.3317 28.937 13.4392 26.5376 13.4392 23.9991C13.4392 21.179 14.5365 18.5271 16.5318 16.5336C18.5893 14.4762 21.2942 13.4465 23.9973 13.4465C26.7003 13.4465 29.4034 14.4762 31.4627 16.5336C33.4562 18.5271 34.5553 21.179 34.5553 23.9991C34.559 26.5376 33.6647 28.937 32.0333 30.8464Z"/>
</mask>
<path d="M40.6985 34.3413C40.223 33.7342 40.148 32.988 40.4918 32.2985C40.8942 31.4938 41.2398 30.6525 41.5197 29.7984C41.7574 29.0705 42.3298 28.5932 43.0888 28.4926C44.1971 28.3445 45.0018 27.4392 45.0018 26.3437V21.6581C45.0018 20.5425 44.1807 19.6171 43.0925 19.5037C42.3116 19.4233 41.7208 18.9496 41.4703 18.2052C41.1905 17.3713 40.8466 16.5501 40.4479 15.7655C40.095 15.0687 40.17 14.317 40.6564 13.7044C41.3496 12.832 41.2856 11.5865 40.5065 10.8074L37.1926 7.49354C36.4098 6.71078 35.1369 6.64311 34.2975 7.33991C33.6939 7.83919 32.9148 7.92881 32.2144 7.57949C31.4371 7.19177 30.6269 6.85709 29.8039 6.58459C29.0632 6.33952 28.5749 5.72868 28.4981 4.95141C28.3884 3.83945 27.4611 3 26.3419 3H21.6563C20.559 3 19.6336 3.82116 19.5056 4.90934C19.4141 5.6793 18.9386 6.26271 18.2034 6.50595C17.3585 6.78576 16.5282 7.13142 15.7326 7.53011C15.0395 7.87943 14.2914 7.80444 13.6806 7.32345C12.8192 6.64311 11.5847 6.71627 10.8074 7.49354L7.49354 10.8074C6.71809 11.5829 6.64494 12.8192 7.32345 13.6806C7.80444 14.2914 7.87943 15.0395 7.53011 15.7326C7.12959 16.5282 6.78576 17.3585 6.50594 18.2034C6.2627 18.9404 5.6793 19.4141 4.90934 19.5056C3.82116 19.6354 3 20.559 3 21.6563V26.3419C3 27.4392 3.82116 28.3646 4.90934 28.4926C5.6793 28.5841 6.2627 29.0596 6.50594 29.7948C6.78576 30.6397 7.13142 31.47 7.53011 32.2656C7.87943 32.9587 7.80444 33.7067 7.32162 34.3176C6.64311 35.179 6.71626 36.4135 7.4917 37.1907L10.8056 40.5046C11.5811 41.2819 12.8174 41.3532 13.6788 40.6747C14.2896 40.1937 15.0376 40.1187 15.7308 40.4681C16.5263 40.8686 17.3585 41.2142 18.2016 41.4941C18.9386 41.7373 19.4123 42.3207 19.5037 43.0907C19.6336 44.1788 20.5572 45 21.6545 45H26.34C27.4374 45 28.3628 44.1788 28.4908 43.0907C28.5822 42.3207 29.0577 41.7373 29.7929 41.4941C30.6361 41.2142 31.4682 40.8704 32.2637 40.4699C32.9587 40.1206 33.7067 40.1956 34.3157 40.6766C35.1771 41.3551 36.4116 41.2819 37.1889 40.5065L40.5028 37.1926C41.2819 36.4171 41.3642 35.1918 40.6985 34.3413ZM38.9391 35.6563L35.6581 38.9355C34.3907 37.9497 32.7173 37.7851 31.2816 38.5075C30.5812 38.8605 29.8478 39.1641 29.1071 39.4091C27.5837 39.9139 26.5174 41.2142 26.3181 42.8054H21.6819C21.4826 41.2142 20.4163 39.9157 18.8929 39.4091C18.1504 39.1641 17.4188 38.8605 16.7184 38.5075C15.2827 37.7851 13.6074 37.9497 12.3419 38.9355L9.06453 35.6581C10.0503 34.3926 10.2149 32.7173 9.49249 31.2816C9.13952 30.5812 8.83593 29.8496 8.59086 29.1071C8.08609 27.5837 6.78576 26.5174 5.19464 26.3181V21.6819C6.78576 21.4844 8.08426 20.4163 8.58903 18.8929C8.83592 18.1504 9.13952 17.4188 9.49066 16.7184C10.2131 15.2827 10.0485 13.6074 9.06271 12.3419L12.34 9.06453C13.6074 10.0503 15.2809 10.2149 16.7165 9.49249C17.417 9.13952 18.1485 8.83593 18.8911 8.59086C20.4145 8.08609 21.4807 6.78576 21.6801 5.19464H26.3163C26.4882 6.82234 27.5562 8.15193 29.1126 8.66767C29.8368 8.90725 30.5501 9.20353 31.2341 9.5437C32.699 10.2752 34.3889 10.0887 35.6581 9.06271L38.9355 12.34C37.9259 13.6129 37.754 15.3065 38.4892 16.7549C38.8404 17.4462 39.1421 18.1686 39.389 18.9039C39.9029 20.4328 41.2088 21.4917 42.8054 21.6783V26.3144C42.8017 26.3144 42.798 26.3163 42.7944 26.3163C41.1905 26.5321 39.934 27.5782 39.4311 29.1163C39.186 29.8679 38.8806 30.6086 38.5276 31.3182C37.818 32.7393 37.9771 34.3962 38.9391 35.6563ZM14.9846 14.9828C12.576 17.3914 11.25 20.5937 11.25 23.9991C11.25 27.4044 12.576 30.6068 14.9846 33.0154C17.47 35.5008 20.7364 36.7445 24.0009 36.7445C27.2654 36.7445 30.5318 35.5008 33.0172 33.0154C35.4259 30.6068 36.7518 27.4044 36.7518 23.9991C36.7518 20.5937 35.4259 17.3914 33.0172 14.9828C28.0464 10.0101 19.9555 10.0101 14.9846 14.9828ZM17.7297 32.4905C18.3204 30.0929 20.4913 28.35 23.0097 28.35H24.9922C27.5105 28.35 29.6832 30.0929 30.2721 32.4905C28.4158 33.864 26.2084 34.5498 24.0009 34.5498C21.7935 34.5517 19.586 33.864 17.7297 32.4905ZM24.0009 25.7493C22.2927 25.7493 20.9028 24.3594 20.9028 22.6512C20.9028 20.943 22.2927 19.5531 24.0009 19.5531C25.7091 19.5531 27.099 20.943 27.099 22.6512C27.099 24.3594 25.7091 25.7493 24.0009 25.7493ZM32.0333 30.8464C31.1975 28.8566 29.5479 27.3112 27.527 26.5943C28.6097 25.625 29.2918 24.2167 29.2918 22.653C29.2918 19.7342 26.918 17.3603 23.9991 17.3603C21.0802 17.3603 18.7063 19.7342 18.7063 22.653C18.7063 24.2167 19.3885 25.625 20.4712 26.5943C18.4503 27.3112 16.8007 28.8566 15.9649 30.8464C14.3317 28.937 13.4392 26.5376 13.4392 23.9991C13.4392 21.179 14.5365 18.5271 16.5318 16.5336C18.5893 14.4762 21.2942 13.4465 23.9973 13.4465C26.7003 13.4465 29.4034 14.4762 31.4627 16.5336C33.4562 18.5271 34.5553 21.179 34.5553 23.9991C34.559 26.5376 33.6647 28.937 32.0333 30.8464Z" fill="#637381"/>
<path d="M40.6985 34.3413C40.223 33.7342 40.148 32.988 40.4918 32.2985C40.8942 31.4938 41.2398 30.6525 41.5197 29.7984C41.7574 29.0705 42.3298 28.5932 43.0888 28.4926C44.1971 28.3445 45.0018 27.4392 45.0018 26.3437V21.6581C45.0018 20.5425 44.1807 19.6171 43.0925 19.5037C42.3116 19.4233 41.7208 18.9496 41.4703 18.2052C41.1905 17.3713 40.8466 16.5501 40.4479 15.7655C40.095 15.0687 40.17 14.317 40.6564 13.7044C41.3496 12.832 41.2856 11.5865 40.5065 10.8074L37.1926 7.49354C36.4098 6.71078 35.1369 6.64311 34.2975 7.33991C33.6939 7.83919 32.9148 7.92881 32.2144 7.57949C31.4371 7.19177 30.6269 6.85709 29.8039 6.58459C29.0632 6.33952 28.5749 5.72868 28.4981 4.95141C28.3884 3.83945 27.4611 3 26.3419 3H21.6563C20.559 3 19.6336 3.82116 19.5056 4.90934C19.4141 5.6793 18.9386 6.26271 18.2034 6.50595C17.3585 6.78576 16.5282 7.13142 15.7326 7.53011C15.0395 7.87943 14.2914 7.80444 13.6806 7.32345C12.8192 6.64311 11.5847 6.71627 10.8074 7.49354L7.49354 10.8074C6.71809 11.5829 6.64494 12.8192 7.32345 13.6806C7.80444 14.2914 7.87943 15.0395 7.53011 15.7326C7.12959 16.5282 6.78576 17.3585 6.50594 18.2034C6.2627 18.9404 5.6793 19.4141 4.90934 19.5056C3.82116 19.6354 3 20.559 3 21.6563V26.3419C3 27.4392 3.82116 28.3646 4.90934 28.4926C5.6793 28.5841 6.2627 29.0596 6.50594 29.7948C6.78576 30.6397 7.13142 31.47 7.53011 32.2656C7.87943 32.9587 7.80444 33.7067 7.32162 34.3176C6.64311 35.179 6.71626 36.4135 7.4917 37.1907L10.8056 40.5046C11.5811 41.2819 12.8174 41.3532 13.6788 40.6747C14.2896 40.1937 15.0376 40.1187 15.7308 40.4681C16.5263 40.8686 17.3585 41.2142 18.2016 41.4941C18.9386 41.7373 19.4123 42.3207 19.5037 43.0907C19.6336 44.1788 20.5572 45 21.6545 45H26.34C27.4374 45 28.3628 44.1788 28.4908 43.0907C28.5822 42.3207 29.0577 41.7373 29.7929 41.4941C30.6361 41.2142 31.4682 40.8704 32.2637 40.4699C32.9587 40.1206 33.7067 40.1956 34.3157 40.6766C35.1771 41.3551 36.4116 41.2819 37.1889 40.5065L40.5028 37.1926C41.2819 36.4171 41.3642 35.1918 40.6985 34.3413ZM38.9391 35.6563L35.6581 38.9355C34.3907 37.9497 32.7173 37.7851 31.2816 38.5075C30.5812 38.8605 29.8478 39.1641 29.1071 39.4091C27.5837 39.9139 26.5174 41.2142 26.3181 42.8054H21.6819C21.4826 41.2142 20.4163 39.9157 18.8929 39.4091C18.1504 39.1641 17.4188 38.8605 16.7184 38.5075C15.2827 37.7851 13.6074 37.9497 12.3419 38.9355L9.06453 35.6581C10.0503 34.3926 10.2149 32.7173 9.49249 31.2816C9.13952 30.5812 8.83593 29.8496 8.59086 29.1071C8.08609 27.5837 6.78576 26.5174 5.19464 26.3181V21.6819C6.78576 21.4844 8.08426 20.4163 8.58903 18.8929C8.83592 18.1504 9.13952 17.4188 9.49066 16.7184C10.2131 15.2827 10.0485 13.6074 9.06271 12.3419L12.34 9.06453C13.6074 10.0503 15.2809 10.2149 16.7165 9.49249C17.417 9.13952 18.1485 8.83593 18.8911 8.59086C20.4145 8.08609 21.4807 6.78576 21.6801 5.19464H26.3163C26.4882 6.82234 27.5562 8.15193 29.1126 8.66767C29.8368 8.90725 30.5501 9.20353 31.2341 9.5437C32.699 10.2752 34.3889 10.0887 35.6581 9.06271L38.9355 12.34C37.9259 13.6129 37.754 15.3065 38.4892 16.7549C38.8404 17.4462 39.1421 18.1686 39.389 18.9039C39.9029 20.4328 41.2088 21.4917 42.8054 21.6783V26.3144C42.8017 26.3144 42.798 26.3163 42.7944 26.3163C41.1905 26.5321 39.934 27.5782 39.4311 29.1163C39.186 29.8679 38.8806 30.6086 38.5276 31.3182C37.818 32.7393 37.9771 34.3962 38.9391 35.6563ZM14.9846 14.9828C12.576 17.3914 11.25 20.5937 11.25 23.9991C11.25 27.4044 12.576 30.6068 14.9846 33.0154C17.47 35.5008 20.7364 36.7445 24.0009 36.7445C27.2654 36.7445 30.5318 35.5008 33.0172 33.0154C35.4259 30.6068 36.7518 27.4044 36.7518 23.9991C36.7518 20.5937 35.4259 17.3914 33.0172 14.9828C28.0464 10.0101 19.9555 10.0101 14.9846 14.9828ZM17.7297 32.4905C18.3204 30.0929 20.4913 28.35 23.0097 28.35H24.9922C27.5105 28.35 29.6832 30.0929 30.2721 32.4905C28.4158 33.864 26.2084 34.5498 24.0009 34.5498C21.7935 34.5517 19.586 33.864 17.7297 32.4905ZM24.0009 25.7493C22.2927 25.7493 20.9028 24.3594 20.9028 22.6512C20.9028 20.943 22.2927 19.5531 24.0009 19.5531C25.7091 19.5531 27.099 20.943 27.099 22.6512C27.099 24.3594 25.7091 25.7493 24.0009 25.7493ZM32.0333 30.8464C31.1975 28.8566 29.5479 27.3112 27.527 26.5943C28.6097 25.625 29.2918 24.2167 29.2918 22.653C29.2918 19.7342 26.918 17.3603 23.9991 17.3603C21.0802 17.3603 18.7063 19.7342 18.7063 22.653C18.7063 24.2167 19.3885 25.625 20.4712 26.5943C18.4503 27.3112 16.8007 28.8566 15.9649 30.8464C14.3317 28.937 13.4392 26.5376 13.4392 23.9991C13.4392 21.179 14.5365 18.5271 16.5318 16.5336C18.5893 14.4762 21.2942 13.4465 23.9973 13.4465C26.7003 13.4465 29.4034 14.4762 31.4627 16.5336C33.4562 18.5271 34.5553 21.179 34.5553 23.9991C34.559 26.5376 33.6647 28.937 32.0333 30.8464Z" stroke="#637381" stroke-width="0.45" mask="url(#path-1-outside-1_225_1255)"/>
</svg>
