<svg width="32" height="32" viewBox="0 0 32 32" fill="none" xmlns="http://www.w3.org/2000/svg">
<path d="M29.333 8.00033V11.227C29.333 13.3337 27.9997 14.667 25.893 14.667H21.333V5.34699C21.333 3.86699 22.5464 2.66699 24.0264 2.66699C25.4797 2.68033 26.813 3.26699 27.773 4.22699C28.733 5.20033 29.333 6.53366 29.333 8.00033Z" stroke="#F4603F" stroke-width="2" stroke-miterlimit="10" stroke-linecap="round" stroke-linejoin="round"/>
<path d="M2.66699 9.33366V28.0003C2.66699 29.107 3.92029 29.7337 4.80029 29.067L7.08032 27.3603C7.61366 26.9603 8.36033 27.0137 8.84033 27.4937L11.0536 29.7203C11.5736 30.2403 12.427 30.2403 12.947 29.7203L15.187 27.4803C15.6537 27.0137 16.4003 26.9603 16.9203 27.3603L19.2004 29.067C20.0804 29.7203 21.3337 29.0937 21.3337 28.0003V5.33366C21.3337 3.86699 22.5337 2.66699 24.0003 2.66699H9.33366H8.00033C4.00033 2.66699 2.66699 5.05366 2.66699 8.00033V9.33366Z" stroke="#F4603F" stroke-width="2" stroke-miterlimit="10" stroke-linecap="round" stroke-linejoin="round"/>
<path d="M8 12H16" stroke="#F4603F" stroke-width="2" stroke-linecap="round" stroke-linejoin="round"/>
<path d="M9 17.333H15" stroke="#F4603F" stroke-width="2" stroke-linecap="round" stroke-linejoin="round"/>
</svg>
