<svg width="43" height="42" viewBox="0 0 43 42" fill="none" xmlns="http://www.w3.org/2000/svg">
<path d="M26.6041 9.7972V9.7222H26.5291H24.2863C22.0245 9.7222 20.1529 7.86132 20.1529 5.6V4.2056C20.1529 1.94407 22.0233 0.075 24.2863 0.075H31.5817C33.8403 0.075 35.7011 1.94379 35.7011 4.2056V5.6C35.7011 7.86026 33.8432 9.7222 31.5817 9.7222H29.3291H29.2541V9.7972V12.3774V12.4524H29.3291L33.4115 12.4524L33.4127 12.4524C35.677 12.418 37.6143 14.1864 37.8098 16.4662C37.8098 16.4662 37.8098 16.4662 37.8098 16.4662L39.1174 31.8018L39.1215 31.8498L39.1669 31.866C40.7671 32.4384 41.9367 33.964 41.9367 35.7462V37.8028C41.9367 40.0627 40.0665 41.925 37.8033 41.925H4.20612C1.94599 41.925 0.0867188 40.0644 0.0867188 37.8028V35.7462C0.0867188 33.9651 1.24542 32.4411 2.84261 31.8688L2.88796 31.8526L2.89205 31.8046L4.19825 16.4662C4.39227 14.1874 6.32885 12.4524 8.59652 12.4524H26.5291H26.6041V12.3774V9.7972ZM36.3613 31.6142H36.443L36.436 31.5328L35.1704 16.6914C35.1355 16.2823 34.9012 15.8857 34.5775 15.5927C34.2537 15.2996 33.8319 15.1024 33.4115 15.1024H8.59652C8.17618 15.1024 7.75437 15.2996 7.43057 15.5927C7.10687 15.8857 6.87249 16.2823 6.83759 16.6914L5.57199 31.5328L5.56505 31.6142H5.64672H36.3613ZM24.4204 19.3166H24.4207H29.9283L29.9286 19.3166C30.664 19.3139 31.2616 19.9116 31.2589 20.6469C31.2563 21.3797 30.6613 21.9706 29.9286 21.968H29.9283H24.4207H24.4204C23.6877 21.9706 23.0928 21.3784 23.0901 20.6469C23.0875 19.9116 23.6851 19.3139 24.4204 19.3166ZM24.4203 25.0944H24.4207H29.9283L29.9287 25.0944C30.6639 25.0904 31.2616 25.6879 31.2589 26.4247C31.2563 27.1561 30.6614 27.747 29.9286 27.7444H29.9283L24.4207 27.7444L24.4204 27.7444C23.6876 27.747 23.0928 27.1561 23.0901 26.4247C23.0875 25.6879 23.6851 25.0904 24.4203 25.0944ZM31.5817 2.725H24.2863C23.4454 2.725 22.8071 3.36488 22.8071 4.2056V5.6C22.8071 6.44146 23.4489 7.0722 24.2877 7.0722H27.9347H31.5817C32.4213 7.0722 33.0511 6.44067 33.0511 5.6V4.2056C33.0511 3.36552 32.4219 2.725 31.5817 2.725ZM9.22171 21.826C9.22171 19.5646 11.0906 17.7024 13.3523 17.7024H15.9255C18.1873 17.7024 20.0561 19.5646 20.0561 21.826V24.5434C20.0561 26.8019 18.1873 28.6628 15.9255 28.6628H13.3523C11.0905 28.6628 9.22171 26.8047 9.22171 24.5434V21.826ZM15.9255 20.3524H13.3523C12.512 20.3524 11.8717 20.9832 11.8717 21.826V24.5434C11.8717 25.3836 12.5122 26.0128 13.3523 26.0128H15.9255C16.7656 26.0128 17.4061 25.3836 17.4061 24.5434V21.826C17.4061 20.9832 16.7658 20.3524 15.9255 20.3524ZM37.8033 34.2656H4.20612C3.3631 34.2656 2.73672 34.9048 2.73672 35.7462V37.8028C2.73672 38.6434 3.3651 39.275 4.20612 39.275H37.8033C38.6435 39.275 39.2839 38.6442 39.2839 37.8028V35.7462C39.2839 34.9039 38.6441 34.2656 37.8033 34.2656Z" fill="#637381" stroke="#637381" stroke-width="0.15"/>
</svg>
