<svg width="60" height="60" viewBox="0 0 60 60" fill="none" xmlns="http://www.w3.org/2000/svg">
<rect x="0.576923" y="0.576923" width="58.8462" height="58.8462" rx="6.34615" stroke="#DFE3E8" stroke-width="1.15385"/>
<path d="M38.1868 42.8266C37.0135 43.1733 35.6268 43.3333 34.0001 43.3333H26.0001C24.3735 43.3333 22.9868 43.1733 21.8135 42.8266C22.1068 39.36 25.6668 36.6266 30.0001 36.6266C34.3335 36.6266 37.8935 39.36 38.1868 42.8266Z" stroke="#212B36" stroke-width="2" stroke-linecap="round" stroke-linejoin="round"/>
<path d="M34.0003 16.6667H26.0003C19.3337 16.6667 16.667 19.3333 16.667 26V34C16.667 39.04 18.187 41.8 21.8137 42.8267C22.107 39.36 25.667 36.6266 30.0003 36.6266C34.3337 36.6266 37.8937 39.36 38.187 42.8267C41.8137 41.8 43.3337 39.04 43.3337 34V26C43.3337 19.3333 40.667 16.6667 34.0003 16.6667ZM30.0003 32.8933C27.3603 32.8933 25.227 30.7467 25.227 28.1067C25.227 25.4667 27.3603 23.3333 30.0003 23.3333C32.6403 23.3333 34.7737 25.4667 34.7737 28.1067C34.7737 30.7467 32.6403 32.8933 30.0003 32.8933Z" stroke="#212B36" stroke-width="2" stroke-linecap="round" stroke-linejoin="round"/>
<path d="M34.7732 28.1067C34.7732 30.7467 32.6399 32.8933 29.9999 32.8933C27.3599 32.8933 25.2266 30.7467 25.2266 28.1067C25.2266 25.4667 27.3599 23.3333 29.9999 23.3333C32.6399 23.3333 34.7732 25.4667 34.7732 28.1067Z" stroke="#212B36" stroke-width="2" stroke-linecap="round" stroke-linejoin="round"/>
</svg>
