<svg width="60" height="60" viewBox="0 0 60 60" fill="none" xmlns="http://www.w3.org/2000/svg">
<rect x="0.576923" y="0.576923" width="58.8462" height="58.8462" rx="6.34615" stroke="#DFE3E8" stroke-width="1.15385"/>
<path d="M28.6584 16.541H25.966C19.2353 16.541 16.543 19.2333 16.543 25.9641V34.041C16.543 40.7718 19.2353 43.4641 25.966 43.4641H34.043C40.7737 43.4641 43.466 40.7718 43.466 34.041V31.3487" stroke="#292D32" stroke-width="1.73077" stroke-linecap="round" stroke-linejoin="round"/>
<path d="M35.4432 17.9144L24.8355 28.5221C24.4316 28.9259 24.0278 29.7202 23.947 30.299L23.3682 34.3509C23.1528 35.8182 24.1893 36.8413 25.6566 36.6394L29.7086 36.0605C30.274 35.9798 31.0682 35.5759 31.4855 35.1721L42.0932 24.5644C43.924 22.7336 44.7855 20.6067 42.0932 17.9144C39.4009 15.2221 37.274 16.0836 35.4432 17.9144Z" stroke="#292D32" stroke-width="1.73077" stroke-miterlimit="10" stroke-linecap="round" stroke-linejoin="round"/>
<path d="M33.9219 19.4336C34.8238 22.6509 37.3411 25.1682 40.5719 26.0836" stroke="#292D32" stroke-width="1.73077" stroke-miterlimit="10" stroke-linecap="round" stroke-linejoin="round"/>
</svg>
