<svg width="256" height="256" viewBox="0 0 256 256" fill="none" xmlns="http://www.w3.org/2000/svg">
<path d="M135.773 152.742H183.661C186.364 152.742 188.955 153.815 190.866 155.726C192.777 157.637 193.85 160.229 193.85 162.931V169.961H125.635V162.931C125.635 160.237 126.701 157.654 128.601 155.744C130.501 153.835 133.079 152.755 135.773 152.742Z" fill="#FFE7E1"/>
<path d="M214.546 162.065H38.5708C35.7347 162.065 33.4355 164.364 33.4355 167.2V201.731C33.4355 204.567 35.7347 206.866 38.5708 206.866H214.546C217.382 206.866 219.681 204.567 219.681 201.731V167.2C219.681 164.364 217.382 162.065 214.546 162.065Z" fill="#FFE7E1"/>
<path d="M211.61 61.8048H107.876C104.533 61.8048 101.823 64.5145 101.823 67.8571V139.415C101.823 142.757 104.533 145.467 107.876 145.467H211.61C214.953 145.467 217.662 142.757 217.662 139.415V67.8571C217.662 64.5145 214.953 61.8048 211.61 61.8048Z" fill="#FFE7E1"/>
<path d="M172.851 131.365H140.919V159.579H172.851V131.365Z" fill="#FFB3A2"/>
<path d="M132.92 152.742H180.809C183.511 152.742 186.103 153.815 188.013 155.726C189.924 157.637 190.998 160.229 190.998 162.931V169.961H122.782V162.931C122.782 160.237 123.849 157.654 125.748 155.744C127.648 153.835 130.227 152.755 132.92 152.742Z" fill="#FFD2C8"/>
<path d="M210.765 162.065H34.7905C31.9544 162.065 29.6553 164.364 29.6553 167.2V201.731C29.6553 204.567 31.9544 206.866 34.7905 206.866H210.765C213.601 206.866 215.901 204.567 215.901 201.731V167.2C215.901 164.364 213.601 162.065 210.765 162.065Z" fill="#FFB3A2"/>
<path d="M206.944 176.431H39.752V201.456H206.944V176.431Z" fill="#FFD2C8"/>
<path d="M215.901 170.817H29.6553V172.529H215.901V170.817Z" fill="#FFB3A2"/>
<path d="M123.353 193.885C126.082 193.885 128.294 191.673 128.294 188.944C128.294 186.214 126.082 184.002 123.353 184.002C120.624 184.002 118.411 186.214 118.411 188.944C118.411 191.673 120.624 193.885 123.353 193.885Z" fill="#FFB3A2"/>
<path d="M208.758 61.8048H105.023C101.68 61.8048 98.9707 64.5145 98.9707 67.8571V139.415C98.9707 142.757 101.68 145.467 105.023 145.467H208.758C212.1 145.467 214.81 142.757 214.81 139.415V67.8571C214.81 64.5145 212.1 61.8048 208.758 61.8048Z" fill="#FFD2C8"/>
<path d="M206.954 68.713H106.826V138.579H206.954V68.713Z" fill="#FEF4F2"/>
<path opacity="0.5" d="M161.908 68.713L130.668 138.569H106.826V125.649L132.278 68.713H161.908Z" fill="#FFE7E1"/>
<path opacity="0.5" d="M188.776 68.713L157.547 138.569H142.742L173.961 68.713H188.776Z" fill="#FFE7E1"/>
<path opacity="0.5" d="M206.954 68.713V82.7127L181.991 138.569H161.786L193.016 68.713H206.954Z" fill="#FFE7E1"/>
<path d="M98.9707 123.662V68.3666C98.9707 66.6281 99.6606 64.9606 100.889 63.7303C102.117 62.5001 103.784 61.8075 105.522 61.8048H140.919" stroke="#FC8064" stroke-width="1.0189" stroke-miterlimit="10"/>
<path d="M129.364 145.467H211.478C212.289 145.468 213.093 145.31 213.844 145C214.594 144.69 215.276 144.236 215.85 143.662C216.425 143.089 216.88 142.407 217.191 141.658C217.502 140.908 217.662 140.104 217.662 139.292V86.4113" stroke="#FC8064" stroke-width="1.0189" stroke-miterlimit="10"/>
<path d="M206.954 68.713H106.826V138.579H206.954V68.713Z" stroke="#FC8064" stroke-width="1.0189" stroke-miterlimit="10"/>
<path d="M29.6553 190.737V167.302C29.6553 165.902 30.2113 164.56 31.2011 163.57C32.1909 162.58 33.5334 162.024 34.9332 162.024H151.435" stroke="#FC8064" stroke-width="1.0189" stroke-miterlimit="10"/>
<path d="M164.079 162.065H214.668C215.998 162.065 217.274 162.593 218.216 163.533C219.158 164.472 219.688 165.747 219.691 167.078V181.404" stroke="#FC8064" stroke-width="1.0189" stroke-miterlimit="10"/>
<path d="M76.8906 206.866H206.954" stroke="#FC8064" stroke-width="1.0189" stroke-miterlimit="10"/>
<path d="M206.953 176.401H38.9873V201.456H206.953V176.401Z" stroke="#FC8064" stroke-width="1.0189" stroke-miterlimit="10"/>
<path d="M41.9521 155.788C38.9795 155.788 36.1288 154.608 34.0269 152.506C31.925 150.404 30.7441 147.553 30.7441 144.581V96.4577C30.7441 93.4852 31.925 90.6344 34.0269 88.5325C36.1288 86.4306 38.9795 85.2498 41.9521 85.2498C42.8465 85.2498 43.7044 85.6051 44.3368 86.2376C44.9693 86.8701 45.3246 87.7279 45.3246 88.6224V152.375C45.33 152.821 45.2468 153.264 45.0797 153.678C44.9126 154.092 44.6651 154.469 44.3514 154.786C44.0377 155.104 43.664 155.356 43.2522 155.528C42.8403 155.7 42.3984 155.789 41.9521 155.788Z" fill="#FFD2C8"/>
<path d="M83.3094 85.2804H41.9521V155.799H83.3094V85.2804Z" fill="#FFD2C8"/>
<path d="M83.3095 85.2804C84.2067 85.2804 85.0671 85.6368 85.7015 86.2712C86.3359 86.9055 86.6923 87.766 86.6923 88.6631V152.416C86.6923 153.313 86.3359 154.173 85.7015 154.808C85.0671 155.442 84.2067 155.799 83.3095 155.799C80.337 155.799 77.4862 154.618 75.3843 152.516C73.2824 150.414 72.1016 147.563 72.1016 144.591V96.4577C72.1016 93.4852 73.2824 90.6344 75.3843 88.5325C77.4862 86.4306 80.337 85.2498 83.3095 85.2498V85.2804Z" fill="#FFB3A2"/>
<path d="M83.4416 149.298C81.0095 149.298 78.6771 148.332 76.9574 146.612C75.2376 144.892 74.2715 142.56 74.2715 140.128V100.89C74.2715 98.4579 75.2376 96.1254 76.9574 94.4057C78.6771 92.686 81.0095 91.7198 83.4416 91.7198C83.8098 91.7157 84.175 91.7855 84.5157 91.9251C84.8564 92.0647 85.1656 92.2712 85.425 92.5325C85.6844 92.7938 85.8887 93.1045 86.0258 93.4463C86.1629 93.788 86.2301 94.1537 86.2232 94.5218V146.537C86.2232 146.901 86.1511 147.262 86.0111 147.598C85.8711 147.935 85.6659 148.24 85.4073 148.497C85.1487 148.753 84.8419 148.956 84.5046 149.094C84.1672 149.231 83.8059 149.301 83.4416 149.298Z" fill="#FFB3A2"/>
<path d="M31.0705 131.365H30.4795V95.5611C30.4822 92.784 31.5866 90.1213 33.5503 88.1576C35.5141 86.1939 38.1767 85.0895 40.9538 85.0868H53.1807V85.6777H40.9538C38.3334 85.6804 35.8211 86.7226 33.9682 88.5755C32.1153 90.4284 31.0732 92.9407 31.0705 95.5611V131.365Z" fill="#FC8064"/>
<path d="M69.1374 150.317H37.2152C36.945 150.317 36.6858 150.21 36.4947 150.019C36.3036 149.827 36.1963 149.568 36.1963 149.298C36.1963 149.028 36.3036 148.769 36.4947 148.578C36.6858 148.387 36.945 148.279 37.2152 148.279H69.1374C69.4077 148.279 69.6668 148.387 69.8579 148.578C70.049 148.769 70.1563 149.028 70.1563 149.298C70.1563 149.568 70.049 149.827 69.8579 150.019C69.6668 150.21 69.4077 150.317 69.1374 150.317Z" fill="#FFB3A2"/>
<path d="M68.9025 100.309H35.2787C35.0084 100.309 34.7493 100.202 34.5582 100.011C34.3671 99.8197 34.2598 99.5605 34.2598 99.2903C34.2598 99.0201 34.3671 98.7609 34.5582 98.5698C34.7493 98.3787 35.0084 98.2714 35.2787 98.2714H68.9025C69.1727 98.2714 69.4319 98.3787 69.6229 98.5698C69.814 98.7609 69.9214 99.0201 69.9214 99.2903C69.9214 99.5605 69.814 99.8197 69.6229 100.011C69.4319 100.202 69.1727 100.309 68.9025 100.309Z" fill="#FFB3A2"/>
<path d="M86.01 91.7708C86.7423 91.7708 87.4446 92.0617 87.9625 92.5795C88.4803 93.0974 88.7712 93.7997 88.7712 94.532V146.496C88.7712 147.228 88.4803 147.931 87.9625 148.449C87.4446 148.966 86.7423 149.257 86.01 149.257C83.5779 149.257 81.2454 148.291 79.5257 146.571C77.806 144.852 76.8398 142.519 76.8398 140.087V100.89C76.8533 98.4667 77.8254 96.1473 79.5437 94.4386C81.2619 92.7299 83.5867 91.7707 86.01 91.7708Z" fill="#FFE7E1"/>
<path d="M87.9465 149.298C85.5144 149.298 83.182 148.332 81.4622 146.612C79.7425 144.892 78.7764 142.56 78.7764 140.128V100.89C78.7764 98.4579 79.7425 96.1254 81.4622 94.4057C83.182 92.686 85.5144 91.7198 87.9465 91.7198C88.3086 91.7185 88.6675 91.7887 89.0024 91.9263C89.3373 92.064 89.6418 92.2664 89.8984 92.522C90.1549 92.7776 90.3584 93.0813 90.4973 93.4157C90.6362 93.7502 90.7077 94.1087 90.7077 94.4709V146.537C90.7077 147.269 90.4168 147.971 89.899 148.489C89.3811 149.007 88.6788 149.298 87.9465 149.298Z" fill="#FFD2C8"/>
<path d="M66.8242 102.816H37.2658C36.1347 102.816 35.2178 103.733 35.2178 104.864V123.662C35.2178 124.794 36.1347 125.71 37.2658 125.71H66.8242C67.9552 125.71 68.8721 124.794 68.8721 123.662V104.864C68.8721 103.733 67.9552 102.816 66.8242 102.816Z" fill="#FFB3A2"/>
<path d="M64.7766 104.864H39.3244C38.1933 104.864 37.2764 105.781 37.2764 106.912V121.614C37.2764 122.746 38.1933 123.662 39.3244 123.662H64.7766C65.9076 123.662 66.8246 122.746 66.8246 121.614V106.912C66.8246 105.781 65.9076 104.864 64.7766 104.864Z" fill="#FFB3A2"/>
<g opacity="0.1">
<path d="M35.2188 104.864V123.662C35.2188 124.203 35.4335 124.721 35.8156 125.103C36.1978 125.486 36.7161 125.7 37.2566 125.7H47.8532L60.834 102.816H37.3177C37.0442 102.807 36.7717 102.854 36.5167 102.954C36.2617 103.053 36.0293 103.203 35.8334 103.394C35.6375 103.585 35.4821 103.814 35.3765 104.066C35.2709 104.319 35.2173 104.59 35.2188 104.864Z" fill="white"/>
</g>
<g opacity="0.1">
<path d="M66.8653 102.816L56.0547 125.71H66.8653C67.4057 125.71 67.924 125.496 68.3062 125.114C68.6884 124.731 68.9031 124.213 68.9031 123.673V104.864C68.9031 104.323 68.6884 103.805 68.3062 103.423C67.924 103.041 67.4057 102.826 66.8653 102.826V102.816Z" fill="white"/>
</g>
<path d="M42.7471 129.643H38.8142C37.6887 129.643 36.7764 130.556 36.7764 131.681V133.413C36.7764 134.539 37.6887 135.451 38.8142 135.451H42.7471C43.8726 135.451 44.7849 134.539 44.7849 133.413V131.681C44.7849 130.556 43.8726 129.643 42.7471 129.643Z" fill="#FFE7E1"/>
<path d="M50.073 129.643H54.0161C54.5566 129.643 55.0749 129.858 55.4571 130.24C55.8392 130.622 56.0539 131.141 56.0539 131.681V133.424C56.0539 133.964 55.8392 134.482 55.4571 134.864C55.0749 135.247 54.5566 135.461 54.0161 135.461H50.073C49.5325 135.461 49.0142 135.247 48.632 134.864C48.2499 134.482 48.0352 133.964 48.0352 133.424V131.681C48.0352 131.141 48.2499 130.622 48.632 130.24C49.0142 129.858 49.5325 129.643 50.073 129.643Z" fill="#FFE7E1"/>
<path d="M61.3425 129.643H65.2856C65.8261 129.643 66.3444 129.858 66.7266 130.24C67.1088 130.622 67.3235 131.141 67.3235 131.681V133.424C67.3235 133.964 67.1088 134.482 66.7266 134.864C66.3444 135.247 65.8261 135.461 65.2856 135.461H61.3425C60.802 135.461 60.2837 135.247 59.9015 134.864C59.5194 134.482 59.3047 133.964 59.3047 133.424V131.681C59.3047 131.141 59.5194 130.622 59.9015 130.24C60.2837 129.858 60.802 129.643 61.3425 129.643Z" fill="#FFE7E1"/>
<path d="M38.8142 138.528H42.7573C43.2978 138.528 43.8161 138.743 44.1983 139.125C44.5804 139.507 44.7951 140.026 44.7951 140.566V142.308C44.7951 142.849 44.5804 143.367 44.1983 143.749C43.8161 144.131 43.2978 144.346 42.7573 144.346H38.8142C38.2737 144.346 37.7554 144.131 37.3732 143.749C36.9911 143.367 36.7764 142.849 36.7764 142.308V140.566C36.7764 140.026 36.9911 139.507 37.3732 139.125C37.7554 138.743 38.2737 138.528 38.8142 138.528Z" fill="#EC8323"/>
<path d="M54.0269 138.528H50.0735C48.9537 138.528 48.0459 139.436 48.0459 140.556V142.308C48.0459 143.428 48.9537 144.336 50.0735 144.336H54.0269C55.1467 144.336 56.0545 143.428 56.0545 142.308V140.556C56.0545 139.436 55.1467 138.528 54.0269 138.528Z" fill="#F7A01C"/>
<path d="M61.3425 138.528H65.2856C65.8261 138.528 66.3444 138.743 66.7266 139.125C67.1088 139.507 67.3235 140.026 67.3235 140.566V142.308C67.3235 142.849 67.1088 143.367 66.7266 143.749C66.3444 144.131 65.8261 144.346 65.2856 144.346H61.3425C60.802 144.346 60.2837 144.131 59.9015 143.749C59.5194 143.367 59.3047 142.849 59.3047 142.308V140.566C59.3047 140.026 59.5194 139.507 59.9015 139.125C60.2837 138.743 60.802 138.528 61.3425 138.528Z" fill="#99C73C"/>
<path d="M73.7735 54.6929L68.9031 61.8965V100.309H35.2793V61.8965C35.2792 59.9983 36.0284 58.1768 37.3639 56.8279C38.6995 55.4789 40.5135 54.7117 42.4116 54.6929H73.7735Z" fill="white"/>
<path d="M83.5847 83.0795H68.9023V59.6448C68.9023 58.345 69.4187 57.0984 70.3378 56.1793C71.2569 55.2602 72.5035 54.7438 73.8033 54.7438C74.4477 54.7425 75.0861 54.8683 75.6819 55.114C76.2777 55.3597 76.8192 55.7205 77.2753 56.1757C77.7315 56.6309 78.0934 57.1716 78.3404 57.7669C78.5873 58.3622 78.7144 59.0003 78.7144 59.6448V78.1786L83.5847 83.0795Z" fill="#FC8064"/>
<path d="M87.7831 64.8921L87.08 65.6359L86.3872 64.8921L85.6841 64.1585L84.9811 64.8921L84.2781 65.6359L83.575 64.8921L82.8822 64.1585L82.1791 64.8921L81.4761 65.6359L80.773 64.8921L80.1107 64.1585L79.4077 64.8921L78.7148 65.6359V78.1786C78.7148 79.4784 79.2312 80.725 80.1503 81.6441C81.0694 82.5632 82.316 83.0795 83.6158 83.0795C84.9156 83.0795 86.1621 82.5632 87.0813 81.6441C88.0004 80.725 88.5167 79.4784 88.5167 78.1786V64.1585L87.7831 64.8921Z" fill="#FFB3A2"/>
<path d="M53.0895 74.1132H40.017C39.7467 74.1132 39.4876 74.0058 39.2965 73.8148C39.1054 73.6237 38.998 73.3645 38.998 73.0943C38.998 72.8241 39.1054 72.5649 39.2965 72.3738C39.4876 72.1827 39.7467 72.0754 40.017 72.0754H53.0895C53.3597 72.0754 53.6189 72.1827 53.8099 72.3738C54.001 72.5649 54.1084 72.8241 54.1084 73.0943C54.1084 73.3645 54.001 73.6237 53.8099 73.8148C53.6189 74.0058 53.3597 74.1132 53.0895 74.1132Z" fill="#FC8064"/>
<path d="M53.0895 78.2092H40.017C39.7467 78.2092 39.4876 78.1018 39.2965 77.9107C39.1054 77.7197 38.998 77.4605 38.998 77.1903C38.998 76.92 39.1054 76.6609 39.2965 76.4698C39.4876 76.2787 39.7467 76.1714 40.017 76.1714H53.0895C53.3597 76.1714 53.6189 76.2787 53.8099 76.4698C54.001 76.6609 54.1084 76.92 54.1084 77.1903C54.1084 77.4605 54.001 77.7197 53.8099 77.9107C53.6189 78.1018 53.3597 78.2092 53.0895 78.2092Z" fill="#FC8064"/>
<path d="M53.0895 82.3052H40.017C39.7467 82.3052 39.4876 82.1978 39.2965 82.0067C39.1054 81.8157 38.998 81.5565 38.998 81.2863C38.998 81.016 39.1054 80.7569 39.2965 80.5658C39.4876 80.3747 39.7467 80.2674 40.017 80.2674H53.0895C53.3597 80.2674 53.6189 80.3747 53.8099 80.5658C54.001 80.7569 54.1084 81.016 54.1084 81.2863C54.1084 81.5565 54.001 81.8157 53.8099 82.0067C53.6189 82.1978 53.3597 82.3052 53.0895 82.3052Z" fill="#FC8064"/>
<path d="M64.0322 74.1132H61.2201C60.9498 74.1132 60.6907 74.0058 60.4996 73.8148C60.3085 73.6237 60.2012 73.3645 60.2012 73.0943C60.2012 72.8241 60.3085 72.5649 60.4996 72.3738C60.6907 72.1827 60.9498 72.0754 61.2201 72.0754H64.0322C64.3025 72.0754 64.5616 72.1827 64.7527 72.3738C64.9438 72.5649 65.0512 72.8241 65.0512 73.0943C65.0512 73.3645 64.9438 73.6237 64.7527 73.8148C64.5616 74.0058 64.3025 74.1132 64.0322 74.1132Z" fill="#FC8064"/>
<path d="M64.0322 78.2092H61.2201C60.9498 78.2092 60.6907 78.1018 60.4996 77.9107C60.3085 77.7197 60.2012 77.4605 60.2012 77.1903C60.2012 76.92 60.3085 76.6609 60.4996 76.4698C60.6907 76.2787 60.9498 76.1714 61.2201 76.1714H64.0322C64.3025 76.1714 64.5616 76.2787 64.7527 76.4698C64.9438 76.6609 65.0512 76.92 65.0512 77.1903C65.0512 77.4605 64.9438 77.7197 64.7527 77.9107C64.5616 78.1018 64.3025 78.2092 64.0322 78.2092Z" fill="#FC8064"/>
<path d="M64.0322 82.3052H61.2201C60.9498 82.3052 60.6907 82.1978 60.4996 82.0067C60.3085 81.8157 60.2012 81.5565 60.2012 81.2863C60.2012 81.016 60.3085 80.7569 60.4996 80.5658C60.6907 80.3747 60.9498 80.2674 61.2201 80.2674H64.0322C64.3025 80.2674 64.5616 80.3747 64.7527 80.5658C64.9438 80.7569 65.0512 81.016 65.0512 81.2863C65.0512 81.5565 64.9438 81.8157 64.7527 82.0067C64.5616 82.1978 64.3025 82.3052 64.0322 82.3052Z" fill="#FC8064"/>
<path d="M64.0322 86.4113H61.2201C60.9498 86.4113 60.6907 86.304 60.4996 86.1129C60.3085 85.9218 60.2012 85.6627 60.2012 85.3924C60.2012 85.1222 60.3085 84.863 60.4996 84.672C60.6907 84.4809 60.9498 84.3735 61.2201 84.3735H64.0322C64.3025 84.3735 64.5616 84.4809 64.7527 84.672C64.9438 84.863 65.0512 85.1222 65.0512 85.3924C65.0512 85.6627 64.9438 85.9218 64.7527 86.1129C64.5616 86.304 64.3025 86.4113 64.0322 86.4113Z" fill="#FC8064"/>
<path d="M66.6001 68.9779H37.4493C37.3304 68.9779 37.2164 68.9307 37.1323 68.8466C37.0482 68.7625 37.001 68.6485 37.001 68.5296C37.0036 68.4125 37.052 68.301 37.1358 68.2192C37.2196 68.1373 37.3321 68.0914 37.4493 68.0915H66.6001C66.7173 68.0914 66.8298 68.1373 66.9136 68.2192C66.9974 68.301 67.0458 68.4125 67.0484 68.5296C67.0484 68.6485 67.0012 68.7625 66.9171 68.8466C66.833 68.9307 66.719 68.9779 66.6001 68.9779Z" fill="#FFB3A2"/>
<path d="M66.6001 90.3749H37.4493C37.3321 90.3749 37.2196 90.3291 37.1358 90.2472C37.052 90.1653 37.0036 90.0539 37.001 89.9368C37.001 89.8179 37.0482 89.7038 37.1323 89.6198C37.2164 89.5357 37.3304 89.4884 37.4493 89.4884H66.6001C66.719 89.4884 66.833 89.5357 66.9171 89.6198C67.0012 89.7038 67.0484 89.8179 67.0484 89.9368C67.0458 90.0539 66.9974 90.1653 66.9136 90.2472C66.8298 90.3291 66.7173 90.3749 66.6001 90.3749Z" fill="#FFB3A2"/>
<path d="M38.4071 92.7387H37.3168C37.1424 92.7387 37.001 92.8802 37.001 93.0546V97.1098C37.001 97.2843 37.1424 97.4257 37.3168 97.4257H38.4071C38.5815 97.4257 38.7229 97.2843 38.7229 97.1098V93.0546C38.7229 92.8802 38.5815 92.7387 38.4071 92.7387Z" fill="#FFB3A2"/>
<path d="M57.5008 92.7387H56.4106C56.2361 92.7387 56.0947 92.8802 56.0947 93.0546V97.1098C56.0947 97.2843 56.2361 97.4257 56.4106 97.4257H57.5008C57.6753 97.4257 57.8167 97.2843 57.8167 97.1098V93.0546C57.8167 92.8802 57.6753 92.7387 57.5008 92.7387Z" fill="#FFB3A2"/>
<path d="M40.5771 92.7387H40.353C40.1785 92.7387 40.0371 92.8802 40.0371 93.0546V97.1098C40.0371 97.2843 40.1785 97.4257 40.353 97.4257H40.5771C40.7516 97.4257 40.893 97.2843 40.893 97.1098V93.0546C40.893 92.8802 40.7516 92.7387 40.5771 92.7387Z" fill="#FFB3A2"/>
<path d="M41.8721 92.7387H41.6479C41.4734 92.7387 41.332 92.8802 41.332 93.0546V97.1098C41.332 97.2843 41.4734 97.4257 41.6479 97.4257H41.8721C42.0465 97.4257 42.1879 97.2843 42.1879 97.1098V93.0546C42.1879 92.8802 42.0465 92.7387 41.8721 92.7387Z" fill="#FFB3A2"/>
<path d="M43.1553 92.7387H42.9311C42.7566 92.7387 42.6152 92.8802 42.6152 93.0546V97.1098C42.6152 97.2843 42.7566 97.4257 42.9311 97.4257H43.1553C43.3297 97.4257 43.4711 97.2843 43.4711 97.1098V93.0546C43.4711 92.8802 43.3297 92.7387 43.1553 92.7387Z" fill="#FFB3A2"/>
<path d="M59.1816 92.7387H58.9575C58.783 92.7387 58.6416 92.8802 58.6416 93.0546V97.1098C58.6416 97.2843 58.783 97.4257 58.9575 97.4257H59.1816C59.3561 97.4257 59.4975 97.2843 59.4975 97.1098V93.0546C59.4975 92.8802 59.3561 92.7387 59.1816 92.7387Z" fill="#FFB3A2"/>
<path d="M60.9445 92.7387H60.5166V97.4257H60.9445V92.7387Z" fill="#FFB3A2"/>
<path d="M62.0451 92.7387H61.6172V97.4257H62.0451V92.7387Z" fill="#FFB3A2"/>
<path d="M63.1457 92.7387H62.7178V97.4257H63.1457V92.7387Z" fill="#FFB3A2"/>
<path d="M64.2463 92.7387H63.8184V97.4257H64.2463V92.7387Z" fill="#FFB3A2"/>
<path d="M54.6279 92.7387H54.4038C54.2293 92.7387 54.0879 92.8802 54.0879 93.0546V97.1098C54.0879 97.2843 54.2293 97.4257 54.4038 97.4257H54.6279C54.8024 97.4257 54.9438 97.2843 54.9438 97.1098V93.0546C54.9438 92.8802 54.8024 92.7387 54.6279 92.7387Z" fill="#FFB3A2"/>
<path d="M49.1357 92.7387H45.0805C44.9061 92.7387 44.7646 92.8802 44.7646 93.0546V97.1098C44.7646 97.2843 44.9061 97.4257 45.0805 97.4257H49.1357C49.3102 97.4257 49.4516 97.2843 49.4516 97.1098V93.0546C49.4516 92.8802 49.3102 92.7387 49.1357 92.7387Z" fill="#FFB3A2"/>
<path d="M66.7325 92.7387H65.52C65.3455 92.7387 65.2041 92.8802 65.2041 93.0546V97.1098C65.2041 97.2843 65.3455 97.4257 65.52 97.4257H66.7325C66.9069 97.4257 67.0483 97.2843 67.0483 97.1098V93.0546C67.0483 92.8802 66.9069 92.7387 66.7325 92.7387Z" fill="#FFB3A2"/>
<path d="M52.3046 92.7387H51.143C50.9686 92.7387 50.8271 92.8802 50.8271 93.0546V97.1098C50.8271 97.2843 50.9686 97.4257 51.143 97.4257H52.3046C52.479 97.4257 52.6204 97.2843 52.6204 97.1098V93.0546C52.6204 92.8802 52.479 92.7387 52.3046 92.7387Z" fill="#FFB3A2"/>
<path d="M48.4336 62.8237C48.7161 62.774 49.0026 62.7501 49.2895 62.7524C49.6503 62.7106 50.0136 62.8051 50.3084 63.0173C50.4087 63.088 50.4895 63.1831 50.5429 63.2936C50.5964 63.4042 50.6209 63.5265 50.614 63.649C50.6072 63.8286 50.5446 64.0015 50.4351 64.1439C50.3255 64.2863 50.1744 64.3911 50.0027 64.4438C50.2114 64.4839 50.3996 64.5953 50.5353 64.7588C50.6709 64.9224 50.7456 65.1279 50.7465 65.3404C50.7496 65.4758 50.7239 65.6102 50.6712 65.7349C50.6185 65.8596 50.54 65.9717 50.4408 66.0638C50.0828 66.3269 49.6395 66.4468 49.1978 66.4001C48.9569 66.4156 48.7152 66.4156 48.4744 66.4001L48.4336 62.8237ZM48.9023 64.3011H49.32C49.8091 64.3011 50.1046 64.0464 50.1046 63.7C50.1046 63.3536 49.7785 63.109 49.3099 63.109C49.1742 63.0979 49.0379 63.0979 48.9023 63.109V64.3011ZM48.9023 66.0333H49.2895C49.7684 66.0333 50.2167 65.8499 50.2167 65.3302C50.2167 64.8106 49.7887 64.6374 49.2895 64.6374H48.9023V66.0333Z" fill="#FFB3A2"/>
<path d="M51.7958 62.783V66.3797H51.3271V62.783H51.7958Z" fill="#FFB3A2"/>
<path d="M52.6006 62.783H53.0591V65.9925H54.6384V66.3797H52.6006V62.783Z" fill="#FFB3A2"/>
<path d="M55.1272 62.783H55.5959V65.9925H57.1345V66.3797H55.0967L55.1272 62.783Z" fill="#FFB3A2"/>
<path d="M72.4181 112.821H71.8271V96.1724C71.8298 93.2332 72.9987 90.415 75.077 88.3367C77.1554 86.2583 79.9735 85.0895 82.9128 85.0868H84.1253C84.882 85.0868 85.6076 85.3874 86.1426 85.9224C86.6777 86.4574 86.9782 87.1831 86.9782 87.9397V91.7708H86.3873V87.9499C86.3873 87.35 86.149 86.7746 85.7248 86.3504C85.3006 85.9262 84.7252 85.6879 84.1253 85.6879H82.9128C80.1303 85.6906 77.4625 86.7972 75.4949 88.7647C73.5274 90.7323 72.4208 93.4001 72.4181 96.1826V112.821Z" fill="#FC8064"/>
<path d="M77.4513 139.914H76.8604V100.411C76.8657 98.0428 77.8089 95.7731 79.4835 94.0985C81.1581 92.4238 83.4279 91.4807 85.7961 91.4753H88.3434C89.0541 91.4753 89.7357 91.7576 90.2382 92.2602C90.7408 92.7627 91.0231 93.4443 91.0231 94.155V97.7212H90.4321V94.155C90.4192 93.6186 90.2004 93.1078 89.821 92.7284C89.4416 92.349 88.9307 92.1301 88.3943 92.1172H85.8471C83.6339 92.1172 81.5114 92.9964 79.9464 94.5613C78.3814 96.1263 77.5023 98.2488 77.5023 100.462L77.4513 139.914Z" fill="#FC8064"/>
<path d="M91.0031 110.661H90.4121V146.537H91.0031V110.661Z" fill="#FC8064"/>
<path d="M82.8611 156.084H46.252V155.493H82.8611C83.7961 155.493 84.6928 155.122 85.354 154.46C86.0151 153.799 86.3866 152.903 86.3866 151.968V149.298H86.9775V151.968C86.983 152.51 86.8802 153.047 86.6753 153.549C86.4703 154.051 86.1673 154.507 85.784 154.89C85.4007 155.274 84.9447 155.577 84.4428 155.782C83.9409 155.987 83.4032 156.089 82.8611 156.084Z" fill="#FC8064"/>
<path d="M64.7663 123.958H39.3549C39.0411 123.962 38.7297 123.903 38.4391 123.785C38.1485 123.666 37.8847 123.491 37.6633 123.268C37.4419 123.046 37.2674 122.781 37.1502 122.49C37.0329 122.199 36.9753 121.887 36.9808 121.574V106.922C36.9808 106.611 37.0424 106.303 37.1619 106.016C37.2815 105.73 37.4567 105.469 37.6774 105.25C37.8981 105.032 38.16 104.859 38.4479 104.741C38.7358 104.624 39.0441 104.566 39.3549 104.568H64.8275C65.4509 104.571 66.048 104.82 66.4888 105.261C66.9296 105.701 67.1784 106.298 67.1811 106.922V121.574C67.1853 121.891 67.1255 122.205 67.0053 122.498C66.885 122.791 66.7068 123.057 66.4813 123.28C66.2558 123.503 65.9877 123.677 65.693 123.794C65.3983 123.91 65.0831 123.966 64.7663 123.958ZM39.3549 105.159C38.8874 105.159 38.439 105.345 38.1085 105.675C37.7779 106.006 37.5922 106.454 37.5922 106.922V121.574C37.5867 121.808 37.6284 122.041 37.7146 122.259C37.8009 122.477 37.93 122.676 38.0944 122.843C38.2588 123.01 38.455 123.143 38.6715 123.233C38.888 123.323 39.1204 123.368 39.3549 123.367H64.8275C65.2896 123.351 65.727 123.154 66.0453 122.819C66.3636 122.483 66.5373 122.036 66.529 121.574V106.922C66.5263 106.455 66.3398 106.008 66.0098 105.678C65.6798 105.348 65.233 105.162 64.7663 105.159H39.3549Z" fill="#FC8064"/>
<path d="M82.9126 85.0868H68.8721V85.6777H82.9126V85.0868Z" fill="#FC8064"/>
<path d="M42.5439 135.675H38.8452C38.2561 135.675 37.6912 135.441 37.2746 135.025C36.858 134.608 36.624 134.043 36.624 133.454V131.172H37.0622V133.454C37.0622 133.927 37.25 134.381 37.5844 134.715C37.9188 135.049 38.3723 135.237 38.8452 135.237H42.5439V135.675Z" fill="#FC8064"/>
<path d="M53.7411 135.675H50.0425C49.4542 135.673 48.8908 135.438 48.4748 135.022C48.0588 134.606 47.824 134.042 47.8213 133.454V131.172H48.2594V133.454C48.2621 133.926 48.4508 134.378 48.7846 134.712C49.1184 135.046 49.5704 135.235 50.0425 135.237H53.7411V135.675Z" fill="#FC8064"/>
<path d="M65.0111 135.675H61.3023C60.714 135.673 60.1506 135.438 59.7346 135.022C59.3186 134.606 59.0837 134.042 59.0811 133.454V131.172H59.5294V133.454C59.5294 133.925 59.7158 134.377 60.048 134.711C60.3802 135.045 60.8311 135.234 61.3023 135.237H65.0111V135.675Z" fill="#FC8064"/>
<path d="M42.5439 144.56H38.8453C38.5532 144.561 38.2637 144.505 37.9936 144.394C37.7235 144.283 37.4781 144.119 37.2716 143.913C37.0651 143.706 36.9015 143.461 36.7904 143.191C36.6792 142.92 36.6227 142.631 36.624 142.339V140.057H37.0622V142.339C37.0622 142.812 37.25 143.265 37.5844 143.6C37.9188 143.934 38.3724 144.122 38.8453 144.122H42.5439V144.56Z" fill="#FC8064"/>
<path d="M53.7411 144.56H50.0425C49.4534 144.56 48.8884 144.326 48.4719 143.91C48.0553 143.493 47.8213 142.928 47.8213 142.339V140.057H48.2594V142.339C48.2621 142.811 48.4508 143.263 48.7846 143.597C49.1184 143.931 49.5704 144.119 50.0425 144.122H53.7411V144.56Z" fill="#FC8064"/>
<path d="M65.0111 144.56H61.3023C60.7132 144.56 60.1482 144.326 59.7316 143.91C59.3151 143.493 59.0811 142.928 59.0811 142.339V140.057H59.5294V142.339C59.5294 142.81 59.7158 143.262 60.048 143.596C60.3802 143.93 60.8311 144.119 61.3023 144.122H65.0111V144.56Z" fill="#FC8064"/>
<path d="M186.158 173.334C185.884 173.56 185.693 173.872 185.616 174.218C185.538 174.565 185.578 174.928 185.73 175.249" stroke="#222357" stroke-width="0.509452" stroke-miterlimit="10"/>
<path d="M211.794 181.485C211.665 181.77 211.62 182.085 211.666 182.394C211.711 182.703 211.844 182.992 212.048 183.228" stroke="#222357" stroke-width="0.509452" stroke-miterlimit="10"/>
<path d="M23.8285 170.72L20.3775 167.268C19.9398 166.831 19.2301 166.831 18.7924 167.268L15.3414 170.72C14.9037 171.157 14.9037 171.867 15.3414 172.305L18.7924 175.756C19.2301 176.193 19.9398 176.193 20.3775 175.756L23.8286 172.305C24.2663 171.867 24.2662 171.157 23.8285 170.72Z" fill="#FC8064"/>
<path d="M45.8969 214.842L42.4458 211.391C42.0081 210.953 41.2985 210.953 40.8608 211.391L37.4097 214.842C36.972 215.279 36.972 215.989 37.4097 216.427L40.8608 219.878C41.2985 220.316 42.0081 220.316 42.4458 219.878L45.8969 216.427C46.3346 215.989 46.3346 215.279 45.8969 214.842Z" fill="#FC8064"/>
<path d="M33.3002 215.171L29.8492 211.72C29.4115 211.283 28.7018 211.283 28.2641 211.72L24.8131 215.171C24.3754 215.609 24.3754 216.319 24.813 216.756L28.2641 220.207C28.7018 220.645 29.4115 220.645 29.8492 220.207L33.3002 216.756C33.7379 216.319 33.7379 215.609 33.3002 215.171Z" fill="#FC8064"/>
<path d="M18.6101 194.395V198.674C18.6098 199.725 18.192 200.733 17.4486 201.476L15.2376 203.687C15.1358 203.782 15.0546 203.898 14.9991 204.026C14.9437 204.153 14.915 204.291 14.915 204.431C14.915 204.57 14.9437 204.708 14.9991 204.836C15.0546 204.964 15.1358 205.079 15.2376 205.175L18.8445 208.782C18.9397 208.882 19.0543 208.962 19.1812 209.016C19.3082 209.071 19.445 209.099 19.5832 209.099C19.7214 209.099 19.8582 209.071 19.9851 209.016C20.1121 208.962 20.2267 208.882 20.3219 208.782L23.939 205.175C24.0408 205.079 24.122 204.964 24.1774 204.836C24.2329 204.708 24.2615 204.57 24.2615 204.431C24.2615 204.291 24.2329 204.153 24.1774 204.026C24.122 203.898 24.0408 203.782 23.939 203.687L21.7178 201.476C20.9744 200.733 20.5566 199.725 20.5562 198.674V194.395C20.5567 193.876 20.6595 193.362 20.8588 192.883C21.0581 192.404 21.35 191.969 21.7178 191.603L23.939 189.382C24.0392 189.287 24.119 189.172 24.1735 189.045C24.228 188.918 24.2561 188.781 24.2561 188.643C24.2561 188.505 24.228 188.368 24.1735 188.241C24.119 188.114 24.0392 187.999 23.939 187.904L20.3219 184.297C20.2267 184.197 20.1121 184.117 19.9851 184.063C19.8582 184.008 19.7214 183.98 19.5832 183.98C19.445 183.98 19.3082 184.008 19.1812 184.063C19.0543 184.117 18.9397 184.197 18.8445 184.297L15.2376 187.904C15.1374 187.999 15.0576 188.114 15.0031 188.241C14.9486 188.368 14.9204 188.505 14.9204 188.643C14.9204 188.781 14.9486 188.918 15.0031 189.045C15.0576 189.172 15.1374 189.287 15.2376 189.382L17.4486 191.603C17.8164 191.969 18.1083 192.404 18.3076 192.883C18.5069 193.362 18.6097 193.876 18.6101 194.395Z" fill="#FC8064"/>
<path d="M223.283 40.993L219.832 37.542C219.394 37.1043 218.684 37.1043 218.247 37.542L214.795 40.993C214.358 41.4307 214.358 42.1404 214.795 42.5781L218.247 46.0291C218.684 46.4668 219.394 46.4668 219.832 46.0291L223.283 42.5781C223.72 42.1404 223.72 41.4307 223.283 40.993Z" fill="#FC8064"/>
<path d="M240.751 58.8323L237.3 55.3813C236.863 54.9436 236.153 54.9436 235.715 55.3812L232.264 58.8323C231.827 59.27 231.827 59.9797 232.264 60.4174L235.715 63.8684C236.153 64.3061 236.863 64.3061 237.3 63.8684L240.751 60.4174C241.189 59.9797 241.189 59.27 240.751 58.8323Z" fill="#FC8064"/>
<path d="M201.622 50.9328L198.171 47.4817C197.734 47.044 197.024 47.044 196.586 47.4817L193.135 50.9328C192.698 51.3705 192.698 52.0801 193.135 52.5178L196.586 55.9689C197.024 56.4066 197.734 56.4066 198.171 55.9689L201.622 52.5178C202.06 52.0801 202.06 51.3705 201.622 50.9328Z" fill="#FC8064"/>
<path d="M225.325 57.4745V61.7641C225.311 62.7953 224.898 63.7812 224.174 64.5151L221.952 66.7261C221.851 66.8214 221.769 66.9366 221.714 67.0646C221.659 67.1925 221.63 67.3305 221.63 67.4699C221.63 67.6094 221.659 67.7474 221.714 67.8753C221.769 68.0032 221.851 68.1184 221.952 68.2137L225.559 71.8207C225.655 71.9224 225.77 72.0036 225.898 72.0591C226.026 72.1146 226.164 72.1432 226.303 72.1432C226.443 72.1432 226.581 72.1146 226.708 72.0591C226.836 72.0036 226.952 71.9224 227.047 71.8207L230.654 68.2137C230.756 68.1184 230.837 68.0032 230.892 67.8753C230.948 67.7474 230.976 67.6094 230.976 67.4699C230.976 67.3305 230.948 67.1925 230.892 67.0646C230.837 66.9366 230.756 66.8214 230.654 66.7261L228.433 64.5151C227.698 63.7711 227.285 62.7687 227.281 61.7233V57.4745C227.283 56.4286 227.696 55.4255 228.433 54.6827L230.654 52.4615C230.754 52.3663 230.834 52.2517 230.888 52.1247C230.943 51.9977 230.971 51.861 230.971 51.7228C230.971 51.5846 230.943 51.4478 230.888 51.3208C230.834 51.1938 230.754 51.0793 230.654 50.9841L227.047 47.3772C226.952 47.2754 226.836 47.1942 226.708 47.1387C226.581 47.0833 226.443 47.0546 226.303 47.0546C226.164 47.0546 226.026 47.0833 225.898 47.1387C225.77 47.1942 225.655 47.2754 225.559 47.3772L221.952 50.9841C221.852 51.0793 221.772 51.1938 221.718 51.3208C221.663 51.4478 221.635 51.5846 221.635 51.7228C221.635 51.861 221.663 51.9977 221.718 52.1247C221.772 52.2517 221.852 52.3663 221.952 52.4615L224.174 54.6827C224.91 55.4255 225.324 56.4286 225.325 57.4745Z" fill="#FC8064"/>
<path d="M220.546 50.7497H216.267C215.748 50.7493 215.234 50.6465 214.755 50.4472C214.276 50.2479 213.841 49.956 213.475 49.5882L211.254 47.3772C211.159 47.277 211.044 47.1972 210.917 47.1427C210.79 47.0881 210.653 47.06 210.515 47.06C210.377 47.06 210.24 47.0881 210.113 47.1427C209.986 47.1972 209.872 47.277 209.777 47.3772L206.17 50.9841C206.069 51.0793 205.99 51.1938 205.935 51.3208C205.881 51.4478 205.853 51.5846 205.853 51.7228C205.853 51.861 205.881 51.9977 205.935 52.1247C205.99 52.2517 206.069 52.3663 206.17 52.4615L209.777 56.0786C209.872 56.1788 209.986 56.2586 210.113 56.3131C210.24 56.3676 210.377 56.3957 210.515 56.3957C210.653 56.3957 210.79 56.3676 210.917 56.3131C211.044 56.2586 211.159 56.1788 211.254 56.0786L213.475 53.8574C213.842 53.491 214.277 53.2007 214.756 53.0031C215.235 52.8055 215.749 52.7045 216.267 52.706H220.546C221.066 52.7043 221.581 52.8051 222.062 53.0027C222.543 53.2002 222.98 53.4907 223.348 53.8574L225.559 56.0786C225.655 56.1804 225.77 56.2615 225.898 56.317C226.026 56.3725 226.164 56.4011 226.303 56.4011C226.443 56.4011 226.581 56.3725 226.709 56.317C226.836 56.2615 226.952 56.1804 227.047 56.0786L230.654 52.4615C230.754 52.3663 230.834 52.2517 230.888 52.1247C230.943 51.9977 230.971 51.861 230.971 51.7228C230.971 51.5846 230.943 51.4478 230.888 51.3208C230.834 51.1938 230.754 51.0793 230.654 50.9841L227.047 47.3772C226.952 47.2754 226.836 47.1942 226.709 47.1387C226.581 47.0833 226.443 47.0546 226.303 47.0546C226.164 47.0546 226.026 47.0833 225.898 47.1387C225.77 47.1942 225.655 47.2754 225.559 47.3772L223.348 49.5882C222.605 50.3316 221.597 50.7494 220.546 50.7497Z" fill="#FC8064"/>
</svg>
