<svg width="32" height="32" viewBox="0 0 32 32" fill="none" xmlns="http://www.w3.org/2000/svg">
<path d="M10.7744 10.5H21.2244V8.3C21.2244 6.1 20.3994 5 17.9244 5H14.0744C11.5994 5 10.7744 6.1 10.7744 8.3V10.5Z" stroke="#212B36" stroke-width="1.65" stroke-miterlimit="10" stroke-linecap="round" stroke-linejoin="round"/>
<path d="M20.3996 19.3V23.7C20.3996 25.9 19.2996 27 17.0996 27H14.8996C12.6996 27 11.5996 25.9 11.5996 23.7V19.3H20.3996Z" stroke="#212B36" stroke-width="1.65" stroke-miterlimit="10" stroke-linecap="round" stroke-linejoin="round"/>
<path d="M25.8996 13.8V19.3C25.8996 21.5 24.7996 22.6 22.5996 22.6H20.3996V19.3H11.5996V22.6H9.39961C7.19961 22.6 6.09961 21.5 6.09961 19.3V13.8C6.09961 11.6 7.19961 10.5 9.39961 10.5H22.5996C24.7996 10.5 25.8996 11.6 25.8996 13.8Z" stroke="#212B36" stroke-width="1.65" stroke-miterlimit="10" stroke-linecap="round" stroke-linejoin="round"/>
<path d="M21.5 19.3H20.169H10.5" stroke="#212B36" stroke-width="1.65" stroke-miterlimit="10" stroke-linecap="round" stroke-linejoin="round"/>
<path d="M10.5 14.9H13.8" stroke="#212B36" stroke-width="1.65" stroke-miterlimit="10" stroke-linecap="round" stroke-linejoin="round"/>
</svg>
