<svg width="48" height="48" viewBox="0 0 48 48" fill="none" xmlns="http://www.w3.org/2000/svg">
<path d="M19.3 43H30.7C40.2 43 44 39.2 44 29.7V18.3C44 8.8 40.2 5 30.7 5H19.3C9.8 5 6 8.8 6 18.3V29.7C6 39.2 9.8 43 19.3 43Z" stroke="#637381" stroke-width="2.375" stroke-linecap="round" stroke-linejoin="round"/>
<path d="M31.7812 36.3475V28.9375" stroke="#637381" stroke-width="2.375" stroke-miterlimit="10" stroke-linecap="round" stroke-linejoin="round"/>
<path d="M31.7812 15.3534V11.6484" stroke="#637381" stroke-width="2.375" stroke-miterlimit="10" stroke-linecap="round" stroke-linejoin="round"/>
<path d="M31.7877 25.2335C34.5159 25.2335 36.7277 23.0218 36.7277 20.2935C36.7277 17.5652 34.5159 15.3535 31.7877 15.3535C29.0594 15.3535 26.8477 17.5652 26.8477 20.2935C26.8477 23.0218 29.0594 25.2335 31.7877 25.2335Z" stroke="#637381" stroke-width="2.375" stroke-miterlimit="10" stroke-linecap="round" stroke-linejoin="round"/>
<path d="M18.2188 36.3515V32.6465" stroke="#637381" stroke-width="2.375" stroke-miterlimit="10" stroke-linecap="round" stroke-linejoin="round"/>
<path d="M18.2188 19.0584V11.6484" stroke="#637381" stroke-width="2.375" stroke-miterlimit="10" stroke-linecap="round" stroke-linejoin="round"/>
<path d="M18.2173 32.6456C20.9456 32.6456 23.1573 30.4339 23.1573 27.7056C23.1573 24.9773 20.9456 22.7656 18.2173 22.7656C15.4891 22.7656 13.2773 24.9773 13.2773 27.7056C13.2773 30.4339 15.4891 32.6456 18.2173 32.6456Z" stroke="#637381" stroke-width="2.375" stroke-miterlimit="10" stroke-linecap="round" stroke-linejoin="round"/>
</svg>
