<svg width="48" height="48" viewBox="0 0 48 48" fill="none" xmlns="http://www.w3.org/2000/svg">
<path d="M43.3573 12.0958L24.3654 4.71117C24.1304 4.61971 23.8697 4.61971 23.6349 4.71117L4.64273 12.0958C4.25535 12.2465 4 12.6195 4 13.0351V34.9654C4 35.381 4.25523 35.754 4.64273 35.9046L23.6349 43.2893C23.7524 43.335 23.8762 43.3578 24.0001 43.3578C24.1239 43.3578 24.2479 43.335 24.3653 43.2893L43.3573 35.9046C43.7446 35.754 44 35.381 44 34.9654V13.0352C44 12.6195 43.7448 12.2465 43.3573 12.0958ZM23.9999 19.3385L20.4939 17.9753C25.8975 15.8742 31.3012 13.7732 36.7048 11.6718L40.2113 13.0352L23.9999 19.3385ZM14.0759 15.4797L30.2866 9.17617L33.924 10.5905C28.5204 12.6918 23.1168 14.7931 17.7132 16.894L14.0759 15.4797ZM12.3029 16.953L16.7051 18.6647V21.6127L15.018 20.176C14.7548 19.9518 14.3952 19.8784 14.0653 19.9808L12.3027 20.5289V16.953H12.3029ZM24.0001 6.73184L27.5056 8.09491L11.2949 14.3985L7.78875 13.0352L24.0001 6.73184ZM6.01563 14.5083L10.2871 16.1691V21.555C10.2871 21.9541 10.4787 22.3336 10.7996 22.57C11.1206 22.8063 11.5398 22.8768 11.9213 22.7583L14.1337 22.0704L16.6434 24.2077C16.8755 24.4055 17.1676 24.5083 17.4624 24.5083C17.6413 24.5083 17.8212 24.4705 17.9891 24.3929C18.4335 24.1877 18.7208 23.7386 18.7208 23.2486V19.4484L22.9923 21.1093V40.8769L6.01563 34.276V14.5083ZM25.0079 40.8769V21.1092L41.9844 14.5083V34.276L25.0079 40.8769Z" fill="#637381"/>
</svg>
