<svg width="72" height="72" viewBox="0 0 72 72" fill="none" xmlns="http://www.w3.org/2000/svg">
<rect width="72" height="72" rx="5.4" fill="white"/>
<path d="M52.5521 26.068V30.0735C52.5521 32.6886 50.897 34.3438 48.2818 34.3438H42.6211V22.7742C42.6211 20.9369 44.1273 19.4473 45.9645 19.4473C47.7687 19.4638 49.4239 20.1921 50.6156 21.3838C51.8073 22.5921 52.5521 24.2473 52.5521 26.068Z" stroke="#292D32" stroke-width="1.86207" stroke-miterlimit="10" stroke-linecap="round" stroke-linejoin="round"/>
<path d="M19.4531 27.7231V50.8955C19.4531 52.2693 21.009 53.0473 22.1014 52.2197L24.9317 50.1011C25.5938 49.6045 26.5207 49.6707 27.1166 50.2666L29.8642 53.0307C30.5097 53.6762 31.569 53.6762 32.2145 53.0307L34.9952 50.25C35.5745 49.6707 36.5014 49.6045 37.1469 50.1011L39.9773 52.2197C41.0697 53.0307 42.6255 52.2528 42.6255 50.8955V22.7576C42.6255 20.9369 44.1152 19.4473 45.9359 19.4473H27.729H26.0738C21.1083 19.4473 19.4531 22.41 19.4531 26.068V27.7231Z" stroke="#292D32" stroke-width="1.86207" stroke-miterlimit="10" stroke-linecap="round" stroke-linejoin="round"/>
<path d="M31.0352 37.6699H36.0007" stroke="#292D32" stroke-width="1.86207" stroke-linecap="round" stroke-linejoin="round"/>
<path d="M31.0352 31.0508H36.0007" stroke="#292D32" stroke-width="1.86207" stroke-linecap="round" stroke-linejoin="round"/>
<path d="M26.0625 37.6543H26.0774" stroke="#292D32" stroke-width="2.48276" stroke-linecap="round" stroke-linejoin="round"/>
<path d="M26.0625 31.0332H26.0774" stroke="#292D32" stroke-width="2.48276" stroke-linecap="round" stroke-linejoin="round"/>
</svg>
