<svg width="40" height="40" viewBox="0 0 40 40" fill="none" xmlns="http://www.w3.org/2000/svg">
<path d="M36.5521 10.068V14.0735C36.5521 16.6886 34.897 18.3438 32.2818 18.3438H26.6211V6.77416C26.6211 4.93692 28.1273 3.44727 29.9645 3.44727C31.7687 3.46382 33.4239 4.19209 34.6156 5.38381C35.8073 6.59209 36.5521 8.24727 36.5521 10.068Z" stroke="#292D32" stroke-width="1.86207" stroke-miterlimit="10" stroke-linecap="round" stroke-linejoin="round"/>
<path d="M3.45312 11.7231V34.8955C3.45312 36.2693 5.00899 37.0473 6.1014 36.2197L8.93175 34.1011C9.59381 33.6045 10.5207 33.6707 11.1166 34.2666L13.8642 37.0307C14.5097 37.6762 15.569 37.6762 16.2145 37.0307L18.9952 34.25C19.5745 33.6707 20.5014 33.6045 21.1469 34.1011L23.9773 36.2197C25.0697 37.0307 26.6255 36.2528 26.6255 34.8955V6.75761C26.6255 4.93692 28.1152 3.44727 29.9359 3.44727H11.729H10.0738C5.1083 3.44727 3.45312 6.41002 3.45312 10.068V11.7231Z" stroke="#292D32" stroke-width="1.86207" stroke-miterlimit="10" stroke-linecap="round" stroke-linejoin="round"/>
<path d="M15.0352 21.6699H20.0007" stroke="#292D32" stroke-width="1.86207" stroke-linecap="round" stroke-linejoin="round"/>
<path d="M15.0352 15.0508H20.0007" stroke="#292D32" stroke-width="1.86207" stroke-linecap="round" stroke-linejoin="round"/>
<path d="M10.0625 21.6543H10.0774" stroke="#292D32" stroke-width="2.48276" stroke-linecap="round" stroke-linejoin="round"/>
<path d="M10.0625 15.0332H10.0774" stroke="#292D32" stroke-width="2.48276" stroke-linecap="round" stroke-linejoin="round"/>
</svg>
