<svg width="187" height="186" viewBox="0 0 187 186" fill="none" xmlns="http://www.w3.org/2000/svg">
<path d="M42.1162 73.377L55.1217 172.227C55.5024 175.119 57.9669 177.281 60.8848 177.281H126.252C129.17 177.281 131.635 175.119 132.015 172.227L142.056 95.9062L145.881 66.8438H48.6495L42.1162 73.377Z" fill="#FFD2C8"/>
<path d="M87.7563 90.0938V154.031C87.7563 157.243 90.3574 159.844 93.5688 159.844C96.7803 159.844 99.3813 157.243 99.3813 154.031V90.0938C99.3813 86.8823 96.7803 84.2812 93.5688 84.2812C90.3574 84.2812 87.7563 86.8823 87.7563 90.0938Z" fill="#F2F8FF"/>
<path d="M64.5063 90.0938V154.031C64.5063 157.243 67.1074 159.844 70.3188 159.844C73.5303 159.844 76.1313 157.243 76.1313 154.031V90.0938C76.1313 86.8823 73.5303 84.2812 70.3188 84.2812C67.1074 84.2812 64.5063 86.8823 64.5063 90.0938Z" fill="#F2F8FF"/>
<path d="M111.006 90.0938V154.031C111.006 157.243 113.607 159.844 116.819 159.844C120.03 159.844 122.631 157.243 122.631 154.031V90.0938C122.631 86.8823 120.03 84.2812 116.819 84.2812C113.607 84.2812 111.006 86.8823 111.006 90.0938Z" fill="#F2F8FF"/>
<path d="M87.7563 49.4062L99.3813 55.2188H113.913L108.1 40.6875L96.4751 37.7812L87.7563 49.4062Z" fill="#FC8064"/>
<path d="M140.069 29.0625L125.538 31.9688V37.7812L128.444 49.4062L151.694 46.5L142.975 34.875L140.069 29.0625Z" fill="#FC8064"/>
<path d="M88.2556 10.799C85.9858 8.52923 82.3065 8.52923 80.0367 10.799L14.2741 76.5587C12.0043 78.8285 12.0043 82.5078 14.2741 84.7776L22.493 92.9994L96.4745 19.0179L88.2556 10.799Z" fill="#FFD2C8"/>
<path opacity="0.12" d="M132.015 172.227L133.152 163.587C95.8528 150.489 70.1208 113.998 72.4197 72.6068L72.7394 66.8438H48.6495L42.1162 73.377L55.1217 172.227C55.5024 175.119 57.9669 177.281 60.8848 177.281H126.252C129.17 177.281 131.635 175.119 132.015 172.227Z" fill="#FC8064"/>
<path opacity="0.12" d="M79.1214 26.0714L17.3433 87.8495L22.4931 92.9994L96.4746 19.0179L88.2558 10.799C85.986 8.52923 82.3067 8.52923 80.0369 10.799L79.1243 11.7116C83.0885 15.6757 83.0885 22.1043 79.1214 26.0714Z" fill="#FC8064"/>
<path opacity="0.12" d="M142.975 34.875L140.069 29.0625L134.785 30.1204L137.163 34.875L145.881 46.5L128.267 48.7029L128.444 49.4062L151.694 46.5L142.975 34.875Z" fill="#FC8064"/>
<path opacity="0.12" d="M102.287 43.5938L106.937 55.2188H113.912L108.1 40.6875L96.4749 37.7812L93.7227 41.4518L102.287 43.5938Z" fill="#FC8064"/>
<path d="M30.7149 60.1183L24.5507 53.9541C21.1504 50.5567 21.1504 45.0232 24.5507 41.6229L45.1008 21.0728C48.4982 17.6725 54.0288 17.6696 57.432 21.0728L63.5962 27.237L59.4868 31.3464L53.3226 25.1822C52.1892 24.0488 50.3437 24.0517 49.2103 25.1822L28.6602 45.7323C27.5267 46.8658 27.5267 48.7083 28.6602 49.8447L34.8243 56.0088L30.7149 60.1183Z" fill="#FFD2C8"/>
<path d="M128.444 5.8125H134.256V11.625H128.444V5.8125Z" fill="#FC8064"/>
<path d="M157.57 28.4615L154.027 23.8522C161.778 17.8944 171.723 15.5752 181.326 17.4933L180.186 23.1924C172.241 21.6085 163.996 23.5267 157.57 28.4615Z" fill="#FC8064"/>
<path d="M166.225 34.875H172.038V40.6875H166.225V34.875Z" fill="#FC8064"/>
<path d="M145.881 20.3438H140.069C140.069 12.3312 146.588 5.8125 154.6 5.8125V11.625C149.793 11.625 145.881 15.5368 145.881 20.3438Z" fill="#FC8064"/>
</svg>
